
<svg width="24px" height="20px" viewBox="0 0 24 20" version="1.1" xmlns="http://www.w3.org/2000/svg" xmlns:xlink="http://www.w3.org/1999/xlink">
    <!-- Generator: Sketch 48.2 (47327) - http://www.bohemiancoding.com/sketch -->
    <desc>Created with Sketch.</desc>
    <defs></defs>
    <g id="Floating-Action-Bar" stroke="none" stroke-width="1" fill="none" fill-rule="evenodd">
        <g id="3.0" transform="translate(-305.000000, -427.000000)">
            <g id="Share-dialog" transform="translate(185.000000, 88.000000)">
                <g id="Group-3" transform="translate(64.000000, 312.000000)">
                    <g id="item">
                        <g id="files_24" transform="translate(56.000000, 25.000000)">
                            <rect id="bound" x="0" y="0" width="24" height="24"></rect>
                            <g id="icon" transform="translate(0.000000, 2.000000)" fill="#4F5051">
                                <path d="M21.5008331,19 L2.49916694,19 C1.67244252,19 0.999666778,18.327 0.999666778,17.5 L0.999666778,8.001 L23.0003332,8.001 L23.0003332,17.5 C23.0003332,18.327 22.3275575,19 21.5008331,19 M2.49916694,1 L7.83938687,1 C8.23425525,1 8.62012662,1.16 8.90003332,1.44 L9.72775741,2.268 C10.1996001,2.74 10.8273909,3 11.4951683,3 L21.5008331,3 C22.3275575,3 23.0003332,3.673 23.0003332,4.501 L23.0003332,7.001 L0.999666778,7.001 L0.999666778,2.5 C0.999666778,1.673 1.67244252,1 2.49916694,1 M21.5008331,2 L11.4951683,2 C11.1002999,2 10.7134289,1.84 10.4345218,1.561 L9.60679773,0.733 C9.13395535,0.26 8.50616461,0 7.83938687,0 L2.49916694,0 C1.12162612,0 0,1.122 0,2.5 L0,17.5 C0,18.878 1.12162612,20 2.49916694,20 L21.5008331,20 C22.8783739,20 24,18.878 24,17.5 L24,4.501 C24,3.122 22.8783739,2 21.5008331,2" id="fill"></path>
                            </g>
                        </g>
                    </g>
                </g>
            </g>
        </g>
    </g>
</svg>