
<svg width="12px" height="12px" viewBox="0 0 12 12" version="1.1" xmlns="http://www.w3.org/2000/svg" xmlns:xlink="http://www.w3.org/1999/xlink">
    <!-- Generator: Sketch 49 (51002) - http://www.bohemiancoding.com/sketch -->
    <desc>Created with Sketch.</desc>
    <defs></defs>
    <g id="Video-Centric-" stroke="none" stroke-width="1" fill="none" fill-rule="evenodd">
        <g id="Video-Centric-5.1" transform="translate(-625.000000, -696.000000)" fill="#292929">
            <g id="App">
                <g id="video-strip" transform="translate(325.000000, 638.000000)">
                    <g id="attendee" transform="translate(294.000000, 1.000000)">
                        <g id="name-label" transform="translate(0.000000, 54.000000)">
                            <g id="pin_12" transform="translate(6.000000, 3.000000)">
                                <g id="icon">
                                    <path d="M5.3569,10.9248 C4.6339,9.9958 4.3659,8.8088 4.6209,7.6428 C4.6579,7.4768 4.6069,7.3028 4.4859,7.1828 L1.5679,4.2638 L4.2639,1.5688 L7.1829,4.4868 C7.3029,4.6068 7.4759,4.6588 7.6429,4.6208 C8.8099,4.3648 9.9969,4.6348 10.9259,5.3568 L5.3569,10.9248 Z M11.8529,11.1458 L9.1969,8.4988 L11.7549,5.9418 C11.9199,5.7758 12.0089,5.5448 11.9989,5.3118 C11.9889,5.0728 11.8779,4.8488 11.6949,4.6938 C10.5969,3.7668 9.1229,3.3648 7.7029,3.5928 L4.9709,0.8618 L4.9789,0.8538 C5.1739,0.6578 5.1739,0.3418 4.9789,0.1468 C4.7829,-0.0492 4.4669,-0.0492 4.2719,0.1468 L0.1469,4.2718 C-0.0491,4.4668 -0.0491,4.7828 0.1469,4.9788 C0.2439,5.0758 0.3719,5.1248 0.4999,5.1248 C0.6279,5.1248 0.7559,5.0758 0.8539,4.9788 L0.8609,4.9708 L3.5929,7.7028 C3.3659,9.1228 3.7679,10.5968 4.6919,11.6938 C4.8469,11.8768 5.0709,11.9878 5.3099,11.9988 C5.3219,11.9998 5.3349,11.9998 5.3469,11.9998 C5.5689,11.9998 5.7839,11.9118 5.9419,11.7538 L8.4899,9.2068 L11.1469,11.8548 C11.2449,11.9508 11.3729,11.9998 11.4999,11.9998 C11.6279,11.9998 11.7559,11.9508 11.8539,11.8528 C12.0489,11.6568 12.0479,11.3408 11.8529,11.1458 Z" id="fill"></path>
                                </g>
                            </g>
                        </g>
                    </g>
                </g>
            </g>
        </g>
    </g>
</svg>