
<svg width="20px" height="20px" viewBox="0 0 20 20" version="1.1" xmlns="http://www.w3.org/2000/svg" xmlns:xlink="http://www.w3.org/1999/xlink">
    <g stroke="none" fill="#FFFFFF" fill-rule="evenodd">
        <path d="M19.5002,16.5 C19.7752,16.5 20.0002,16.725 20.0002,17 C20.0002,17.275 19.7752,17.5 19.5002,17.5 L12.5002,17.5 C12.2252,17.5 12.0002,17.275 12.0002,17 C12.0002,16.725 12.2252,16.5 12.5002,16.5 L19.5002,16.5 Z M12.0002,14.5 C12.0002,14.225 12.2252,14 12.5002,14 L19.5002,14 C19.7752,14 20.0002,14.225 20.0002,14.5 C20.0002,14.775 19.7752,15 19.5002,15 L12.5002,15 C12.2252,15 12.0002,14.775 12.0002,14.5 Z M19.5002,19 C19.7752,19 20.0002,19.225 20.0002,19.5 C20.0002,19.775 19.7752,20 19.5002,20 L12.5002,20 C12.2252,20 12.0002,19.775 12.0002,19.5 C12.0002,19.225 12.2252,19 12.5002,19 L19.5002,19 Z M5.8242,13 C3.8692,13 2.1732,14.299 1.7002,16.158 L1.0022,18.898 L1.0942,19 L9.5002,19 C9.7762,19 10.0002,19.224 10.0002,19.5 C10.0002,19.776 9.7762,20 9.5002,20 L1.0942,20 C0.7522,20 0.4362,19.846 0.2272,19.577 C0.0222,19.313 -0.0488,18.976 0.0342,18.652 L0.7312,15.912 C1.3172,13.608 3.4112,12 5.8242,12 L6.5522,12 C4.7222,10.849 3.5002,8.816 3.5002,6.5 C3.5002,2.916 6.4162,0 10.0002,0 C13.5842,0 16.5002,2.916 16.5002,6.5 C16.5002,10.084 13.5842,13 10.0002,13 L5.8242,13 Z M4.5002,6.5 C4.5002,9.532 6.9672,12 10.0002,12 C13.0332,12 15.5002,9.532 15.5002,6.5 C15.5002,3.468 13.0332,1 10.0002,1 C6.9672,1 4.5002,3.468 4.5002,6.5 Z" ></path>
    </g>
</svg>