
<svg width="9px" height="12px" viewBox="0 0 9 12" version="1.1" xmlns="http://www.w3.org/2000/svg" xmlns:xlink="http://www.w3.org/1999/xlink">
    <!-- Generator: Sketch 48.2 (47327) - http://www.bohemiancoding.com/sketch -->
    <desc>Created with Sketch.</desc>
    <defs></defs>
    <g id="Video-Centric" stroke="none" stroke-width="1" fill="none" fill-rule="evenodd">
        <g id="icon" transform="translate(-2.000000, 0.000000)">
            <rect id="bound" x="0" y="0" width="12" height="12"></rect>
            <path d="M5.02960114,7.68764064 L8.02082114,4.70739228 L8.02082114,7.50062505 C8.02082114,8.32769397 7.34551384,8.99974998 6.51567857,8.99974998 C5.75006271,8.99974998 5.1239234,8.42570214 5.02960114,7.68764064 Z M5.010536,2.50020835 C5.010536,1.67213934 5.6858433,1.00008334 6.51567857,1.00008334 C7.34551384,1.00008334 8.02082114,1.67213934 8.02082114,2.50020835 L8.02082114,3.29227436 L5.010536,6.29252438 L5.010536,2.50020835 Z M9.02424952,7.50062505 L9.02424952,3.70730894 L10.852496,1.88415701 C11.049168,1.68914076 11.049168,1.37311443 10.852496,1.17709809 C10.6568275,0.98208184 10.3397441,0.98208184 10.1430722,1.17709809 L9.00518438,2.31219268 C8.9068484,1.02008501 7.83619032,0 6.51567857,0 C5.12994398,0 4.00710762,1.11909326 4.00710762,2.50020835 L4.00710762,7.29260772 L2.1467514,9.14676223 C1.95108287,9.34177848 1.95108287,9.6588049 2.1467514,9.85382115 C2.24508738,9.95182932 2.37352621,10.0008334 2.50196505,10.0008334 C2.63040388,10.0008334 2.75884271,9.95182932 2.85617527,9.85382115 L4.21682415,8.49770814 C4.53992809,9.23376948 5.20419768,9.78581548 6.01296095,9.94982915 L6.01296095,11.0009167 L4.50882181,11.0009167 C4.23187557,11.0009167 4.00710762,11.2239353 4.00710762,11.5009584 C4.00710762,11.7769814 4.23187557,12 4.50882181,12 L8.52253533,12 C8.80048499,12 9.02424952,11.7769814 9.02424952,11.5009584 C9.02424952,11.2239353 8.80048499,11.0009167 8.52253533,11.0009167 L7.01638933,11.0009167 L7.01638933,9.94982915 C8.16230454,9.7188099 9.02424952,8.70872573 9.02424952,7.50062505 Z" id="fill" fill="#F5483F"></path>
        </g>
    </g>
</svg>