
<svg width="12px" height="10px" viewBox="0 0 12 10" version="1.1" xmlns="http://www.w3.org/2000/svg" xmlns:xlink="http://www.w3.org/1999/xlink">
    <g id="V2-flow" stroke="none" stroke-width="1" fill="none" fill-rule="evenodd">
        <g id="AV-main-flows" transform="translate(-587.000000, -694.000000)">
            <g id="Group-2" transform="translate(329.000000, 681.000000)" fill="#000000">
                <g id="video" transform="translate(246.000000, 0.000000)">
                    <g id="video/camera-muted_12" transform="translate(12.000000, 12.000000)">
                        <g id="camera-muted_12" transform="translate(0.000000, 1.000000)">
                            <path d="M11.0004165,6.775 L9.23115369,5.004 L11.0004165,3.236 L11.0004165,6.775 Z M7.4968763,8 L2.70587255,8 L7.99666805,2.707 L7.99666805,7.5 C7.99666805,7.775 7.77276135,8 7.4968763,8 L7.4968763,8 Z M1.99916701,2.5 C1.99916701,2.224 2.2240733,2 2.49895877,2 L7.28996252,2 L1.99916701,7.293 L1.99916701,2.5 Z M11.4852145,2.064 C11.1723449,1.934 10.8164931,2.005 10.5775927,2.245 L8.99625156,3.827 L8.99625156,2.5 C8.99625156,2.269 8.9392753,2.053 8.84631404,1.858 L9.84989588,0.854 C10.0448147,0.658 10.0448147,0.342 9.84989588,0.147 C9.65397751,-0.049 9.33810912,-0.049 9.14319034,0.147 L8.1396085,1.15 C7.94369013,1.057 7.72778009,1 7.4968763,1 L2.49895877,1 C1.67230321,1 0.999583507,1.672 0.999583507,2.5 L0.999583507,5 L0.999583507,7.5 C0.999583507,7.731 1.05655977,7.947 1.15052062,8.143 L0.146938776,9.147 C-0.0489795918,9.342 -0.0489795918,9.658 0.146938776,9.854 C0.243898376,9.951 0.371845065,10 0.499791753,10 C0.627738442,10 0.755685131,9.951 0.853644315,9.854 L1.85722616,8.85 C2.05214494,8.943 2.26805498,9 2.49895877,9 L7.4968763,9 C8.32353186,9 8.99625156,8.327 8.99625156,7.5 L8.99625156,6.183 L10.5775927,7.766 C10.7365264,7.926 10.9494377,8.01 11.1653478,8.01 C11.2723032,8.01 11.3822574,7.99 11.4852145,7.947 C11.7980841,7.817 12,7.515 12,7.176 L12,2.834 C12,2.496 11.7980841,2.193 11.4852145,2.064 L11.4852145,2.064 Z" id="fill"></path>
                        </g>
                    </g>
                </g>
            </g>
        </g>
    </g>
</svg>