
<svg width="16px" height="16px" viewBox="0 0 16 16" version="1.1" xmlns="http://www.w3.org/2000/svg" xmlns:xlink="http://www.w3.org/1999/xlink">
    <g id="Page-1" stroke="none" stroke-width="1" fill="none" fill-rule="evenodd">
        <g id="Audio-Flow-1.1" transform="translate(-823.000000, -587.000000)">
            <g id="dialog" transform="translate(585.000000, 571.000000)">
                <g id="control" transform="translate(238.000000, 16.000000)">
                    <path d="M8,16 C12.418278,16 16,12.418278 16,8 C16,3.581722 12.418278,0 8,0 C3.581722,0 0,3.581722 0,8 C0,12.418278 3.581722,16 8,16 Z" id="bg" fill="#049FD9"></path>
                    <path d="M11.1465,5.64625 L7.0005,9.79225 L4.8535,7.64625 C4.6585,7.45125 4.3415,7.45125 4.1465,7.64625 C3.9515,7.84125 3.9515,8.15825 4.1465,8.35325 L6.6465,10.85325 C6.7445,10.95125 6.8725,11.00025 7.0005,11.00025 C7.1275,11.00025 7.2555,10.95125 7.3535,10.85325 L11.8535,6.35325 C12.0485,6.15825 12.0485,5.84125 11.8535,5.64625 C11.6585,5.45125 11.3415,5.45125 11.1465,5.64625" id="Fill-3" fill="#FFFFFF"></path>
                </g>
            </g>
        </g>
    </g>
</svg>