
<svg width="9px" height="10px" viewBox="0 0 9 10" version="1.1" xmlns="http://www.w3.org/2000/svg" xmlns:xlink="http://www.w3.org/1999/xlink">
    <!-- Generator: Sketch 49 (51002) - http://www.bohemiancoding.com/sketch -->
    <desc>Created with Sketch.</desc>
    <defs></defs>
    <g id="Symbols" stroke="none" stroke-width="1" fill="none" fill-rule="evenodd">
        <g id="menu-bar" transform="translate(-1258.000000, -10.000000)" fill="#292929">
            <g id="private_12">
                <g transform="translate(1258.000000, 10.000000)">
                    <g id="icon">
                        <path d="M6.4996,4.00002 C5.6726,4.00002 4.9996,3.32702 4.9996,2.50002 C4.9996,1.67302 5.6726,1.00002 6.4996,1.00002 C7.3266,1.00002 7.9996,1.67302 7.9996,2.50002 C7.9996,3.32702 7.3266,4.00002 6.4996,4.00002 Z M1.4816,8.79802 L1.2126,8.54002 L1.5166,8.23302 L1.7856,8.49802 L1.4816,8.79802 Z M6.4996,2e-05 C5.1196,2e-05 3.9996,1.11902 3.9996,2.50002 C3.9996,3.01002 4.1546,3.48302 4.4166,3.87802 L0.1446,8.19802 C0.0506,8.29402 -0.0014,8.42302 -0.0004,8.55702 C0.0016,8.69002 0.0576,8.81802 0.1546,8.91102 L1.1416,9.85602 C1.2386,9.94902 1.3626,9.99502 1.4876,9.99502 C1.6146,9.99502 1.7416,9.94702 1.8386,9.85102 L2.8486,8.85302 C2.9436,8.75902 2.9976,8.63002 2.9976,8.49602 C2.9976,8.36202 2.9426,8.23402 2.8476,8.14102 L2.2196,7.52202 L5.1246,4.58502 C5.5196,4.84602 5.9916,5.00002 6.4996,5.00002 C7.8806,5.00002 8.9996,3.88102 8.9996,2.50002 C8.9996,1.11902 7.8806,2e-05 6.4996,2e-05 Z" id="fill"></path>
                    </g>
                </g>
            </g>
        </g>
    </g>
</svg>