
<svg width="8px" height="10px" viewBox="0 0 8 10" version="1.1" xmlns="http://www.w3.org/2000/svg" xmlns:xlink="http://www.w3.org/1999/xlink">
    <!-- Generator: Sketch 48.2 (47327) - http://www.bohemiancoding.com/sketch -->
    <desc>Created with Sketch.</desc>
    <defs></defs>
    <g id="Video-Centric" stroke="none" stroke-width="1" fill="none" fill-rule="evenodd">
        <g id="2.1" transform="translate(-554.000000, -635.000000)">
            <g id="App" transform="translate(171.000000, 44.000000)">
                <g id="video-area" transform="translate(1.000000, 61.000000)">
                    <g id="video-strip" transform="translate(73.000000, 500.000000)">
                        <g id="attendee" transform="translate(279.000000, 1.000000)">
                            <g id="hover-control">
                                <g id="button" transform="translate(24.000000, 24.000000)">
                                    <g id="mute_10" transform="translate(5.000000, 5.000000)">
                                        <rect id="bound" x="0" y="0" width="10" height="10"></rect>
                                        <g id="icon" transform="translate(2.000000, 1.000000)" stroke="#F5483F">
                                            <path d="M5.94285714,0.457142857 L0,6.4" id="Stroke-1" stroke-linecap="round" stroke-linejoin="round"></path>
                                            <path d="M3,7 L3,8" id="Stroke-3" stroke-linecap="round" stroke-linejoin="round"></path>
                                            <path d="M2,8 L4,8" id="Stroke-5" stroke-linecap="round" stroke-linejoin="round"></path>
                                            <path d="M2.97142857,6.62857143 C2.08777143,6.62857143 1.37142857,5.91222857 1.37142857,5.02857143 L1.37142857,1.6 C1.37142857,0.716342857 2.08777143,0 2.97142857,0 C3.85508571,0 4.57142857,0.716342857 4.57142857,1.6 L4.57142857,5.02857143 C4.57142857,5.91222857 3.85508571,6.62857143 2.97142857,6.62857143 Z" id="Stroke-7"></path>
                                        </g>
                                    </g>
                                </g>
                            </g>
                        </g>
                    </g>
                </g>
            </g>
        </g>
    </g>
</svg>