<svg width="8px" height="8px" viewBox="0 0 8 8" version="1.1" xmlns="http://www.w3.org/2000/svg" xmlns:xlink="http://www.w3.org/1999/xlink">
    <!-- Generator: Sketch 48.2 (47327) - http://www.bohemiancoding.com/sketch -->
    <desc>Created with Sketch.</desc>
    <defs></defs>
    <g id="Video-Centric" stroke="none" stroke-width="1" fill="none" fill-rule="evenodd">
        <g id="2.1" transform="translate(-1168.000000, -115.000000)" fill="#292929">
            <g id="App" transform="translate(171.000000, 44.000000)">
                <g id="right-panel" transform="translate(703.000000, 61.000000)">
                    <g id="plist">
                        <g id="header">
                            <g id="cancel_12" transform="translate(292.000000, 8.000000)">
                                <g id="icon" transform="translate(2.000000, 2.000000)">
                                    <path d="M4.707,4 L7.853,0.854 C8.049,0.658 8.049,0.342 7.853,0.146 C7.658,-0.049 7.342,-0.049 7.146,0.146 L4,3.293 L0.853,0.146 C0.658,-0.049 0.342,-0.049 0.146,0.146 C-0.049,0.342 -0.049,0.658 0.146,0.854 L3.293,4 L0.146,7.146 C-0.049,7.342 -0.049,7.658 0.146,7.854 C0.244,7.951 0.372,8 0.5,8 C0.628,8 0.756,7.951 0.853,7.854 L4,4.707 L7.146,7.854 C7.244,7.951 7.372,8 7.5,8 C7.628,8 7.756,7.951 7.853,7.854 C8.049,7.658 8.049,7.342 7.853,7.146 L4.707,4 Z" id="fill"></path>
                                </g>
                            </g>
                        </g>
                    </g>
                </g>
            </g>
        </g>
    </g>
</svg>