
<svg width="7px" height="16px" viewBox="0 0 7 16" version="1.1" xmlns="http://www.w3.org/2000/svg" xmlns:xlink="http://www.w3.org/1999/xlink">
    <g id="In-Meeting-Layout" stroke="none" stroke-width="1" fill="none" fill-rule="evenodd">
        <g id="AV-dialog-2.0" transform="translate(-422.000000, -266.000000)">
            <g id="One-Click-Dialog" transform="translate(377.000000, 69.000000)">
                <g id="audio-section" transform="translate(40.000000, 56.000000)">
                    <g id="call-in-info" transform="translate(0.000000, 85.000000)">
                        <g id="info">
                            <g id="microphone_16" transform="translate(0.000000, 56.000000)">
                                <rect id="bound" x="0" y="0" width="16" height="16"></rect>
                                <g id="icon" transform="translate(5.000000, 0.000000)" fill="#292929">
                                    <path d="M4,13.9645556 L4,15 L5.5,15 C5.77614237,15 6,15.2238576 6,15.5 C6,15.7761424 5.77614237,16 5.5,16 L1.5,16 C1.22385763,16 1,15.7761424 1,15.5 C1,15.2238576 1.22385763,15 1.5,15 L3,15 L3,13.9645556 C1.30385293,13.7219407 1.78200225e-15,12.263236 0,10.5 L3.99680289e-15,3.5 C3.76007908e-15,1.56700338 1.56700338,3.55085719e-16 3.5,0 C5.43299662,-3.55085719e-16 7,1.56700338 7,3.5 L7,10.5 C7,12.263236 5.69614707,13.7219407 4,13.9645556 Z M1,3.5 L1,10.5 C1,11.8807119 2.11928813,13 3.5,13 C4.88071187,13 6,11.8807119 6,10.5 L6,3.5 C6,2.11928813 4.88071187,1 3.5,1 C2.11928813,1 1,2.11928813 1,3.5 Z" id="fill"></path>
                                </g>
                            </g>
                        </g>
                    </g>
                </g>
            </g>
        </g>
    </g>
</svg>