<?xml version="1.0" encoding="UTF-8"?>
<svg width="52px" height="52px" viewBox="0 0 52 52" version="1.1" xmlns="http://www.w3.org/2000/svg" xmlns:xlink="http://www.w3.org/1999/xlink">
    <!-- Generator: Sketch 54.1 (76490) - https://sketchapp.com -->
    <title>Slice</title>
    <desc>Created with Sketch.</desc>
    <g id="Page-1" stroke="none" stroke-width="1" fill="none" fill-rule="evenodd">
        <g id="Group-2" fill="#F5483F">
            <g id="Group" transform="translate(0.500000, 0.500000)">
                <g id="btn/call-control/default" fill-opacity="0.15" stroke="#F5483F">
                    <circle id="circle" cx="25.5" cy="25.5" r="25.5"></circle>
                </g>
                <g id="microphone-muted_20_w" transform="translate(16.000000, 15.000000)">
                    <path d="M12.51525,12.51525 C12.51525,14.44525 10.94525,16.01525 9.01525,16.01525 C7.14925,16.01525 5.63425,14.54425 5.53425,12.70325 L12.51525,5.72225 L12.51525,12.51525 Z M5.51525,4.51525 C5.51525,2.58525 7.08525,1.01525 9.01525,1.01525 C10.88125,1.01525 12.39625,2.48625 12.49625,4.32725 L5.51525,11.30825 L5.51525,4.51525 Z M17.38425,0.14625 C17.18925,-0.04875 16.87225,-0.04875 16.67725,0.14625 L13.37425,3.44925 C12.89325,1.48125 11.13125,0.01525 9.01525,0.01525 C6.53025,0.01525 4.51525,2.03025 4.51525,4.51525 L4.51525,12.30825 L0.64625,16.17725 C0.45125,16.37225 0.45125,16.68825 0.64625,16.88425 C0.74425,16.98125 0.87225,17.03025 1.00025,17.03025 C1.12825,17.03025 1.25625,16.98125 1.35325,16.88425 L4.65825,13.57925 C5.10225,15.38425 6.62825,16.75425 8.51825,16.96525 C8.51825,16.96925 8.51725,17.65225 8.51525,19.01525 L6.51525,19.01525 C6.24025,19.01525 6.01525,19.23925 6.01525,19.51525 C6.01525,19.79125 6.24025,20.01525 6.51525,20.01525 L11.51525,20.01525 C11.79125,20.01525 12.01525,19.79125 12.01525,19.51525 C12.01525,19.23925 11.79125,19.01525 11.51525,19.01525 L9.51525,19.01525 L9.51525,16.98225 C11.76025,16.71425 13.51525,14.83025 13.51525,12.51525 L13.51525,4.72225 L17.38425,0.85325 C17.57925,0.65825 17.57925,0.34125 17.38425,0.14625 L17.38425,0.14625 Z" id="fill"></path>
                </g>
            </g>
        </g>
    </g>
</svg>