
<svg xmlns="http://www.w3.org/2000/svg" version="1.1" xmlns:xlink="http://www.w3.org/1999/xlink" preserveAspectRatio="none" x="0px" y="0px" width="26px" height="26px" viewBox="0 0 26 26">
<defs>
<g id="Layer1_0_FILL">
<path fill="#292929" stroke="none" d="
M 21.05 2.4
Q 23.55 0.05 25.8 0
L 0 0
Q 2.15 0.05 4.8 2.4 6.4 3.9 8.8 6.95 10.5 9.1 11.4 10 12.2 10.7 12.4 10.8 12.7 11 12.9 11 13.15 11 13.45 10.8 13.85 10.6 14.45 9.95 15.3 9.15 17.05 6.95 19.75 3.6 21.05 2.4 Z"/>

<path fill="#262626" stroke="none" d="
M 26 2
L 26 1 25.95 1
Q 24 1.05 21.75 3.15 20.45 4.3 17.85 7.6 16.05 9.8 15.2 10.65 15.15 10.65 15.15 10.7 14.45 11.4 14 11.65 13.4 12.05 12.9 12 12.45 12.05 11.85 11.65 11.55 11.45 10.75 10.75 10.75 10.7 10.7 10.7 9.75 9.8 8.05 7.6 5.7 4.6 4.15 3.15 1.85 1.1 0 1
L 0 2
Q 1.45 2.05 3.45 3.9 4.75 5.1 7.25 8.2 9.5 10.95 10 11.4 10.55 12 11.35 12.5 12.1 13 12.9 13 13.75 13 14.5 12.5 14.95 12.2 15.85 11.4 16.45 10.8 18.6 8.2 20.95 5.3 22.4 3.9 24.45 2 25.95 2
L 26 2 Z"/>

<path fill="#3B3B3B" stroke="none" d="
M 26 0
L 25.8 0
Q 23.55 0.05 21.05 2.4 19.75 3.6 17.05 6.95 15.3 9.15 14.45 9.95 13.85 10.6 13.45 10.8 13.15 11 12.9 11 12.7 11 12.4 10.8 12.2 10.7 11.4 10 10.5 9.1 8.8 6.95 6.4 3.9 4.8 2.4 2.15 0.05 0 0
L 0 1
Q 1.85 1.1 4.15 3.15 5.7 4.6 8.05 7.6 9.75 9.8 10.7 10.7 10.75 10.7 10.75 10.75 11.55 11.45 11.85 11.65 12.45 12.05 12.9 12 13.4 12.05 14 11.65 14.45 11.4 15.15 10.7 15.15 10.65 15.2 10.65 16.05 9.8 17.85 7.6 20.45 4.3 21.75 3.15 24 1.05 25.95 1
L 26 1 26 0 Z"/>
</g>
</defs>

<g transform="matrix( 1, 0, 0, 1, 0,0) ">
<use xlink:href="#Layer1_0_FILL"/>
</g>
</svg>
