<svg width="16" height="16" viewBox="0 0 16 16" fill="none" xmlns="http://www.w3.org/2000/svg">
<style>
path {
  fill: #000;
}
@media (prefers-color-scheme: dark) {
  path {
      fill: #fff;
  }
}
</style>
<path d="M13.65 2.35V2.3C12.05 0.77 10.17 0 8 0C5.77 0 3.87 0.77 2.3 2.3C0.77 3.9 0 5.8 0 8C0 10.13 0.77 12 2.3 13.6L2.35 13.65C3.92 15.18 5.8 15.95 8 15.95C10.2 15.95 12.08 15.17 13.65 13.6C15.22 12.03 16 10.17 16 8C16 5.77 15.22 3.88 13.65 2.35ZM12.95 2.95L13 3C14.37 4.33 15.05 6 15.05 8C15.05 9.93 14.35 11.58 12.95 12.95C11.62 14.32 9.97 15 8 15C6.03 15 4.37 14.33 3 13L2.95 12.95C2.78 12.78 2.7 12.57 2.7 12.3C2.7 12.1 2.78 11.92 2.95 11.75V11.7C3.15 11.53 3.37 11.45 3.6 11.45C3.8 11.45 3.95 11.5 4.05 11.6C4.08 11.6 4.12 11.62 4.15 11.65L4.25 11.75C5.25 12.75 6.5 13.25 8 13.25C9.43 13.25 10.67 12.73 11.7 11.7C12.73 10.67 13.25 9.43 13.25 8C13.25 6.5 12.75 5.25 11.75 4.25L11.7 4.2C11.53 4.07 11.45 3.87 11.45 3.6C11.45 3.37 11.53 3.15 11.7 2.95H11.75C11.92 2.78 12.1 2.7 12.3 2.7C12.57 2.7 12.78 2.78 12.95 2.95ZM11.05 2.3V2.35C10.75 2.62 10.58 2.93 10.55 3.3C9.78 2.87 8.93 2.65 8 2.65C6.5 2.65 5.23 3.17 4.2 4.2C3.17 5.23 2.65 6.5 2.65 8C2.65 8.93 2.87 9.78 3.3 10.55C2.93 10.58 2.62 10.75 2.35 11.05H2.3C2.13 11.18 2 11.37 1.9 11.6C1.23 10.5 0.9 9.3 0.9 8C0.9 6.03 1.58 4.35 2.95 2.95C4.32 1.58 6 0.9 8 0.9C9.33 0.9 10.55 1.23 11.65 1.9C11.38 1.97 11.18 2.1 11.05 2.3ZM10.75 4.65C10.75 5.05 10.72 5.48 10.65 5.95C10.48 7.15 9.95 8.18 9.05 9.05C8.18 9.95 7.15 10.48 5.95 10.65C5.48 10.72 5.05 10.75 4.65 10.75C3.95 9.98 3.6 9.07 3.6 8C3.6 6.77 4.02 5.72 4.85 4.85C5.72 4.02 6.77 3.6 8 3.6C9.07 3.6 9.98 3.95 10.75 4.65ZM11.6 6.1C11.63 5.93 11.67 5.78 11.7 5.65C12.1 6.32 12.3 7.1 12.3 8C12.3 9.17 11.88 10.18 11.05 11.05C10.18 11.88 9.17 12.3 8 12.3C7.1 12.3 6.32 12.1 5.65 11.7C5.78 11.67 5.93 11.63 6.1 11.6C7.5 11.33 8.7 10.7 9.7 9.7C10.73 8.7 11.37 7.5 11.6 6.1Z" fill="black"/>
</svg>
