
<svg width="10px" height="10px" viewBox="0 0 10 10" version="1.1" xmlns="http://www.w3.org/2000/svg" xmlns:xlink="http://www.w3.org/1999/xlink">
    <!-- Generator: Sketch 48.2 (47327) - http://www.bohemiancoding.com/sketch -->
    <desc>Created with Sketch.</desc>
    <defs></defs>
    <g id="Video-Centric" stroke="none" stroke-width="1" fill="none" fill-rule="evenodd">
        <g id="2.1" transform="translate(-605.000000, -635.000000)">
            <g id="App" transform="translate(171.000000, 44.000000)">
                <g id="video-area" transform="translate(1.000000, 61.000000)">
                    <g id="video-strip" transform="translate(73.000000, 500.000000)">
                        <g id="attendee" transform="translate(279.000000, 1.000000)">
                            <g id="hover-control">
                                <g id="button" transform="translate(76.000000, 24.000000)">
                                    <g id="lock_12" transform="translate(5.000000, 5.000000)">
                                        <rect id="bound" x="0" y="0" width="10" height="10"></rect>
                                        <g id="icon" transform="translate(1.000000, 1.000000)" stroke="#4F5051">
                                            <path d="M0,8 L2.30325,5.69675" id="Stroke-1" stroke-linecap="round"></path>
                                            <path d="M7.7489,1.463125 C8.08365,1.797875 8.08365,2.340625 7.7489,2.675625 L6.6669,3.757375 C6.4049,4.019625 6.23465,4.359875 6.18215,4.727125 L5.93965,6.424125 C5.88715,6.791125 5.71715,7.131625 5.4549,7.393875 L4.9324,7.916125 C4.8209,8.027875 4.6399,8.027875 4.5284,7.916125 L0.08365,3.471625 C-0.02785,3.360125 -0.02785,3.179125 0.08365,3.067625 L0.60615,2.545125 C0.8684,2.282875 1.20865,2.112875 1.5759,2.060375 L3.2729,1.817875 C3.64015,1.765375 3.9804,1.595125 4.24265,1.332875 L5.32465,0.250875 C5.6594,-0.083625 6.20215,-0.083625 6.53665,0.250875 L7.7489,1.463125 Z" id="Stroke-3"></path>
                                        </g>
                                    </g>
                                </g>
                            </g>
                        </g>
                    </g>
                </g>
            </g>
        </g>
    </g>
</svg>