<svg width="10" height="12" viewBox="0 0 10 12" fill="none" xmlns="http://www.w3.org/2000/svg">
<path d="M7.96631 9.52228H7.7966V8.46646C7.7966 6.26643 5.92421 5.22851 4.91829 4.67089C4.85438 4.63547 4.81523 4.56881 4.8161 4.49678C4.81621 4.48756 4.81626 4.47834 4.81626 4.46912C4.81626 4.05311 4.70132 3.64404 4.48829 3.28964C4.59289 3.17747 4.66186 3.07593 4.78597 2.81931C5.32993 1.69471 4.90002 0.394424 4.88147 0.339633L4.76638 0L4.4287 0.120634C4.37424 0.140105 3.08795 0.610319 2.54404 1.7349C2.44041 1.94912 2.40833 2.06731 2.39497 2.18442C1.83764 2.21602 1.25909 2.44633 0.803758 2.81856C0.286255 3.24157 0.000801633 3.78558 2.10975e-06 4.3503C-0.00119718 5.18891 0.509158 5.55831 0.881806 5.82803C0.990776 5.9069 1.0937 5.9814 1.17152 6.05745C1.31392 6.19657 1.3555 6.41589 1.27496 6.60326C1.0933 7.02609 1.00117 7.4755 1.00117 7.93896C1.00117 8.6013 1.12721 9.14998 1.39193 9.61834C0.865322 9.74868 0.473814 10.2252 0.473814 10.7915C0.473814 11.4579 1.01594 12 1.68227 12H7.96631C8.64944 12 9.2052 11.4443 9.2052 10.7611C9.2052 10.078 8.64944 9.52228 7.96631 9.52228V9.52228ZM1.68225 11.2945C1.40491 11.2945 1.17925 11.0689 1.17925 10.7915C1.17925 10.5142 1.40491 10.2885 1.68225 10.2885H3.53067L3.46121 9.8771C3.44327 9.77098 3.43537 9.66245 3.43767 9.55454C3.44348 9.28219 3.51254 9.02281 3.64291 8.78359L3.02349 8.446C2.84118 8.78053 2.74053 9.15864 2.73237 9.53951C2.73207 9.55402 2.73188 9.56856 2.73186 9.58309H2.22298C1.86719 9.15739 1.70663 8.6409 1.70663 7.93896C1.70663 7.57179 1.77948 7.21612 1.92314 6.88178C2.11801 6.42836 2.01407 5.89427 1.66454 5.55281C1.54948 5.44043 1.42036 5.34695 1.29549 5.25656C0.965474 5.01769 0.704829 4.829 0.705488 4.35129C0.706593 3.57236 1.64554 2.92499 2.45252 2.88781C2.52544 2.88452 2.60158 2.88644 2.67866 2.89371L2.99965 2.924L3.05856 2.60701C3.0828 2.47662 3.08769 2.38949 3.09129 2.32586C3.09599 2.2417 3.09776 2.21024 3.17912 2.04205C3.44014 1.50238 3.95435 1.1467 4.30419 0.955548C4.37156 1.34865 4.41194 1.97245 4.15092 2.51208C4.03959 2.74222 4.01678 2.76513 3.92087 2.86147C3.88235 2.90015 3.83442 2.94827 3.77286 3.01585L3.56889 3.23967L3.75927 3.47518C3.98922 3.75969 4.1108 4.10339 4.1108 4.46908L4.11068 4.48836C4.10668 4.82012 4.2851 5.12647 4.57626 5.28786C5.51685 5.80927 7.09114 6.68195 7.09114 8.46641V10.919C7.09114 11.126 6.92268 11.2945 6.7156 11.2945H1.68225V11.2945ZM7.96631 11.2945H7.72923C7.77273 11.1775 7.7966 11.051 7.7966 10.919V10.2277H7.96631C8.26044 10.2277 8.49974 10.467 8.49974 10.7611C8.49974 11.0552 8.26044 11.2945 7.96631 11.2945V11.2945Z" fill="#D97F00"/>
<path d="M2.32268 3.74219C2.06115 3.74219 1.81059 3.97215 1.82269 4.24219C1.83482 4.51309 2.04239 4.74219 2.32268 4.74219C2.58421 4.74219 2.83478 4.51222 2.82268 4.24219C2.81055 3.97125 2.60298 3.74219 2.32268 3.74219Z" fill="#D97F00"/>
</svg>
