<svg width="12" height="11" viewBox="0 0 12 11" fill="none" xmlns="http://www.w3.org/2000/svg">
<path d="M1.28906 5.39062H1.92188L2.10938 5.25C2.43225 5.00784 2.625 4.62234 2.625 4.21875C2.625 1.89253 4.51753 0 6.84375 0C9.16997 0 11.0625 1.89253 11.0625 4.21875C11.0625 4.62234 11.2552 5.00784 11.5781 5.25002L11.8594 5.46098C11.9359 5.51834 11.9857 5.60438 11.9974 5.69927C12.009 5.79417 11.9816 5.8897 11.9213 5.96391C11.7978 6.11585 11.6656 6.26105 11.526 6.39893C11.8337 6.81813 12 7.32258 12 7.85156V9.49219C12 10.0737 11.5269 10.5469 10.9453 10.5469H9.07031C8.87616 10.5469 8.71875 10.3895 8.71875 10.1953C8.71875 10.0012 8.87616 9.84375 9.07031 9.84375H9.42188V9.375H5.4375V9.49219C5.4375 10.0737 4.96437 10.5469 4.38281 10.5469H2.50781C2.31366 10.5469 2.15625 10.3895 2.15625 10.1953C2.15625 10.0012 2.31366 9.84375 2.50781 9.84375H2.85938V8.90625H1.75781C0.788555 8.90625 0 8.1177 0 7.14844V6.67969C0 5.9689 0.578273 5.39062 1.28906 5.39062ZM9.77344 2.60701C9.27344 1.60701 7.84375 0.773438 6.84375 0.773438C5.84375 0.773438 4.63723 1.42434 3.86616 2.60701C3.13151 3.73382 3.31514 5.38498 3 5.77344C3 6.26785 4.13226 7.07144 6.84375 7.05342C9.21224 7.03767 10.1414 6.62625 10.7693 5.96391C10.4135 5.68901 10.2734 3.60701 9.77344 2.60701ZM0.703125 7.14844C0.703125 7.72999 1.17626 8.20312 1.75781 8.20312H3.21094C3.40509 8.20312 3.5625 8.36053 3.5625 8.55469V9.84375H4.38281C4.57666 9.84375 4.73438 9.68604 4.73438 9.49219V9.02344C4.73438 8.82928 4.89178 8.67188 5.08594 8.67188H9.77344C9.96759 8.67188 10.125 8.82928 10.125 9.02344V9.84375H10.9453C11.1392 9.84375 11.2969 9.68604 11.2969 9.49219V7.85156C11.2969 7.49355 11.1898 7.15153 10.9916 6.86187C10.6954 7.08708 10.3766 7.28255 10.0416 7.44197C9.31755 7.78659 8.51102 7.96875 7.70916 7.96875H5.97834C5.17648 7.96875 4.36992 7.78659 3.64589 7.44197C2.97293 7.12165 2.36412 6.65735 1.87552 6.09375H1.28906C0.965977 6.09375 0.703125 6.3566 0.703125 6.67969V7.14844Z" fill="#999923"/>
</svg>
