<svg width="31" height="34" viewBox="0 0 31 34" fill="none" xmlns="http://www.w3.org/2000/svg">
<path opacity="0.8" d="M6.66915 6.33487C4.7761 6.32686 3 7.82887 3 9.99894V20.6693C3 26.9877 7.23543 32.3288 14.0043 32.33C17.2088 32.3447 19.5153 31.5174 21.4125 30.0185C23.259 28.5596 24.6582 26.5044 26.1323 24.2378C27.6187 21.9521 28.5602 20.1684 28.8766 18.7458C29.0394 18.0138 29.0529 17.3104 28.8365 16.658C28.6159 15.9933 28.19 15.4816 27.65 15.0849C26.591 14.3071 25.4571 14.1292 24.3507 14.5724C23.6032 14.8719 22.9378 15.4287 22.3387 16.108L22.3389 5.99757C22.3389 4.77919 21.8267 3.83702 21.0863 3.21594C20.3725 2.61716 19.4746 2.3371 18.6749 2.33421C18.2635 2.33272 17.9146 2.37573 17.6196 2.44804C17.39 2.12684 17.1145 1.84688 16.7879 1.61948C16.1687 1.18843 15.4428 1 14.6667 1C13.8909 1 13.1651 1.18819 12.5469 1.62022C12.2158 1.85166 11.9381 2.13735 11.7081 2.46529C11.3972 2.37701 11.0575 2.32997 10.6667 2.32997C10.1986 2.32997 9.33261 2.47442 8.55174 2.98993C7.71092 3.54503 7.00814 4.5126 7.00812 5.99749C7.00812 5.99751 7.00812 5.99753 7.00812 5.99756L7.00809 6.34993C6.89626 6.33996 6.78324 6.33494 6.66915 6.33487ZM6.66915 6.33487C6.66996 6.33488 6.67077 6.33488 6.67158 6.33488L6.66667 7.33487V6.33487C6.66749 6.33487 6.66832 6.33487 6.66915 6.33487Z" fill="white" stroke="white" stroke-width="2"/>
<path d="M14.5472 2C16.3162 2 17.4375 3.36063 17.4375 4.05027C17.4375 4.05027 17.8392 3.875 18.3689 3.875C20.0821 3.88284 21.3125 5.36705 21.3125 6.94593V17C22.5649 14.9337 24.4381 14.7905 25.7515 15.554C26.9192 16.2327 27.7292 17.4678 26.5478 20.0473C25.7602 21.7669 25.2315 22.8617 24.9616 23.3317C21.8407 29.4476 18.6117 32 13.5565 32C8.39991 32 3.875 27.2249 3.875 21.7702V10.5347C3.875 8.78249 5.31257 7.625 6.78081 7.625C7.14485 7.625 7.46791 7.68513 7.75 7.80539V6.94593C7.75 5.23543 8.9894 3.8779 10.6486 3.875C11.2411 3.875 11.625 4.05027 11.625 4.05027C11.625 3.36063 12.7781 2 14.5472 2ZM14.5235 3.875C13.9517 3.875 13.5625 4.33434 13.5625 5.0834V17.9579C13.5698 19.1801 11.625 19.1801 11.625 17.9579V6.94593C11.625 6.22547 11.2844 5.75 10.6558 5.75C10.0272 5.75 9.68395 6.21002 9.68395 6.94593L9.6875 17.9579C9.6875 19.1739 7.75 19.1739 7.75 17.9579V10.5347C7.75 9.89654 7.24703 9.50545 6.79422 9.50545C6.32852 9.50545 5.8113 9.89654 5.8113 10.5347V21.7702C5.8113 26.3356 9.29042 30.125 13.5565 30.125C17.827 30.125 20.1706 28.3305 23.451 22.0199C24.3213 20.2252 24.8487 19.1321 25.0332 18.7406C25.3099 18.1534 25.2634 17.4986 24.7582 17.1677C24.253 16.8369 23.5051 17 23.1372 17.6897C22.8664 18.1883 22.2165 19.3701 21.1876 21.2351C21.0189 21.5262 20.7549 21.6756 20.4801 21.7076C20.4828 21.7082 20.4829 21.7084 20.4829 21.7084C17.712 21.9539 15.9021 23.0639 15.0241 25.0395C14.8128 25.5152 14.243 25.7349 13.7515 25.5303C13.26 25.3258 13.0329 24.7744 13.2443 24.2987C14.3184 21.8818 16.4004 20.4283 19.3765 19.9624L19.375 6.94593C19.375 6.1696 18.9934 5.75 18.3922 5.75C17.791 5.75 17.4375 6.1696 17.4375 6.94593V17.9579C17.4375 19.2079 15.4978 19.166 15.505 17.9579V5.0834C15.505 4.29816 15.0676 3.875 14.5235 3.875Z" fill="#00A0D1"/>
</svg>
