<svg width="36" height="27" viewBox="0 0 36 27" fill="none" xmlns="http://www.w3.org/2000/svg">
<path fill-rule="evenodd" clip-rule="evenodd" d="M12.9937 24.0199C12.7276 24.0199 12.4736 23.9139 12.2855 23.7278L2.29083 13.7191C1.90272 13.327 1.90272 12.6949 2.29283 12.3048C2.68293 11.9147 3.3171 11.9147 3.70721 12.3048L12.9937 21.6033L32.2909 2.29408C32.683 1.90197 33.3152 1.90197 33.7073 2.29408C34.0974 2.68218 34.0974 3.31635 33.7073 3.70846L13.7019 23.7278C13.5138 23.9139 13.2598 24.0199 12.9937 24.0199Z" fill="#00AB50"/>
<path d="M34.4144 1.58697C33.6317 0.804343 32.3664 0.804343 31.5838 1.58697L31.5836 1.58719L12.9939 20.1884L4.41477 11.5981L4.41432 11.5977C3.63369 10.817 2.36635 10.817 1.58572 11.5977C0.8044 12.379 0.806993 13.6415 1.58011 14.4226L1.5801 14.4226L1.58323 14.4258L11.5779 24.4345L11.5779 24.4345L11.5822 24.4387C11.9552 24.8077 12.461 25.0199 12.9937 25.0199C13.5264 25.0199 14.0323 24.8077 14.4052 24.4387L14.4093 24.4347L34.4146 4.41532L34.4162 4.41376C35.1918 3.63416 35.1976 2.36815 34.4144 1.58697ZM34.4144 1.58697L33.7075 2.29389L34.4126 1.58516C34.4132 1.58576 34.4138 1.58637 34.4144 1.58697Z" stroke="white" stroke-opacity="0.8" stroke-width="2"/>
<path d="M12.1086 23.9045L12.1097 23.9056C12.344 24.1373 12.661 24.2699 12.9937 24.2699C13.3264 24.2699 13.6434 24.1373 13.8777 23.9056L13.8787 23.9046L33.8841 3.88517L33.8845 3.88478C34.371 3.3958 34.3724 2.60365 33.884 2.11728C33.3943 1.62757 32.6038 1.62757 32.1141 2.1173L32.1141 2.11736L12.9938 21.2495L3.8841 12.1281L3.88399 12.128C3.39625 11.6403 2.60379 11.6403 2.11605 12.128C1.62814 12.6159 1.62879 13.4057 2.11315 13.895L2.11393 13.8958L12.1086 23.9045Z" fill="#00AB50" stroke="#00AB50" stroke-width="0.5"/>
</svg>
