<svg width="36" height="33" viewBox="0 0 36 33" fill="none" xmlns="http://www.w3.org/2000/svg">
<path opacity="0.8" d="M33.4751 15.2001L33.4751 15.2001L34.225 15.7626C34.6465 16.0787 34.9211 16.5529 34.9855 17.076C35.0498 17.5989 34.8984 18.1254 34.5662 18.5343L34.5661 18.5344C34.3856 18.7566 34.1987 18.9735 34.006 19.185C34.6547 20.3171 35 21.6035 35 22.9375V27.3125C35 29.4156 33.2906 31.125 31.1875 31.125H26.1875C25.1175 31.125 24.25 30.2575 24.25 29.1875C24.25 28.74 24.4017 28.328 24.6565 28H17.438C17.1136 29.7758 15.5559 31.125 13.6875 31.125H8.6875C7.61747 31.125 6.75 30.2575 6.75 29.1875C6.75 28.1384 7.58389 27.284 8.625 27.251V26.75H6.6875C3.55053 26.75 1 24.1995 1 21.0625V19.8125C1 17.3648 2.98978 15.375 5.4375 15.375H6.79167L7.025 15.2C7.63419 14.7431 8 14.0115 8 13.25C8 6.49447 13.4945 1 20.25 1C27.0055 1 32.5 6.49447 32.5 13.25C32.5 14.0115 32.8658 14.7431 33.4751 15.2001Z" fill="white" stroke="white" stroke-width="2"/>
<path d="M5.4375 16.375H7.125L7.625 16C8.486 15.3543 9 14.3263 9 13.25C9 7.04675 14.0467 2 20.25 2C26.4532 2 31.5 7.04675 31.5 13.25C31.5 14.3263 32.014 15.3543 32.8751 16.0001L33.625 16.5626C33.8289 16.7156 33.9618 16.945 33.9929 17.1981C34.0241 17.4511 33.9508 17.7059 33.7901 17.9038C33.4608 18.3089 33.1083 18.6961 32.7359 19.0638C33.5565 20.1817 34 21.5269 34 22.9375V27.3125C34 28.8633 32.7383 30.125 31.1875 30.125H26.1875C25.6697 30.125 25.25 29.7053 25.25 29.1875C25.25 28.6698 25.6697 28.25 26.1875 28.25H27.125V27H16.5V27.3125C16.5 28.8633 15.2383 30.125 13.6875 30.125H8.6875C8.16975 30.125 7.75 29.7053 7.75 29.1875C7.75 28.6698 8.16975 28.25 8.6875 28.25H9.625V25.75H6.6875C4.10281 25.75 2 23.6472 2 21.0625V19.8125C2 17.9171 3.54206 16.375 5.4375 16.375ZM28.0625 8.95202C26.7292 6.28535 22.9167 4.0625 20.25 4.0625C17.5833 4.0625 14.3659 5.79825 12.3098 8.95202C10.3507 11.9568 10.8404 16.36 10 17.3958C10 18.7143 13.0194 20.8572 20.25 20.8091C26.566 20.7671 29.0437 19.67 30.7183 17.9038C29.7693 17.1707 29.3958 11.6187 28.0625 8.95202ZM3.875 21.0625C3.875 22.6133 5.13669 23.875 6.6875 23.875H10.5625C11.0802 23.875 11.5 24.2948 11.5 24.8125V28.25H13.6875C14.2044 28.25 14.625 27.8294 14.625 27.3125V26.0625C14.625 25.5448 15.0447 25.125 15.5625 25.125H28.0625C28.5802 25.125 29 25.5448 29 26.0625V28.25H31.1875C31.7044 28.25 32.125 27.8294 32.125 27.3125V22.9375C32.125 21.9828 31.8396 21.0708 31.3111 20.2983C30.5209 20.8989 29.6708 21.4201 28.7776 21.8452C26.8468 22.7642 24.6961 23.25 22.5577 23.25H17.9422C15.8039 23.25 13.6531 22.7642 11.7224 21.8452C9.92781 20.9911 8.30431 19.7529 7.00138 18.25H5.4375C4.57594 18.25 3.875 18.9509 3.875 19.8125V21.0625Z" fill="#999923"/>
</svg>
