<svg width="12" height="12" viewBox="0 0 12 12" fill="none" xmlns="http://www.w3.org/2000/svg">
<path fill-rule="evenodd" clip-rule="evenodd" d="M6.70725 5.99976L9.85325 2.85376C10.0493 2.65776 10.0493 2.34176 9.85325 2.14576C9.65825 1.95076 9.34225 1.95076 9.14625 2.14576L6.00025 5.29276L2.85325 2.14576C2.65825 1.95076 2.34225 1.95076 2.14625 2.14576C1.95125 2.34176 1.95125 2.65776 2.14625 2.85376L5.29325 5.99976L2.14625 9.14576C1.95125 9.34176 1.95125 9.65776 2.14625 9.85376C2.24425 9.95076 2.37225 9.99976 2.50025 9.99976C2.62825 9.99976 2.75625 9.95076 2.85325 9.85376L6.00025 6.70676L9.14625 9.85376C9.24425 9.95076 9.37225 9.99976 9.50025 9.99976C9.62825 9.99976 9.75625 9.95076 9.85325 9.85376C10.0493 9.65776 10.0493 9.34176 9.85325 9.14576L6.70725 5.99976Z" fill="#F7644A"/>
</svg>
