<svg width="28" height="28" viewBox="0 0 28 28" fill="none" xmlns="http://www.w3.org/2000/svg">
<path fill-rule="evenodd" clip-rule="evenodd" d="M15.2122 14.0002L25.748 3.4644C26.084 3.12841 26.084 2.5867 25.748 2.25071C25.4137 1.91643 24.872 1.91643 24.536 2.25071L14.0002 12.7882L3.46269 2.25071C3.12841 1.91643 2.5867 1.91643 2.25071 2.25071C1.91643 2.5867 1.91643 3.12841 2.25071 3.4644L12.7882 14.0002L2.25071 24.536C1.91643 24.872 1.91643 25.4137 2.25071 25.7497C2.41871 25.916 2.63813 26 2.85756 26C3.07698 26 3.29641 25.916 3.46269 25.7497L14.0002 15.2122L24.536 25.7497C24.704 25.916 24.9234 26 25.1429 26C25.3623 26 25.5817 25.916 25.748 25.7497C26.084 25.4137 26.084 24.872 25.748 24.536L15.2122 14.0002Z" fill="#F7644A"/>
<path d="M23.8289 1.54366L14.0002 11.374L4.1698 1.5436C3.444 0.817803 2.27051 0.820397 1.54541 1.5418L1.5454 1.54179L1.5418 1.54541C0.819401 2.27151 0.819401 3.4436 1.5418 4.1697L1.54366 4.17157L11.3739 14.0002L1.54366 23.8289L1.5418 23.8307C0.819401 24.5568 0.819401 25.7289 1.5418 26.455L1.54178 26.455L1.54724 26.4604C1.90827 26.8178 2.38297 27 2.85756 27C3.33121 27 3.80835 26.8183 4.1698 26.4568L14.0002 16.6265L23.8289 26.4568L23.8326 26.4604C24.1936 26.8178 24.6683 27 25.1429 27C25.6165 27 26.0937 26.8183 26.4551 26.4568C27.1816 25.7303 27.1816 24.5554 26.4551 23.8289L16.6264 14.0002L26.4551 4.17151C27.1816 3.44499 27.1816 2.27012 26.4551 1.5436C25.7293 0.817803 24.5558 0.820397 23.8307 1.54179L23.8289 1.54366Z" stroke="white" stroke-opacity="0.8" stroke-width="2"/>
<path d="M15.5657 14.0002L25.9248 3.64118C26.3584 3.20755 26.3584 2.50756 25.9248 2.07393C25.4926 1.64177 24.793 1.64242 24.3597 2.07348L24.3592 2.07395L14.0002 12.4347L3.63946 2.07393C3.20731 1.64177 2.50766 1.64242 2.07439 2.07348L2.07438 2.07348L2.07348 2.07439C1.64217 2.50791 1.64217 3.20721 2.07348 3.64073L2.07395 3.64119L12.4347 14.0002L2.07395 24.3592L2.07348 24.3597C1.64217 24.7932 1.64217 25.4925 2.07348 25.926L2.07484 25.9274C2.2911 26.1414 2.57434 26.25 2.85756 26.25C3.14054 26.25 3.42439 26.1416 3.63946 25.9265L14.0002 15.5658L24.3592 25.9265L24.3602 25.9274C24.5764 26.1414 24.8597 26.25 25.1429 26.25C25.4259 26.25 25.7097 26.1416 25.9248 25.9265C26.3584 25.4929 26.3584 24.7929 25.9248 24.3592L15.5657 14.0002Z" fill="#F7644A" stroke="#F7644A" stroke-width="0.5"/>
</svg>
