<svg width="29" height="36" viewBox="0 0 29 36" fill="none" xmlns="http://www.w3.org/2000/svg">
<g opacity="0.8">
<path d="M5 10L14 11.5L21 23.5L20 33H5V10Z" fill="white"/>
<path d="M23.2435 27.3927H22.7909V24.5772C22.7909 18.7105 17.7979 15.9427 15.1155 14.4557C14.945 14.3613 14.8406 14.1835 14.8429 13.9914C14.8432 13.9668 14.8434 13.9422 14.8434 13.9177C14.8434 12.8083 14.5368 11.7174 13.9688 10.7724C14.2477 10.4733 14.4316 10.2025 14.7626 9.51815C16.2132 6.51922 15.0667 3.0518 15.0172 2.90569L14.7104 2L13.8099 2.32169C13.6646 2.37361 10.2345 3.62752 8.7841 6.62639C8.50775 7.19765 8.42222 7.51282 8.3866 7.82511C6.90036 7.90939 5.35757 8.52355 4.14336 9.51615C2.76335 10.6442 2.00214 12.0949 2.00001 13.6008C1.99681 15.8371 3.35775 16.8222 4.35148 17.5414C4.64207 17.7517 4.91654 17.9504 5.12404 18.1532C5.5038 18.5242 5.61467 19.109 5.39989 19.6087C4.91548 20.7363 4.66979 21.9347 4.66979 23.1706C4.66979 24.9368 5.0059 26.4 5.7118 27.6489C4.30752 27.9965 3.2635 29.2673 3.2635 30.7775C3.2635 32.5543 4.70917 34 6.48605 34H23.2435C25.0652 34 26.5472 32.518 26.5472 30.6964C26.5472 28.8747 25.0652 27.3927 23.2435 27.3927V27.3927ZM6.48599 32.1188C5.74642 32.1188 5.14467 31.5171 5.14467 30.7775C5.14467 30.0378 5.74642 29.4361 6.48599 29.4361H11.4151L11.2299 28.3389C11.182 28.0559 11.161 27.7665 11.1671 27.4788C11.1826 26.7525 11.3668 26.0608 11.7144 25.4229L10.0627 24.5227C9.57648 25.4148 9.30809 26.423 9.28633 27.4387C9.28551 27.4774 9.28501 27.5161 9.28495 27.5549H7.92795C6.97919 26.4197 6.55102 25.0424 6.55102 23.1706C6.55102 22.1914 6.74529 21.243 7.12837 20.3514C7.64803 19.1423 7.37086 17.7181 6.43877 16.8075C6.13194 16.5078 5.78761 16.2585 5.45464 16.0175C4.5746 15.3805 3.87954 14.8773 3.8813 13.6034C3.88425 11.5263 6.3881 9.79996 8.54004 9.70082C8.7345 9.69204 8.93755 9.69718 9.1431 9.71656L9.99906 9.79733L10.1561 8.95203C10.2208 8.60431 10.2338 8.37198 10.2434 8.2023C10.256 7.97786 10.2607 7.89396 10.4777 7.44548C11.1737 6.00633 12.5449 5.05788 13.4778 4.54813C13.6575 5.59641 13.7652 7.25986 13.0691 8.69888C12.7723 9.3126 12.7114 9.37368 12.4556 9.63059C12.3529 9.73374 12.2251 9.86204 12.061 10.0423L11.517 10.6391L12.0247 11.2671C12.6379 12.0258 12.9621 12.9424 12.9621 13.9175L12.9618 13.969C12.9512 14.8536 13.4269 15.6706 14.2034 16.101C16.7116 17.4914 20.9097 19.8185 20.9097 24.5771V31.1172C20.9097 31.6694 20.4605 32.1186 19.9083 32.1186H6.48599V32.1188ZM23.2435 32.1188H22.6113C22.7273 31.8067 22.7909 31.4693 22.7909 31.1173V29.274H23.2435C24.0279 29.274 24.666 29.9121 24.666 30.6964C24.666 31.4807 24.0279 32.1188 23.2435 32.1188V32.1188Z" fill="white" stroke="white" stroke-width="3"/>
<path d="M23.2435 27.3927H22.7909V24.5772C22.7909 18.7105 17.7979 15.9427 15.1155 14.4557C14.945 14.3613 14.8406 14.1835 14.8429 13.9914C14.8432 13.9668 14.8434 13.9422 14.8434 13.9177C14.8434 12.8083 14.5368 11.7174 13.9688 10.7724C14.2477 10.4733 14.4316 10.2025 14.7626 9.51815C16.2132 6.51922 15.0667 3.0518 15.0172 2.90569L14.7104 2L13.8099 2.32169C13.6646 2.37361 10.2345 3.62752 8.7841 6.62639C8.50775 7.19765 8.42222 7.51282 8.3866 7.82511C6.90036 7.90939 5.35757 8.52355 4.14336 9.51615C2.76335 10.6442 2.00214 12.0949 2.00001 13.6008C1.99681 15.8371 3.35775 16.8222 4.35148 17.5414C4.64207 17.7517 4.91654 17.9504 5.12404 18.1532C5.5038 18.5242 5.61467 19.109 5.39989 19.6087C4.91548 20.7363 4.66979 21.9347 4.66979 23.1706C4.66979 24.9368 5.0059 26.4 5.7118 27.6489C4.30752 27.9965 3.2635 29.2673 3.2635 30.7775C3.2635 32.5543 4.70917 34 6.48605 34H23.2435C25.0652 34 26.5472 32.518 26.5472 30.6964C26.5472 28.8747 25.0652 27.3927 23.2435 27.3927V27.3927ZM6.48599 32.1188C5.74642 32.1188 5.14467 31.5171 5.14467 30.7775C5.14467 30.0378 5.74642 29.4361 6.48599 29.4361H11.4151L11.2299 28.3389C11.182 28.0559 11.161 27.7665 11.1671 27.4788C11.1826 26.7525 11.3668 26.0608 11.7144 25.4229L10.0627 24.5227C9.57648 25.4148 9.30809 26.423 9.28633 27.4387C9.28551 27.4774 9.28501 27.5161 9.28495 27.5549H7.92795C6.97919 26.4197 6.55102 25.0424 6.55102 23.1706C6.55102 22.1914 6.74529 21.243 7.12837 20.3514C7.64803 19.1423 7.37086 17.7181 6.43877 16.8075C6.13194 16.5078 5.78761 16.2585 5.45464 16.0175C4.5746 15.3805 3.87954 14.8773 3.8813 13.6034C3.88425 11.5263 6.3881 9.79996 8.54004 9.70082C8.7345 9.69204 8.93755 9.69718 9.1431 9.71656L9.99906 9.79733L10.1561 8.95203C10.2208 8.60431 10.2338 8.37198 10.2434 8.2023C10.256 7.97786 10.2607 7.89396 10.4777 7.44548C11.1737 6.00633 12.5449 5.05788 13.4778 4.54813C13.6575 5.59641 13.7652 7.25986 13.0691 8.69888C12.7723 9.3126 12.7114 9.37368 12.4556 9.63059C12.3529 9.73374 12.2251 9.86204 12.061 10.0423L11.517 10.6391L12.0247 11.2671C12.6379 12.0258 12.9621 12.9424 12.9621 13.9175L12.9618 13.969C12.9512 14.8536 13.4269 15.6706 14.2034 16.101C16.7116 17.4914 20.9097 19.8185 20.9097 24.5771V31.1172C20.9097 31.6694 20.4605 32.1186 19.9083 32.1186H6.48599V32.1188ZM23.2435 32.1188H22.6113C22.7273 31.8067 22.7909 31.4693 22.7909 31.1173V29.274H23.2435C24.0279 29.274 24.666 29.9121 24.666 30.6964C24.666 31.4807 24.0279 32.1188 23.2435 32.1188V32.1188Z" fill="#D97F00" stroke="#D97F00" stroke-width="0.2"/>
<path d="M8.19382 11.9795C7.4964 11.9795 6.82823 12.5927 6.8605 13.3128C6.89285 14.0352 7.44636 14.6462 8.19382 14.6462C8.89124 14.6462 9.55941 14.0329 9.52715 13.3128C9.49479 12.5903 8.94128 11.9795 8.19382 11.9795Z" fill="#D97F00"/>
</g>
</svg>
