
<svg width="14px" height="14px" viewBox="0 0 14 14" version="1.1" xmlns="http://www.w3.org/2000/svg" xmlns:xlink="http://www.w3.org/1999/xlink">
    <g id="Dock-Version" stroke="none" stroke-width="1" fill="none" fill-rule="evenodd">
        <g id="In-Meeting-1.3" transform="translate(-1188.000000, -343.000000)">
            <g id="App">
                <g id="plist" transform="translate(1159.000000, 31.000000)">
                    <g id="item-" transform="translate(0.000000, 286.000000)">
                        <g id="icon" transform="translate(29.000000, 26.000000)">
                            <rect id="Rectangle" x="0" y="0" width="14" height="13.6111111"></rect>
                            <g id="Group-6" transform="translate(1.000000, 0.972222)">
                                <path d="M10.4873967,3.55859055 C11.6617966,3.96541318 12.484,5.05930238 12.484,6.31944444 C12.484,7.86174137 11.2623052,9.12351089 9.71961462,9.24105712 C9.26644124,9.89627111 8.64257678,10.4228097 7.91084851,10.7617352 C7.66465453,11.5803424 6.8941605,12.1666667 6,12.1666667 C4.90196075,12.1666667 4,11.2897604 4,10.2083333 C4,9.75313844 4.15980411,9.33417933 4.42677029,9.00159999 L3.32397057,8.82290559 C3.14306648,9.08148867 2.84038139,9.25 2.5,9.25 C0.847960746,9.25 -0.5,7.93948261 -0.5,6.31944444 C-0.5,5.05337481 0.330501172,3.95465034 1.513138,3.55158832 C1.69031886,1.28570127 3.63736647,-0.5 6,-0.5 C8.36441031,-0.5 10.3136095,1.28964787 10.4873967,3.55859055 Z" id="fill" stroke="#FFFFFF" fill="#FFFFFF"></path>
                                <g id="headset_12" fill="#292929">
                                    <g id="icon">
                                        <path d="M9.871,7.72236111 C9.948,7.42486111 10,7.11958333 10,6.80555556 L10,4.95541667 C10.573,5.16152778 10.984,5.69236111 10.984,6.31944444 C10.984,6.99319444 10.51,7.55513889 9.871,7.72236111 L9.871,7.72236111 Z M6,10.6944444 C5.729,10.6944444 5.5,10.4718056 5.5,10.2083333 C5.5,9.94486111 5.729,9.72222222 6,9.72222222 C6.271,9.72222222 6.5,9.94486111 6.5,10.2083333 C6.5,10.4718056 6.271,10.6944444 6,10.6944444 L6,10.6944444 Z M2,7.69513889 C1.418,7.49388889 1,6.95333333 1,6.31944444 C1,5.68555556 1.418,5.145 2,4.94472222 L2,7.69513889 Z M10,3.94236111 L10,3.88888889 C10,1.74513889 8.205,0 6,0 C3.794,0 2,1.74513889 2,3.88888889 L2,3.9375 C0.86,4.16402778 0,5.14597222 0,6.31944444 C0,7.66013889 1.121,8.75 2.5,8.75 C2.776,8.75 3,8.53222222 3,8.26388889 L3,3.88888889 C3,2.28083333 4.346,0.972222222 6,0.972222222 C7.654,0.972222222 9,2.28083333 9,3.88888889 L9,6.80555556 C9,7.93333333 8.304,8.96388889 7.269,9.44125 C7.003,9.02805556 6.535,8.75 6,8.75 C5.175,8.75 4.5,9.40625 4.5,10.2083333 C4.5,11.0104167 5.175,11.6666667 6,11.6666667 C6.756,11.6666667 7.38,11.1134722 7.479,10.4027778 C8.314,10.0751389 8.998,9.48597222 9.442,8.75 L9.484,8.75 C10.863,8.75 11.984,7.66013889 11.984,6.31944444 C11.984,5.15083333 11.132,4.17375 10,3.94236111 L10,3.94236111 Z" id="fill"></path>
                                    </g>
                                </g>
                            </g>
                        </g>
                    </g>
                </g>
            </g>
        </g>
    </g>
</svg>