
<svg width="10px" height="14px" viewBox="0 0 10 14" version="1.1" xmlns="http://www.w3.org/2000/svg" xmlns:xlink="http://www.w3.org/1999/xlink">
    <g id="Dock-Version" stroke="none" stroke-width="1" fill="none" fill-rule="evenodd">
        <g id="Mirror-Effect-1.0_win" transform="translate(-1190.000000, -392.000000)">
            <g id="Group" transform="translate(1190.000000, 392.000000)">
                <rect id="Rectangle" fill="#FFFFFF" x="0" y="-2.66453526e-14" width="10" height="13.6111111" rx="2"></rect>
                <g id="icon" transform="translate(1.000000, 0.972222)" fill="#292929" fill-rule="nonzero">
                    <path d="M1.5,0.972222222 C1.22385763,0.972222222 1,1.18986158 1,1.45833333 L1,10.2083333 C1,10.4768051 1.22385763,10.6944444 1.5,10.6944444 L6.5,10.6944444 C6.77614237,10.6944444 7,10.4768051 7,10.2083333 L7,1.45833333 C7,1.18986158 6.77614237,0.972222222 6.5,0.972222222 L1.5,0.972222222 Z M6.5,0 C7.32842712,0 8,0.652918073 8,1.45833333 L8,10.2083333 C8,11.0137486 7.32842712,11.6666667 6.5,11.6666667 L1.5,11.6666667 C0.671572875,11.6666667 0,11.0137486 0,10.2083333 L0,1.45833333 C0,0.652918073 0.671572875,0 1.5,0 L6.5,0 Z M7,8.75 L1,8.75 L1,9.72222222 L7,9.72222222 L7,8.75 Z" id="fill"></path>
                </g>
            </g>
        </g>
    </g>
</svg>