<svg width="20" height="20" viewBox="0 0 20 20" fill="none" xmlns="http://www.w3.org/2000/svg">
<path d="M10 20C15.5228 20 20 15.5228 20 10C20 4.47715 15.5228 0 10 0C4.47715 0 0 4.47715 0 10C0 15.5228 4.47715 20 10 20Z" fill="url(#paint0_linear)"/>
<path d="M4.44898 6.73471C4.34014 6.73471 4.2449 6.6939 4.16327 6.61227C4 6.449 4 6.1905 4.14966 6.04084C4.7483 5.42859 5.40136 4.99322 6.06803 4.76192C6.72109 4.54424 7.38776 4.43539 8.04082 4.46261C8.27211 4.47621 8.43538 4.66669 8.43538 4.88437C8.42177 5.11567 8.2313 5.27893 8.01361 5.27893C7.46939 5.25172 6.89796 5.33335 6.34014 5.52383C5.79592 5.71431 5.26531 6.06805 4.7483 6.59866C4.65306 6.6939 4.54422 6.73471 4.44898 6.73471Z" fill="#D68004"/>
<path d="M15.8778 6.73494C15.769 6.73494 15.6601 6.69413 15.5921 6.61249C15.0751 6.08188 14.5445 5.72814 14.0003 5.53766C13.4424 5.34719 12.8846 5.26556 12.3268 5.29277C12.0955 5.30637 11.905 5.1295 11.905 4.89821C11.8914 4.66692 12.0683 4.47644 12.2996 4.47644C12.9527 4.44923 13.6193 4.54447 14.2724 4.77576C14.939 5.00705 15.5785 5.42882 16.1907 6.05467C16.354 6.21794 16.3404 6.47644 16.1771 6.6261C16.0819 6.69413 15.9867 6.73494 15.8778 6.73494Z" fill="#D68004"/>
<path d="M6.6944 10.449C7.46083 10.449 8.08215 9.82765 8.08215 9.06122C8.08215 8.29478 7.46083 7.67346 6.6944 7.67346C5.92796 7.67346 5.30664 8.29478 5.30664 9.06122C5.30664 9.82765 5.92796 10.449 6.6944 10.449Z" fill="#31221C"/>
<path d="M13.169 10.449C13.9354 10.449 14.5568 9.82765 14.5568 9.06122C14.5568 8.29478 13.9354 7.67346 13.169 7.67346C12.4026 7.67346 11.7812 8.29478 11.7812 9.06122C11.7812 9.82765 12.4026 10.449 13.169 10.449Z" fill="#31221C"/>
<path d="M13.4705 15.7822C13.2937 15.7822 13.1304 15.6598 13.076 15.4829C12.8447 14.6122 11.144 13.8775 9.93313 13.8775C8.72224 13.8775 7.03517 14.6122 6.79027 15.4829C6.73585 15.7006 6.50456 15.8231 6.28687 15.7686C6.06918 15.7142 5.94673 15.4829 6.00115 15.2652C6.16442 14.653 6.73585 14.0816 7.57939 13.6462C8.31408 13.2788 9.18483 13.0612 9.93313 13.0612C11.3209 13.0612 13.4841 13.9047 13.8651 15.2652C13.9195 15.4829 13.7971 15.7006 13.5794 15.7686C13.5522 15.7686 13.5114 15.7822 13.4705 15.7822Z" fill="#31221C"/>
<defs>
<linearGradient id="paint0_linear" x1="10.0055" y1="-0.00408163" x2="10.0055" y2="19.9959" gradientUnits="userSpaceOnUse">
<stop offset="0.0005167" stop-color="#FFDD33"/>
<stop offset="0.3193" stop-color="#FFDA34"/>
<stop offset="0.5357" stop-color="#FFD138"/>
<stop offset="0.7218" stop-color="#FFC23D"/>
<stop offset="0.8897" stop-color="#FFAD46"/>
<stop offset="1" stop-color="#FF9A4D"/>
</linearGradient>
</defs>
</svg>
