<svg width="20" height="20" viewBox="0 0 20 20" fill="none" xmlns="http://www.w3.org/2000/svg">
<path d="M10 20C15.5228 20 20 15.5228 20 10C20 4.47715 15.5228 0 10 0C4.47715 0 0 4.47715 0 10C0 15.5228 4.47715 20 10 20Z" fill="url(#paint0_linear)"/>
<path d="M4.43531 5.42856C4.32647 5.42856 4.23123 5.38775 4.1496 5.30611C3.98633 5.14285 3.98633 4.88434 4.13599 4.73468C4.73463 4.12244 5.38769 3.68707 6.05436 3.45577C6.70742 3.23809 7.37409 3.12924 8.02715 3.15645C8.25844 3.17006 8.4217 3.36053 8.4217 3.57822C8.4081 3.80951 8.21762 3.97278 7.99994 3.97278C7.45572 3.94557 6.88429 4.0272 6.32647 4.21768C5.78225 4.40815 5.25164 4.7619 4.73463 5.29251C4.63939 5.38775 4.54415 5.42856 4.43531 5.42856Z" fill="#D68004"/>
<path d="M15.8778 5.42867C15.769 5.42867 15.6601 5.38785 15.5921 5.30622C15.0751 4.77561 14.5445 4.42187 14.0003 4.23139C13.4424 4.04091 12.8846 3.95928 12.3268 3.98649C12.0955 4.0001 11.905 3.82323 11.905 3.59193C11.8914 3.36064 12.0683 3.17017 12.2996 3.17017C12.9527 3.14296 13.6193 3.23819 14.2724 3.46949C14.939 3.70078 15.5785 4.12255 16.1907 4.7484C16.354 4.91166 16.3404 5.17017 16.1771 5.31983C16.0819 5.38785 15.9731 5.42867 15.8778 5.42867Z" fill="#D68004"/>
<path d="M10.0002 17.8094C11.0822 17.8094 11.9594 16.8348 11.9594 15.6326C11.9594 14.4303 11.0822 13.4557 10.0002 13.4557C8.91817 13.4557 8.04102 14.4303 8.04102 15.6326C8.04102 16.8348 8.91817 17.8094 10.0002 17.8094Z" fill="#31221C"/>
<path d="M6.79017 9.57826C7.54909 9.57826 8.16432 8.96303 8.16432 8.20411C8.16432 7.44518 7.54909 6.82996 6.79017 6.82996C6.03124 6.82996 5.41602 7.44518 5.41602 8.20411C5.41602 8.96303 6.03124 9.57826 6.79017 9.57826Z" fill="#31221C"/>
<path d="M13.2238 9.57826C13.9827 9.57826 14.5979 8.96303 14.5979 8.20411C14.5979 7.44518 13.9827 6.82996 13.2238 6.82996C12.4648 6.82996 11.8496 7.44518 11.8496 8.20411C11.8496 8.96303 12.4648 9.57826 13.2238 9.57826Z" fill="#31221C"/>
<defs>
<linearGradient id="paint0_linear" x1="10.0055" y1="-0.00408163" x2="10.0055" y2="19.9959" gradientUnits="userSpaceOnUse">
<stop offset="0.0005167" stop-color="#FFDD33"/>
<stop offset="0.3193" stop-color="#FFDA34"/>
<stop offset="0.5357" stop-color="#FFD138"/>
<stop offset="0.7218" stop-color="#FFC23D"/>
<stop offset="0.8897" stop-color="#FFAD46"/>
<stop offset="1" stop-color="#FF9A4D"/>
</linearGradient>
</defs>
</svg>
