<svg width="18" height="18" viewBox="0 0 18 18" fill="none" xmlns="http://www.w3.org/2000/svg">
<mask id="path-1-outside-1" maskUnits="userSpaceOnUse" x="0" y="2.5" width="18" height="13" fill="black">
<rect fill="white" y="2.5" width="18" height="13"/>
<path fill-rule="evenodd" clip-rule="evenodd" d="M6.49538 14.5068C6.36238 14.5068 6.23537 14.4538 6.14138 14.3608L1.14538 9.3578C0.951375 9.1618 0.951375 8.8458 1.14638 8.6508C1.34138 8.4558 1.65838 8.4558 1.85338 8.6508L6.49538 13.2988L16.1414 3.6468C16.3374 3.4508 16.6534 3.4508 16.8494 3.6468C17.0444 3.8408 17.0444 4.1578 16.8494 4.3538L6.84938 14.3608C6.75538 14.4538 6.62838 14.5068 6.49538 14.5068Z"/>
</mask>
<path fill-rule="evenodd" clip-rule="evenodd" d="M6.49538 14.5068C6.36238 14.5068 6.23537 14.4538 6.14138 14.3608L1.14538 9.3578C0.951375 9.1618 0.951375 8.8458 1.14638 8.6508C1.34138 8.4558 1.65838 8.4558 1.85338 8.6508L6.49538 13.2988L16.1414 3.6468C16.3374 3.4508 16.6534 3.4508 16.8494 3.6468C17.0444 3.8408 17.0444 4.1578 16.8494 4.3538L6.84938 14.3608C6.75538 14.4538 6.62838 14.5068 6.49538 14.5068Z" fill="#00AB50"/>
<path d="M6.14138 14.3608L5.78757 14.7141L5.78972 14.7162L6.14138 14.3608ZM1.14538 9.3578L0.79001 9.70954L0.791574 9.71111L1.14538 9.3578ZM1.85338 8.6508L2.20716 8.29748L2.20693 8.29725L1.85338 8.6508ZM6.49538 13.2988L6.14159 13.6521L6.49526 14.0062L6.84904 13.6522L6.49538 13.2988ZM16.1414 3.6468L15.7878 3.29325L15.7877 3.29336L16.1414 3.6468ZM16.8494 3.6468L16.4958 4.00035L16.4967 4.00126L16.8494 3.6468ZM16.8494 4.3538L17.2031 4.70723L17.2038 4.70645L16.8494 4.3538ZM6.84938 14.3608L7.20104 14.7162L7.20305 14.7142L6.84938 14.3608ZM6.49538 14.0068C6.49536 14.0068 6.49536 14.0068 6.49532 14.0068C6.49527 14.0068 6.49513 14.0067 6.4949 14.0067C6.49442 14.0065 6.49374 14.0061 6.49303 14.0054L5.78972 14.7162C5.97617 14.9007 6.22907 15.0068 6.49538 15.0068V14.0068ZM6.49518 14.0075L1.49918 9.00449L0.791574 9.71111L5.78757 14.7141L6.49518 14.0075ZM1.50074 9.00606C1.49986 9.00518 1.49999 9.00508 1.50013 9.00544C1.50014 9.00547 1.5 9.00509 1.5 9.00441C1.5 9.00374 1.50014 9.00358 1.49998 9.00397C1.49969 9.0047 1.49933 9.00496 1.49993 9.00435L0.792822 8.29725C0.402213 8.68786 0.40351 9.31905 0.790013 9.70954L1.50074 9.00606ZM1.49993 9.00435H1.49982L2.20693 8.29725C1.81667 7.90698 1.18308 7.90698 0.792822 8.29725L1.49993 9.00435ZM1.49959 9.00413L6.14159 13.6521L6.84916 12.9455L2.20716 8.29748L1.49959 9.00413ZM6.84904 13.6522L16.495 4.00024L15.7877 3.29336L6.14171 12.9454L6.84904 13.6522ZM16.4949 4.00035H16.4958L17.2029 3.29325C16.8117 2.90198 16.1791 2.90198 15.7878 3.29325L16.4949 4.00035ZM16.4967 4.00126C16.4968 4.00133 16.4962 4.00059 16.4958 3.99957C16.4955 3.99889 16.4956 3.9989 16.4956 3.99955C16.4956 4.0002 16.4955 4.00059 16.4955 4.00057C16.4956 4.00023 16.4958 4.00031 16.4949 4.00115L17.2038 4.70645C17.5919 4.3164 17.5945 3.6828 17.202 3.29234L16.4967 4.00126ZM16.4957 4.00037L6.4957 14.0074L7.20305 14.7142L17.2031 4.70723L16.4957 4.00037ZM6.49772 14.0054C6.49701 14.0061 6.49633 14.0065 6.49585 14.0067C6.49562 14.0067 6.49548 14.0068 6.49543 14.0068C6.49539 14.0068 6.49539 14.0068 6.49538 14.0068V15.0068C6.76168 15.0068 7.01458 14.9007 7.20103 14.7162L6.49772 14.0054Z" fill="#00AB50" mask="url(#path-1-outside-1)"/>
</svg>
