<svg width="20" height="20" viewBox="0 0 20 20" fill="none" xmlns="http://www.w3.org/2000/svg">
<path d="M13.8718 12.6064C13.2395 11.3935 12.2072 10.0258 11.1363 8.94192C9.87176 7.6645 8.50402 6.63224 7.30402 6.02579C6.0395 5.39353 5.07176 5.31611 4.58144 5.80643C4.47821 5.90966 4.40079 6.0516 4.34918 6.20643L0.168533 18.3355C-0.0379184 18.9419 0.297565 19.6 0.891114 19.8193C1.13628 19.8968 1.39434 19.8968 1.6266 19.8193L13.846 15.7548C14.0008 15.7032 14.1427 15.6129 14.246 15.5097C14.8653 14.8774 14.3879 13.5871 13.8718 12.6064Z" fill="url(#paint0_linear)"/>
<path d="M10.8121 9.25155C9.58627 8.01284 8.25723 7.0193 7.10885 6.42575C6.45078 6.10317 5.87014 5.93542 5.45723 5.93542C5.19917 5.93542 5.00562 5.99994 4.87659 6.11607C4.77336 6.2193 4.70885 6.37413 4.69594 6.58059C4.67014 7.00639 4.83788 7.62575 5.18627 8.34833C5.76691 9.50962 6.77336 10.8387 7.99917 12.0645C9.22498 13.2903 10.554 14.2967 11.7153 14.8774C12.4379 15.2257 13.0572 15.4064 13.483 15.3677C13.6895 15.3548 13.8314 15.2903 13.9476 15.187C14.6185 14.5032 13.0185 11.4451 10.8121 9.25155Z" fill="#31221C"/>
<path d="M15.5346 9.10966C16.0833 9.10966 16.5281 8.66483 16.5281 8.11611C16.5281 7.56739 16.0833 7.12256 15.5346 7.12256C14.9858 7.12256 14.541 7.56739 14.541 8.11611C14.541 8.66483 14.9858 9.10966 15.5346 9.10966Z" fill="#FF9D51"/>
<path d="M12.1301 2.18069C12.5719 2.18069 12.9301 1.82252 12.9301 1.38069C12.9301 0.938861 12.5719 0.580688 12.1301 0.580688C11.6882 0.580688 11.3301 0.938861 11.3301 1.38069C11.3301 1.82252 11.6882 2.18069 12.1301 2.18069Z" fill="#21C3F2"/>
<path d="M5.97524 4.38712C6.33155 4.38712 6.6204 4.09828 6.6204 3.74196C6.6204 3.38565 6.33155 3.0968 5.97524 3.0968C5.61893 3.0968 5.33008 3.38565 5.33008 3.74196C5.33008 4.09828 5.61893 4.38712 5.97524 4.38712Z" fill="#EA272E"/>
<path d="M7.52211 10.0516C7.87843 10.0516 8.16728 9.7627 8.16728 9.40639C8.16728 9.05008 7.87843 8.76123 7.52211 8.76123C7.1658 8.76123 6.87695 9.05008 6.87695 9.40639C6.87695 9.7627 7.1658 10.0516 7.52211 10.0516Z" fill="#EA272E"/>
<path d="M6.61881 1.84517C6.87536 1.84517 7.08333 1.6372 7.08333 1.38065C7.08333 1.12411 6.87536 0.916138 6.61881 0.916138C6.36227 0.916138 6.1543 1.12411 6.1543 1.38065C6.1543 1.6372 6.36227 1.84517 6.61881 1.84517Z" fill="#FF9D51"/>
<path d="M9.74186 11.6258C9.9984 11.6258 10.2064 11.4178 10.2064 11.1613C10.2064 10.9047 9.9984 10.6968 9.74186 10.6968C9.48531 10.6968 9.27734 10.9047 9.27734 11.1613C9.27734 11.4178 9.48531 11.6258 9.74186 11.6258Z" fill="#FF9D51"/>
<path d="M19.0458 13.8967C19.3451 13.8967 19.5878 13.6541 19.5878 13.3548C19.5878 13.0555 19.3451 12.8129 19.0458 12.8129C18.7465 12.8129 18.5039 13.0555 18.5039 13.3548C18.5039 13.6541 18.7465 13.8967 19.0458 13.8967Z" fill="#EA272E"/>
<path d="M17.5617 6.29678C18.0035 6.29678 18.3617 5.9386 18.3617 5.49678C18.3617 5.05495 18.0035 4.69678 17.5617 4.69678C17.1199 4.69678 16.7617 5.05495 16.7617 5.49678C16.7617 5.9386 17.1199 6.29678 17.5617 6.29678Z" fill="#21C3F2"/>
<path d="M11.6379 10.271C12.0797 10.271 12.4379 9.91285 12.4379 9.47102C12.4379 9.02919 12.0797 8.67102 11.6379 8.67102C11.1961 8.67102 10.8379 9.02919 10.8379 9.47102C10.8379 9.91285 11.1961 10.271 11.6379 10.271Z" fill="#21C3F2"/>
<path d="M11.7684 4.58069C12.0321 4.58069 12.2459 4.36695 12.2459 4.10327C12.2459 3.8396 12.0321 3.62585 11.7684 3.62585C11.5048 3.62585 11.291 3.8396 11.291 4.10327C11.291 4.36695 11.5048 4.58069 11.7684 4.58069Z" fill="#EA272E"/>
<path d="M7.9352 8.24514C7.88359 8.24514 7.83198 8.21934 7.78036 8.19353C7.63843 8.0903 7.58682 7.89676 7.67714 7.74192C7.85778 7.45805 8.06423 7.04514 8.19327 6.65805C7.72875 6.74837 7.38036 6.60643 7.25133 6.52901C6.78682 6.27095 6.52875 5.76772 6.64488 5.35482C6.68359 5.19998 6.87714 4.72256 7.66423 4.76127C8.37391 4.79998 8.69649 5.13547 8.83843 5.39353C8.87714 5.44514 8.89004 5.50966 8.91585 5.56127C9.03198 5.47095 9.1352 5.34192 9.25133 5.22579C9.41907 5.03224 9.5094 4.82579 9.5352 4.63224C8.90294 4.78708 8.18036 4.56772 7.79327 4.11611C7.5352 3.80643 7.48359 3.41934 7.66423 3.07095C7.83198 2.74837 8.14165 2.55482 8.50294 2.55482C9.03198 2.56772 9.63843 2.99353 9.94811 3.57418C10.0384 3.41934 10.1029 3.23869 10.1288 3.00643C10.232 2.21934 9.87069 1.79353 9.57391 1.57418C9.19972 1.30321 8.78682 1.2774 8.69649 1.31611C8.54165 1.40643 8.34811 1.36772 8.25778 1.21288C8.16746 1.05805 8.20617 0.864498 8.36101 0.774175C8.69649 0.567724 9.34165 0.658046 9.85778 0.99353C10.5546 1.44514 10.89 2.21934 10.7739 3.09676C10.6965 3.70321 10.4513 4.0645 10.1675 4.29676C10.2062 4.76127 10.0513 5.23869 9.71585 5.62579C9.43198 5.94837 9.17391 6.16772 8.92875 6.33547C8.79972 7.12256 8.29649 7.94837 8.21907 8.0645C8.16746 8.20643 8.03843 8.24514 7.9352 8.24514ZM7.66423 5.41934C7.65133 5.41934 7.63843 5.41934 7.62552 5.41934C7.41907 5.40643 7.29004 5.44514 7.25133 5.53547C7.21262 5.63869 7.30294 5.84514 7.54811 5.97417C7.76746 6.0903 8.02552 6.0903 8.3094 5.97417C8.3094 5.87095 8.28359 5.78063 8.24488 5.71611C8.23198 5.63869 8.12875 5.44514 7.66423 5.41934ZM8.51585 3.22579C8.50294 3.22579 8.50294 3.22579 8.49004 3.22579C8.37391 3.21288 8.29649 3.2645 8.24488 3.38063C8.20617 3.45805 8.16746 3.57418 8.29649 3.71611C8.50294 3.94837 8.98036 4.14192 9.43198 3.99998H9.44488C9.23843 3.56127 8.81262 3.23869 8.51585 3.22579Z" fill="#21C3F2"/>
<path d="M15.6252 13.1871C15.2897 13.2387 14.8897 13.2258 14.3994 13.1097C13.8446 12.9806 13.4833 12.7871 13.2381 12.5548C12.6962 12.6581 12.1801 12.6064 12.0897 12.6064C11.922 12.5806 11.793 12.4258 11.793 12.2452C11.8188 12.0774 11.9736 11.9484 12.1543 11.9484C12.2962 11.9613 12.5801 11.9742 12.8639 11.9484C12.8123 11.7548 12.8123 11.5871 12.8252 11.471C12.9026 10.7871 13.4833 10.1548 14.0252 10.1419C14.2962 10.1419 14.6317 10.3097 14.6962 10.8129C14.7736 11.4323 14.5543 11.8194 14.3478 12.0258C14.2446 12.129 14.1285 12.2194 14.0123 12.2839C14.1801 12.3613 14.3736 12.4258 14.5543 12.4645C15.1349 12.5935 15.6123 12.5806 15.9607 12.3871C15.5994 12.0645 15.3543 11.5742 15.3026 11.0839C15.2252 10.4129 15.522 9.90967 16.051 9.83226C16.0639 9.83226 16.0639 9.83226 16.0768 9.83226C16.4897 9.78064 16.851 9.96129 17.0833 10.3613C17.3672 10.8516 17.3801 11.5355 17.122 12.0903C17.8059 11.9742 18.0381 11.4581 18.0897 10.1161C18.0768 9.81935 18.0768 8.45161 18.7736 8.03871C18.9285 7.94838 19.122 8 19.2252 8.15484C19.3285 8.30968 19.2639 8.50322 19.1091 8.60645C18.851 8.76129 18.722 9.57419 18.7478 10.1161V10.1419C18.6962 11.3419 18.5155 12.6323 17.0575 12.7742C16.9155 12.7871 16.7736 12.7742 16.6317 12.7613C16.3994 12.929 16.0768 13.1097 15.6252 13.1871ZM16.1543 10.4903C15.8962 10.529 15.9349 10.9419 15.9478 11.0323C15.9865 11.3548 16.1672 11.7419 16.451 11.9613C16.7091 11.5484 16.7091 10.9935 16.5285 10.6968C16.3736 10.4516 16.2188 10.4774 16.1543 10.4903ZM14.0252 10.7871C13.8833 10.8129 13.5478 11.0968 13.4833 11.4839C13.4575 11.6 13.4704 11.7032 13.5091 11.8064C13.651 11.7419 13.793 11.6774 13.8833 11.5613C14.0381 11.3935 14.1026 11.1742 14.051 10.8774C14.051 10.8387 14.0381 10.8 14.0252 10.7871Z" fill="#EA272E"/>
<path d="M11.6507 7.25157C11.599 7.25157 11.5474 7.23866 11.5087 7.21286C11.3539 7.13544 11.2894 6.94189 11.3668 6.77415C11.7152 6.11608 12.4636 6.10318 13.07 6.09028C13.6765 6.07737 14.0636 6.05157 14.2184 5.75479C14.3732 5.45802 14.1797 5.13544 13.8313 4.63221C13.4829 4.12899 13.0571 3.50963 13.4055 2.85157C13.7539 2.1935 14.5023 2.1806 15.1087 2.1677C15.7152 2.15479 16.1023 2.12899 16.2571 1.83221C16.3345 1.67737 16.5281 1.61286 16.6958 1.69028C16.8636 1.7677 16.9152 1.96124 16.8378 2.12899C16.4894 2.78705 15.741 2.79995 15.1345 2.81286C14.5281 2.82576 14.141 2.85157 13.999 3.14834C13.8442 3.44511 14.0378 3.7677 14.3861 4.27092C14.7345 4.77415 15.1603 5.3935 14.812 6.05157C14.4636 6.70963 13.7152 6.72253 13.1087 6.73544C12.5023 6.74834 12.1152 6.77415 11.9603 7.07092C11.87 7.18705 11.7668 7.25157 11.6507 7.25157Z" fill="#FF9D51"/>
<defs>
<linearGradient id="paint0_linear" x1="1.08212" y1="12.6828" x2="13.7696" y2="12.6703" gradientUnits="userSpaceOnUse">
<stop offset="0.0005167" stop-color="#FFDD33"/>
<stop offset="0.2132" stop-color="#FFD636"/>
<stop offset="0.5201" stop-color="#FFC33D"/>
<stop offset="0.8826" stop-color="#FFA449"/>
<stop offset="0.9814" stop-color="#FF9A4D"/>
</linearGradient>
</defs>
</svg>
