<svg width="20" height="20" viewBox="0 0 20 20" fill="none" xmlns="http://www.w3.org/2000/svg">
<path d="M16.3818 7.61321C15.8012 7.30079 15.0772 7.51935 14.7647 8.09994L12.7025 11.1745C12.6154 11.2898 12.5269 11.4091 12.4357 11.5338C12.2413 11.7993 11.8189 11.6572 11.8189 11.3274V10.6529V10.6167V2.17742C11.8189 1.49895 11.2692 0.95054 10.592 0.95054C9.91356 0.95054 9.36515 1.50029 9.36515 2.17742V1.2281C9.36515 0.549627 8.81541 0.0012207 8.13828 0.0012207C7.45981 0.0012207 6.91141 0.550968 6.91141 1.2281V2.17742C6.91141 1.49895 6.36166 0.95054 5.68453 0.95054C5.00606 0.95054 4.45766 1.50029 4.45766 2.17742V5.87279C4.45766 5.19432 3.90791 4.64591 3.23078 4.64591C2.55231 4.64591 2.00391 5.19566 2.00391 5.87279V14.3402H2.00525C2.00525 14.351 2.00391 14.3617 2.00391 14.3724C2.00391 17.4805 4.52336 20 7.63144 20C10.1764 20 11.5078 18.4446 11.9543 17.9994C12.6636 17.2901 12.7307 16.9375 16.8726 9.23161C17.1796 8.64968 16.9624 7.92563 16.3818 7.61321Z" fill="url(#paint0_linear)"/>
<path d="M7.8367 19.9934C7.76698 19.996 7.69726 19.9987 7.62753 19.9987C4.51945 19.9987 2 17.4793 2 14.3712C2 14.3605 2.00134 14.3497 2.00134 14.339H2V5.87157C2 5.1931 2.54975 4.64469 3.22687 4.64469C3.30062 4.64469 3.37303 4.65274 3.44409 4.66481C2.87021 4.76805 2.43309 5.26819 2.43309 5.87157V14.339H2.43443C2.43443 14.3497 2.43309 14.3605 2.43309 14.3712C2.43443 17.4042 4.83321 19.8754 7.8367 19.9934ZM5.68196 0.94932C5.0035 0.94932 4.45509 1.49907 4.45509 2.17619V9.9759C4.45509 10.0952 4.55163 10.1931 4.67231 10.1931C4.79298 10.1931 4.88952 10.0966 4.88952 9.9759V2.17754C4.88952 1.57415 5.3253 1.07268 5.90052 0.970773C5.82812 0.957365 5.75571 0.94932 5.68196 0.94932ZM10.5921 0.94932C9.91368 0.94932 9.36527 1.49907 9.36527 2.17619V9.9759C9.36527 10.0952 9.46181 10.1931 9.58249 10.1931C9.70316 10.1931 9.7997 10.0966 9.7997 9.9759V2.17754C9.7997 1.57415 10.2355 1.07268 10.8107 0.970773C10.7383 0.957365 10.6659 0.94932 10.5921 0.94932ZM8.13705 0C7.45859 0 6.91018 0.549747 6.91018 1.22687V9.9759C6.91018 10.0952 7.00672 10.1931 7.1274 10.1931C7.24807 10.1931 7.34461 10.0966 7.34461 9.9759V1.22822C7.34461 0.624835 7.78039 0.123358 8.35561 0.0214535C8.28321 0.00804506 8.2108 0 8.13705 0Z" fill="#D68004"/>
<path d="M14.7648 8.09988C12.3312 11.7282 12.8434 10.976 12.4358 11.5338C12.3794 11.6116 12.3674 11.5834 12.3808 11.5941C12.3151 11.6518 12.2333 11.6773 12.1555 11.6746C9.80636 11.6746 7.71598 13.0784 6.82834 15.2533C6.78543 15.3579 6.82163 15.4853 6.92085 15.5402C6.95572 15.5603 6.99326 15.5684 7.02946 15.5684C7.11662 15.5684 7.19975 15.5161 7.23461 15.4303C8.03778 13.4512 9.92033 12.1613 12.0483 12.1197V12.1211C12.2936 12.1238 12.5256 12.0071 12.6717 11.81C13.1236 11.1946 13.1491 11.1744 13.1357 11.1771L13.137 11.1758L15.1992 8.10122C15.3776 7.76869 15.6913 7.55684 16.0359 7.49247C15.5385 7.39862 15.0169 7.63058 14.7648 8.09988Z" fill="#D68004"/>
<defs>
<linearGradient id="paint0_linear" x1="11.498" y1="20.1649" x2="7.34538" y2="2.69753" gradientUnits="userSpaceOnUse">
<stop stop-color="#FF9A4D"/>
<stop offset="0.1103" stop-color="#FFAD46"/>
<stop offset="0.2782" stop-color="#FFC23D"/>
<stop offset="0.4643" stop-color="#FFD138"/>
<stop offset="0.6807" stop-color="#FFDA34"/>
<stop offset="0.9995" stop-color="#FFDD33"/>
</linearGradient>
</defs>
</svg>
