<svg width="47" height="36" viewBox="0 0 47 36" fill="none" xmlns="http://www.w3.org/2000/svg">
<path fill-rule="evenodd" clip-rule="evenodd" d="M17.3126 30.2499C17.1686 30.2499 17.0246 30.1948 16.9144 30.0856L5.66453 18.8358C5.44516 18.6153 5.44516 18.2598 5.66453 18.0393C5.88503 17.82 6.24052 17.82 6.46102 18.0393L17.3126 28.892L40.539 5.66453C40.7595 5.44516 41.115 5.44516 41.3355 5.66453C41.5548 5.88503 41.5548 6.24052 41.3355 6.46102L17.7108 30.0856C17.6006 30.1948 17.4566 30.2499 17.3126 30.2499Z" fill="#00AB50"/>
<path fill-rule="evenodd" clip-rule="evenodd" d="M13.3879 33.6303L2.11996 22.3623C-0.0399936 20.1913 -0.0399822 16.6839 2.11997 14.5129L2.12899 14.5038L2.13805 14.4948C4.30908 12.3348 7.81647 12.3348 9.9875 14.4948L9.99675 14.504L17.3127 21.8207L37.0125 2.11996C39.1835 -0.0399938 42.6909 -0.0399821 44.862 2.11997L44.871 2.12899L44.88 2.13805C47.04 4.30908 47.04 7.81647 44.88 9.9875L44.871 9.99657L21.2373 33.6303L21.2282 33.6393C20.3468 34.5117 19.2337 35.0359 18.0791 35.1967L17.3126 35.1967H16.5459C15.3914 35.0359 14.2783 34.5116 13.397 33.6393L13.3879 33.6303ZM16.9144 30.0857C17.0246 30.1948 17.1686 30.2499 17.3126 30.2499C17.4566 30.2499 17.6006 30.1948 17.7108 30.0857L41.3355 6.46102C41.5549 6.24053 41.5549 5.88503 41.3355 5.66453C41.115 5.44516 40.7595 5.44516 40.539 5.66453L17.3126 28.892L6.46102 18.0393C6.24053 17.82 5.88503 17.82 5.66453 18.0393C5.44518 18.2598 5.44516 18.6153 5.66449 18.8358L16.9144 30.0857Z" fill="white"/>
<path d="M16.384 30.616L16.3868 30.6187C16.6418 30.8711 16.9772 30.9999 17.3126 30.9999C17.648 30.9999 17.9834 30.8711 18.2385 30.6187L18.2412 30.616L41.8658 6.99135L41.8672 6.98999C42.3776 6.47691 42.3776 5.64863 41.8672 5.13555L41.8644 5.13284C41.3514 4.62239 40.5231 4.62239 40.01 5.13284L40.0086 5.13421L17.3126 27.8313L6.99138 17.509L6.98999 17.5077C6.47691 16.9972 5.64863 16.9972 5.13556 17.5077L5.13555 17.5076L5.13284 17.5104C4.62239 18.0234 4.62239 18.8517 5.13284 19.3648L5.1342 19.3662L16.384 30.616Z" fill="#00AB50" stroke="#00AB50" stroke-width="1.5"/>
</svg>
