<svg width="18" height="18" viewBox="0 0 18 18" fill="none" xmlns="http://www.w3.org/2000/svg">
<path d="M16.03 14.9692L10.0608 9.00001L16.03 3.03078C16.3237 2.73715 16.3237 2.26286 16.03 1.96923C15.7371 1.67635 15.2632 1.677 14.9699 1.96878L14.9695 1.96924L9.00024 7.93944L3.03003 1.96923C2.73715 1.67635 2.2632 1.677 1.96993 1.96878L1.96992 1.96878L1.96902 1.96968C1.67699 2.26321 1.67699 2.7368 1.96902 3.03033L1.96949 3.0308L7.93967 9.00001L1.96949 14.9692L1.96949 14.9692L1.96902 14.9697C1.67699 15.2632 1.67699 15.7368 1.96902 16.0303L1.97038 16.0317C2.11664 16.1765 2.30846 16.25 2.50025 16.25C2.69181 16.25 2.88424 16.1766 3.03003 16.0308L9.00024 10.0606L14.9695 16.0308L14.9704 16.0317C15.1166 16.1765 15.3085 16.25 15.5002 16.25C15.6918 16.25 15.8842 16.1766 16.03 16.0308C16.3237 15.7372 16.3237 15.2629 16.03 14.9692Z" fill="#F7644A" stroke="#F7644A" stroke-width="0.5"/>
</svg>
