<svg width="44" height="44" viewBox="0 0 44 44" fill="none" xmlns="http://www.w3.org/2000/svg">
<path d="M6.37855 10.6221L17.7576 22.0002L6.37854 33.3784L6.37397 33.383C5.20868 34.5543 5.20868 36.4462 6.37397 37.6175L6.38074 37.6243L6.38757 37.6311C6.96815 38.2057 7.73434 38.5002 8.50025 38.5002C9.26383 38.5002 10.0361 38.2069 10.621 37.622L22.0002 26.2429L33.3784 37.622L33.3784 37.622L33.3876 37.6311C33.9682 38.2057 34.7343 38.5002 35.5002 38.5002C36.2638 38.5002 37.0361 38.2069 37.621 37.622C38.7933 36.4497 38.7933 34.5508 37.621 33.3785L26.2428 22.0002L37.621 10.622L36.9135 9.91452L37.621 10.622C38.7933 9.4497 38.7933 7.5508 37.621 6.37849C36.4472 5.20468 34.5518 5.21116 33.383 6.37397L33.3784 6.37855L22.0002 17.7576L10.621 6.37848C9.44722 5.20468 7.55177 5.21117 6.38301 6.37397L6.38299 6.37394L6.37397 6.38301C5.20868 7.55428 5.20868 9.44622 6.37397 10.6175L6.37396 10.6175L6.37855 10.6221ZM7.08548 34.0865C7.08566 34.0863 7.08584 34.0861 7.08602 34.0859L7.08548 34.0865Z" fill="#F7644A" stroke="white" stroke-width="5"/>
<path d="M34.6159 7.61594L22.0002 20.2326L9.38358 7.61592C8.89494 7.12728 8.10511 7.12923 7.61728 7.61457L7.61727 7.61456L7.61457 7.61728C7.12848 8.10586 7.12848 8.89464 7.61457 9.38322L7.61594 9.3846L20.2325 22.0002L7.61594 34.6159L7.61457 34.6173C7.12848 35.1059 7.12848 35.8946 7.61457 36.3832L7.61455 36.3832L7.61865 36.3873C7.86142 36.6276 8.18088 36.7502 8.50025 36.7502C8.81892 36.7502 9.14021 36.628 9.38358 36.3846L22.0002 23.7679L34.6159 36.3846L34.6186 36.3873C34.8614 36.6276 35.1809 36.7502 35.5002 36.7502C35.8189 36.7502 36.1402 36.628 36.3836 36.3846C36.8725 35.8957 36.8725 35.1048 36.3836 34.6159L23.7679 22.0002L36.3836 9.38458C36.8725 8.89569 36.8725 8.10481 36.3836 7.61592C35.8949 7.12728 35.1051 7.12922 34.6173 7.61456L34.6159 7.61594Z" fill="#F7644A" stroke="#F7644A" stroke-width="1.5"/>
</svg>
