<svg width="20" height="20" viewBox="0 0 20 20" fill="none" xmlns="http://www.w3.org/2000/svg">
<path d="M10 20C15.5228 20 20 15.5228 20 10C20 4.47715 15.5228 0 10 0C4.47715 0 0 4.47715 0 10C0 15.5228 4.47715 20 10 20Z" fill="url(#paint0_linear)"/>
<path d="M14.8291 11.1566C14.0631 13.124 12.1693 14.5607 9.93116 14.5607C7.69307 14.5607 5.79919 13.124 5.0332 11.1566" stroke="#31221C" stroke-width="0.815928" stroke-miterlimit="10" stroke-linecap="round"/>
<path d="M6.64456 8.70074C7.41475 8.70074 8.03912 8.07637 8.03912 7.30618C8.03912 6.53599 7.41475 5.91162 6.64456 5.91162C5.87436 5.91162 5.25 6.53599 5.25 7.30618C5.25 8.07637 5.87436 8.70074 6.64456 8.70074Z" fill="#31221C"/>
<path d="M14.0481 8.2909C14.5927 7.7463 14.5927 6.86332 14.0481 6.31872C13.5035 5.77411 12.6205 5.77411 12.0759 6.31872C11.5313 6.86332 11.5313 7.7463 12.0759 8.2909C12.6205 8.8355 13.5035 8.8355 14.0481 8.2909Z" fill="#31221C"/>
<defs>
<linearGradient id="paint0_linear" x1="9.99956" y1="-0.000136054" x2="9.99956" y2="19.9999" gradientUnits="userSpaceOnUse">
<stop offset="0.0005167" stop-color="#FFDD33"/>
<stop offset="0.3193" stop-color="#FFDA34"/>
<stop offset="0.5357" stop-color="#FFD138"/>
<stop offset="0.7218" stop-color="#FFC23D"/>
<stop offset="0.8897" stop-color="#FFAD46"/>
<stop offset="1" stop-color="#FF9A4D"/>
</linearGradient>
</defs>
</svg>
