<svg width="24" height="24" viewBox="0 0 24 24" fill="none" xmlns="http://www.w3.org/2000/svg">
<path fill-rule="evenodd" clip-rule="evenodd" d="M3.92889 11.5556C3.42222 11.5556 3 11.9637 3 12.4845V19.3808C3 19.8874 3.42222 20.3097 3.92889 20.3097H8.13704C8.39038 20.3097 8.65778 20.3378 8.91112 20.3941C12.0778 21.1119 15.0333 20.76 18.2141 20.7882C18.8896 20.7882 19.4948 20.3097 19.5934 19.6341C19.6919 18.9022 19.1993 18.2689 18.5378 18.1422C18.7208 18.1282 18.8474 18.1141 18.9319 18.1141C19.6637 18.1141 20.2689 17.523 20.2689 16.7771C20.2689 16.2 19.523 15.44 19.5934 15.44C20.3252 15.44 20.9304 14.8489 20.9304 14.103C20.9304 13.3571 20.3393 12.7659 19.5934 12.7659C20.3534 12.7659 20.9585 12.1467 20.9304 11.3867C20.9022 10.697 20.3393 10.1341 19.6637 10.0919H19.2415C16.8348 10.0919 16.0467 9.95112 15.5822 9.68371C14.8926 9.27557 16.5956 7.41779 16.6096 5.46149C16.6237 3.67408 16.0467 1 14.7941 1C13.5415 1 13.2741 1.53482 13.0208 1.97111C12.5704 2.74519 12.9082 4.64519 12.4578 6.26371C12.2748 6.92519 11.0222 8.27631 8.67186 10.3311C8.53112 10.4578 8.30593 10.683 8.17927 10.8237C7.72889 11.2882 7.06741 11.5415 6.40593 11.5415L3.92889 11.5556Z" fill="url(#paint0_linear)"/>
<path d="M19.5361 13.0061H14.4554C13.5828 13.0061 12.865 12.2883 12.865 11.4157C12.865 10.5431 13.5828 9.82532 14.4554 9.82532H19.5361C20.4087 9.82532 21.1265 10.5431 21.1265 11.4157C21.1265 12.3024 20.4087 13.0061 19.5361 13.0061ZM14.4554 10.2898C13.8361 10.2898 13.3294 10.7964 13.3294 11.4157C13.3294 12.035 13.8361 12.5416 14.4554 12.5416H19.5361C20.1554 12.5416 20.662 12.035 20.662 11.4157C20.662 10.7964 20.1554 10.2898 19.5361 10.2898H14.4554Z" fill="#D68004"/>
<path d="M19.5358 15.7364H13.8499C12.9773 15.7364 12.2595 15.0186 12.2595 14.146C12.2595 13.2734 12.9773 12.5557 13.8499 12.5557H19.5358C20.4084 12.5557 21.1262 13.2734 21.1262 14.146C21.1262 15.0186 20.4084 15.7364 19.5358 15.7364ZM13.8499 13.006C13.2306 13.006 12.724 13.5127 12.724 14.132C12.724 14.7512 13.2306 15.2579 13.8499 15.2579H19.5358C20.1551 15.2579 20.6618 14.7512 20.6618 14.132C20.6618 13.5127 20.1551 13.006 19.5358 13.006H13.8499Z" fill="#D68004"/>
<path d="M18.9172 18.4532H14.5965C13.7239 18.4532 13.0061 17.7354 13.0061 16.8628C13.0061 15.9902 13.7239 15.2725 14.5965 15.2725H18.9172C19.7898 15.2725 20.5076 15.9902 20.5076 16.8628C20.5076 17.7354 19.7898 18.4532 18.9172 18.4532ZM14.5965 15.7369C13.9772 15.7369 13.4705 16.2436 13.4705 16.8628C13.4705 17.4821 13.9772 17.9888 14.5965 17.9888H18.9172C19.5365 17.9888 20.0431 17.4821 20.0431 16.8628C20.0431 16.2436 19.5365 15.7369 18.9172 15.7369H14.5965Z" fill="#D68004"/>
<path d="M18.3818 21H15.7077C14.8773 21 14.2018 20.3245 14.2018 19.4941C14.2018 18.6637 14.8773 17.9882 15.7077 17.9882H18.3818C19.2122 17.9882 19.8877 18.6637 19.8877 19.4941C19.8877 20.3245 19.2122 21 18.3818 21ZM15.7077 18.4526C15.1307 18.4526 14.6662 18.917 14.6662 19.4941C14.6662 20.0711 15.1307 20.5356 15.7077 20.5356H18.3818C18.9588 20.5356 19.4233 20.0711 19.4233 19.4941C19.4233 18.917 18.9588 18.4526 18.3818 18.4526H15.7077Z" fill="#D68004"/>
<defs>
<linearGradient id="paint0_linear" x1="20.9941" y1="17.3845" x2="5.27047" y2="8.3065" gradientUnits="userSpaceOnUse">
<stop offset="0.0005167" stop-color="#FFDD33"/>
<stop offset="0.3193" stop-color="#FFDA34"/>
<stop offset="0.5357" stop-color="#FFD138"/>
<stop offset="0.7218" stop-color="#FFC23D"/>
<stop offset="0.8897" stop-color="#FFAD46"/>
<stop offset="1" stop-color="#FF9A4D"/>
</linearGradient>
</defs>
</svg>
