<svg width="18" height="18" viewBox="0 0 18 18" fill="none" xmlns="http://www.w3.org/2000/svg">
<path d="M4 8H12V10C12 12.2091 10.2091 14 8 14C5.79086 14 4 12.2091 4 10V8Z" fill="white" fill-opacity="0.7"/>
<mask id="path-2-outside-1" maskUnits="userSpaceOnUse" x="1" y="0" width="17" height="18" fill="black">
<rect fill="white" x="1" width="17" height="18"/>
<path fill-rule="evenodd" clip-rule="evenodd" d="M5.79861 1.09897C5.57711 0.934068 5.26387 0.979953 5.09897 1.20145C4.93407 1.42296 4.97995 1.7362 5.20145 1.90109C5.41436 2.05959 5.50003 2.21175 5.50003 2.38804C5.50003 2.47131 5.4706 2.53502 5.33821 2.72977L5.24211 2.87582C5.07043 3.14836 5.00003 3.3432 5.00003 3.64063C5.00003 4.15978 5.25419 4.59662 5.71834 4.91313C5.94649 5.0687 6.25755 5.00987 6.41313 4.78172C6.5687 4.55358 6.50987 4.24251 6.28172 4.08693C6.0792 3.94884 6.00003 3.81275 6.00003 3.64063C6.00003 3.5555 6.02969 3.49131 6.1652 3.29198L6.25906 3.14923C6.42977 2.87816 6.50003 2.68379 6.50003 2.38804C6.50003 1.87663 6.25237 1.43678 5.79861 1.09897ZM9.09897 2.20145C9.26387 1.97995 9.57711 1.93407 9.79861 2.09897C10.2524 2.43678 10.5 2.87663 10.5 3.38804C10.5 3.68379 10.4298 3.87816 10.2591 4.14923L10.1652 4.29198C10.0297 4.49131 10 4.5555 10 4.64063C10 4.81275 10.0792 4.94884 10.2817 5.08693C10.5099 5.24251 10.5687 5.55358 10.4131 5.78172C10.3181 5.92103 10.1652 5.99721 10.0085 6H13.5C13.7761 6 14 6.22386 14 6.5V7H15C15.7797 7 16.4204 7.59489 16.4931 8.35554L16.5 8.5V10C16.5 11.5977 15.2511 12.9037 13.6763 12.9949C13.655 12.9977 13.497 12.9994 13.2023 12.9998C12.1599 14.7934 10.2209 16 8 16C4.68629 16 2 13.3137 2 10V6.5C2 6.22386 2.22386 6 2.5 6H9.99067C9.89658 5.99833 9.8019 5.97011 9.71834 5.91313C9.25419 5.59662 9.00003 5.15978 9.00003 4.64063C9.00003 4.3432 9.07043 4.14836 9.24211 3.87582L9.33821 3.72977C9.4706 3.53502 9.50003 3.47131 9.50003 3.38804C9.50003 3.21175 9.41436 3.05959 9.20145 2.90109C8.97995 2.7362 8.93407 2.42296 9.09897 2.20145ZM8 16H13.5C13.7761 16 14 16.2239 14 16.5C14 16.7761 13.7761 17 13.5 17H2.5C2.22386 17 2 16.7761 2 16.5C2 16.2239 2.22386 16 2.5 16H8ZM3 7H13V10C13 12.7614 10.7614 15 8 15C5.23858 15 3 12.6888 3 10V7ZM13.6612 11.9926C13.8806 11.3692 14 10.6985 14 10V8H15C15.3024 8 15.5 8.25454 15.5 8.5V10C15.5 11.0997 14.6482 11.9135 13.6612 11.9926Z"/>
</mask>
<path fill-rule="evenodd" clip-rule="evenodd" d="M5.79861 1.09897C5.57711 0.934068 5.26387 0.979953 5.09897 1.20145C4.93407 1.42296 4.97995 1.7362 5.20145 1.90109C5.41436 2.05959 5.50003 2.21175 5.50003 2.38804C5.50003 2.47131 5.4706 2.53502 5.33821 2.72977L5.24211 2.87582C5.07043 3.14836 5.00003 3.3432 5.00003 3.64063C5.00003 4.15978 5.25419 4.59662 5.71834 4.91313C5.94649 5.0687 6.25755 5.00987 6.41313 4.78172C6.5687 4.55358 6.50987 4.24251 6.28172 4.08693C6.0792 3.94884 6.00003 3.81275 6.00003 3.64063C6.00003 3.5555 6.02969 3.49131 6.1652 3.29198L6.25906 3.14923C6.42977 2.87816 6.50003 2.68379 6.50003 2.38804C6.50003 1.87663 6.25237 1.43678 5.79861 1.09897ZM9.09897 2.20145C9.26387 1.97995 9.57711 1.93407 9.79861 2.09897C10.2524 2.43678 10.5 2.87663 10.5 3.38804C10.5 3.68379 10.4298 3.87816 10.2591 4.14923L10.1652 4.29198C10.0297 4.49131 10 4.5555 10 4.64063C10 4.81275 10.0792 4.94884 10.2817 5.08693C10.5099 5.24251 10.5687 5.55358 10.4131 5.78172C10.3181 5.92103 10.1652 5.99721 10.0085 6H13.5C13.7761 6 14 6.22386 14 6.5V7H15C15.7797 7 16.4204 7.59489 16.4931 8.35554L16.5 8.5V10C16.5 11.5977 15.2511 12.9037 13.6763 12.9949C13.655 12.9977 13.497 12.9994 13.2023 12.9998C12.1599 14.7934 10.2209 16 8 16C4.68629 16 2 13.3137 2 10V6.5C2 6.22386 2.22386 6 2.5 6H9.99067C9.89658 5.99833 9.8019 5.97011 9.71834 5.91313C9.25419 5.59662 9.00003 5.15978 9.00003 4.64063C9.00003 4.3432 9.07043 4.14836 9.24211 3.87582L9.33821 3.72977C9.4706 3.53502 9.50003 3.47131 9.50003 3.38804C9.50003 3.21175 9.41436 3.05959 9.20145 2.90109C8.97995 2.7362 8.93407 2.42296 9.09897 2.20145ZM8 16H13.5C13.7761 16 14 16.2239 14 16.5C14 16.7761 13.7761 17 13.5 17H2.5C2.22386 17 2 16.7761 2 16.5C2 16.2239 2.22386 16 2.5 16H8ZM3 7H13V10C13 12.7614 10.7614 15 8 15C5.23858 15 3 12.6888 3 10V7ZM13.6612 11.9926C13.8806 11.3692 14 10.6985 14 10V8H15C15.3024 8 15.5 8.25454 15.5 8.5V10C15.5 11.0997 14.6482 11.9135 13.6612 11.9926Z" fill="#121212" fill-opacity="0.8"/>
<path d="M5.09897 1.20145L5.90109 1.79861L5.90109 1.79861L5.09897 1.20145ZM5.79861 1.09897L6.39576 0.29684L6.39576 0.296839L5.79861 1.09897ZM5.20145 1.90109L4.6043 2.70322L4.6043 2.70322L5.20145 1.90109ZM5.33821 2.72977L4.51121 2.16757L4.50697 2.1738L4.50283 2.1801L5.33821 2.72977ZM5.24211 2.87582L4.40673 2.32614L4.40128 2.33443L4.39599 2.34283L5.24211 2.87582ZM5.71834 4.91313L6.28172 4.08693L6.28172 4.08693L5.71834 4.91313ZM6.41313 4.78172L5.58693 4.21834L5.58693 4.21834L6.41313 4.78172ZM6.28172 4.08693L6.84511 3.26074H6.84511L6.28172 4.08693ZM6.1652 3.29198L6.99219 3.8542L6.99653 3.84782L7.00076 3.84138L6.1652 3.29198ZM6.25906 3.14923L7.09463 3.69863L7.10002 3.69042L7.10526 3.68211L6.25906 3.14923ZM9.79861 2.09897L9.20145 2.90109V2.90109L9.79861 2.09897ZM10.2591 4.14923L11.0946 4.69863L11.1 4.69042L11.1053 4.68211L10.2591 4.14923ZM10.1652 4.29198L10.9922 4.8542L10.9965 4.84782L11.0008 4.84138L10.1652 4.29198ZM10.2817 5.08693L9.71834 5.91313L9.71834 5.91313L10.2817 5.08693ZM10.4131 5.78172L9.58693 5.21834L9.58693 5.21834L10.4131 5.78172ZM10.0085 6L9.99071 5.00016L10.0085 7V6ZM14 7H13V8H14V7ZM16.4931 8.35554L17.492 8.30806L17.4909 8.2842L17.4886 8.26042L16.4931 8.35554ZM16.5 8.5H17.5V8.47625L17.4989 8.45252L16.5 8.5ZM13.6763 12.9949L13.6184 11.9966L13.5818 11.9987L13.5454 12.0035L13.6763 12.9949ZM13.2023 12.9998L13.2007 11.9998L12.6263 12.0008L12.3377 12.4974L13.2023 12.9998ZM9.99067 6V7L10.0085 5.00016L9.99067 6ZM9.71834 5.91313L10.2817 5.08693L10.2817 5.08693L9.71834 5.91313ZM9.24211 3.87582L8.40673 3.32614L8.40128 3.33443L8.39599 3.34283L9.24211 3.87582ZM9.33821 3.72977L8.51121 3.16757L8.50697 3.1738L8.50283 3.1801L9.33821 3.72977ZM9.20145 2.90109L8.6043 3.70322L8.6043 3.70322L9.20145 2.90109ZM13 7H14V6H13V7ZM3 7V6H2V7H3ZM13.6612 11.9926L12.7179 11.6606L12.2069 13.1124L13.7411 12.9894L13.6612 11.9926ZM14 8V7H13V8H14ZM5.90109 1.79861C5.7362 2.02011 5.42296 2.06599 5.20145 1.90109L6.39576 0.296839C5.73126 -0.197858 4.79154 -0.0602031 4.29684 0.604302L5.90109 1.79861ZM5.79861 1.09897C6.02011 1.26387 6.06599 1.5771 5.90109 1.79861L4.29684 0.604301C3.80214 1.26881 3.9398 2.20853 4.6043 2.70322L5.79861 1.09897ZM6.50003 2.38804C6.50003 1.79116 6.16738 1.3735 5.79861 1.09897L4.6043 2.70322C4.644 2.73277 4.61323 2.71917 4.57355 2.65317C4.5526 2.61831 4.53266 2.57456 4.51874 2.52367C4.50487 2.47295 4.50003 2.42632 4.50003 2.38804H6.50003ZM6.1652 3.29198C6.27341 3.13281 6.50003 2.82379 6.50003 2.38804H4.50003C4.50003 2.3457 4.50418 2.28782 4.51944 2.22232C4.534 2.1598 4.55317 2.11416 4.56434 2.09047C4.57412 2.06973 4.57879 2.06383 4.56821 2.08099C4.55808 2.09741 4.54081 2.12402 4.51121 2.16757L6.1652 3.29198ZM6.07749 3.42549L6.17358 3.27945L4.50283 2.1801L4.40673 2.32614L6.07749 3.42549ZM6.00003 3.64063C6.00003 3.57713 6.00669 3.56114 6.00755 3.55851C6.01111 3.54758 6.02514 3.50896 6.08823 3.4088L4.39599 2.34283C4.15018 2.73306 4.00003 3.11051 4.00003 3.64063H6.00003ZM6.28172 4.08693C6.05088 3.92952 6.00003 3.78364 6.00003 3.64063H4.00003C4.00003 4.53592 4.4575 5.26372 5.15495 5.73932L6.28172 4.08693ZM5.58693 4.21834C5.74251 3.99019 6.05358 3.93136 6.28172 4.08693L5.15495 5.73932C5.8394 6.20605 6.7726 6.02955 7.23932 5.34511L5.58693 4.21834ZM5.71834 4.91313C5.49019 4.75755 5.43136 4.44649 5.58693 4.21834L7.23932 5.34511C7.70605 4.66067 7.52955 3.72746 6.84511 3.26074L5.71834 4.91313ZM5.00003 3.64063C5.00003 3.89426 5.06243 4.15721 5.21489 4.40326C5.35752 4.63343 5.54627 4.7958 5.71834 4.91313L6.84511 3.26074C6.81465 3.23997 6.86256 3.26524 6.91497 3.34983C6.94234 3.39399 6.96552 3.44573 6.98084 3.50233C6.99592 3.55804 7.00003 3.60605 7.00003 3.64063H5.00003ZM5.33821 2.72977C5.22709 2.89322 5.00003 3.20288 5.00003 3.64063H7.00003C7.00003 3.6816 6.99607 3.73895 6.98089 3.80434C6.96638 3.86686 6.94723 3.91243 6.93615 3.93592C6.9265 3.95636 6.92208 3.9618 6.93318 3.94382C6.94381 3.9266 6.96172 3.89902 6.99219 3.8542L5.33821 2.72977ZM5.4235 2.59983L5.32964 2.74259L7.00076 3.84138L7.09463 3.69863L5.4235 2.59983ZM5.50003 2.38804C5.50003 2.45038 5.49349 2.46586 5.49272 2.4682C5.48927 2.4788 5.47542 2.51704 5.41287 2.61635L7.10526 3.68211C7.34994 3.29356 7.50003 2.9166 7.50003 2.38804H5.50003ZM5.20145 1.90109C5.44714 2.084 5.50003 2.24525 5.50003 2.38804H7.50003C7.50003 1.508 7.0576 0.789557 6.39576 0.29684L5.20145 1.90109ZM10.3958 1.29684C9.73126 0.802142 8.79154 0.939798 8.29684 1.6043L9.90109 2.79861C9.7362 3.02011 9.42296 3.06599 9.20145 2.90109L10.3958 1.29684ZM11.5 3.38804C11.5 2.508 11.0576 1.78956 10.3958 1.29684L9.20145 2.90109C9.44714 3.084 9.50003 3.24525 9.50003 3.38804H11.5ZM11.1053 4.68211C11.3499 4.29356 11.5 3.91659 11.5 3.38804H9.50003C9.50003 3.45038 9.49349 3.46586 9.49272 3.4682C9.48927 3.4788 9.47542 3.51704 9.41287 3.61635L11.1053 4.68211ZM11.0008 4.84138L11.0946 4.69863L9.4235 3.59983L9.32964 3.74259L11.0008 4.84138ZM11 4.64063C11 4.6816 10.9961 4.73895 10.9809 4.80435C10.9664 4.86687 10.9472 4.91244 10.9361 4.93592C10.9265 4.95636 10.9221 4.9618 10.9332 4.94382C10.9438 4.9266 10.9617 4.89902 10.9922 4.8542L9.33821 3.72977C9.22709 3.89322 9.00003 4.20288 9.00003 4.64063H11ZM10.8451 4.26074C10.8147 4.23997 10.8626 4.26524 10.915 4.34982C10.9423 4.39399 10.9655 4.44572 10.9808 4.50233C10.9959 4.55804 11 4.60605 11 4.64063H9.00003C9.00003 4.89427 9.06244 5.15722 9.21489 5.40326C9.35752 5.63343 9.54627 5.7958 9.71834 5.91313L10.8451 4.26074ZM11.2393 6.34511C11.706 5.66067 11.5295 4.72746 10.8451 4.26074L9.71834 5.91313C9.49019 5.75755 9.43136 5.44649 9.58693 5.21834L11.2393 6.34511ZM10.0263 6.99984C10.4933 6.99153 10.9539 6.7637 11.2393 6.34511L9.58693 5.21834C9.68238 5.07836 9.83699 5.00289 9.99071 5.00016L10.0263 6.99984ZM13.5 5H10.0085V7H13.5V5ZM15 6.5C15 5.67157 14.3284 5 13.5 5V7C13.2239 7 13 6.77614 13 6.5H15ZM15 7V6.5H13V7H15ZM15 6H14V8H15V6ZM17.4886 8.26042C17.3674 6.9916 16.3001 6 15 6V8C15.2593 8 15.4735 8.19818 15.4977 8.45066L17.4886 8.26042ZM17.4989 8.45252L17.492 8.30806L15.4943 8.40302L15.5011 8.54748L17.4989 8.45252ZM17.5 10V8.5H15.5V10H17.5ZM13.7341 13.9932C15.8348 13.8715 17.5 12.1306 17.5 10H15.5C15.5 11.0648 14.6674 11.9358 13.6184 11.9966L13.7341 13.9932ZM13.2039 13.9998C13.3522 13.9996 13.4688 13.9991 13.5522 13.9982C13.5935 13.9978 13.63 13.9972 13.6595 13.9965C13.6604 13.9965 13.7367 13.9956 13.8071 13.9863L13.5454 12.0035C13.5745 11.9997 13.5966 11.9982 13.6014 11.9978C13.6096 11.9973 13.6152 11.997 13.6165 11.9969C13.6193 11.9968 13.6178 11.9969 13.6098 11.9971C13.5945 11.9975 13.5691 11.9979 13.5314 11.9983C13.4568 11.9991 13.3471 11.9996 13.2007 11.9998L13.2039 13.9998ZM8 17C10.5926 17 12.8534 15.5902 14.0669 13.5023L12.3377 12.4974C11.4664 13.9966 9.8491 15 8 15V17ZM1 10C1 13.866 4.13401 17 8 17V15C5.23858 15 3 12.7614 3 10H1ZM1 6.5V10H3V6.5H1ZM2.5 5C1.67157 5 1 5.67157 1 6.5H3C3 6.77614 2.77614 7 2.5 7V5ZM9.99067 5H2.5V7H9.99067V5ZM9.15495 6.73932C9.40442 6.90944 9.68985 6.99481 9.97288 6.99984L10.0085 5.00016C10.1033 5.00185 10.1994 5.03078 10.2817 5.08693L9.15495 6.73932ZM8.00003 4.64063C8.00003 5.53592 8.4575 6.26372 9.15495 6.73932L10.2817 5.08693C10.0509 4.92952 10 4.78364 10 4.64063H8.00003ZM8.39599 3.34283C8.15018 3.73306 8.00003 4.11051 8.00003 4.64063H10C10 4.57713 10.0067 4.56114 10.0076 4.55851C10.0111 4.54758 10.0251 4.50896 10.0882 4.4088L8.39599 3.34283ZM8.50283 3.1801L8.40673 3.32614L10.0775 4.42549L10.1736 4.27945L8.50283 3.1801ZM8.50003 3.38804C8.50003 3.3457 8.50418 3.28782 8.51944 3.22232C8.534 3.1598 8.55317 3.11416 8.56434 3.09047C8.57412 3.06973 8.57879 3.06384 8.56821 3.08099C8.55808 3.09741 8.54081 3.12402 8.51121 3.16757L10.1652 4.29198C10.2734 4.13281 10.5 3.82379 10.5 3.38804H8.50003ZM8.6043 3.70322C8.644 3.73277 8.61323 3.71917 8.57355 3.65317C8.5526 3.61831 8.53266 3.57456 8.51874 3.52367C8.50487 3.47295 8.50003 3.42632 8.50003 3.38804H10.5C10.5 2.79116 10.1674 2.3735 9.79861 2.09897L8.6043 3.70322ZM8.29684 1.6043C7.80214 2.26881 7.9398 3.20853 8.6043 3.70322L9.79861 2.09897C10.0201 2.26387 10.066 2.5771 9.90109 2.79861L8.29684 1.6043ZM13.5 15H8V17H13.5V15ZM15 16.5C15 15.6716 14.3284 15 13.5 15V17C13.2239 17 13 16.7761 13 16.5H15ZM13.5 18C14.3284 18 15 17.3284 15 16.5H13C13 16.2239 13.2239 16 13.5 16V18ZM2.5 18H13.5V16H2.5V18ZM1 16.5C1 17.3284 1.67157 18 2.5 18V16C2.77614 16 3 16.2239 3 16.5H1ZM2.5 15C1.67157 15 1 15.6716 1 16.5H3C3 16.7761 2.77614 17 2.5 17V15ZM8 15H2.5V17H8V15ZM13 6H3V8H13V6ZM14 10V7H12V10H14ZM8 16C11.3137 16 14 13.3137 14 10H12C12 12.2091 10.2091 14 8 14V16ZM2 10C2 13.2316 4.6769 16 8 16V14C5.80026 14 4 12.1459 4 10H2ZM2 7V10H4V7H2ZM13 10C13 10.5839 12.9003 11.1423 12.7179 11.6606L14.6045 12.3246C14.8609 11.596 15 10.8131 15 10H13ZM13 8V10H15V8H13ZM15 7H14V9H15V7ZM16.5 8.5C16.5 7.7776 15.9271 7 15 7V9C14.8529 9 14.7175 8.93244 14.6291 8.8368C14.5512 8.75256 14.5 8.63728 14.5 8.5H16.5ZM16.5 10V8.5H14.5V10H16.5ZM13.7411 12.9894C15.2132 12.8714 16.5 11.655 16.5 10H14.5C14.5 10.5444 14.0833 10.9556 13.5813 10.9958L13.7411 12.9894Z" fill="white" fill-opacity="0.7" mask="url(#path-2-outside-1)"/>
</svg>
