<svg width="18" height="18" viewBox="0 0 18 18" fill="none" xmlns="http://www.w3.org/2000/svg">
                    <path d="M6.67693 3.42398L6.67684 3.42393L6.58298 3.56668L6.57875 3.57312L6.5787 3.57309C6.55842 3.60292 6.54195 3.62764 6.52848 3.64843C6.53792 3.65582 6.54944 3.6643 6.56342 3.67384C7.01971 3.98498 7.13737 4.60712 6.82623 5.06342C6.51508 5.51971 5.89294 5.63737 5.43665 5.32623M6.67693 3.42398L5.43665 5.32623M6.67693 3.42398L6.68216 3.41567M6.67693 3.42398L6.68216 3.41567M5.43665 5.32623C4.85584 4.93017 4.50003 4.34785 4.50003 3.64063C4.50003 3.22685 4.6103 2.94071 4.81905 2.60932M5.43665 5.32623L4.81905 2.60932M6.68216 3.41567C6.88986 3.08586 7.00003 2.80019 7.00003 2.38804C7.00003 1.69231 6.65499 1.11317 6.09718 0.697903C5.65418 0.368105 5.0277 0.459875 4.6979 0.902878C4.3681 1.34588 4.45988 1.97236 4.90288 2.30216C4.93984 2.32967 4.96372 2.35146 4.97883 2.36718C4.96483 2.38901 4.94718 2.41561 4.92471 2.44867L4.92466 2.44864L4.92052 2.45494L4.82442 2.60098L4.82434 2.60092M6.68216 3.41567L4.82434 2.60092M4.82434 2.60092L4.81905 2.60932M4.82434 2.60092L4.81905 2.60932" fill="#00A0D1" stroke="white"/>
                    <rect x="4" y="8" width="8" height="6" fill="white"/>
                    <mask id="path-3-outside-1" maskUnits="userSpaceOnUse" x="1" y="1" width="17" height="17" fill="black">
                    <rect fill="white" x="1" y="1" width="17" height="17"/>
                    <path fill-rule="evenodd" clip-rule="evenodd" d="M9.79861 2.09897C9.57711 1.93407 9.26387 1.97995 9.09897 2.20145C8.93407 2.42296 8.97995 2.7362 9.20145 2.90109C9.41436 3.05959 9.50003 3.21175 9.50003 3.38804C9.50003 3.47131 9.4706 3.53502 9.33821 3.72977L9.24211 3.87582C9.07043 4.14836 9.00003 4.3432 9.00003 4.64063C9.00003 5.15978 9.25419 5.59662 9.71834 5.91313C9.8019 5.97011 9.89658 5.99833 9.99067 6H2.5C2.22386 6 2 6.22386 2 6.5V10C2 13.3137 4.68629 16 8 16H2.5C2.22386 16 2 16.2239 2 16.5C2 16.7761 2.22386 17 2.5 17H13.5C13.7761 17 14 16.7761 14 16.5C14 16.2239 13.7761 16 13.5 16H8C10.2209 16 12.1599 14.7934 13.2023 12.9998C13.497 12.9994 13.655 12.9977 13.6763 12.9949C15.2511 12.9037 16.5 11.5977 16.5 10V8.5L16.4931 8.35554C16.4204 7.59489 15.7797 7 15 7H14V6.5C14 6.22386 13.7761 6 13.5 6H10.0085C10.1652 5.99721 10.3181 5.92103 10.4131 5.78172C10.5687 5.55358 10.5099 5.24251 10.2817 5.08693C10.0792 4.94884 10 4.81275 10 4.64063C10 4.5555 10.0297 4.49131 10.1652 4.29198L10.2591 4.14923C10.4298 3.87816 10.5 3.68379 10.5 3.38804C10.5 2.87663 10.2524 2.43678 9.79861 2.09897ZM13 7H3V10C3 12.6888 5.23858 15 8 15C10.7614 15 13 12.7614 13 10V7ZM14 10C14 10.6985 13.8806 11.3692 13.6612 11.9926C14.6482 11.9135 15.5 11.0997 15.5 10V8.5C15.5 8.25454 15.3024 8 15 8H14V10Z"/>
                    </mask>
                    <path fill-rule="evenodd" clip-rule="evenodd" d="M9.79861 2.09897C9.57711 1.93407 9.26387 1.97995 9.09897 2.20145C8.93407 2.42296 8.97995 2.7362 9.20145 2.90109C9.41436 3.05959 9.50003 3.21175 9.50003 3.38804C9.50003 3.47131 9.4706 3.53502 9.33821 3.72977L9.24211 3.87582C9.07043 4.14836 9.00003 4.3432 9.00003 4.64063C9.00003 5.15978 9.25419 5.59662 9.71834 5.91313C9.8019 5.97011 9.89658 5.99833 9.99067 6H2.5C2.22386 6 2 6.22386 2 6.5V10C2 13.3137 4.68629 16 8 16H2.5C2.22386 16 2 16.2239 2 16.5C2 16.7761 2.22386 17 2.5 17H13.5C13.7761 17 14 16.7761 14 16.5C14 16.2239 13.7761 16 13.5 16H8C10.2209 16 12.1599 14.7934 13.2023 12.9998C13.497 12.9994 13.655 12.9977 13.6763 12.9949C15.2511 12.9037 16.5 11.5977 16.5 10V8.5L16.4931 8.35554C16.4204 7.59489 15.7797 7 15 7H14V6.5C14 6.22386 13.7761 6 13.5 6H10.0085C10.1652 5.99721 10.3181 5.92103 10.4131 5.78172C10.5687 5.55358 10.5099 5.24251 10.2817 5.08693C10.0792 4.94884 10 4.81275 10 4.64063C10 4.5555 10.0297 4.49131 10.1652 4.29198L10.2591 4.14923C10.4298 3.87816 10.5 3.68379 10.5 3.38804C10.5 2.87663 10.2524 2.43678 9.79861 2.09897ZM13 7H3V10C3 12.6888 5.23858 15 8 15C10.7614 15 13 12.7614 13 10V7ZM14 10C14 10.6985 13.8806 11.3692 13.6612 11.9926C14.6482 11.9135 15.5 11.0997 15.5 10V8.5C15.5 8.25454 15.3024 8 15 8H14V10Z" fill="#00A0D1"/>
                    <path d="M9.09897 2.20145L9.90109 2.79861L9.09897 2.20145ZM9.79861 2.09897L9.20145 2.90109V2.90109L9.79861 2.09897ZM9.20145 2.90109L8.6043 3.70322L8.6043 3.70322L9.20145 2.90109ZM9.33821 3.72977L8.51121 3.16757L8.50697 3.1738L8.50283 3.1801L9.33821 3.72977ZM9.24211 3.87582L8.40673 3.32614L8.40128 3.33443L8.39599 3.34283L9.24211 3.87582ZM9.71834 5.91313L10.2817 5.08693L9.71834 5.91313ZM9.99067 6V7L10.0085 5.00016L9.99067 6ZM13.2023 12.9998L13.2007 11.9998L12.6263 12.0008L12.3377 12.4974L13.2023 12.9998ZM13.6763 12.9949L13.6184 11.9966L13.5818 11.9987L13.5454 12.0035L13.6763 12.9949ZM16.5 8.5H17.5V8.47625L17.4989 8.45252L16.5 8.5ZM16.4931 8.35554L17.492 8.30806L17.4909 8.2842L17.4886 8.26042L16.4931 8.35554ZM14 7H13V8H14V7ZM10.0085 6L9.99071 5.00016L10.0085 7V6ZM10.4131 5.78172L9.58693 5.21834L9.58693 5.21834L10.4131 5.78172ZM10.2817 5.08693L9.71834 5.91313L9.71834 5.91313L10.2817 5.08693ZM10.1652 4.29198L10.9922 4.8542L10.9965 4.84782L11.0008 4.84138L10.1652 4.29198ZM10.2591 4.14923L11.0946 4.69863L11.1 4.69042L11.1053 4.68211L10.2591 4.14923ZM3 7V6H2V7H3ZM13 7H14V6H13V7ZM13.6612 11.9926L12.7179 11.6606L12.2069 13.1124L13.7411 12.9894L13.6612 11.9926ZM14 8V7H13V8H14ZM9.90109 2.79861C9.7362 3.02011 9.42296 3.06599 9.20145 2.90109L10.3958 1.29684C9.73126 0.802142 8.79154 0.939798 8.29684 1.6043L9.90109 2.79861ZM9.79861 2.09897C10.0201 2.26387 10.066 2.5771 9.90109 2.79861L8.29684 1.6043C7.80214 2.26881 7.9398 3.20853 8.6043 3.70322L9.79861 2.09897ZM10.5 3.38804C10.5 2.79116 10.1674 2.3735 9.79861 2.09897L8.6043 3.70322C8.644 3.73277 8.61323 3.71917 8.57355 3.65317C8.5526 3.61831 8.53266 3.57456 8.51874 3.52367C8.50487 3.47295 8.50003 3.42632 8.50003 3.38804H10.5ZM10.1652 4.29198C10.2734 4.13281 10.5 3.82379 10.5 3.38804H8.50003C8.50003 3.3457 8.50418 3.28782 8.51944 3.22232C8.534 3.1598 8.55317 3.11416 8.56434 3.09047C8.57412 3.06973 8.57879 3.06384 8.56821 3.08099C8.55808 3.09741 8.54081 3.12402 8.51121 3.16757L10.1652 4.29198ZM10.0775 4.42549L10.1736 4.27945L8.50283 3.1801L8.40673 3.32614L10.0775 4.42549ZM10 4.64063C10 4.57713 10.0067 4.56114 10.0076 4.55851C10.0111 4.54758 10.0251 4.50896 10.0882 4.4088L8.39599 3.34283C8.15018 3.73306 8.00003 4.11051 8.00003 4.64063H10ZM10.2817 5.08693C10.0509 4.92952 10 4.78364 10 4.64063H8.00003C8.00003 5.53592 8.4575 6.26372 9.15495 6.73932L10.2817 5.08693ZM10.0085 5.00016C10.1033 5.00185 10.1994 5.03078 10.2817 5.08693L9.15495 6.73932C9.40443 6.90944 9.68985 6.9948 9.97287 6.99984L10.0085 5.00016ZM9.99067 5H2.5V7H9.99067V5ZM2.5 5C1.67157 5 1 5.67157 1 6.5H3C3 6.77614 2.77614 7 2.5 7V5ZM1 6.5V10H3V6.5H1ZM1 10C1 13.866 4.13401 17 8 17V15C5.23858 15 3 12.7614 3 10H1ZM8 15H2.5V17H8V15ZM2.5 15C1.67157 15 1 15.6716 1 16.5H3C3 16.7761 2.77614 17 2.5 17V15ZM1 16.5C1 17.3284 1.67157 18 2.5 18V16C2.77614 16 3 16.2239 3 16.5H1ZM2.5 18H13.5V16H2.5V18ZM13.5 18C14.3284 18 15 17.3284 15 16.5H13C13 16.2239 13.2239 16 13.5 16V18ZM15 16.5C15 15.6716 14.3284 15 13.5 15V17C13.2239 17 13 16.7761 13 16.5H15ZM13.5 15H8V17H13.5V15ZM8 17C10.5926 17 12.8534 15.5902 14.0669 13.5023L12.3377 12.4974C11.4664 13.9966 9.8491 15 8 15V17ZM13.2039 13.9998C13.3522 13.9996 13.4688 13.9991 13.5522 13.9982C13.5935 13.9978 13.63 13.9972 13.6595 13.9965C13.6604 13.9965 13.7367 13.9956 13.8071 13.9863L13.5454 12.0035C13.5745 11.9997 13.5966 11.9982 13.6014 11.9978C13.6096 11.9973 13.6152 11.997 13.6165 11.9969C13.6193 11.9968 13.6178 11.9969 13.6098 11.9971C13.5945 11.9975 13.5691 11.9979 13.5314 11.9983C13.4568 11.9991 13.3471 11.9996 13.2007 11.9998L13.2039 13.9998ZM13.7341 13.9932C15.8348 13.8715 17.5 12.1306 17.5 10H15.5C15.5 11.0648 14.6674 11.9358 13.6184 11.9966L13.7341 13.9932ZM17.5 10V8.5H15.5V10H17.5ZM17.4989 8.45252L17.492 8.30806L15.4943 8.40302L15.5011 8.54748L17.4989 8.45252ZM17.4886 8.26042C17.3674 6.9916 16.3001 6 15 6V8C15.2593 8 15.4735 8.19818 15.4977 8.45066L17.4886 8.26042ZM15 6H14V8H15V6ZM15 7V6.5H13V7H15ZM15 6.5C15 5.67157 14.3284 5 13.5 5V7C13.2239 7 13 6.77614 13 6.5H15ZM13.5 5H10.0085V7H13.5V5ZM9.58693 5.21834C9.68238 5.07836 9.83699 5.00289 9.99071 5.00016L10.0263 6.99984C10.4933 6.99153 10.9539 6.7637 11.2393 6.34511L9.58693 5.21834ZM9.71834 5.91313C9.49019 5.75755 9.43136 5.44649 9.58693 5.21834L11.2393 6.34511C11.706 5.66067 11.5295 4.72746 10.8451 4.26074L9.71834 5.91313ZM9.00003 4.64063C9.00003 4.89427 9.06244 5.15722 9.21489 5.40326C9.35752 5.63343 9.54627 5.7958 9.71834 5.91313L10.8451 4.26074C10.8147 4.23997 10.8626 4.26524 10.915 4.34982C10.9423 4.39399 10.9655 4.44572 10.9808 4.50233C10.9959 4.55804 11 4.60605 11 4.64063H9.00003ZM9.33821 3.72977C9.22709 3.89322 9.00003 4.20288 9.00003 4.64063H11C11 4.6816 10.9961 4.73895 10.9809 4.80435C10.9664 4.86687 10.9472 4.91244 10.9361 4.93592C10.9265 4.95636 10.9221 4.9618 10.9332 4.94382C10.9438 4.9266 10.9617 4.89902 10.9922 4.8542L9.33821 3.72977ZM9.4235 3.59983L9.32964 3.74259L11.0008 4.84138L11.0946 4.69863L9.4235 3.59983ZM9.50003 3.38804C9.50003 3.45038 9.49349 3.46586 9.49272 3.4682C9.48927 3.4788 9.47542 3.51704 9.41287 3.61635L11.1053 4.68211C11.3499 4.29356 11.5 3.91659 11.5 3.38804H9.50003ZM9.20145 2.90109C9.44714 3.084 9.50003 3.24525 9.50003 3.38804H11.5C11.5 2.508 11.0576 1.78956 10.3958 1.29684L9.20145 2.90109ZM3 8H13V6H3V8ZM4 10V7H2V10H4ZM8 14C5.80026 14 4 12.1459 4 10H2C2 13.2316 4.6769 16 8 16V14ZM12 10C12 12.2091 10.2091 14 8 14V16C11.3137 16 14 13.3137 14 10H12ZM12 7V10H14V7H12ZM14.6045 12.3246C14.8609 11.596 15 10.8131 15 10H13C13 10.5839 12.9003 11.1423 12.7179 11.6606L14.6045 12.3246ZM14.5 10C14.5 10.5444 14.0833 10.9556 13.5813 10.9958L13.7411 12.9894C15.2132 12.8714 16.5 11.655 16.5 10H14.5ZM14.5 8.5V10H16.5V8.5H14.5ZM15 9C14.8529 9 14.7175 8.93244 14.6291 8.8368C14.5512 8.75256 14.5 8.63728 14.5 8.5H16.5C16.5 7.7776 15.9271 7 15 7V9ZM14 9H15V7H14V9ZM15 10V8H13V10H15Z" fill="white" mask="url(#path-3-outside-1)"/>
                </svg>