<svg width="19" height="18" viewBox="0 0 19 18" fill="none" xmlns="http://www.w3.org/2000/svg">
<path d="M5.78131 5.7695L5.76246 5.77414L5.74403 5.78023C3.96043 6.36943 2.81806 8.15051 3.02387 10.0187L3.02392 10.0192L3.23192 11.8922L3.23194 11.8924C3.58813 15.0884 6.28201 17.5 9.49786 17.5C13.083 17.5 15.9979 14.5851 15.9979 11V4.5C15.9979 3.39686 15.101 2.5 13.9979 2.5C13.908 2.5 13.8196 2.50619 13.733 2.518C13.3916 1.91359 12.7463 1.5 11.9979 1.5C11.908 1.5 11.8196 1.50619 11.733 1.518C11.3916 0.913589 10.7463 0.5 9.99786 0.5C9.24993 0.5 8.60368 0.913202 8.26237 1.51798C8.17603 1.50619 8.08774 1.5 7.99786 1.5C6.89472 1.5 5.99786 2.39686 5.99786 3.5V5.71618L5.78131 5.7695Z" fill="white" stroke="white"/>
<path fill-rule="evenodd" clip-rule="evenodd" d="M14.4979 11C14.4979 13.757 12.2549 16 9.49786 16C7.04686 16 4.99386 14.162 4.72386 11.726L4.51586 9.854C4.38586 8.687 5.10086 7.572 6.17786 7.215L6.49786 7.137V11.5C6.49786 11.776 6.72186 12 6.99786 12C7.27386 12 7.49786 11.776 7.49786 11.5V3.5C7.49786 3.225 7.72286 3 7.99786 3C8.27286 3 8.49786 3.225 8.49786 3.5V9.5C8.49786 9.776 8.72186 10 8.99786 10C9.27386 10 9.49786 9.776 9.49786 9.5V3.5V2.5C9.49786 2.225 9.72286 2 9.99786 2C10.2729 2 10.4979 2.225 10.4979 2.5V3.5V9.5C10.4979 9.776 10.7219 10 10.9979 10C11.2739 10 11.4979 9.776 11.4979 9.5V3.5C11.4979 3.225 11.7229 3 11.9979 3C12.2729 3 12.4979 3.225 12.4979 3.5V4.5V9.5C12.4979 9.776 12.7219 10 12.9979 10C13.2739 10 13.4979 9.776 13.4979 9.5V4.5C13.4979 4.225 13.7229 4 13.9979 4C14.2729 4 14.4979 4.225 14.4979 4.5V11ZM13.9979 3C13.8009 3 13.6119 3.04 13.4399 3.11C13.2669 2.473 12.6889 2 11.9979 2C11.8009 2 11.6119 2.04 11.4399 2.11C11.2669 1.473 10.6889 1 9.99786 1C9.30686 1 8.72786 1.473 8.55586 2.11C8.38286 2.04 8.19486 2 7.99786 2C7.17086 2 6.49786 2.673 6.49786 3.5V6.108L5.90086 6.255C4.34186 6.77 3.34086 8.33 3.52086 9.964L3.72886 11.837C4.05686 14.78 6.53686 17 9.49786 17C12.8069 17 15.4979 14.309 15.4979 11V4.5C15.4979 3.673 14.8249 3 13.9979 3Z" fill="#00A0D1"/>
</svg>
