<svg width="18" height="18" viewBox="0 0 18 18" fill="none" xmlns="http://www.w3.org/2000/svg">
<path fill-rule="evenodd" clip-rule="evenodd" d="M13.4979 3C13.3009 3 13.1119 3.04 12.9399 3.11C12.7669 2.473 12.1889 2 11.4979 2C11.3009 2 11.1119 2.04 10.9399 2.11C10.7669 1.473 10.1889 1 9.49786 1C8.80686 1 8.22786 1.473 8.05586 2.11C7.88286 2.04 7.69486 2 7.49786 2C6.67086 2 5.99786 2.673 5.99786 3.5V6.108L5.40086 6.255C3.84186 6.77 2.84086 8.33 3.02086 9.964L3.22886 11.837C3.55686 14.78 6.03686 17 8.99786 17C12.3069 17 14.9979 14.309 14.9979 11V4.5C14.9979 3.673 14.3249 3 13.4979 3Z" fill="white" fill-opacity="0.7"/>
<path d="M5.28131 5.7695L5.26246 5.77414L5.24403 5.78023C3.46043 6.36943 2.31806 8.15051 2.52387 10.0187L2.52392 10.0192L2.73192 11.8922L2.73194 11.8924C3.08813 15.0884 5.78201 17.5 8.99786 17.5C12.583 17.5 15.4979 14.5851 15.4979 11V4.5C15.4979 3.39686 14.601 2.5 13.4979 2.5C13.408 2.5 13.3196 2.50619 13.233 2.518C12.8916 1.91359 12.2463 1.5 11.4979 1.5C11.408 1.5 11.3196 1.50619 11.233 1.518C10.8916 0.913589 10.2463 0.5 9.49786 0.5C8.74993 0.5 8.10368 0.913202 7.76237 1.51798C7.67603 1.50619 7.58774 1.5 7.49786 1.5C6.39472 1.5 5.49786 2.39686 5.49786 3.5V5.71618L5.28131 5.7695Z" stroke="white" stroke-opacity="0.7"/>
<path fill-rule="evenodd" clip-rule="evenodd" d="M13.9979 11C13.9979 13.757 11.7549 16 8.99786 16C6.54686 16 4.49386 14.162 4.22386 11.726L4.01586 9.854C3.88586 8.687 4.60086 7.572 5.67786 7.215L5.99786 7.137V11.5C5.99786 11.776 6.22186 12 6.49786 12C6.77386 12 6.99786 11.776 6.99786 11.5V3.5C6.99786 3.225 7.22286 3 7.49786 3C7.77286 3 7.99786 3.225 7.99786 3.5V9.5C7.99786 9.776 8.22186 10 8.49786 10C8.77386 10 8.99786 9.776 8.99786 9.5V3.5V2.5C8.99786 2.225 9.22286 2 9.49786 2C9.77286 2 9.99786 2.225 9.99786 2.5V3.5V9.5C9.99786 9.776 10.2219 10 10.4979 10C10.7739 10 10.9979 9.776 10.9979 9.5V3.5C10.9979 3.225 11.2229 3 11.4979 3C11.7729 3 11.9979 3.225 11.9979 3.5V4.5V9.5C11.9979 9.776 12.2219 10 12.4979 10C12.7739 10 12.9979 9.776 12.9979 9.5V4.5C12.9979 4.225 13.2229 4 13.4979 4C13.7729 4 13.9979 4.225 13.9979 4.5V11ZM13.4979 3C13.3009 3 13.1119 3.04 12.9399 3.11C12.7669 2.473 12.1889 2 11.4979 2C11.3009 2 11.1119 2.04 10.9399 2.11C10.7669 1.473 10.1889 1 9.49786 1C8.80686 1 8.22786 1.473 8.05586 2.11C7.88286 2.04 7.69486 2 7.49786 2C6.67086 2 5.99786 2.673 5.99786 3.5V6.108L5.40086 6.255C3.84186 6.77 2.84086 8.33 3.02086 9.964L3.22886 11.837C3.55686 14.78 6.03686 17 8.99786 17C12.3069 17 14.9979 14.309 14.9979 11V4.5C14.9979 3.673 14.3249 3 13.4979 3Z" fill="#121212" fill-opacity="0.8"/>
</svg>
