
<svg width="48px" height="40px" viewBox="0 0 48 40" version="1.1" xmlns="http://www.w3.org/2000/svg" xmlns:xlink="http://www.w3.org/1999/xlink">
    <g id="Symbols" stroke="none" stroke-width="1" fill="none" fill-rule="evenodd">
        <g id="Desktop-Windows" transform="translate(-440.000000, -860.000000)">
            <g id="task-bar">
                <g transform="translate(0.000000, 860.000000)">
                    <g id="webex" transform="translate(440.000000, 0.000000)">
                        <rect id="Rectangle-2" fill="#4E5253" x="0" y="0" width="48" height="40"></rect>
                        <rect id="Rectangle-3" fill="#049FD9" x="0" y="36" width="48" height="4"></rect>
                        <g id="webex-logo" transform="translate(14.000000, 10.000000)">
                            <g id="webex-ball">
                                <circle id="bottom" fill="#00BCEB" transform="translate(10.000000, 10.000000) rotate(-360.000000) translate(-10.000000, -10.000000) " cx="10" cy="10" r="10"></circle>
                                <circle id="top" fill="#FFFFFF" transform="translate(10.000000, 10.000000) rotate(-90.000000) translate(-10.000000, -10.000000) " cx="10" cy="10" r="6.5234375"></circle>
                                <path d="M14.1285626,4.45394679 L14.1288409,4.45386647 C14.0365172,3.91640129 14.1978258,3.34387325 14.6127669,2.92893219 C15.2916079,2.25009113 16.3922268,2.25009113 17.0710678,2.92893219 C20.9763107,6.83417511 20.9763107,13.1658249 17.0710678,17.0710678 C13.1658249,20.9763107 6.83417511,20.9763107 2.92893219,17.0710678 C2.25009113,16.3922268 2.25009113,15.2916079 2.92893219,14.6127669 C3.35048481,14.1912143 3.93468632,14.0314411 4.47953047,14.1334473 L4.47954854,14.1334218 C7.07121555,14.6210961 9.85122409,13.8621914 11.8567078,11.8567078 C13.8687967,9.84461879 14.6260817,7.05289455 14.1285626,4.45394679 L14.1285626,4.45394679 Z" id="shape" fill="#005072"></path>
                                <path d="M16.0284471,12.4970647 C15.7101049,13.2664733 15.2382115,13.9873223 14.6127669,14.6127669 C13.9873223,15.2382115 13.2664733,15.7101049 12.4970647,16.0284471 C11.7279086,16.3473993 10.8845123,16.5234375 10,16.5234375 C9.11548774,16.5234375 8.27209141,16.3473993 7.50293541,16.0284472 C6.73352672,15.7101049 6.01267768,15.2382115 5.38723311,14.6127669 C5.37973602,14.6052698 5.372261,14.597759 5.36480804,14.5902346 C5.2460691,14.4703384 5.13194806,14.3458602 5.02273483,14.2170883 C7.45418613,14.509497 9.99071208,13.7227034 11.8567078,11.8567078 C13.7227034,9.99071208 14.509497,7.45418613 14.2170883,5.02273483 C14.3458602,5.13194806 14.4703384,5.2460691 14.590234,5.36480904 C14.597759,5.372261 14.6052698,5.37973602 14.6127669,5.38723311 C15.2382115,6.01267768 15.7101049,6.73352672 16.0284471,7.50293525 C16.3473993,8.27209141 16.5234375,9.11548774 16.5234375,10 C16.5234375,10.8845123 16.3473993,11.7279086 16.0284472,12.4970646 L16.0284471,12.4970647 Z" id="shape" fill="#6EBE4A"></path>
                            </g>
                        </g>
                    </g>
                </g>
            </g>
        </g>
    </g>
</svg>