<?xml version="1.0" encoding="UTF-8"?>
<svg width="12px" height="12px" viewBox="0 0 12 12" version="1.1" xmlns="http://www.w3.org/2000/svg" xmlns:xlink="http://www.w3.org/1999/xlink">
    <!-- Generator: Sketch 61 (89581) - https://sketch.com -->
    <title>webex-meetings/color/meetings-icon-color</title>
    <desc>Created with Sketch.</desc>
    <g id="Symbols" stroke="none" stroke-width="1" fill="none" fill-rule="evenodd">
        <g id="platform/top-bar/light" transform="translate(-8.000000, -9.000000)">
            <g>
                <rect id="bg" x="0" y="0" width="700" height="30"></rect>
                <g id="webex-meetings/color/meetings-icon-color" transform="translate(8.000000, 9.000000)">
                    <g>
                        <path d="M10.4842105,6.06315789 C10.4842105,8.50484211 8.50484211,10.4842105 6.06315789,10.4842105 C3.62147368,10.4842105 1.64210526,8.50484211 1.64210526,6.06315789 C1.64210526,3.62147368 3.62147368,1.64210526 6.06315789,1.64210526 C8.50484211,1.64210526 10.4842105,3.62147368 10.4842105,6.06315789" id="Fill-1" fill="#FFFFFF"></path>
                        <path d="M9.47503579,2.49634105 C9.06779368,2.08404632 8.60573053,1.75954105 8.11221474,1.52105684 C9.00084632,3.35895158 8.68404632,5.63326737 7.15941474,7.15827789 C5.63516211,8.68303579 3.36185684,9.00008842 1.52459368,8.11196211 C1.75461474,8.58766737 2.06421474,9.03482526 2.45617263,9.43170947 L2.49861474,9.47440421 C4.42505684,11.4013516 7.54846737,11.4013516 9.47503579,9.47440421 C11.4014779,7.54745684 11.4014779,4.42328842 9.47503579,2.49634105" id="Fill-3" fill="#6EBE4A"></path>
                        <path d="M2.52353684,10.56192 C2.2464,10.56192 1.96926316,10.4560674 1.75781053,10.2446147 C0.624252632,9.11080421 0,7.60335158 0,6.00002526 C0,4.39657263 0.624252632,2.88912 1.75781053,1.75530947 C4.09755789,-0.585069474 7.90509474,-0.585195789 10.2449684,1.75543579 C10.668,2.17846737 10.668,2.86423579 10.2449684,3.28726737 C9.82206316,3.71029895 9.13654737,3.71029895 8.71338947,3.28726737 C7.21818947,1.79143579 4.78471579,1.79156211 3.28926316,3.28726737 C2.56484211,4.01194105 2.16581053,4.97522526 2.16581053,6.00002526 C2.16581053,7.02482526 2.56484211,7.98810947 3.28926316,8.71265684 C3.71216842,9.13568842 3.71229474,9.82158316 3.28926316,10.2446147 C3.07781053,10.4560674 2.80067368,10.56192 2.52353684,10.56192" id="Fill-5" fill="#00BCEB"></path>
                        <path d="M6.00141474,12 C4.46453053,12 2.92777263,11.4147789 1.75783579,10.2447158 C1.33493053,9.82168421 1.33493053,9.13566316 1.75783579,8.71275789 C2.18074105,8.28985263 2.86638316,8.28985263 3.28928842,8.71275789 C4.78474105,10.2087158 7.21821474,10.2087158 8.71341474,8.71275789 C10.2089937,7.21692632 10.2089937,4.78307368 8.71341474,3.28724211 C8.29063579,2.86421053 8.29063579,2.17844211 8.71341474,1.75541053 C9.13657263,1.33237895 9.82208842,1.33237895 10.2449937,1.75541053 C12.5849937,4.09591579 12.5849937,7.90408421 10.2449937,10.2447158 C9.07505684,11.4147789 7.53829895,12 6.00141474,12" id="Fill-7" fill="#005073"></path>
                    </g>
                </g>
            </g>
        </g>
    </g>
</svg>