<svg width="1472" height="54" viewBox="0 0 1472 54" fill="none" xmlns="http://www.w3.org/2000/svg">
<g filter="url(#filter0_bdd)">
<path fill-rule="evenodd" clip-rule="evenodd" d="M16 16V38H1456V16H16Z" fill="white" fill-opacity="0.7"/>
</g>
<mask id="mask0" mask-type="alpha" maskUnits="userSpaceOnUse" x="16" y="16" width="1440" height="22">
<path fill-rule="evenodd" clip-rule="evenodd" d="M16 16V38H1456V16H16Z" fill="white"/>
</mask>
<g mask="url(#mask0)">
<path fill-rule="evenodd" clip-rule="evenodd" d="M49.5245 24.0177C48.6848 23.011 47.5066 22.4286 46.395 22.4286C44.9237 22.4286 44.3021 23.1006 43.2814 23.1006C42.2295 23.1006 41.4297 22.4297 40.1571 22.4297C38.9074 22.4297 37.5785 23.1599 36.7359 24.4076C35.5505 26.1632 35.7513 29.4659 37.6735 32.2803C38.3611 33.2864 39.2793 34.4181 40.4797 34.4285C41.5467 34.438 41.8488 33.7735 43.2966 33.7658C44.7443 33.7582 45.0181 34.4357 46.0852 34.4263C47.2854 34.4152 48.2541 33.1624 48.9414 32.1557C49.4341 31.4351 49.6173 31.071 50 30.2553C47.2207 29.2452 46.7737 25.4675 49.5245 24.0177ZM45.2047 21.3127C45.6667 20.7128 46.0178 19.8659 45.8902 19C45.1353 19.0528 44.2524 19.5385 43.7368 20.1716C43.269 20.7465 42.8826 21.5988 43.033 22.4276C43.857 22.4532 44.7098 21.9554 45.2047 21.3127Z" fill="#24282B"/>
<path d="M77.63 25.364H79.758C79.6927 24.7853 79.534 24.272 79.282 23.824C79.03 23.376 78.708 23.0027 78.316 22.704C77.9333 22.396 77.4947 22.1627 77 22.004C76.5147 21.8453 75.9967 21.766 75.446 21.766C74.6807 21.766 73.99 21.9013 73.374 22.172C72.7673 22.4427 72.254 22.816 71.834 23.292C71.414 23.768 71.092 24.328 70.868 24.972C70.644 25.6067 70.532 26.2973 70.532 27.044C70.532 27.772 70.644 28.4533 70.868 29.088C71.092 29.7133 71.414 30.2593 71.834 30.726C72.254 31.1927 72.7673 31.5613 73.374 31.832C73.99 32.0933 74.6807 32.224 75.446 32.224C76.062 32.224 76.6267 32.1307 77.14 31.944C77.6533 31.7573 78.1013 31.4867 78.484 31.132C78.8667 30.7773 79.1747 30.348 79.408 29.844C79.6413 29.34 79.786 28.7753 79.842 28.15H77.714C77.63 28.822 77.3967 29.3633 77.014 29.774C76.6407 30.1847 76.118 30.39 75.446 30.39C74.9513 30.39 74.5313 30.2967 74.186 30.11C73.8407 29.914 73.5607 29.6573 73.346 29.34C73.1313 29.0227 72.9727 28.668 72.87 28.276C72.7767 27.8747 72.73 27.464 72.73 27.044C72.73 26.6053 72.7767 26.1807 72.87 25.77C72.9727 25.3593 73.1313 24.9953 73.346 24.678C73.5607 24.3513 73.8407 24.0947 74.186 23.908C74.5313 23.712 74.9513 23.614 75.446 23.614C75.7167 23.614 75.9733 23.6607 76.216 23.754C76.468 23.838 76.692 23.9593 76.888 24.118C77.084 24.2767 77.2473 24.4633 77.378 24.678C77.5087 24.8833 77.5927 25.112 77.63 25.364ZM81.133 22.004V32H83.121V28.206C83.121 27.4687 83.2423 26.9413 83.485 26.624C83.7276 26.2973 84.1196 26.134 84.661 26.134C85.137 26.134 85.4683 26.2833 85.655 26.582C85.8416 26.8713 85.935 27.3147 85.935 27.912V32H87.923V27.548C87.923 27.1 87.881 26.694 87.797 26.33C87.7223 25.9567 87.587 25.644 87.391 25.392C87.195 25.1307 86.9243 24.93 86.579 24.79C86.243 24.6407 85.809 24.566 85.277 24.566C84.9036 24.566 84.521 24.664 84.129 24.86C83.737 25.0467 83.415 25.35 83.163 25.77H83.121V22.004H81.133ZM89.4318 24.762V32H91.4198V28.738C91.4198 28.4113 91.4524 28.108 91.5178 27.828C91.5831 27.548 91.6904 27.3053 91.8398 27.1C91.9984 26.8853 92.2038 26.7173 92.4558 26.596C92.7078 26.4747 93.0158 26.414 93.3798 26.414C93.5011 26.414 93.6271 26.4233 93.7578 26.442C93.8884 26.4513 94.0004 26.4653 94.0938 26.484V24.636C93.9351 24.5893 93.7904 24.566 93.6598 24.566C93.4078 24.566 93.1651 24.6033 92.9318 24.678C92.6984 24.7527 92.4791 24.86 92.2738 25C92.0684 25.1307 91.8864 25.294 91.7278 25.49C91.5691 25.6767 91.4431 25.882 91.3498 26.106H91.3218V24.762H89.4318ZM96.3911 28.388C96.3911 28.0987 96.4191 27.814 96.4751 27.534C96.5311 27.254 96.6244 27.0067 96.7551 26.792C96.8951 26.5773 97.0771 26.4047 97.3011 26.274C97.5251 26.134 97.8051 26.064 98.1411 26.064C98.4771 26.064 98.7571 26.134 98.9811 26.274C99.2144 26.4047 99.3964 26.5773 99.5271 26.792C99.6671 27.0067 99.7651 27.254 99.8211 27.534C99.8771 27.814 99.9051 28.0987 99.9051 28.388C99.9051 28.6773 99.8771 28.962 99.8211 29.242C99.7651 29.5127 99.6671 29.76 99.5271 29.984C99.3964 30.1987 99.2144 30.3713 98.9811 30.502C98.7571 30.6327 98.4771 30.698 98.1411 30.698C97.8051 30.698 97.5251 30.6327 97.3011 30.502C97.0771 30.3713 96.8951 30.1987 96.7551 29.984C96.6244 29.76 96.5311 29.5127 96.4751 29.242C96.4191 28.962 96.3911 28.6773 96.3911 28.388ZM94.4031 28.388C94.4031 28.9667 94.4918 29.4893 94.6691 29.956C94.8464 30.4227 95.0984 30.824 95.4251 31.16C95.7518 31.4867 96.1438 31.7387 96.6011 31.916C97.0584 32.0933 97.5718 32.182 98.1411 32.182C98.7104 32.182 99.2238 32.0933 99.6811 31.916C100.148 31.7387 100.544 31.4867 100.871 31.16C101.198 30.824 101.45 30.4227 101.627 29.956C101.804 29.4893 101.893 28.9667 101.893 28.388C101.893 27.8093 101.804 27.2867 101.627 26.82C101.45 26.344 101.198 25.9427 100.871 25.616C100.544 25.28 100.148 25.0233 99.6811 24.846C99.2238 24.6593 98.7104 24.566 98.1411 24.566C97.5718 24.566 97.0584 24.6593 96.6011 24.846C96.1438 25.0233 95.7518 25.28 95.4251 25.616C95.0984 25.9427 94.8464 26.344 94.6691 26.82C94.4918 27.2867 94.4031 27.8093 94.4031 28.388ZM103.242 24.762V32H105.23V27.8C105.23 27.4453 105.281 27.1607 105.384 26.946C105.486 26.722 105.608 26.554 105.748 26.442C105.897 26.3207 106.046 26.2413 106.196 26.204C106.354 26.1573 106.48 26.134 106.574 26.134C106.891 26.134 107.129 26.19 107.288 26.302C107.456 26.4047 107.572 26.5447 107.638 26.722C107.712 26.8993 107.754 27.0953 107.764 27.31C107.773 27.5153 107.778 27.7253 107.778 27.94V32H109.766V27.968C109.766 27.744 109.78 27.5247 109.808 27.31C109.845 27.086 109.91 26.89 110.004 26.722C110.106 26.5447 110.242 26.4047 110.41 26.302C110.587 26.19 110.816 26.134 111.096 26.134C111.376 26.134 111.595 26.1807 111.754 26.274C111.922 26.3673 112.048 26.4933 112.132 26.652C112.216 26.8107 112.267 26.9973 112.286 27.212C112.304 27.4267 112.314 27.6553 112.314 27.898V32H114.302V27.156C114.302 26.6893 114.236 26.2927 114.106 25.966C113.975 25.63 113.793 25.3593 113.56 25.154C113.326 24.9487 113.046 24.7993 112.72 24.706C112.393 24.6127 112.038 24.566 111.656 24.566C111.152 24.566 110.713 24.6873 110.34 24.93C109.976 25.1727 109.686 25.4527 109.472 25.77C109.276 25.322 108.986 25.0093 108.604 24.832C108.23 24.6547 107.815 24.566 107.358 24.566C106.882 24.566 106.457 24.6687 106.084 24.874C105.72 25.0793 105.407 25.3687 105.146 25.742H105.118V24.762H103.242ZM120.745 27.604H117.511C117.521 27.464 117.549 27.3053 117.595 27.128C117.651 26.9507 117.74 26.7827 117.861 26.624C117.992 26.4653 118.16 26.3347 118.365 26.232C118.58 26.12 118.846 26.064 119.163 26.064C119.649 26.064 120.008 26.1947 120.241 26.456C120.484 26.7173 120.652 27.1 120.745 27.604ZM117.511 28.864H122.733C122.771 28.304 122.724 27.7673 122.593 27.254C122.463 26.7407 122.248 26.2833 121.949 25.882C121.66 25.4807 121.287 25.1633 120.829 24.93C120.372 24.6873 119.835 24.566 119.219 24.566C118.669 24.566 118.165 24.664 117.707 24.86C117.259 25.056 116.872 25.3267 116.545 25.672C116.219 26.008 115.967 26.4093 115.789 26.876C115.612 27.3427 115.523 27.8467 115.523 28.388C115.523 28.948 115.607 29.4613 115.775 29.928C115.953 30.3947 116.2 30.796 116.517 31.132C116.835 31.468 117.222 31.7293 117.679 31.916C118.137 32.0933 118.65 32.182 119.219 32.182C120.041 32.182 120.741 31.9953 121.319 31.622C121.898 31.2487 122.327 30.628 122.607 29.76H120.857C120.792 29.984 120.615 30.1987 120.325 30.404C120.036 30.6 119.691 30.698 119.289 30.698C118.729 30.698 118.3 30.5533 118.001 30.264C117.703 29.9747 117.539 29.508 117.511 28.864ZM143.731 22.004V32H145.061V27.422H149.653V26.302H145.061V23.124H150.297V22.004H143.731ZM152.834 23.46V22.004H151.644V23.46H152.834ZM151.644 24.762V32H152.834V24.762H151.644ZM154.747 22.004V32H155.937V22.004H154.747ZM162.807 27.688H158.649C158.667 27.408 158.728 27.1467 158.831 26.904C158.933 26.652 159.073 26.4327 159.251 26.246C159.428 26.0593 159.638 25.9147 159.881 25.812C160.133 25.7 160.413 25.644 160.721 25.644C161.019 25.644 161.29 25.7 161.533 25.812C161.785 25.9147 161.999 26.0593 162.177 26.246C162.363 26.4233 162.508 26.638 162.611 26.89C162.723 27.142 162.788 27.408 162.807 27.688ZM163.955 29.704H162.779C162.676 30.18 162.461 30.5347 162.135 30.768C161.817 31.0013 161.407 31.118 160.903 31.118C160.511 31.118 160.17 31.0527 159.881 30.922C159.591 30.7913 159.353 30.6187 159.167 30.404C158.98 30.18 158.845 29.928 158.761 29.648C158.677 29.3587 158.639 29.0553 158.649 28.738H164.067C164.085 28.2993 164.043 27.8373 163.941 27.352C163.847 26.8667 163.67 26.4187 163.409 26.008C163.157 25.5973 162.816 25.2613 162.387 25C161.967 24.7293 161.435 24.594 160.791 24.594C160.296 24.594 159.839 24.6873 159.419 24.874C159.008 25.0607 158.649 25.322 158.341 25.658C158.042 25.994 157.809 26.3907 157.641 26.848C157.473 27.3053 157.389 27.8093 157.389 28.36C157.407 28.9107 157.487 29.4193 157.627 29.886C157.776 30.3527 157.995 30.754 158.285 31.09C158.574 31.426 158.929 31.6873 159.349 31.874C159.778 32.0607 160.282 32.154 160.861 32.154C161.682 32.154 162.363 31.9487 162.905 31.538C163.446 31.1273 163.796 30.516 163.955 29.704ZM184.979 22.004V32H191.923V30.88H186.309V27.422H191.503V26.302H186.309V23.124H191.881V22.004H184.979ZM194.209 28.444C194.209 28.0893 194.247 27.744 194.321 27.408C194.396 27.072 194.517 26.7733 194.685 26.512C194.853 26.2507 195.077 26.0407 195.357 25.882C195.637 25.7233 195.978 25.644 196.379 25.644C196.79 25.644 197.14 25.7233 197.429 25.882C197.719 26.0313 197.952 26.232 198.129 26.484C198.316 26.736 198.451 27.03 198.535 27.366C198.619 27.6927 198.661 28.0333 198.661 28.388C198.661 28.724 198.619 29.0553 198.535 29.382C198.461 29.7087 198.335 30.0027 198.157 30.264C197.98 30.516 197.751 30.7213 197.471 30.88C197.191 31.0387 196.851 31.118 196.449 31.118C196.067 31.118 195.731 31.0433 195.441 30.894C195.161 30.7447 194.928 30.544 194.741 30.292C194.564 30.04 194.429 29.7553 194.335 29.438C194.251 29.1113 194.209 28.78 194.209 28.444ZM199.809 32V22.004H198.619V25.728H198.591C198.461 25.5133 198.297 25.336 198.101 25.196C197.915 25.0467 197.714 24.93 197.499 24.846C197.285 24.7527 197.07 24.6873 196.855 24.65C196.641 24.6127 196.44 24.594 196.253 24.594C195.703 24.594 195.217 24.6967 194.797 24.902C194.387 25.098 194.041 25.3687 193.761 25.714C193.491 26.05 193.285 26.4467 193.145 26.904C193.015 27.3613 192.949 27.8467 192.949 28.36C192.949 28.8733 193.019 29.3587 193.159 29.816C193.299 30.2733 193.505 30.6747 193.775 31.02C194.055 31.3653 194.401 31.6407 194.811 31.846C195.231 32.0513 195.721 32.154 196.281 32.154C196.785 32.154 197.247 32.0653 197.667 31.888C198.087 31.7107 198.395 31.4213 198.591 31.02H198.619V32H199.809ZM202.9 23.46V22.004H201.71V23.46H202.9ZM201.71 24.762V32H202.9V24.762H201.71ZM206.396 24.762V22.592H205.206V24.762H203.974V25.812H205.206V30.418C205.206 30.754 205.238 31.0247 205.304 31.23C205.369 31.4353 205.467 31.594 205.598 31.706C205.738 31.818 205.915 31.8973 206.13 31.944C206.354 31.9813 206.62 32 206.928 32H207.838V30.95H207.292C207.105 30.95 206.951 30.9453 206.83 30.936C206.718 30.9173 206.629 30.8847 206.564 30.838C206.498 30.7913 206.452 30.726 206.424 30.642C206.405 30.558 206.396 30.446 206.396 30.306V25.812H207.838V24.762H206.396ZM232.772 32L236.328 22.004H234.942L232.058 30.67H232.03L229.174 22.004H227.746L231.26 32H232.772ZM238.215 23.46V22.004H237.025V23.46H238.215ZM237.025 24.762V32H238.215V24.762H237.025ZM245.084 27.688H240.926C240.945 27.408 241.005 27.1467 241.108 26.904C241.211 26.652 241.351 26.4327 241.528 26.246C241.705 26.0593 241.915 25.9147 242.158 25.812C242.41 25.7 242.69 25.644 242.998 25.644C243.297 25.644 243.567 25.7 243.81 25.812C244.062 25.9147 244.277 26.0593 244.454 26.246C244.641 26.4233 244.785 26.638 244.888 26.89C245 27.142 245.065 27.408 245.084 27.688ZM246.232 29.704H245.056C244.953 30.18 244.739 30.5347 244.412 30.768C244.095 31.0013 243.684 31.118 243.18 31.118C242.788 31.118 242.447 31.0527 242.158 30.922C241.869 30.7913 241.631 30.6187 241.444 30.404C241.257 30.18 241.122 29.928 241.038 29.648C240.954 29.3587 240.917 29.0553 240.926 28.738H246.344C246.363 28.2993 246.321 27.8373 246.218 27.352C246.125 26.8667 245.947 26.4187 245.686 26.008C245.434 25.5973 245.093 25.2613 244.664 25C244.244 24.7293 243.712 24.594 243.068 24.594C242.573 24.594 242.116 24.6873 241.696 24.874C241.285 25.0607 240.926 25.322 240.618 25.658C240.319 25.994 240.086 26.3907 239.918 26.848C239.75 27.3053 239.666 27.8093 239.666 28.36C239.685 28.9107 239.764 29.4193 239.904 29.886C240.053 30.3527 240.273 30.754 240.562 31.09C240.851 31.426 241.206 31.6873 241.626 31.874C242.055 32.0607 242.559 32.154 243.138 32.154C243.959 32.154 244.641 31.9487 245.182 31.538C245.723 31.1273 246.073 30.516 246.232 29.704ZM254.746 32L257.056 24.762H255.824L254.2 30.684H254.172L252.66 24.762H251.358L249.902 30.684H249.874L248.236 24.762H246.92L249.244 32H250.532L251.988 26.246H252.016L253.486 32H254.746ZM277.865 22.004V32H279.195V27.422H284.459V32H285.789V22.004H284.459V26.302H279.195V22.004H277.865ZM289.033 23.46V22.004H287.843V23.46H289.033ZM287.843 24.762V32H289.033V24.762H287.843ZM291.604 29.718H290.414C290.433 30.166 290.526 30.5487 290.694 30.866C290.862 31.174 291.086 31.426 291.366 31.622C291.646 31.8087 291.968 31.944 292.332 32.028C292.696 32.112 293.079 32.154 293.48 32.154C293.844 32.154 294.208 32.1167 294.572 32.042C294.946 31.9767 295.277 31.8553 295.566 31.678C295.865 31.5007 296.103 31.2673 296.28 30.978C296.467 30.6887 296.56 30.3247 296.56 29.886C296.56 29.5407 296.49 29.2513 296.35 29.018C296.22 28.7847 296.042 28.5933 295.818 28.444C295.604 28.2853 295.352 28.1593 295.062 28.066C294.782 27.9727 294.493 27.8933 294.194 27.828C293.914 27.7627 293.634 27.702 293.354 27.646C293.074 27.5807 292.822 27.506 292.598 27.422C292.374 27.3287 292.188 27.2167 292.038 27.086C291.898 26.946 291.828 26.7733 291.828 26.568C291.828 26.3813 291.875 26.232 291.968 26.12C292.062 25.9987 292.183 25.9053 292.332 25.84C292.482 25.7653 292.645 25.714 292.822 25.686C293.009 25.658 293.191 25.644 293.368 25.644C293.564 25.644 293.756 25.6673 293.942 25.714C294.138 25.7513 294.316 25.8167 294.474 25.91C294.633 26.0033 294.764 26.1293 294.866 26.288C294.969 26.4373 295.03 26.6287 295.048 26.862H296.238C296.21 26.4233 296.117 26.0593 295.958 25.77C295.8 25.4713 295.585 25.238 295.314 25.07C295.053 24.8927 294.75 24.7713 294.404 24.706C294.059 24.6313 293.681 24.594 293.27 24.594C292.953 24.594 292.631 24.636 292.304 24.72C291.987 24.7947 291.698 24.916 291.436 25.084C291.184 25.2427 290.974 25.4527 290.806 25.714C290.648 25.9753 290.568 26.288 290.568 26.652C290.568 27.1187 290.685 27.4827 290.918 27.744C291.152 28.0053 291.441 28.2107 291.786 28.36C292.141 28.5 292.524 28.612 292.934 28.696C293.345 28.7707 293.723 28.8593 294.068 28.962C294.423 29.0553 294.717 29.1813 294.95 29.34C295.184 29.4987 295.3 29.732 295.3 30.04C295.3 30.264 295.244 30.4507 295.132 30.6C295.02 30.74 294.876 30.8473 294.698 30.922C294.53 30.9967 294.344 31.048 294.138 31.076C293.933 31.104 293.737 31.118 293.55 31.118C293.308 31.118 293.07 31.0947 292.836 31.048C292.612 31.0013 292.407 30.9267 292.22 30.824C292.043 30.712 291.898 30.5673 291.786 30.39C291.674 30.2033 291.614 29.9793 291.604 29.718ZM299.528 24.762V22.592H298.338V24.762H297.106V25.812H298.338V30.418C298.338 30.754 298.371 31.0247 298.436 31.23C298.502 31.4353 298.6 31.594 298.73 31.706C298.87 31.818 299.048 31.8973 299.262 31.944C299.486 31.9813 299.752 32 300.06 32H300.97V30.95H300.424C300.238 30.95 300.084 30.9453 299.962 30.936C299.85 30.9173 299.762 30.8847 299.696 30.838C299.631 30.7913 299.584 30.726 299.556 30.642C299.538 30.558 299.528 30.446 299.528 30.306V25.812H300.97V24.762H299.528ZM303.16 28.388C303.16 27.9493 303.216 27.562 303.328 27.226C303.45 26.8807 303.613 26.5913 303.818 26.358C304.024 26.1247 304.262 25.9473 304.532 25.826C304.812 25.7047 305.106 25.644 305.414 25.644C305.722 25.644 306.012 25.7047 306.282 25.826C306.562 25.9473 306.805 26.1247 307.01 26.358C307.216 26.5913 307.374 26.8807 307.486 27.226C307.608 27.562 307.668 27.9493 307.668 28.388C307.668 28.8267 307.608 29.2187 307.486 29.564C307.374 29.9 307.216 30.1847 307.01 30.418C306.805 30.642 306.562 30.8147 306.282 30.936C306.012 31.0573 305.722 31.118 305.414 31.118C305.106 31.118 304.812 31.0573 304.532 30.936C304.262 30.8147 304.024 30.642 303.818 30.418C303.613 30.1847 303.45 29.9 303.328 29.564C303.216 29.2187 303.16 28.8267 303.16 28.388ZM301.9 28.388C301.9 28.92 301.975 29.4147 302.124 29.872C302.274 30.3293 302.498 30.7307 302.796 31.076C303.095 31.412 303.464 31.678 303.902 31.874C304.341 32.0607 304.845 32.154 305.414 32.154C305.993 32.154 306.497 32.0607 306.926 31.874C307.365 31.678 307.734 31.412 308.032 31.076C308.331 30.7307 308.555 30.3293 308.704 29.872C308.854 29.4147 308.928 28.92 308.928 28.388C308.928 27.856 308.854 27.3613 308.704 26.904C308.555 26.4373 308.331 26.036 308.032 25.7C307.734 25.3547 307.365 25.084 306.926 24.888C306.497 24.692 305.993 24.594 305.414 24.594C304.845 24.594 304.341 24.692 303.902 24.888C303.464 25.084 303.095 25.3547 302.796 25.7C302.498 26.036 302.274 26.4373 302.124 26.904C301.975 27.3613 301.9 27.856 301.9 28.388ZM310.29 24.762V32H311.48V28.78C311.48 28.3133 311.526 27.9027 311.62 27.548C311.713 27.184 311.862 26.876 312.068 26.624C312.273 26.372 312.544 26.1807 312.88 26.05C313.216 25.9193 313.622 25.854 314.098 25.854V24.594C313.454 24.5753 312.922 24.706 312.502 24.986C312.082 25.266 311.727 25.7 311.438 26.288H311.41V24.762H310.29ZM317.836 32.966C317.696 33.3207 317.556 33.6193 317.416 33.862C317.285 34.1047 317.136 34.3007 316.968 34.45C316.809 34.6087 316.627 34.7207 316.422 34.786C316.226 34.8607 315.997 34.898 315.736 34.898C315.596 34.898 315.456 34.8887 315.316 34.87C315.176 34.8513 315.04 34.8187 314.91 34.772V33.68C315.012 33.7267 315.129 33.764 315.26 33.792C315.4 33.8293 315.516 33.848 315.61 33.848C315.852 33.848 316.053 33.7873 316.212 33.666C316.38 33.554 316.506 33.3907 316.59 33.176L317.08 31.958L314.21 24.762H315.554L317.668 30.684H317.696L319.726 24.762H320.986L317.836 32.966ZM343.002 26.302V23.124H345.662C345.951 23.124 346.222 23.1427 346.474 23.18C346.735 23.208 346.964 23.278 347.16 23.39C347.356 23.502 347.51 23.6607 347.622 23.866C347.734 24.0713 347.79 24.3513 347.79 24.706C347.79 25.238 347.622 25.6393 347.286 25.91C346.959 26.1713 346.418 26.302 345.662 26.302H343.002ZM341.672 22.004V32H346.502C346.997 32 347.431 31.9207 347.804 31.762C348.187 31.594 348.504 31.3793 348.756 31.118C349.017 30.8473 349.213 30.5393 349.344 30.194C349.475 29.8487 349.54 29.494 349.54 29.13C349.54 28.514 349.377 27.9913 349.05 27.562C348.723 27.1327 348.252 26.8527 347.636 26.722V26.694C348.112 26.5073 348.476 26.2227 348.728 25.84C348.989 25.448 349.12 24.986 349.12 24.454C349.12 23.95 349.003 23.5253 348.77 23.18C348.546 22.8347 348.271 22.564 347.944 22.368C347.795 22.2747 347.613 22.2047 347.398 22.158C347.193 22.1113 346.969 22.0787 346.726 22.06C346.483 22.032 346.236 22.018 345.984 22.018C345.741 22.0087 345.513 22.004 345.298 22.004H341.672ZM343.002 30.88V27.422H346.04C346.32 27.422 346.591 27.45 346.852 27.506C347.113 27.5527 347.342 27.6413 347.538 27.772C347.743 27.8933 347.907 28.0613 348.028 28.276C348.149 28.4907 348.21 28.7613 348.21 29.088C348.21 29.648 348.042 30.0867 347.706 30.404C347.379 30.7213 346.922 30.88 346.334 30.88H343.002ZM351.928 28.388C351.928 27.9493 351.984 27.562 352.096 27.226C352.217 26.8807 352.381 26.5913 352.586 26.358C352.791 26.1247 353.029 25.9473 353.3 25.826C353.58 25.7047 353.874 25.644 354.182 25.644C354.49 25.644 354.779 25.7047 355.05 25.826C355.33 25.9473 355.573 26.1247 355.778 26.358C355.983 26.5913 356.142 26.8807 356.254 27.226C356.375 27.562 356.436 27.9493 356.436 28.388C356.436 28.8267 356.375 29.2187 356.254 29.564C356.142 29.9 355.983 30.1847 355.778 30.418C355.573 30.642 355.33 30.8147 355.05 30.936C354.779 31.0573 354.49 31.118 354.182 31.118C353.874 31.118 353.58 31.0573 353.3 30.936C353.029 30.8147 352.791 30.642 352.586 30.418C352.381 30.1847 352.217 29.9 352.096 29.564C351.984 29.2187 351.928 28.8267 351.928 28.388ZM350.668 28.388C350.668 28.92 350.743 29.4147 350.892 29.872C351.041 30.3293 351.265 30.7307 351.564 31.076C351.863 31.412 352.231 31.678 352.67 31.874C353.109 32.0607 353.613 32.154 354.182 32.154C354.761 32.154 355.265 32.0607 355.694 31.874C356.133 31.678 356.501 31.412 356.8 31.076C357.099 30.7307 357.323 30.3293 357.472 29.872C357.621 29.4147 357.696 28.92 357.696 28.388C357.696 27.856 357.621 27.3613 357.472 26.904C357.323 26.4373 357.099 26.036 356.8 25.7C356.501 25.3547 356.133 25.084 355.694 24.888C355.265 24.692 354.761 24.594 354.182 24.594C353.613 24.594 353.109 24.692 352.67 24.888C352.231 25.084 351.863 25.3547 351.564 25.7C351.265 26.036 351.041 26.4373 350.892 26.904C350.743 27.3613 350.668 27.856 350.668 28.388ZM359.967 28.388C359.967 27.9493 360.023 27.562 360.135 27.226C360.256 26.8807 360.42 26.5913 360.625 26.358C360.83 26.1247 361.068 25.9473 361.339 25.826C361.619 25.7047 361.913 25.644 362.221 25.644C362.529 25.644 362.818 25.7047 363.089 25.826C363.369 25.9473 363.612 26.1247 363.817 26.358C364.022 26.5913 364.181 26.8807 364.293 27.226C364.414 27.562 364.475 27.9493 364.475 28.388C364.475 28.8267 364.414 29.2187 364.293 29.564C364.181 29.9 364.022 30.1847 363.817 30.418C363.612 30.642 363.369 30.8147 363.089 30.936C362.818 31.0573 362.529 31.118 362.221 31.118C361.913 31.118 361.619 31.0573 361.339 30.936C361.068 30.8147 360.83 30.642 360.625 30.418C360.42 30.1847 360.256 29.9 360.135 29.564C360.023 29.2187 359.967 28.8267 359.967 28.388ZM358.707 28.388C358.707 28.92 358.782 29.4147 358.931 29.872C359.08 30.3293 359.304 30.7307 359.603 31.076C359.902 31.412 360.27 31.678 360.709 31.874C361.148 32.0607 361.652 32.154 362.221 32.154C362.8 32.154 363.304 32.0607 363.733 31.874C364.172 31.678 364.54 31.412 364.839 31.076C365.138 30.7307 365.362 30.3293 365.511 29.872C365.66 29.4147 365.735 28.92 365.735 28.388C365.735 27.856 365.66 27.3613 365.511 26.904C365.362 26.4373 365.138 26.036 364.839 25.7C364.54 25.3547 364.172 25.084 363.733 24.888C363.304 24.692 362.8 24.594 362.221 24.594C361.652 24.594 361.148 24.692 360.709 24.888C360.27 25.084 359.902 25.3547 359.603 25.7C359.304 26.036 359.08 26.4373 358.931 26.904C358.782 27.3613 358.707 27.856 358.707 28.388ZM367.208 22.004V32H368.398V29.256L369.518 28.22L371.996 32H373.508L370.428 27.394L373.298 24.762H371.702L368.398 27.926V22.004H367.208ZM374.398 24.762V32H375.588V27.492C375.588 27.352 375.621 27.1793 375.686 26.974C375.761 26.7593 375.873 26.554 376.022 26.358C376.181 26.162 376.381 25.994 376.624 25.854C376.876 25.714 377.175 25.644 377.52 25.644C377.791 25.644 378.01 25.686 378.178 25.77C378.355 25.8447 378.495 25.9567 378.598 26.106C378.701 26.246 378.771 26.414 378.808 26.61C378.855 26.806 378.878 27.0207 378.878 27.254V32H380.068V27.492C380.068 26.932 380.236 26.484 380.572 26.148C380.908 25.812 381.37 25.644 381.958 25.644C382.247 25.644 382.481 25.686 382.658 25.77C382.845 25.854 382.989 25.9707 383.092 26.12C383.195 26.26 383.265 26.428 383.302 26.624C383.339 26.82 383.358 27.03 383.358 27.254V32H384.548V26.694C384.548 26.3207 384.487 26.0033 384.366 25.742C384.254 25.4713 384.091 25.252 383.876 25.084C383.671 24.916 383.419 24.7947 383.12 24.72C382.831 24.636 382.504 24.594 382.14 24.594C381.664 24.594 381.225 24.7013 380.824 24.916C380.432 25.1307 380.115 25.434 379.872 25.826C379.723 25.378 379.466 25.0607 379.102 24.874C378.738 24.6873 378.332 24.594 377.884 24.594C376.867 24.594 376.087 25.0047 375.546 25.826H375.518V24.762H374.398ZM392.746 31.972C392.54 32.0933 392.256 32.154 391.892 32.154C391.584 32.154 391.336 32.07 391.15 31.902C390.972 31.7247 390.884 31.44 390.884 31.048C390.557 31.44 390.174 31.7247 389.736 31.902C389.306 32.07 388.84 32.154 388.336 32.154C388.009 32.154 387.696 32.1167 387.398 32.042C387.108 31.9673 386.856 31.8507 386.642 31.692C386.427 31.5333 386.254 31.328 386.124 31.076C386.002 30.8147 385.942 30.502 385.942 30.138C385.942 29.7273 386.012 29.3913 386.152 29.13C386.292 28.8687 386.474 28.6587 386.698 28.5C386.931 28.332 387.192 28.206 387.482 28.122C387.78 28.038 388.084 27.968 388.392 27.912C388.718 27.8467 389.026 27.8 389.316 27.772C389.614 27.7347 389.876 27.688 390.1 27.632C390.324 27.5667 390.501 27.478 390.632 27.366C390.762 27.2447 390.828 27.072 390.828 26.848C390.828 26.5867 390.776 26.3767 390.674 26.218C390.58 26.0593 390.454 25.938 390.296 25.854C390.146 25.77 389.974 25.714 389.778 25.686C389.591 25.658 389.404 25.644 389.218 25.644C388.714 25.644 388.294 25.742 387.958 25.938C387.622 26.1247 387.44 26.484 387.412 27.016H386.222C386.24 26.568 386.334 26.19 386.502 25.882C386.67 25.574 386.894 25.3267 387.174 25.14C387.454 24.944 387.771 24.804 388.126 24.72C388.49 24.636 388.877 24.594 389.288 24.594C389.614 24.594 389.936 24.6173 390.254 24.664C390.58 24.7107 390.874 24.8087 391.136 24.958C391.397 25.098 391.607 25.2987 391.766 25.56C391.924 25.8213 392.004 26.162 392.004 26.582V30.306C392.004 30.586 392.018 30.7913 392.046 30.922C392.083 31.0527 392.195 31.118 392.382 31.118C392.484 31.118 392.606 31.0947 392.746 31.048V31.972ZM390.814 28.262C390.664 28.374 390.468 28.458 390.226 28.514C389.983 28.5607 389.726 28.6027 389.456 28.64C389.194 28.668 388.928 28.7053 388.658 28.752C388.387 28.7893 388.144 28.8547 387.93 28.948C387.715 29.0413 387.538 29.1767 387.398 29.354C387.267 29.522 387.202 29.7553 387.202 30.054C387.202 30.25 387.239 30.418 387.314 30.558C387.398 30.6887 387.5 30.796 387.622 30.88C387.752 30.964 387.902 31.0247 388.07 31.062C388.238 31.0993 388.415 31.118 388.602 31.118C388.994 31.118 389.33 31.0667 389.61 30.964C389.89 30.852 390.118 30.7167 390.296 30.558C390.473 30.39 390.604 30.2127 390.688 30.026C390.772 29.83 390.814 29.648 390.814 29.48V28.262ZM393.811 24.762V32H395.001V28.78C395.001 28.3133 395.048 27.9027 395.141 27.548C395.234 27.184 395.384 26.876 395.589 26.624C395.794 26.372 396.065 26.1807 396.401 26.05C396.737 25.9193 397.143 25.854 397.619 25.854V24.594C396.975 24.5753 396.443 24.706 396.023 24.986C395.603 25.266 395.248 25.7 394.959 26.288H394.931V24.762H393.811ZM398.585 22.004V32H399.775V29.256L400.895 28.22L403.373 32H404.885L401.805 27.394L404.675 24.762H403.079L399.775 27.926V22.004H398.585ZM406.503 29.718H405.313C405.332 30.166 405.425 30.5487 405.593 30.866C405.761 31.174 405.985 31.426 406.265 31.622C406.545 31.8087 406.867 31.944 407.231 32.028C407.595 32.112 407.978 32.154 408.379 32.154C408.743 32.154 409.107 32.1167 409.471 32.042C409.844 31.9767 410.176 31.8553 410.465 31.678C410.764 31.5007 411.002 31.2673 411.179 30.978C411.366 30.6887 411.459 30.3247 411.459 29.886C411.459 29.5407 411.389 29.2513 411.249 29.018C411.118 28.7847 410.941 28.5933 410.717 28.444C410.502 28.2853 410.25 28.1593 409.961 28.066C409.681 27.9727 409.392 27.8933 409.093 27.828C408.813 27.7627 408.533 27.702 408.253 27.646C407.973 27.5807 407.721 27.506 407.497 27.422C407.273 27.3287 407.086 27.2167 406.937 27.086C406.797 26.946 406.727 26.7733 406.727 26.568C406.727 26.3813 406.774 26.232 406.867 26.12C406.96 25.9987 407.082 25.9053 407.231 25.84C407.38 25.7653 407.544 25.714 407.721 25.686C407.908 25.658 408.09 25.644 408.267 25.644C408.463 25.644 408.654 25.6673 408.841 25.714C409.037 25.7513 409.214 25.8167 409.373 25.91C409.532 26.0033 409.662 26.1293 409.765 26.288C409.868 26.4373 409.928 26.6287 409.947 26.862H411.137C411.109 26.4233 411.016 26.0593 410.857 25.77C410.698 25.4713 410.484 25.238 410.213 25.07C409.952 24.8927 409.648 24.7713 409.303 24.706C408.958 24.6313 408.58 24.594 408.169 24.594C407.852 24.594 407.53 24.636 407.203 24.72C406.886 24.7947 406.596 24.916 406.335 25.084C406.083 25.2427 405.873 25.4527 405.705 25.714C405.546 25.9753 405.467 26.288 405.467 26.652C405.467 27.1187 405.584 27.4827 405.817 27.744C406.05 28.0053 406.34 28.2107 406.685 28.36C407.04 28.5 407.422 28.612 407.833 28.696C408.244 28.7707 408.622 28.8593 408.967 28.962C409.322 29.0553 409.616 29.1813 409.849 29.34C410.082 29.4987 410.199 29.732 410.199 30.04C410.199 30.264 410.143 30.4507 410.031 30.6C409.919 30.74 409.774 30.8473 409.597 30.922C409.429 30.9967 409.242 31.048 409.037 31.076C408.832 31.104 408.636 31.118 408.449 31.118C408.206 31.118 407.968 31.0947 407.735 31.048C407.511 31.0013 407.306 30.9267 407.119 30.824C406.942 30.712 406.797 30.5673 406.685 30.39C406.573 30.2033 406.512 29.9793 406.503 29.718ZM433.783 26.792V23.124H436.387C437.143 23.124 437.694 23.2827 438.039 23.6C438.394 23.908 438.571 24.3607 438.571 24.958C438.571 25.5553 438.394 26.0127 438.039 26.33C437.694 26.6473 437.143 26.8013 436.387 26.792H433.783ZM432.453 22.004V32H433.783V27.912H436.835C437.843 27.9213 438.604 27.6647 439.117 27.142C439.64 26.6193 439.901 25.8913 439.901 24.958C439.901 24.0247 439.64 23.3013 439.117 22.788C438.604 22.2653 437.843 22.004 436.835 22.004H432.453ZM446.361 27.688H442.203C442.222 27.408 442.283 27.1467 442.385 26.904C442.488 26.652 442.628 26.4327 442.805 26.246C442.983 26.0593 443.193 25.9147 443.435 25.812C443.687 25.7 443.967 25.644 444.275 25.644C444.574 25.644 444.845 25.7 445.087 25.812C445.339 25.9147 445.554 26.0593 445.731 26.246C445.918 26.4233 446.063 26.638 446.165 26.89C446.277 27.142 446.343 27.408 446.361 27.688ZM447.509 29.704H446.333C446.231 30.18 446.016 30.5347 445.689 30.768C445.372 31.0013 444.961 31.118 444.457 31.118C444.065 31.118 443.725 31.0527 443.435 30.922C443.146 30.7913 442.908 30.6187 442.721 30.404C442.535 30.18 442.399 29.928 442.315 29.648C442.231 29.3587 442.194 29.0553 442.203 28.738H447.621C447.64 28.2993 447.598 27.8373 447.495 27.352C447.402 26.8667 447.225 26.4187 446.963 26.008C446.711 25.5973 446.371 25.2613 445.941 25C445.521 24.7293 444.989 24.594 444.345 24.594C443.851 24.594 443.393 24.6873 442.973 24.874C442.563 25.0607 442.203 25.322 441.895 25.658C441.597 25.994 441.363 26.3907 441.195 26.848C441.027 27.3053 440.943 27.8093 440.943 28.36C440.962 28.9107 441.041 29.4193 441.181 29.886C441.331 30.3527 441.55 30.754 441.839 31.09C442.129 31.426 442.483 31.6873 442.903 31.874C443.333 32.0607 443.837 32.154 444.415 32.154C445.237 32.154 445.918 31.9487 446.459 31.538C447.001 31.1273 447.351 30.516 447.509 29.704ZM449.723 28.388C449.723 27.9493 449.779 27.562 449.891 27.226C450.012 26.8807 450.176 26.5913 450.381 26.358C450.586 26.1247 450.824 25.9473 451.095 25.826C451.375 25.7047 451.669 25.644 451.977 25.644C452.285 25.644 452.574 25.7047 452.845 25.826C453.125 25.9473 453.368 26.1247 453.573 26.358C453.778 26.5913 453.937 26.8807 454.049 27.226C454.17 27.562 454.231 27.9493 454.231 28.388C454.231 28.8267 454.17 29.2187 454.049 29.564C453.937 29.9 453.778 30.1847 453.573 30.418C453.368 30.642 453.125 30.8147 452.845 30.936C452.574 31.0573 452.285 31.118 451.977 31.118C451.669 31.118 451.375 31.0573 451.095 30.936C450.824 30.8147 450.586 30.642 450.381 30.418C450.176 30.1847 450.012 29.9 449.891 29.564C449.779 29.2187 449.723 28.8267 449.723 28.388ZM448.463 28.388C448.463 28.92 448.538 29.4147 448.687 29.872C448.836 30.3293 449.06 30.7307 449.359 31.076C449.658 31.412 450.026 31.678 450.465 31.874C450.904 32.0607 451.408 32.154 451.977 32.154C452.556 32.154 453.06 32.0607 453.489 31.874C453.928 31.678 454.296 31.412 454.595 31.076C454.894 30.7307 455.118 30.3293 455.267 29.872C455.416 29.4147 455.491 28.92 455.491 28.388C455.491 27.856 455.416 27.3613 455.267 26.904C455.118 26.4373 454.894 26.036 454.595 25.7C454.296 25.3547 453.928 25.084 453.489 24.888C453.06 24.692 452.556 24.594 451.977 24.594C451.408 24.594 450.904 24.692 450.465 24.888C450.026 25.084 449.658 25.3547 449.359 25.7C449.06 26.036 448.836 26.4373 448.687 26.904C448.538 27.3613 448.463 27.856 448.463 28.388ZM456.936 24.762V34.758H458.126V31.034H458.154C458.285 31.2487 458.443 31.4307 458.63 31.58C458.826 31.72 459.031 31.832 459.246 31.916C459.461 32 459.675 32.0607 459.89 32.098C460.114 32.1353 460.315 32.154 460.492 32.154C461.043 32.154 461.523 32.056 461.934 31.86C462.354 31.664 462.699 31.398 462.97 31.062C463.25 30.7167 463.455 30.3153 463.586 29.858C463.726 29.4007 463.796 28.9153 463.796 28.402C463.796 27.8887 463.726 27.4033 463.586 26.946C463.446 26.4887 463.236 26.0873 462.956 25.742C462.685 25.3873 462.34 25.1073 461.92 24.902C461.509 24.6967 461.024 24.594 460.464 24.594C459.96 24.594 459.498 24.6873 459.078 24.874C458.658 25.0513 458.35 25.3407 458.154 25.742H458.126V24.762H456.936ZM462.536 28.318C462.536 28.6727 462.499 29.018 462.424 29.354C462.349 29.69 462.228 29.9887 462.06 30.25C461.892 30.5113 461.668 30.7213 461.388 30.88C461.117 31.0387 460.777 31.118 460.366 31.118C459.955 31.118 459.605 31.0433 459.316 30.894C459.027 30.7353 458.789 30.53 458.602 30.278C458.425 30.026 458.294 29.7367 458.21 29.41C458.126 29.074 458.084 28.7287 458.084 28.374C458.084 28.038 458.121 27.7067 458.196 27.38C458.28 27.0533 458.411 26.764 458.588 26.512C458.765 26.2507 458.994 26.0407 459.274 25.882C459.554 25.7233 459.895 25.644 460.296 25.644C460.679 25.644 461.01 25.7187 461.29 25.868C461.579 26.0173 461.813 26.218 461.99 26.47C462.177 26.722 462.312 27.0113 462.396 27.338C462.489 27.6553 462.536 27.982 462.536 28.318ZM465.263 22.004V32H466.453V22.004H465.263ZM473.322 27.688H469.164C469.183 27.408 469.244 27.1467 469.346 26.904C469.449 26.652 469.589 26.4327 469.766 26.246C469.944 26.0593 470.154 25.9147 470.396 25.812C470.648 25.7 470.928 25.644 471.236 25.644C471.535 25.644 471.806 25.7 472.048 25.812C472.3 25.9147 472.515 26.0593 472.692 26.246C472.879 26.4233 473.024 26.638 473.126 26.89C473.238 27.142 473.304 27.408 473.322 27.688ZM474.47 29.704H473.294C473.192 30.18 472.977 30.5347 472.65 30.768C472.333 31.0013 471.922 31.118 471.418 31.118C471.026 31.118 470.686 31.0527 470.396 30.922C470.107 30.7913 469.869 30.6187 469.682 30.404C469.496 30.18 469.36 29.928 469.276 29.648C469.192 29.3587 469.155 29.0553 469.164 28.738H474.582C474.601 28.2993 474.559 27.8373 474.456 27.352C474.363 26.8667 474.186 26.4187 473.924 26.008C473.672 25.5973 473.332 25.2613 472.902 25C472.482 24.7293 471.95 24.594 471.306 24.594C470.812 24.594 470.354 24.6873 469.934 24.874C469.524 25.0607 469.164 25.322 468.856 25.658C468.558 25.994 468.324 26.3907 468.156 26.848C467.988 27.3053 467.904 27.8093 467.904 28.36C467.923 28.9107 468.002 29.4193 468.142 29.886C468.292 30.3527 468.511 30.754 468.8 31.09C469.09 31.426 469.444 31.6873 469.864 31.874C470.294 32.0607 470.798 32.154 471.376 32.154C472.198 32.154 472.879 31.9487 473.42 31.538C473.962 31.1273 474.312 30.516 474.47 29.704ZM504.524 32L507.198 22.004H505.868L503.838 30.32H503.81L501.598 22.004H500.156L497.916 30.32H497.888L495.928 22.004H494.57L497.132 32H498.518L500.828 23.6H500.856L503.138 32H504.524ZM509.519 23.46V22.004H508.329V23.46H509.519ZM508.329 24.762V32H509.519V24.762H508.329ZM511.363 24.762V32H512.553V27.912C512.553 27.5853 512.595 27.2867 512.679 27.016C512.772 26.736 512.907 26.4933 513.085 26.288C513.262 26.0827 513.481 25.924 513.743 25.812C514.013 25.7 514.331 25.644 514.695 25.644C515.152 25.644 515.511 25.7747 515.773 26.036C516.034 26.2973 516.165 26.652 516.165 27.1V32H517.355V27.24C517.355 26.848 517.313 26.4933 517.229 26.176C517.154 25.8493 517.019 25.5693 516.823 25.336C516.627 25.1027 516.37 24.9207 516.053 24.79C515.735 24.6593 515.339 24.594 514.863 24.594C513.789 24.594 513.005 25.0327 512.511 25.91H512.483V24.762H511.363ZM520.01 28.444C520.01 28.0893 520.047 27.744 520.122 27.408C520.197 27.072 520.318 26.7733 520.486 26.512C520.654 26.2507 520.878 26.0407 521.158 25.882C521.438 25.7233 521.779 25.644 522.18 25.644C522.591 25.644 522.941 25.7233 523.23 25.882C523.519 26.0313 523.753 26.232 523.93 26.484C524.117 26.736 524.252 27.03 524.336 27.366C524.42 27.6927 524.462 28.0333 524.462 28.388C524.462 28.724 524.42 29.0553 524.336 29.382C524.261 29.7087 524.135 30.0027 523.958 30.264C523.781 30.516 523.552 30.7213 523.272 30.88C522.992 31.0387 522.651 31.118 522.25 31.118C521.867 31.118 521.531 31.0433 521.242 30.894C520.962 30.7447 520.729 30.544 520.542 30.292C520.365 30.04 520.229 29.7553 520.136 29.438C520.052 29.1113 520.01 28.78 520.01 28.444ZM525.61 32V22.004H524.42V25.728H524.392C524.261 25.5133 524.098 25.336 523.902 25.196C523.715 25.0467 523.515 24.93 523.3 24.846C523.085 24.7527 522.871 24.6873 522.656 24.65C522.441 24.6127 522.241 24.594 522.054 24.594C521.503 24.594 521.018 24.6967 520.598 24.902C520.187 25.098 519.842 25.3687 519.562 25.714C519.291 26.05 519.086 26.4467 518.946 26.904C518.815 27.3613 518.75 27.8467 518.75 28.36C518.75 28.8733 518.82 29.3587 518.96 29.816C519.1 30.2733 519.305 30.6747 519.576 31.02C519.856 31.3653 520.201 31.6407 520.612 31.846C521.032 32.0513 521.522 32.154 522.082 32.154C522.586 32.154 523.048 32.0653 523.468 31.888C523.888 31.7107 524.196 31.4213 524.392 31.02H524.42V32H525.61ZM528.309 28.388C528.309 27.9493 528.365 27.562 528.477 27.226C528.598 26.8807 528.762 26.5913 528.967 26.358C529.172 26.1247 529.41 25.9473 529.681 25.826C529.961 25.7047 530.255 25.644 530.563 25.644C530.871 25.644 531.16 25.7047 531.431 25.826C531.711 25.9473 531.954 26.1247 532.159 26.358C532.364 26.5913 532.523 26.8807 532.635 27.226C532.756 27.562 532.817 27.9493 532.817 28.388C532.817 28.8267 532.756 29.2187 532.635 29.564C532.523 29.9 532.364 30.1847 532.159 30.418C531.954 30.642 531.711 30.8147 531.431 30.936C531.16 31.0573 530.871 31.118 530.563 31.118C530.255 31.118 529.961 31.0573 529.681 30.936C529.41 30.8147 529.172 30.642 528.967 30.418C528.762 30.1847 528.598 29.9 528.477 29.564C528.365 29.2187 528.309 28.8267 528.309 28.388ZM527.049 28.388C527.049 28.92 527.124 29.4147 527.273 29.872C527.422 30.3293 527.646 30.7307 527.945 31.076C528.244 31.412 528.612 31.678 529.051 31.874C529.49 32.0607 529.994 32.154 530.563 32.154C531.142 32.154 531.646 32.0607 532.075 31.874C532.514 31.678 532.882 31.412 533.181 31.076C533.48 30.7307 533.704 30.3293 533.853 29.872C534.002 29.4147 534.077 28.92 534.077 28.388C534.077 27.856 534.002 27.3613 533.853 26.904C533.704 26.4373 533.48 26.036 533.181 25.7C532.882 25.3547 532.514 25.084 532.075 24.888C531.646 24.692 531.142 24.594 530.563 24.594C529.994 24.594 529.49 24.692 529.051 24.888C528.612 25.084 528.244 25.3547 527.945 25.7C527.646 26.036 527.422 26.4373 527.273 26.904C527.124 27.3613 527.049 27.856 527.049 28.388ZM542.648 32L544.958 24.762H543.726L542.102 30.684H542.074L540.562 24.762H539.26L537.804 30.684H537.776L536.138 24.762H534.822L537.146 32H538.434L539.89 26.246H539.918L541.388 32H542.648ZM565.768 22.004V32H567.098V27.422H572.362V32H573.692V22.004H572.362V26.302H567.098V22.004H565.768ZM580.701 27.688H576.543C576.562 27.408 576.623 27.1467 576.725 26.904C576.828 26.652 576.968 26.4327 577.145 26.246C577.323 26.0593 577.533 25.9147 577.775 25.812C578.027 25.7 578.307 25.644 578.615 25.644C578.914 25.644 579.185 25.7 579.427 25.812C579.679 25.9147 579.894 26.0593 580.071 26.246C580.258 26.4233 580.403 26.638 580.505 26.89C580.617 27.142 580.683 27.408 580.701 27.688ZM581.849 29.704H580.673C580.571 30.18 580.356 30.5347 580.029 30.768C579.712 31.0013 579.301 31.118 578.797 31.118C578.405 31.118 578.065 31.0527 577.775 30.922C577.486 30.7913 577.248 30.6187 577.061 30.404C576.875 30.18 576.739 29.928 576.655 29.648C576.571 29.3587 576.534 29.0553 576.543 28.738H581.961C581.98 28.2993 581.938 27.8373 581.835 27.352C581.742 26.8667 581.565 26.4187 581.303 26.008C581.051 25.5973 580.711 25.2613 580.281 25C579.861 24.7293 579.329 24.594 578.685 24.594C578.191 24.594 577.733 24.6873 577.313 24.874C576.903 25.0607 576.543 25.322 576.235 25.658C575.937 25.994 575.703 26.3907 575.535 26.848C575.367 27.3053 575.283 27.8093 575.283 28.36C575.302 28.9107 575.381 29.4193 575.521 29.886C575.671 30.3527 575.89 30.754 576.179 31.09C576.469 31.426 576.823 31.6873 577.243 31.874C577.673 32.0607 578.177 32.154 578.755 32.154C579.577 32.154 580.258 31.9487 580.799 31.538C581.341 31.1273 581.691 30.516 581.849 29.704ZM583.265 22.004V32H584.455V22.004H583.265ZM586.34 24.762V34.758H587.53V31.034H587.558C587.689 31.2487 587.848 31.4307 588.034 31.58C588.23 31.72 588.436 31.832 588.65 31.916C588.865 32 589.08 32.0607 589.294 32.098C589.518 32.1353 589.719 32.154 589.896 32.154C590.447 32.154 590.928 32.056 591.338 31.86C591.758 31.664 592.104 31.398 592.374 31.062C592.654 30.7167 592.86 30.3153 592.99 29.858C593.13 29.4007 593.2 28.9153 593.2 28.402C593.2 27.8887 593.13 27.4033 592.99 26.946C592.85 26.4887 592.64 26.0873 592.36 25.742C592.09 25.3873 591.744 25.1073 591.324 24.902C590.914 24.6967 590.428 24.594 589.868 24.594C589.364 24.594 588.902 24.6873 588.482 24.874C588.062 25.0513 587.754 25.3407 587.558 25.742H587.53V24.762H586.34ZM591.94 28.318C591.94 28.6727 591.903 29.018 591.828 29.354C591.754 29.69 591.632 29.9887 591.464 30.25C591.296 30.5113 591.072 30.7213 590.792 30.88C590.522 31.0387 590.181 31.118 589.77 31.118C589.36 31.118 589.01 31.0433 588.72 30.894C588.431 30.7353 588.193 30.53 588.006 30.278C587.829 30.026 587.698 29.7367 587.614 29.41C587.53 29.074 587.488 28.7287 587.488 28.374C587.488 28.038 587.526 27.7067 587.6 27.38C587.684 27.0533 587.815 26.764 587.992 26.512C588.17 26.2507 588.398 26.0407 588.678 25.882C588.958 25.7233 589.299 25.644 589.7 25.644C590.083 25.644 590.414 25.7187 590.694 25.868C590.984 26.0173 591.217 26.218 591.394 26.47C591.581 26.722 591.716 27.0113 591.8 27.338C591.894 27.6553 591.94 27.982 591.94 28.318Z" fill="black"/>
<path fill-rule="evenodd" clip-rule="evenodd" d="M1277.39 32.8395C1277.12 32.0595 1276.37 31.5 1275.5 31.5C1274.63 31.5 1273.88 32.0595 1273.61 32.8395L1275.5 34.7279L1277.39 32.8395Z" fill="black"/>
<path fill-rule="evenodd" clip-rule="evenodd" d="M1280.31 29.9157C1279.22 28.4494 1277.47 27.5 1275.5 27.5C1273.53 27.5 1271.78 28.4494 1270.69 29.9157L1271.4 30.6318C1272.31 29.3427 1273.81 28.5 1275.5 28.5C1277.19 28.5 1278.69 29.3427 1279.6 30.6318L1280.31 29.9157Z" fill="black"/>
<path fill-rule="evenodd" clip-rule="evenodd" d="M1283.16 27.0694C1281.32 24.8871 1278.57 23.5 1275.5 23.5C1272.43 23.5 1269.68 24.8871 1267.84 27.0694L1268.55 27.7795C1270.2 25.7768 1272.7 24.5 1275.5 24.5C1278.3 24.5 1280.8 25.7768 1282.45 27.7795L1283.16 27.0694Z" fill="black"/>
<path fill-rule="evenodd" clip-rule="evenodd" d="M1285.99 24.2334C1283.43 21.3305 1279.68 19.5 1275.5 19.5C1271.32 19.5 1267.57 21.3305 1265.01 24.2334L1265.71 24.942C1268.1 22.2194 1271.6 20.5 1275.5 20.5C1279.4 20.5 1282.9 22.2194 1285.29 24.942L1285.99 24.2334Z" fill="black"/>
<path d="M1300.5 22.5C1300.5 21.9477 1300.95 21.5 1301.5 21.5H1318.5C1319.05 21.5 1319.5 21.9477 1319.5 22.5V31.5C1319.5 32.0523 1319.05 32.5 1318.5 32.5H1301.5C1300.95 32.5 1300.5 32.0523 1300.5 31.5V22.5Z" fill="#D2D5D6" stroke="black"/>
<path fill-rule="evenodd" clip-rule="evenodd" d="M1302.5 23C1302.22 23 1302 23.2239 1302 23.5V30.5C1302 30.7761 1302.22 31 1302.5 31H1317.5C1317.78 31 1318 30.7761 1318 30.5V23.5C1318 23.2239 1317.78 23 1317.5 23H1302.5Z" fill="black"/>
<path fill-rule="evenodd" clip-rule="evenodd" d="M1321 30.2368C1322.2 29.6143 1323 28.4509 1323 27.1184C1323 25.7859 1322.2 24.6225 1321 24V30.2368V30.2368Z" fill="black"/>
<path d="M1342.16 32V21.7195H1341.22C1341.15 22.1062 1341.03 22.4252 1340.84 22.6765C1340.66 22.9278 1340.43 23.126 1340.16 23.271C1339.9 23.416 1339.61 23.5175 1339.28 23.5755C1338.95 23.6238 1338.61 23.648 1338.26 23.648V24.634H1340.93V32H1342.16ZM1347.3 24.3875C1347.3 24.1265 1347.35 23.8993 1347.45 23.706C1347.55 23.5127 1347.67 23.3483 1347.83 23.213C1347.99 23.0777 1348.18 22.9762 1348.41 22.9085C1348.63 22.8408 1348.86 22.807 1349.1 22.807C1349.61 22.807 1350.02 22.9423 1350.34 23.213C1350.66 23.474 1350.83 23.8655 1350.83 24.3875C1350.83 24.9095 1350.67 25.3155 1350.35 25.6055C1350.03 25.8955 1349.62 26.0405 1349.13 26.0405C1348.88 26.0405 1348.64 26.0067 1348.42 25.939C1348.2 25.8713 1348.01 25.7698 1347.84 25.6345C1347.68 25.4992 1347.55 25.33 1347.45 25.127C1347.35 24.9143 1347.3 24.6678 1347.3 24.3875ZM1346 24.344C1346 24.808 1346.13 25.2382 1346.39 25.6345C1346.65 26.0212 1347 26.3015 1347.44 26.4755C1346.86 26.6785 1346.41 27.0072 1346.1 27.4615C1345.79 27.9062 1345.64 28.433 1345.64 29.042C1345.64 29.564 1345.72 30.0232 1345.9 30.4195C1346.08 30.8062 1346.33 31.13 1346.64 31.391C1346.96 31.652 1347.33 31.8453 1347.75 31.971C1348.18 32.0967 1348.64 32.1595 1349.13 32.1595C1349.61 32.1595 1350.05 32.0918 1350.47 31.9565C1350.88 31.8212 1351.24 31.623 1351.54 31.362C1351.85 31.0913 1352.09 30.7627 1352.26 30.376C1352.45 29.9893 1352.54 29.5447 1352.54 29.042C1352.54 28.404 1352.39 27.8675 1352.09 27.4325C1351.79 26.9878 1351.33 26.6688 1350.71 26.4755C1351.15 26.2822 1351.49 25.997 1351.74 25.62C1352 25.2333 1352.13 24.808 1352.13 24.344C1352.13 24.0153 1352.08 23.6963 1351.96 23.387C1351.84 23.068 1351.66 22.7877 1351.41 22.546C1351.17 22.2947 1350.85 22.0965 1350.45 21.9515C1350.05 21.7968 1349.58 21.7195 1349.02 21.7195C1348.62 21.7195 1348.24 21.7775 1347.87 21.8935C1347.51 22.0095 1347.19 22.1787 1346.91 22.401C1346.63 22.6233 1346.41 22.8988 1346.25 23.2275C1346.08 23.5465 1346 23.9187 1346 24.344ZM1346.94 29.1C1346.94 28.8003 1347 28.5297 1347.1 28.288C1347.22 28.0463 1347.37 27.8385 1347.57 27.6645C1347.77 27.4905 1348 27.36 1348.26 27.273C1348.53 27.1763 1348.82 27.128 1349.12 27.128C1349.41 27.128 1349.68 27.1812 1349.93 27.2875C1350.19 27.3842 1350.42 27.5195 1350.61 27.6935C1350.8 27.8675 1350.95 28.0753 1351.06 28.317C1351.18 28.549 1351.23 28.8052 1351.23 29.0855C1351.23 29.3755 1351.18 29.6413 1351.07 29.883C1350.98 30.1247 1350.83 30.3373 1350.64 30.521C1350.46 30.695 1350.23 30.8352 1349.97 30.9415C1349.72 31.0382 1349.44 31.0865 1349.13 31.0865C1348.49 31.0865 1347.97 30.9125 1347.55 30.5645C1347.15 30.2068 1346.94 29.7187 1346.94 29.1ZM1355.93 26.113V24.5035H1354.32V26.113H1355.93ZM1354.32 30.3905V32H1355.93V30.3905H1354.32ZM1359.06 26.9395C1359.06 26.6882 1359.06 26.4127 1359.06 26.113C1359.07 25.8037 1359.1 25.4992 1359.14 25.1995C1359.18 24.8902 1359.25 24.5905 1359.32 24.3005C1359.41 24.0105 1359.53 23.7592 1359.69 23.5465C1359.85 23.3242 1360.05 23.1453 1360.3 23.01C1360.54 22.8747 1360.83 22.807 1361.18 22.807C1361.53 22.807 1361.82 22.8747 1362.07 23.01C1362.31 23.1453 1362.51 23.3242 1362.66 23.5465C1362.82 23.7592 1362.95 24.0105 1363.02 24.3005C1363.11 24.5905 1363.17 24.8902 1363.21 25.1995C1363.26 25.4992 1363.28 25.8037 1363.28 26.113C1363.29 26.4127 1363.3 26.6882 1363.3 26.9395C1363.3 27.3262 1363.28 27.7612 1363.25 28.2445C1363.24 28.7182 1363.16 29.1677 1363.02 29.593C1362.9 30.0087 1362.69 30.3615 1362.4 30.6515C1362.11 30.9415 1361.7 31.0865 1361.18 31.0865C1360.66 31.0865 1360.25 30.9415 1359.96 30.6515C1359.67 30.3615 1359.46 30.0087 1359.32 29.593C1359.2 29.1677 1359.12 28.7182 1359.09 28.2445C1359.07 27.7612 1359.06 27.3262 1359.06 26.9395ZM1357.76 26.954C1357.76 27.331 1357.77 27.7225 1357.79 28.1285C1357.81 28.5345 1357.86 28.9308 1357.93 29.3175C1358.01 29.7042 1358.12 30.0715 1358.27 30.4195C1358.41 30.7578 1358.61 31.0575 1358.86 31.3185C1359.11 31.5795 1359.43 31.7873 1359.8 31.942C1360.19 32.087 1360.65 32.1595 1361.18 32.1595C1361.72 32.1595 1362.18 32.087 1362.56 31.942C1362.94 31.7873 1363.25 31.5795 1363.5 31.3185C1363.75 31.0575 1363.95 30.7578 1364.1 30.4195C1364.24 30.0715 1364.35 29.7042 1364.43 29.3175C1364.51 28.9308 1364.55 28.5345 1364.57 28.1285C1364.59 27.7225 1364.6 27.331 1364.6 26.954C1364.6 26.577 1364.59 26.1855 1364.57 25.7795C1364.55 25.3735 1364.51 24.9772 1364.43 24.5905C1364.35 24.2038 1364.24 23.8365 1364.1 23.4885C1363.95 23.1405 1363.75 22.836 1363.5 22.575C1363.25 22.314 1362.93 22.1062 1362.54 21.9515C1362.17 21.7968 1361.71 21.7195 1361.18 21.7195C1360.65 21.7195 1360.19 21.7968 1359.8 21.9515C1359.43 22.1062 1359.11 22.314 1358.86 22.575C1358.61 22.836 1358.41 23.1405 1358.27 23.4885C1358.12 23.8365 1358.01 24.2038 1357.93 24.5905C1357.86 24.9772 1357.81 25.3735 1357.79 25.7795C1357.77 26.1855 1357.76 26.577 1357.76 26.954ZM1367.12 26.9395C1367.12 26.6882 1367.12 26.4127 1367.12 26.113C1367.13 25.8037 1367.15 25.4992 1367.19 25.1995C1367.24 24.8902 1367.3 24.5905 1367.38 24.3005C1367.47 24.0105 1367.59 23.7592 1367.74 23.5465C1367.91 23.3242 1368.11 23.1453 1368.35 23.01C1368.6 22.8747 1368.89 22.807 1369.24 22.807C1369.59 22.807 1369.88 22.8747 1370.12 23.01C1370.36 23.1453 1370.56 23.3242 1370.72 23.5465C1370.88 23.7592 1371 24.0105 1371.08 24.3005C1371.17 24.5905 1371.23 24.8902 1371.27 25.1995C1371.32 25.4992 1371.34 25.8037 1371.34 26.113C1371.35 26.4127 1371.36 26.6882 1371.36 26.9395C1371.36 27.3262 1371.34 27.7612 1371.31 28.2445C1371.29 28.7182 1371.21 29.1677 1371.08 29.593C1370.95 30.0087 1370.75 30.3615 1370.46 30.6515C1370.17 30.9415 1369.76 31.0865 1369.24 31.0865C1368.72 31.0865 1368.31 30.9415 1368.02 30.6515C1367.73 30.3615 1367.52 30.0087 1367.38 29.593C1367.26 29.1677 1367.18 28.7182 1367.15 28.2445C1367.13 27.7612 1367.12 27.3262 1367.12 26.9395ZM1365.82 26.954C1365.82 27.331 1365.83 27.7225 1365.85 28.1285C1365.86 28.5345 1365.91 28.9308 1365.99 29.3175C1366.07 29.7042 1366.18 30.0715 1366.32 30.4195C1366.47 30.7578 1366.67 31.0575 1366.92 31.3185C1367.17 31.5795 1367.48 31.7873 1367.86 31.942C1368.25 32.087 1368.71 32.1595 1369.24 32.1595C1369.78 32.1595 1370.24 32.087 1370.62 31.942C1370.99 31.7873 1371.31 31.5795 1371.56 31.3185C1371.81 31.0575 1372.01 30.7578 1372.15 30.4195C1372.3 30.0715 1372.41 29.7042 1372.49 29.3175C1372.56 28.9308 1372.61 28.5345 1372.63 28.1285C1372.65 27.7225 1372.66 27.331 1372.66 26.954C1372.66 26.577 1372.65 26.1855 1372.63 25.7795C1372.61 25.3735 1372.56 24.9772 1372.49 24.5905C1372.41 24.2038 1372.3 23.8365 1372.15 23.4885C1372.01 23.1405 1371.81 22.836 1371.56 22.575C1371.31 22.314 1370.99 22.1062 1370.6 21.9515C1370.22 21.7968 1369.77 21.7195 1369.24 21.7195C1368.71 21.7195 1368.25 21.7968 1367.86 21.9515C1367.48 22.1062 1367.17 22.314 1366.92 22.575C1366.67 22.836 1366.47 23.1405 1366.32 23.4885C1366.18 23.8365 1366.07 24.2038 1365.99 24.5905C1365.91 24.9772 1365.86 25.3735 1365.85 25.7795C1365.83 26.1855 1365.82 26.577 1365.82 26.954Z" fill="black"/>
<path d="M1399 25.75C1399 28.6495 1396.65 31 1393.75 31C1390.85 31 1388.5 28.6495 1388.5 25.75C1388.5 22.8505 1390.85 20.5 1393.75 20.5C1396.65 20.5 1399 22.8505 1399 25.75Z" stroke="black"/>
<path d="M1401.75 33.75L1397.75 29.75" stroke="black" stroke-linecap="square"/>
<path fill-rule="evenodd" clip-rule="evenodd" d="M1422 22V24H1436V22H1422Z" fill="black"/>
<path fill-rule="evenodd" clip-rule="evenodd" d="M1422 30V32H1436V30H1422Z" fill="black"/>
<path fill-rule="evenodd" clip-rule="evenodd" d="M1422 26V28H1433V26H1422Z" fill="black"/>
<path fill-rule="evenodd" clip-rule="evenodd" d="M1418 22V24H1420V22H1418Z" fill="black"/>
<path fill-rule="evenodd" clip-rule="evenodd" d="M1418 30V32H1420V30H1418Z" fill="black"/>
<path fill-rule="evenodd" clip-rule="evenodd" d="M1418 26V28H1420V26H1418Z" fill="black"/>
</g>
<defs>
<filter id="filter0_bdd" x="-5.74625" y="-5.74625" width="1483.49" height="65.4925" filterUnits="userSpaceOnUse" color-interpolation-filters="sRGB">
<feFlood flood-opacity="0" result="BackgroundImageFix"/>
<feGaussianBlur in="BackgroundImage" stdDeviation="10.8731"/>
<feComposite in2="SourceAlpha" operator="in" result="effect1_backgroundBlur"/>
<feColorMatrix in="SourceAlpha" type="matrix" values="0 0 0 0 0 0 0 0 0 0 0 0 0 0 0 0 0 0 127 0"/>
<feOffset/>
<feGaussianBlur stdDeviation="8"/>
<feColorMatrix type="matrix" values="0 0 0 0 0 0 0 0 0 0 0 0 0 0 0 0 0 0 0.24 0"/>
<feBlend mode="normal" in2="effect1_backgroundBlur" result="effect2_dropShadow"/>
<feColorMatrix in="SourceAlpha" type="matrix" values="0 0 0 0 0 0 0 0 0 0 0 0 0 0 0 0 0 0 127 0"/>
<feOffset dy="1"/>
<feColorMatrix type="matrix" values="0 0 0 0 0 0 0 0 0 0 0 0 0 0 0 0 0 0 0.16 0"/>
<feBlend mode="normal" in2="effect2_dropShadow" result="effect3_dropShadow"/>
<feBlend mode="normal" in="SourceGraphic" in2="effect3_dropShadow" result="shape"/>
</filter>
</defs>
</svg>
