<?xml version="1.0" encoding="UTF-8" standalone="no"?>
<svg width="83px" height="83px" viewBox="0 0 83 83" version="1.1" xmlns="http://www.w3.org/2000/svg" xmlns:xlink="http://www.w3.org/1999/xlink">
    <!-- Generator: Sketch 42 (36781) - http://www.bohemiancoding.com/sketch -->
    <title>Rectangle 7</title>
    <desc>Created with Sketch.</desc>
    <defs>
        <path d="M41.5,83 C18.5801829,83 0,64.4198171 0,41.5 C0,18.5801829 18.5801829,0 41.5,0 C64.4198171,0 83,18.5801829 83,41.5 C83,64.4198171 64.4198171,83 41.5,83 Z M41.8458333,77.4666667 C61.5186764,77.4666667 77.4666667,61.5186764 77.4666667,41.8458333 C77.4666667,22.1729903 61.5186764,6.225 41.8458333,6.225 C22.1729903,6.225 6.225,22.1729903 6.225,41.8458333 C6.225,61.5186764 22.1729903,77.4666667 41.8458333,77.4666667 Z" id="path-1"></path>
    </defs>
    <g id="Mobile-Magic-Moment" stroke="none" stroke-width="1" fill="none" fill-rule="evenodd">
        <g id="iPhone-7-Copy-11" transform="translate(-146.000000, -319.000000)">
            <g id="Rectangle-7" transform="translate(146.000000, 319.000000)">
                <mask id="mask-2" fill="white">
                    <use xlink:href="#path-1"></use>
                </mask>
                <use id="Mask" fill="#EBEBEC" xlink:href="#path-1"></use>
                <rect fill="#00CAF0" mask="url(#mask-2)" x="41.5" y="-5.53333333" width="51.1833333" height="51.1833333"></rect>
            </g>
        </g>
    </g>
</svg>