<svg width="120" height="120" viewBox="0 0 120 120" fill="none" xmlns="http://www.w3.org/2000/svg">
<rect width="120" height="120" fill="white"/>
<path d="M60 120C93.1371 120 120 93.1371 120 60C120 26.8629 93.1371 0 60 0C26.8629 0 0 26.8629 0 60C0 93.1371 26.8629 120 60 120Z" fill="#CED2ED"/>
<path d="M112.497 89.0667C102.263 107.513 82.5918 119.999 60.0023 119.999C37.4127 119.999 17.7358 107.513 7.50218 89.0667C22.449 83.9584 40.5285 80.9668 60.0023 80.9668C79.476 80.9668 97.5499 83.959 112.497 89.0667Z" fill="#B0B4D9"/>
<path d="M59.9994 68.7168C37.5267 68.7168 19.3089 74.3557 19.3089 81.3115V91.321C19.3089 98.2768 37.5267 103.915 59.9994 103.915C82.4721 103.915 100.69 98.2768 100.69 91.321V81.3115C100.69 74.3557 82.4721 68.7168 59.9994 68.7168Z" fill="white"/>
<path d="M59.9994 91.3741C82.4719 91.3741 100.689 86.3021 100.689 80.0454C100.689 73.7888 82.4719 68.7168 59.9994 68.7168C37.527 68.7168 19.3095 73.7888 19.3095 80.0454C19.3095 86.3021 37.527 91.3741 59.9994 91.3741Z" fill="#B0B4D9"/>
<path d="M26.4036 65.4193C32.0034 65.4193 36.5429 60.8797 36.5429 55.2799C36.5429 49.6802 32.0034 45.1406 26.4036 45.1406C20.8038 45.1406 16.2643 49.6802 16.2643 55.2799C16.2643 60.8797 20.8038 65.4193 26.4036 65.4193Z" fill="white"/>
<path d="M93.5959 65.4193C99.1957 65.4193 103.735 60.8797 103.735 55.2799C103.735 49.6802 99.1957 45.1406 93.5959 45.1406C87.9961 45.1406 83.4565 49.6802 83.4565 55.2799C83.4565 60.8797 87.9961 65.4193 93.5959 65.4193Z" fill="white"/>
<path d="M60.0006 12.0801C39.1061 12.0801 22.1679 29.0183 22.1679 49.9128V80.0451H22.1685C22.1685 85.141 39.1061 89.2723 60 89.2723C80.8939 89.2723 97.8316 85.141 97.8316 80.0451V49.9128C97.8316 29.0188 80.8945 12.0801 60.0006 12.0801Z" fill="white"/>
<path d="M76.55 39.3203C69.9639 39.3203 67.7478 41.5403 60.0001 41.5403C52.2524 41.5403 50.0363 39.3203 43.4502 39.3203C37.1944 39.3203 30.098 45.137 30.098 57.4704C30.098 74.2071 45.5861 79.7111 59.6309 79.7111C59.754 79.7111 59.8765 79.7055 59.9995 79.7043C60.1226 79.7055 60.2451 79.7111 60.3681 79.7111C74.4135 79.7111 89.901 74.2071 89.901 57.4704C89.9022 45.1365 82.8058 39.3203 76.55 39.3203Z" fill="#8C91BD"/>
<path d="M69.913 34.7309C69.4457 34.7309 69.0663 34.3516 69.0663 33.8842V17.2158C69.0663 16.7485 69.4457 16.3691 69.913 16.3691C70.3804 16.3691 70.7597 16.7485 70.7597 17.2158V33.8836C70.7597 34.3516 70.3804 34.7309 69.913 34.7309Z" fill="#CED2ED"/>
<path d="M50.0888 34.7303C49.6214 34.7303 49.2421 34.351 49.2421 33.8836V17.2158C49.2421 16.7485 49.6214 16.3691 50.0888 16.3691C50.5562 16.3691 50.9355 16.7485 50.9355 17.2158V33.8836C50.9355 34.351 50.5567 34.7303 50.0888 34.7303Z" fill="#CED2ED"/>
<path d="M45.9801 41.6445L41.8404 55.3349C41.1139 57.7225 38.5902 59.0749 36.2026 58.3581C34.4324 57.8224 33.2341 56.2973 33.0343 54.5632C33.4616 44.1705 40.0821 41.8686 45.9801 41.6445Z" fill="white"/>
<path d="M47.3143 57.2308C48.3919 57.2308 49.2656 56.357 49.2656 55.2795C49.2656 54.2019 48.3919 53.3281 47.3143 53.3281C46.2368 53.3281 45.3624 54.2019 45.3624 55.2795C45.3624 56.357 46.2362 57.2308 47.3143 57.2308Z" fill="black"/>
<path d="M72.685 57.2308C73.7626 57.2308 74.6364 56.357 74.6364 55.2795C74.6364 54.2019 73.7626 53.3281 72.685 53.3281C71.6069 53.3281 70.7331 54.2019 70.7331 55.2795C70.7331 56.357 71.6069 57.2308 72.685 57.2308Z" fill="black"/>
</svg>
