<svg width="120" height="120" viewBox="0 0 120 120" fill="none" xmlns="http://www.w3.org/2000/svg">
<g clip-path="url(#clip0)">
<rect width="120" height="120" fill="white"/>
<g clip-path="url(#clip1)">
<path d="M120 60.0028C120 77.9529 112.115 94.0627 99.6237 105.053C94.318 102.298 86.1562 100.136 76.4083 98.9793C75.8664 99.3744 75.3133 99.7582 74.7432 100.125C74.6134 100.204 74.4835 100.283 74.3537 100.368H74.3481C72.8297 106.882 66.9765 111.731 60 111.731C55.9304 111.731 52.2446 110.082 49.5804 107.412C47.7178 105.555 46.3575 103.201 45.7027 100.571C45.556 100.481 45.4092 100.396 45.2625 100.306C44.5908 99.905 43.9417 99.4703 43.3095 99.0131C33.6858 100.182 25.6256 102.321 20.3763 105.053C7.87959 94.0571 0 77.9472 0 60.0028C0 26.863 26.8674 0 60 0C93.1383 0 120 26.863 120 60.0028Z" fill="#FFE8E3"/>
<path d="M108.958 94.6986C98.0868 110.013 80.211 120.004 59.9983 120.004C39.7914 120.004 21.9156 110.013 11.0444 94.6986C25.2683 90.2958 42.0435 87.75 60.004 87.75C77.9639 87.75 94.734 90.2958 108.958 94.6986Z" fill="#A12512"/>
<path d="M45.2625 100.306C44.5908 99.9056 43.9417 99.471 43.3095 99.0138C43.953 98.9348 44.6021 98.8614 45.2625 98.7937C45.2963 98.788 45.3302 98.788 45.3697 98.7824C49.9643 98.3026 54.8862 98.043 60 98.043C65.1138 98.043 70.0358 98.3026 74.6359 98.7824C74.6755 98.788 74.7093 98.788 74.7432 98.7937C75.302 98.8501 75.8608 98.9122 76.4083 98.9799C75.8664 99.375 75.3133 99.7589 74.7432 100.126C74.6134 100.205 74.4835 100.284 74.3537 100.368H74.3481C72.8297 106.882 66.9765 111.731 60 111.731C55.9304 111.731 52.2446 110.082 49.5804 107.413C47.7178 105.556 46.3575 103.202 45.7027 100.572C45.556 100.481 45.4092 100.397 45.2625 100.306Z" fill="#A83524"/>
<path d="M35.6585 82.6934C28.9022 78.5305 13.9959 65.9028 13.7966 58.3107C13.5844 50.2258 42.3658 54.1833 60 54.1833L35.6585 82.6934ZM84.3421 82.6934C91.0984 78.5305 106.005 65.9028 106.204 58.3107C106.416 50.2258 77.6348 54.1833 60.0006 54.1833L84.3421 82.6934Z" fill="#A12512"/>
<path d="M74.7432 94.582V100.125C74.6134 100.204 74.4836 100.283 74.3537 100.368H74.3481C72.8298 106.881 66.9765 111.73 60 111.73C55.9304 111.73 52.2446 110.082 49.5805 107.412C47.7178 105.555 46.3575 103.201 45.7028 100.571C45.556 100.48 45.4093 100.396 45.2625 100.305V94.582H74.7432Z" fill="#FDA490"/>
<path d="M74.7432 70.7109V96.9925C74.7432 97.5965 74.7093 98.1948 74.636 98.7819C74.5682 99.3181 74.4779 99.8487 74.3537 100.368H74.3481C72.8298 106.882 66.9765 111.731 60 111.731C55.9304 111.731 52.2446 110.083 49.5805 107.413C47.7178 105.555 46.3575 103.202 45.7028 100.571C45.556 99.9898 45.4431 99.3915 45.3697 98.7819C45.2964 98.1948 45.2625 97.5965 45.2625 96.9925V70.7109H74.7432Z" fill="black"/>
<path fill-rule="evenodd" clip-rule="evenodd" d="M88.0001 47.7701L87.9888 53.1256V53.1424L87.9493 76.5271C87.9493 77.8506 87.8534 79.146 87.6616 80.4189C86.793 86.4642 83.9501 91.8702 79.8043 95.9751C78.8567 96.9116 77.8414 97.7864 76.7696 98.5828C76.2281 98.9753 75.6754 99.3566 75.1057 99.7212C74.9759 99.7997 74.8462 99.8782 74.7165 99.9623H74.7108C70.4917 102.531 65.528 104.011 60.2089 104C55.0308 103.938 50.2194 102.548 46.0848 100.164C45.9382 100.074 45.7915 99.9903 45.6449 99.9006C44.9737 99.5024 44.325 99.0706 43.6932 98.6164C42.4523 97.7248 41.2847 96.7378 40.2074 95.6611C35.9938 91.4552 33.1341 85.9539 32.2767 79.8245C32.0905 78.5235 31.9947 77.2 32.0003 75.8485L32.0341 53.1312V53.1199L32.0454 47.8205C32.0454 47.6074 32.0511 47.3943 32.0567 47.1868C32.0567 47.0691 32.0623 46.9569 32.068 46.8448C32.3274 39.5433 35.4129 32.9653 40.2694 28.1426C42.3226 26.1069 44.686 24.3853 47.2863 23.0619C48.6287 22.3777 50.022 21.8001 51.4716 21.3403C51.4716 21.3403 51.4716 21.3403 51.4772 21.3403C54.1904 20.4711 57.0784 20 60.0735 20C63.0292 20 65.8777 20.4598 68.5513 21.3066C69.984 21.7553 71.3603 22.316 72.6802 22.9834C75.3313 24.318 77.7398 26.0621 79.8212 28.1314C84.6608 32.9429 87.7293 39.5097 87.9831 46.7943C87.9888 46.9289 87.9888 47.0579 87.9888 47.1924C88.0001 47.3831 88.0001 47.5794 88.0001 47.7701Z" fill="#F7644A"/>
<path d="M93.4945 47.3086C93.0175 29.2129 78.2106 14.6875 60.0006 14.6875C41.7906 14.6875 26.9837 29.2129 26.5067 47.3086C36.3607 46.9287 49.9795 48.2055 60.0006 48.2055C70.0211 48.2055 83.6399 46.9287 93.4945 47.3086Z" fill="#F7644A"/>
<path d="M26.5067 47.3082L14.7957 55.9944C14.7957 55.9944 19.0358 53.2129 28.9479 53.2129C38.8601 53.2129 60.0006 54.1814 60.0006 54.1814V44.6836L26.5067 47.3082Z" fill="#F7644A"/>
<path d="M93.4946 47.3082L105.206 55.9944C105.206 55.9944 100.965 53.2129 91.0533 53.2129C81.1412 53.2129 60.0007 54.1814 60.0007 54.1814V44.6836L93.4946 47.3082Z" fill="#F7644A"/>
<path d="M59.6077 23.0403C67.1669 23.0403 73.2948 19.3005 73.2948 14.6871C73.2948 10.0738 67.1669 6.33398 59.6077 6.33398C52.0486 6.33398 45.9206 10.0738 45.9206 14.6871C45.9206 19.3005 52.0486 23.0403 59.6077 23.0403Z" fill="#D4371C"/>
<path d="M73.2948 14.6875H60H59.2149H45.9206L49.8762 47.9256L59.2149 48.1841V48.2055L59.6077 48.1948L60 48.2055V48.1841L69.3392 47.9256L73.2948 14.6875Z" fill="#D4371C"/>
<path d="M45.2624 100.306V118.171C35.8927 115.806 27.4035 111.239 20.3763 105.053C25.6255 102.321 33.6858 100.182 43.3095 99.0137C43.9416 99.4709 44.5907 99.9055 45.2624 100.306Z" fill="#A12512"/>
<path d="M99.6237 105.052C92.5965 111.238 84.1073 115.81 74.7432 118.169V100.124C75.3133 99.7574 75.8664 99.3736 76.4083 98.9785C86.1562 100.136 94.318 102.297 99.6237 105.052Z" fill="#A12512"/>
<path d="M84.7757 53H35.2243H32V55.8638V59.8727V64.6816C32.5545 70.4604 38.0027 75 44.6526 75C52.853 75 55.7417 69.58 56.9486 66.5799C57.4053 65.4444 58.6071 64.6816 59.9647 64.6816H60.0353C61.3935 64.6816 62.5958 65.445 63.052 66.581C64.2572 69.5817 67.1374 75 75.3474 75C81.9973 75 87.4455 70.461 88 64.6816V59.8727V55.8638V53H84.7757Z" fill="#FF958A"/>
<path d="M46.83 65.0217C47.9075 65.0217 48.7813 64.1479 48.7813 63.0704C48.7813 61.9929 47.9075 61.1191 46.83 61.1191C45.7525 61.1191 44.8782 61.9929 44.8782 63.0704C44.8782 64.1485 45.7525 65.0217 46.83 65.0217Z" fill="black"/>
<path d="M72.1998 65.0217C73.2773 65.0217 74.1511 64.1479 74.1511 63.0704C74.1511 61.9929 73.2773 61.1191 72.1998 61.1191C71.1217 61.1191 70.248 61.9929 70.248 63.0704C70.248 64.1485 71.1217 65.0217 72.1998 65.0217Z" fill="black"/>
<path d="M40.7763 70.7109C36.9669 70.7109 33.8788 67.6228 33.8788 63.8134V58.4761C33.8788 56.5711 35.4232 55.0273 37.3276 55.0273C39.232 55.0273 40.7763 56.5717 40.7763 58.4761V70.7109Z" fill="white"/>
<path fill-rule="evenodd" clip-rule="evenodd" d="M47.4485 97.9532C49.4049 95.9968 47.8639 91.2832 44.006 87.4258C40.1486 83.5684 35.435 82.0269 33.4786 83.9833C32.9582 84.5037 31.0814 86.3805 30.561 86.9009C28.6047 88.8572 30.1456 93.5709 34.0035 97.4283C37.8615 101.286 42.5746 102.827 44.5309 100.871C45.0513 100.35 46.9281 98.4736 47.4485 97.9532Z" fill="#F7644A"/>
<path fill-rule="evenodd" clip-rule="evenodd" d="M85.7837 83.9823C83.8273 82.0259 79.1808 83.4997 75.4064 87.2746C71.632 91.0491 70.1577 95.6955 72.1141 97.6519C72.6345 98.1723 74.5112 100.049 75.0316 100.569C76.988 102.526 81.6345 101.052 85.4089 97.2771C89.1838 93.5021 90.6576 88.8562 88.7013 86.8998C88.1808 86.3794 86.3041 84.5027 85.7837 83.9823Z" fill="#F7644A"/>
<path fill-rule="evenodd" clip-rule="evenodd" d="M74.799 95.0276C74.799 89.7278 68.1493 85.4316 59.9463 85.4316C51.7439 85.4316 45.0936 89.7278 45.0936 95.0276C45.0936 96.4365 45.0936 101.521 45.0936 102.93C45.0936 108.23 51.7433 112.526 59.9463 112.526C68.1493 112.526 74.799 108.23 74.799 102.93C74.799 101.521 74.799 96.4365 74.799 95.0276Z" fill="#F7644A"/>
<path fill-rule="evenodd" clip-rule="evenodd" d="M60.0028 85.4328C59.9836 85.4328 59.965 85.4316 59.9463 85.4316C51.7439 85.4316 45.0942 89.7278 45.0942 95.0276C45.0942 96.4365 45.0942 101.521 45.0942 102.93C45.0942 108.23 51.7439 112.526 59.9463 112.526C59.9655 112.526 59.9842 112.525 60.0028 112.525V85.4328Z" fill="#FF958A"/>
<path d="M59.9463 112.525C68.1492 112.525 74.799 108.229 74.799 102.929C74.799 97.63 68.1492 93.334 59.9463 93.334C51.7434 93.334 45.0936 97.63 45.0936 102.929C45.0936 108.229 51.7434 112.525 59.9463 112.525Z" fill="#D4371C"/>
<path d="M59.9464 106.749C63.2103 106.749 65.8561 105.04 65.8561 102.931C65.8561 100.823 63.2103 99.1133 59.9464 99.1133C56.6826 99.1133 54.0367 100.823 54.0367 102.931C54.0367 105.04 56.6826 106.749 59.9464 106.749Z" fill="#A12512"/>
</g>
</g>
<defs>
<clipPath id="clip0">
<rect width="120" height="120" fill="white"/>
</clipPath>
<clipPath id="clip1">
<rect width="120" height="120.005" fill="white"/>
</clipPath>
</defs>
</svg>
