<svg width="120" height="120" viewBox="0 0 120 120" fill="none" xmlns="http://www.w3.org/2000/svg">
<rect width="120" height="120" fill="white"/>
<path d="M60 120C93.1371 120 120 93.1371 120 60C120 26.8629 93.1371 0 60 0C26.8629 0 0 26.8629 0 60C0 93.1371 26.8629 120 60 120Z" fill="#FFECC2"/>
<path d="M95.8431 52.5033L81.4691 18.6581C80.5007 16.3716 76.8112 16.4741 75.7985 18.816L70.0908 32.173C67.9692 31.6154 64.3798 30.3683 59.2079 30.3683C56.074 30.3683 52.3589 30.8263 48.0366 32.173L41.0085 18.7107C39.8359 16.465 36.1505 16.6863 35.3441 19.0515L23.8674 52.3482C21.8379 58.2361 20 62.6522 20 70.1802C20 92.1719 37.9088 110 60 110C82.0912 110 100 92.1719 100 70.1802C100.001 63.8297 98.4993 57.8302 95.8431 52.5033Z" fill="#FC9D03"/>
<path d="M63.9524 56.9857C64.1221 54.2711 61.823 52 58.9998 52C56.1767 52 53.8776 54.2711 54.0473 56.9857C55.0098 72.3597 38.1741 76.1972 39.0318 87.804C39.5398 94.6828 47.385 99 59.0004 99C70.6158 99 78.4604 94.6833 78.9685 87.804C79.825 76.1972 62.9894 72.3597 63.9524 56.9857Z" fill="white"/>
<path fill-rule="evenodd" clip-rule="evenodd" d="M47.0006 66.4994C47.0006 68.4325 45.4319 70 43.4983 70C41.5687 70 40 68.4325 40 66.4994C40 64.5664 41.5687 63 43.4983 63C45.4319 63 47.0006 64.5664 47.0006 66.4994Z" fill="black"/>
<path fill-rule="evenodd" clip-rule="evenodd" d="M77.9994 66.4994C77.9994 68.4325 76.4319 70 74.4971 70C72.5681 70 71 68.4325 71 66.4994C71 64.5664 72.5687 63 74.4971 63C76.4319 63 77.9994 64.5664 77.9994 66.4994Z" fill="black"/>
<g clip-path="url(#clip0)">
<path fill-rule="evenodd" clip-rule="evenodd" d="M60.771 84.314L64.285 80.996C65.849 79.52 64.743 77 62.533 77H55.505C53.295 77 52.186 79.52 53.75 80.996L57.264 84.314C58.232 85.229 59.803 85.229 60.771 84.314Z" fill="black"/>
<path d="M59.02 82.3066H57.014V84.5586C57.014 87.0116 54.766 89.0066 52.002 89.0066C49.244 89.0066 47 87.0116 47 84.5586C47 84.0056 46.553 83.5586 46 83.5586C45.447 83.5586 45 84.0056 45 84.5586C45 88.1146 48.141 91.0066 52.002 91.0066C55.859 91.0066 58.997 88.1276 59.012 84.5836H59.02V82.3066Z" fill="black"/>
<path d="M72.034 83.5586C71.481 83.5586 71.034 84.0056 71.034 84.5586C71.034 87.0116 68.786 89.0066 66.022 89.0066C63.285 89.0066 61.061 87.0406 61.026 84.6136V82.3066H59.02V84.7496H59.03C59.141 88.2166 62.23 91.0066 66.021 91.0066C69.887 91.0066 73.033 88.1136 73.033 84.5586C73.034 84.0056 72.586 83.5586 72.034 83.5586Z" fill="black"/>
</g>
<defs>
<clipPath id="clip0">
<rect width="28.034" height="14.007" fill="white" transform="translate(45 77)"/>
</clipPath>
</defs>
</svg>
