<svg width="120" height="120" viewBox="0 0 120 120" fill="none" xmlns="http://www.w3.org/2000/svg">
<rect width="120" height="120" fill="white"/>
<path d="M60 120C93.1371 120 120 93.1371 120 60C120 26.8629 93.1371 0 60 0C26.8629 0 0 26.8629 0 60C0 93.1371 26.8629 120 60 120Z" fill="#C4F6EA"/>
<path d="M60 120C93.1371 120 120 93.1371 120 60C120 26.8629 93.1371 0 60 0C26.8629 0 0 26.8629 0 60C0 93.1371 26.8629 120 60 120Z" fill="#FCE8CC"/>
<path d="M44.7737 79.4355C55.0745 79.4355 63.425 71.085 63.425 60.7841C63.425 50.4833 55.0745 42.1328 44.7737 42.1328C34.4728 42.1328 26.1223 50.4833 26.1223 60.7841C26.1223 71.085 34.4728 79.4355 44.7737 79.4355Z" fill="#FDA854"/>
<path d="M59.4672 56.4572C58.6447 56.7507 57.7399 56.3217 57.4464 55.4993L44.0778 18.0409C43.7843 17.2185 44.2133 16.3137 45.0357 16.0201C45.8581 15.7266 46.7629 16.1556 47.0565 16.978L60.425 54.4365C60.7186 55.2589 60.2896 56.1637 59.4672 56.4572Z" fill="black"/>
<path d="M44.7738 71.171C50.5111 71.171 55.1621 66.5201 55.1621 60.7828C55.1621 55.0455 50.5111 50.3945 44.7738 50.3945C39.0365 50.3945 34.3856 55.0455 34.3856 60.7828C34.3856 66.5201 39.0365 71.171 44.7738 71.171Z" fill="#F17801"/>
<path d="M55.5695 63.8341C54.8341 64.3055 53.8564 64.0915 53.3851 63.356L31.9233 29.8702C31.452 29.1347 31.6659 28.1571 32.4014 27.6858C33.1369 27.2145 34.1146 27.4284 34.5859 28.1639L56.0476 61.6491C56.5184 62.3846 56.3045 63.3628 55.5695 63.8341Z" fill="black"/>
<path d="M72.1628 87.1603C86.7304 87.1603 98.5398 75.3509 98.5398 60.7833C98.5398 46.2157 86.7304 34.4062 72.1628 34.4062C57.5952 34.4062 45.7858 46.2157 45.7858 60.7833C45.7858 75.3509 57.5952 87.1603 72.1628 87.1603Z" fill="#FED1A0"/>
<path d="M72.1628 79.4355C82.4636 79.4355 90.8141 71.085 90.8141 60.7841C90.8141 50.4833 82.4636 42.1328 72.1628 42.1328C61.862 42.1328 53.5115 50.4833 53.5115 60.7841C53.5115 71.085 61.862 79.4355 72.1628 79.4355Z" fill="#FDA854"/>
<path d="M72.1627 71.171C77.9 71.171 82.551 66.5201 82.551 60.7828C82.551 55.0455 77.9 50.3945 72.1627 50.3945C66.4255 50.3945 61.7745 55.0455 61.7745 60.7828C61.7745 66.5201 66.4255 71.171 72.1627 71.171Z" fill="#F17801"/>
<path d="M61.1413 99.2381C83.5299 99.2381 101.893 82.003 103.687 60.0772C103.842 58.1728 102.313 56.5488 100.403 56.5488H21.8799C19.9693 56.5488 18.4402 58.1728 18.5959 60.0772C20.3898 82.003 38.7527 99.2381 61.1413 99.2381Z" fill="white"/>
<path d="M76.67 104.074H45.613C44.7138 104.074 43.9851 103.345 43.9851 102.446V93.6855H78.2973V102.446C78.2973 103.345 77.5686 104.074 76.67 104.074Z" fill="white"/>
<path d="M60 120C93.1371 120 120 93.1371 120 60C120 26.8629 93.1371 0 60 0C26.8629 0 0 26.8629 0 60C0 93.1371 26.8629 120 60 120Z" fill="#DBF4A9"/>
<path d="M60 120C93.1371 120 120 93.1371 120 60C120 26.8629 93.1371 0 60 0C26.8629 0 0 26.8629 0 60C0 93.1371 26.8629 120 60 120Z" fill="#EAEFBC"/>
<path d="M44.7737 79.4355C55.0745 79.4355 63.425 71.085 63.425 60.7841C63.425 50.4833 55.0745 42.1328 44.7737 42.1328C34.4728 42.1328 26.1223 50.4833 26.1223 60.7841C26.1223 71.085 34.4728 79.4355 44.7737 79.4355Z" fill="#93C437"/>
<path d="M59.4672 56.4572C58.6447 56.7507 57.7399 56.3217 57.4464 55.4993L44.0778 18.0409C43.7843 17.2185 44.2133 16.3137 45.0357 16.0201C45.8581 15.7266 46.7629 16.1556 47.0565 16.978L60.425 54.4365C60.7186 55.2589 60.2896 56.1637 59.4672 56.4572Z" fill="black"/>
<path d="M44.7738 71.171C50.5111 71.171 55.1621 66.5201 55.1621 60.7828C55.1621 55.0455 50.5111 50.3945 44.7738 50.3945C39.0365 50.3945 34.3856 55.0455 34.3856 60.7828C34.3856 66.5201 39.0365 71.171 44.7738 71.171Z" fill="#73A321"/>
<path d="M55.5695 63.8341C54.8341 64.3055 53.8564 64.0915 53.3851 63.356L31.9233 29.8702C31.452 29.1347 31.6659 28.1571 32.4014 27.6858C33.1369 27.2145 34.1146 27.4284 34.5859 28.1639L56.0476 61.6491C56.5184 62.3846 56.3045 63.3628 55.5695 63.8341Z" fill="black"/>
<path d="M72.1628 87.1603C86.7304 87.1603 98.5398 75.3509 98.5398 60.7833C98.5398 46.2157 86.7304 34.4062 72.1628 34.4062C57.5952 34.4062 45.7858 46.2157 45.7858 60.7833C45.7858 75.3509 57.5952 87.1603 72.1628 87.1603Z" fill="#BCE36F"/>
<path d="M72.1628 79.4355C82.4636 79.4355 90.8141 71.085 90.8141 60.7841C90.8141 50.4833 82.4636 42.1328 72.1628 42.1328C61.862 42.1328 53.5115 50.4833 53.5115 60.7841C53.5115 71.085 61.862 79.4355 72.1628 79.4355Z" fill="#93C437"/>
<path d="M72.1627 71.171C77.9 71.171 82.551 66.5201 82.551 60.7828C82.551 55.0455 77.9 50.3945 72.1627 50.3945C66.4255 50.3945 61.7745 55.0455 61.7745 60.7828C61.7745 66.5201 66.4255 71.171 72.1627 71.171Z" fill="#73A321"/>
<path d="M61.5 99C83.859 99 102.198 82.0432 103.989 60.4714C104.145 58.5977 102.618 57 100.709 57H22.2906C20.3825 57 18.8554 58.5977 19.011 60.4714C20.8024 82.0432 39.1411 99 61.5 99Z" fill="white"/>
<path d="M77.3875 104H46.6131C45.7221 104 45 103.277 45 102.384V93.6855H79V102.384C79 103.277 78.278 104 77.3875 104Z" fill="white"/>
</svg>
