<svg width="120" height="120" viewBox="0 0 120 120" fill="none" xmlns="http://www.w3.org/2000/svg">
<rect width="120" height="120" fill="white"/>
<path d="M60 120C93.1371 120 120 93.1371 120 60C120 26.8629 93.1371 0 60 0C26.8629 0 0 26.8629 0 60C0 93.1371 26.8629 120 60 120Z" fill="#FCF5E4"/>
<path d="M46.2205 20.915L44.8861 26.1977C56.2864 29.1527 67.0591 35.0919 75.9832 44.0159L49.0366 70.9625L49.0371 70.9659L82.9028 37.1002C73.8709 28.0683 63.2208 21.633 51.8871 17.8026C49.4588 16.9824 46.8482 18.4303 46.2205 20.915Z" fill="#F2B013"/>
<path d="M76.1655 43.8338L27.848 92.1513L45.0685 26.0156C56.4688 28.9706 67.2414 34.9098 76.1655 43.8338Z" fill="#FED476"/>
<path d="M99.0846 73.778L93.8018 75.1124C90.8469 63.7121 84.9077 52.9394 75.9836 44.0154L49.0365 70.962L49.0331 70.9614L82.8988 37.0957C91.9307 46.1276 98.366 56.7777 102.196 68.1114C103.017 70.5397 101.569 73.1503 99.0846 73.778Z" fill="#F2B013"/>
<path d="M76.1655 43.834L27.848 92.1514L93.9842 74.931C91.0293 63.5307 85.0901 52.758 76.1655 43.834Z" fill="#FED476"/>
<path d="M54.6293 58.0943C59.5461 58.0943 63.5319 54.1084 63.5319 49.1917C63.5319 44.2749 59.5461 40.2891 54.6293 40.2891C49.7125 40.2891 45.7267 44.2749 45.7267 49.1917C45.7267 54.1084 49.7125 58.0943 54.6293 58.0943Z" fill="#D98B00"/>
<path d="M67.68 88.012C73.8852 88.012 78.9155 82.9817 78.9155 76.7765C78.9155 70.5713 73.8852 65.541 67.68 65.541C61.4748 65.541 56.4445 70.5713 56.4445 76.7765C56.4445 82.9817 61.4748 88.012 67.68 88.012Z" fill="#D98B00"/>
<path d="M38.5948 79.3816C42.2091 79.3816 45.1391 76.4516 45.1391 72.8373C45.1391 69.2229 42.2091 66.293 38.5948 66.293C34.9805 66.293 32.0505 69.2229 32.0505 72.8373C32.0505 76.4516 34.9805 79.3816 38.5948 79.3816Z" fill="#D98B00"/>
<path d="M40.4647 73.0526C41.4975 73.0526 42.3348 72.2153 42.3348 71.1825C42.3348 70.1497 41.4975 69.3125 40.4647 69.3125C39.4319 69.3125 38.5947 70.1497 38.5947 71.1825C38.5947 72.2153 39.4319 73.0526 40.4647 73.0526Z" fill="black"/>
<path d="M72.6636 76.576C73.6964 76.576 74.5336 75.7388 74.5336 74.706C74.5336 73.6732 73.6964 72.8359 72.6636 72.8359C71.6308 72.8359 70.7935 73.6732 70.7935 74.706C70.7935 75.7388 71.6308 76.576 72.6636 76.576Z" fill="black"/>
<path d="M53.8769 48.0096C54.9097 48.0096 55.7469 47.1724 55.7469 46.1396C55.7469 45.1068 54.9097 44.2695 53.8769 44.2695C52.8441 44.2695 52.0069 45.1068 52.0069 46.1396C52.0069 47.1724 52.8441 48.0096 53.8769 48.0096Z" fill="black"/>
<path d="M60 120C93.1371 120 120 93.1371 120 60C120 26.8629 93.1371 0 60 0C26.8629 0 0 26.8629 0 60C0 93.1371 26.8629 120 60 120Z" fill="#FCE4C7"/>
<path d="M102.196 68.1128C98.3666 56.7802 91.9324 46.1318 82.9028 37.1005C82.9022 37.0999 82.9011 37.0988 82.9005 37.0982C82.9 37.0977 82.8994 37.0977 82.8994 37.0971C73.8681 28.0669 63.2191 21.6327 51.8865 17.8028C49.4588 16.9821 46.8482 18.43 46.2205 20.9147L44.8861 26.1974C56.2859 29.1524 67.0574 35.091 75.9814 44.0139L75.9854 44.0179C84.9083 52.9419 90.847 63.7135 93.8019 75.1132L99.0846 73.7788C101.569 73.1512 103.017 70.5406 102.196 68.1128Z" fill="#FC9D03"/>
<path d="M76.1655 43.8338C67.2414 34.9098 56.4688 28.97 45.0685 26.0156L27.848 92.1518L93.9842 74.9314C91.0293 63.5305 85.0901 52.7584 76.1655 43.8338Z" fill="#FFC14F"/>
<path d="M54.6293 58.0943C59.5461 58.0943 63.5319 54.1084 63.5319 49.1917C63.5319 44.2749 59.5461 40.2891 54.6293 40.2891C49.7125 40.2891 45.7267 44.2749 45.7267 49.1917C45.7267 54.1084 49.7125 58.0943 54.6293 58.0943Z" fill="#D97F00"/>
<path d="M67.68 88.014C73.8852 88.014 78.9155 82.9837 78.9155 76.7785C78.9155 70.5733 73.8852 65.543 67.68 65.543C61.4748 65.543 56.4445 70.5733 56.4445 76.7785C56.4445 82.9837 61.4748 88.014 67.68 88.014Z" fill="#D97F00"/>
<path d="M38.5948 79.3816C42.2091 79.3816 45.1391 76.4516 45.1391 72.8373C45.1391 69.223 42.2091 66.293 38.5948 66.293C34.9805 66.293 32.0505 69.223 32.0505 72.8373C32.0505 76.4516 34.9805 79.3816 38.5948 79.3816Z" fill="#D97F00"/>
<path d="M40.4647 73.0545C41.4975 73.0545 42.3348 72.2173 42.3348 71.1845C42.3348 70.1517 41.4975 69.3145 40.4647 69.3145C39.4319 69.3145 38.5947 70.1517 38.5947 71.1845C38.5947 72.2173 39.4319 73.0545 40.4647 73.0545Z" fill="black"/>
<path d="M72.6636 76.578C73.6964 76.578 74.5336 75.7407 74.5336 74.7079C74.5336 73.6751 73.6964 72.8379 72.6636 72.8379C71.6308 72.8379 70.7935 73.6751 70.7935 74.7079C70.7935 75.7407 71.6308 76.578 72.6636 76.578Z" fill="black"/>
<path d="M53.8767 48.0096C54.9095 48.0096 55.7467 47.1724 55.7467 46.1396C55.7467 45.1068 54.9095 44.2695 53.8767 44.2695C52.8439 44.2695 52.0066 45.1068 52.0066 46.1396C52.0066 47.1724 52.8439 48.0096 53.8767 48.0096Z" fill="black"/>
</svg>
