<svg width="120" height="120" viewBox="0 0 120 120" fill="none" xmlns="http://www.w3.org/2000/svg">
<rect width="120" height="120" fill="white"/>
<path d="M120 60C120 78.53 111.6 95.1 98.39 106.1C96.79 105.02 94.85 104.39 92.77 104.39C92.11 104.39 91.47 104.46 90.84 104.58C88.65 99.37 83.49 95.71 77.49 95.71C72.5 95.71 68.1 98.23 65.5 102.07C64.21 98.9 63.16 95.1 62.65 91.31H57.35C56.83 95.1 55.78 98.9 54.5 102.07C51.89 98.23 47.49 95.71 42.51 95.71C36.5 95.71 31.35 99.37 29.15 104.58C28.53 104.46 27.89 104.39 27.23 104.39C25.15 104.39 23.21 105.02 21.6 106.11C8.4 95.1 0 78.53 0 60C0 26.87 26.86 0 60 0C93.13 0 120 26.87 120 60Z" fill="#B2F4F7"/>
<path d="M59.997 14.7266C54.814 14.7266 47.039 24.5646 47.039 37.1626V86.1146H59.997H72.955V37.1626C72.955 24.5646 65.18 14.7266 59.997 14.7266Z" fill="#00A3B5"/>
<path d="M59.997 37.9971C62.2868 37.9971 64.143 36.1409 64.143 33.8511C64.143 31.5613 62.2868 29.7051 59.997 29.7051C57.7072 29.7051 55.851 31.5613 55.851 33.8511C55.851 36.1409 57.7072 37.9971 59.997 37.9971Z" fill="white"/>
<path d="M98.39 106.101C87.99 114.781 74.61 120.001 60 120.001C45.39 120.001 32.01 114.781 21.6 106.111C23.21 105.021 25.15 104.391 27.23 104.391C27.89 104.391 28.53 104.461 29.15 104.581C31.35 99.3706 36.5 95.7105 42.51 95.7105C47.49 95.7105 51.89 98.2305 54.5 102.071C55.78 98.9005 56.83 95.1005 57.35 91.3105H62.65C63.16 95.1005 64.21 98.9005 65.5 102.071C68.1 98.2305 72.5 95.7105 77.49 95.7105C83.49 95.7105 88.65 99.3706 90.84 104.581C91.47 104.461 92.11 104.391 92.77 104.391C94.85 104.391 96.79 105.021 98.39 106.101Z" fill="#67E7F0"/>
<path d="M40.939 36.2441C38.499 36.2441 34.838 40.8761 34.838 46.8071V69.8531H40.939H47.039V46.8061C47.039 40.8751 43.379 36.2441 40.939 36.2441Z" fill="#0A414C"/>
<path d="M79.056 36.2441C76.616 36.2441 72.955 40.8761 72.955 46.8071V69.8531H79.056H85.156V46.8061C85.156 40.8751 81.496 36.2441 79.056 36.2441Z" fill="#0A414C"/>
<path d="M47.039 86.1131H26.403C26.403 80.5821 28.602 75.2791 32.516 71.3711L47.039 56.8691V86.1131Z" fill="#008094"/>
<path d="M72.955 86.1131H93.591C93.591 80.5821 91.392 75.2791 87.478 71.3711L72.955 56.8691V86.1131Z" fill="#008094"/>
<path d="M72.954 86.1133H47.039V91.3083H72.954V86.1133Z" fill="#091C21"/>
</svg>
