<svg width="120" height="120" viewBox="0 0 120 120" fill="none" xmlns="http://www.w3.org/2000/svg">
<path d="M60 120C93.1371 120 120 93.1371 120 60C120 26.8629 93.1371 0 60 0C26.8629 0 0 26.8629 0 60C0 93.1371 26.8629 120 60 120Z" fill="#E2CAFC"/>
<path d="M31.6368 62.3518L28.009 22.1682C27.8081 19.9408 31.0063 18.1537 32.9243 19.4221L64.1704 40.0767L31.6368 62.3518Z" fill="white"/>
<path d="M86.3804 62.3518L89.991 22.1682C90.191 19.9408 87.0079 18.1537 85.099 19.4221L54 40.0761L86.3804 62.3518Z" fill="white"/>
<path d="M100 64.0003C100 86.0914 82.0925 104 60.0007 104C37.9089 104 20.0001 86.0914 20.0001 64.0003C20.0001 41.9086 37.9094 24 60.0007 24C82.0919 24 100 41.9086 100 64.0003Z" fill="white"/>
<path d="M80.7291 40.4253C72.2216 40.4253 65.3257 47.3224 65.3257 55.8293C65.3257 64.3373 72.2216 71.2344 80.7291 71.2344C89.2366 71.2344 96.1326 64.3373 96.1326 55.8293C96.1326 47.3224 89.2366 40.4253 80.7291 40.4253Z" fill="#C7A5FA"/>
<g clip-path="url(#clip0)">
<path fill-rule="evenodd" clip-rule="evenodd" d="M61.7709 74.314L65.2849 70.996C66.8489 69.52 65.7429 67 63.5329 67H56.5049C54.2949 67 53.1859 69.52 54.7499 70.996L58.2639 74.314C59.2319 75.229 60.8029 75.229 61.7709 74.314Z" fill="black"/>
<path d="M60.02 72.3069H58.014V74.5589C58.014 77.0119 55.766 79.0069 53.002 79.0069C50.244 79.0069 48 77.0119 48 74.5589C48 74.0059 47.553 73.5589 47 73.5589C46.447 73.5589 46 74.0059 46 74.5589C46 78.1149 49.141 81.0069 53.002 81.0069C56.859 81.0069 59.997 78.1279 60.012 74.5839H60.02V72.3069Z" fill="black"/>
<path d="M73.034 73.5589C72.481 73.5589 72.034 74.0059 72.034 74.5589C72.034 77.0119 69.786 79.0069 67.022 79.0069C64.285 79.0069 62.061 77.0409 62.026 74.6139V72.3069H60.02V74.7499H60.03C60.141 78.2169 63.23 81.0069 67.021 81.0069C70.887 81.0069 74.033 78.1139 74.033 74.5589C74.034 74.0059 73.586 73.5589 73.034 73.5589Z" fill="black"/>
</g>
<path fill-rule="evenodd" clip-rule="evenodd" d="M46.9998 60.4994C46.9998 62.4325 45.4312 64 43.4977 64C41.5683 64 39.9998 62.4325 39.9998 60.4994C39.9998 58.5664 41.5683 57 43.4977 57C45.4312 56.9994 46.9998 58.5664 46.9998 60.4994Z" fill="black"/>
<path fill-rule="evenodd" clip-rule="evenodd" d="M79.9998 60.4994C79.9998 62.4325 78.4312 64 76.4977 64C74.5683 64 72.9998 62.4325 72.9998 60.4994C72.9998 58.5664 74.5683 57 76.4977 57C78.4312 56.9994 79.9998 58.5664 79.9998 60.4994Z" fill="black"/>
<path d="M37.2575 74.6797C37.2219 74.6797 37.1852 74.6775 37.1491 74.6729L15.0117 71.8405C14.5483 71.7812 14.2203 71.3573 14.279 70.8928C14.3383 70.4294 14.7639 70.1014 15.2267 70.1601L37.3641 72.9926C37.8276 73.0518 38.1555 73.4757 38.0968 73.9403C38.0415 74.3681 37.6769 74.6797 37.2575 74.6797Z" fill="#C7A5FA"/>
<path d="M22.0979 84.3714C21.7361 84.3714 21.402 84.1383 21.2891 83.7748C21.1508 83.3283 21.4008 82.8536 21.8473 82.7159L37.0058 78.0258C37.4534 77.8864 37.9264 78.1376 38.0647 78.5841C38.203 79.0306 37.953 79.5053 37.5065 79.643L22.348 84.3331C22.265 84.3596 22.1803 84.3714 22.0979 84.3714Z" fill="#C7A5FA"/>
<path d="M81.6874 74.6797C81.268 74.6797 80.9033 74.3676 80.8486 73.9403C80.7899 73.4763 81.1178 73.0524 81.5813 72.9926L103.719 70.1601C104.181 70.1014 104.607 70.4294 104.666 70.8928C104.725 71.3568 104.397 71.7807 103.934 71.8405L81.7963 74.6729C81.7596 74.678 81.7235 74.6797 81.6874 74.6797Z" fill="#C7A5FA"/>
<path d="M96.8476 84.3716C96.7652 84.3716 96.6806 84.3597 96.5976 84.3338L81.4391 79.6437C80.9926 79.506 80.7426 79.0313 80.8809 78.5848C81.0197 78.1389 81.4927 77.8877 81.9398 78.0265L97.0983 82.7166C97.5447 82.8543 97.7948 83.329 97.6565 83.7755C97.5436 84.1385 97.2089 84.3716 96.8476 84.3716Z" fill="#C7A5FA"/>
<defs>
<clipPath id="clip0">
<rect width="28.034" height="14.007" fill="white" transform="translate(46 67)"/>
</clipPath>
</defs>
</svg>
