
<svg width="294px" height="260px" viewBox="0 0 294 260" version="1.1" xmlns="http://www.w3.org/2000/svg" xmlns:xlink="http://www.w3.org/1999/xlink">
    <!-- Generator: Sketch 48.2 (47327) - http://www.bohemiancoding.com/sketch -->
    <desc>Created with Sketch.</desc>
    <defs></defs>
    <g id="Page-1" stroke="none" stroke-width="1" fill="none" fill-rule="evenodd">
        <g id="FTE-1.0" transform="translate(-733.000000, -303.000000)">
            <g id="App" transform="translate(208.000000, 128.000000)">
                <g id="content" transform="translate(320.000000, 0.000000)">
                    <g id="illustration" transform="translate(152.000000, 152.000000)">
                        <rect id="bounds" fill-opacity="0" fill="#D8D8D8" x="0" y="0" width="400" height="300"></rect>
                        <g id="arrows" transform="translate(88.831250, 23.000000)" fill="#232020">
                            <path d="M151.783261,7.21438864 C151.338422,6.5497814 152.307789,5.75838418 152.755452,6.42714251 C154.450039,8.95836892 155.16986,11.9417022 156.573856,14.6199755 C156.720449,14.8993938 156.556067,15.3420979 156.250683,15.4437118 C153.45121,16.3754066 150.76576,17.6016263 148.246734,19.1400335 C147.568578,19.554236 146.774662,18.5861125 147.459469,18.1678654 C149.650417,16.8299331 151.938553,15.7041149 154.332776,14.8030569 C149.775662,11.5891143 144.794658,9.0119196 139.607044,6.97735022 C128.659181,2.68377926 116.745347,0.751501207 105.001356,1.34703156 C91.2898309,2.04202949 77.9474196,6.2503611 66.2798099,13.4799882 C65.6036691,13.8989978 64.8102081,12.930774 65.4925448,12.5078201 C72.3373008,8.26659536 79.7186406,4.98912833 87.4908863,2.86823349 C99.8470078,-0.503340053 112.973876,-0.869773526 125.531736,1.59639982 C135.858111,3.62406537 146.001301,7.49048688 154.675106,13.5149789 C153.767161,11.3849924 153.077693,9.14811207 151.783261,7.21438864 Z" id="Fill-40"></path>
                            <path d="M184.830573,193.910142 C185.620923,193.787867 185.928518,195.000849 185.133212,195.12393 C182.122923,195.589969 179.11483,194.981521 176.094078,195.122056 C175.778879,195.136824 175.447115,194.800751 175.48408,194.481043 C175.822766,191.550168 175.846327,188.59816 175.516609,185.665042 C175.427806,184.87539 176.640769,184.565021 176.730427,185.362411 C177.017099,187.913471 177.070454,190.462968 176.875267,193.013622 C181.714078,190.241845 186.154929,186.8168 190.191299,182.975185 C198.709456,174.867832 205.495741,164.887107 209.91922,153.992009 C215.084063,141.271727 216.908674,127.401169 215.287195,113.771605 C215.193183,112.981747 216.406044,112.671834 216.501012,113.468974 C217.45224,121.464699 217.303217,129.539422 215.940753,137.479628 C213.774588,150.102697 208.559043,162.154255 201.016696,172.493018 C194.814848,180.994739 187.023899,188.553349 177.898015,193.868237 C180.212199,193.94555 182.530932,194.266041 184.830573,193.910142 Z" id="Fill-40"></path>
                            <path d="M1.22740542,120.94681 C0.849416885,121.651584 -0.304452138,121.167243 0.0758754189,120.458027 C1.51530875,117.773492 3.81156392,115.737353 5.51725936,113.240355 C5.69515551,112.979745 6.1632225,112.917046 6.39631332,113.138972 C8.53324377,115.173296 10.8766997,116.968675 13.4176767,118.470552 C14.1017794,118.874857 13.6196777,120.030333 12.9288812,119.622054 C10.7189408,118.31573 8.65066375,116.824014 6.73103803,115.133112 C6.03266207,120.665563 6.09551949,126.273342 6.73449511,131.808795 C8.08311613,143.490662 11.9701812,154.91685 18.0094859,165.006345 C25.0603185,176.78633 35.0400268,186.591005 46.901173,193.498541 C47.5885743,193.89881 47.1061703,195.053931 46.4123775,194.650043 C39.45409,190.597762 33.0948597,185.61926 27.5733273,179.752639 C18.7954854,170.425951 12.3092448,159.007924 8.59124051,146.762459 C5.53366662,136.693099 4.18565721,125.922235 5.43299098,115.435576 C3.97853354,117.237192 2.32712378,118.896094 1.22740542,120.94681 Z" id="Fill-40"></path>
                        </g>
                        <g id="lady" transform="translate(271.662500, 39.537102)">
                            <path d="M34.3024866,47.1797638 C36.0513518,48.180521 37.5041526,48.9254596 39.5793142,48.7225978 C41.2016223,48.5641446 42.7567947,48.0099753 43.7719622,46.6850144 C44.261511,46.0464063 43.1754548,45.4228094 42.6917439,46.0537034 C41.8656824,47.1316023 40.3082166,47.465605 39.0245061,47.5085542 C37.4084529,47.5625534 36.2877864,46.8743243 34.9338127,46.0995715 C34.2340999,45.6990601 33.6031907,46.7794609 34.3024866,47.1797638" id="Fill-2" fill="#232020"></path>
                            <g id="Group">
                                <path d="M74.0399447,37.9737567 C73.7814096,47.7186298 69.3523271,57.2723167 62.3239237,64.0226324 C61.4342709,60.6029617 59.0027895,57.7307886 55.9420668,55.9919729 C52.9641171,54.3000678 49.5570824,53.7344315 46.1756928,53.8580667 C47.6199452,53.1441932 48.9732934,52.2585231 50.2067563,51.2269093 C50.219266,51.2271177 50.2298993,51.2298281 50.2426176,51.2294112 C52.1076151,51.1758289 54.1631781,51.8094333 56.0029477,51.4278947 C57.4740961,51.1226637 57.023119,48.9470593 57.0681542,47.7991074 C57.2284877,43.7099718 57.4140492,39.6243805 57.4192616,35.5310751 C57.4194701,35.3732474 57.370682,35.2473188 57.29333,35.1512044 C57.2758163,34.6862693 57.2432909,34.2219596 57.1934604,33.7589009 C57.4713856,33.7368009 57.74389,33.68718 58.0063866,33.5996138 C58.4621591,33.4478322 58.6076894,32.9122187 58.282227,32.5542395 C57.9400849,32.17833 57.6769628,31.2776486 57.4661732,30.7024217 C57.0460536,29.5559292 56.6217641,28.4123556 56.1249179,27.2963029 C54.836829,24.4020297 53.0295849,21.7020702 50.5526513,19.6926331 C43.7938334,14.2093177 32.7381195,14.1984761 25.8656713,19.5418941 C21.4989291,22.9371713 18.6581698,27.7460181 17.9080009,33.2274572 C17.8456605,33.6836357 18.1262963,34.0238931 18.5701845,34.003878 C18.4930409,34.9420878 18.4955429,35.8682052 18.5658061,36.7799367 C18.5322382,40.5949065 18.27412,44.406749 17.7633046,48.1887772 C17.556268,49.7211867 17.5764921,50.8774782 19.3968715,50.9494076 C21.6156869,51.0371824 23.8443017,50.9888124 26.0616576,50.8862348 C26.1650717,50.881648 26.2549335,50.8557951 26.3318686,50.8159733 C27.8797436,52.0800548 29.5879521,53.1548263 31.3966557,53.9935859 C27.6339267,53.9016413 23.6973119,53.9352084 20.4816767,55.8737585 C17.1067504,57.9086315 15.0315888,61.4965545 14.8022431,65.3659405 C11.9402172,63.0414734 9.44535293,60.2660401 7.48048574,57.0859256 C5.33672891,53.6168425 4.04175967,49.6144392 3.06412148,45.6741663 C2.05917031,41.6223506 1.81543838,37.5968048 2.23117959,33.4517936 C2.91004287,26.6879259 4.92390664,19.1657761 9.7781127,14.1530251 C10.2614066,13.6538974 10.774307,13.1925067 11.3136864,12.7661424 C11.2895009,12.8001264 11.2644813,12.833485 11.2405043,12.8676775 C10.775975,13.5273433 11.8603632,14.1530251 12.3207226,13.4989885 C20.5734149,1.77699444 37.4426254,-1.02178984 50.4212987,3.26270189 C64.7689574,7.99941078 74.4358788,23.0649764 74.0399447,37.9737567 M34.5099193,55.312292 C34.6020746,55.3129175 34.6821371,55.2954042 34.7532343,55.266841 C35.647891,55.5193237 36.5613124,55.6992515 37.490788,55.7768101 C39.1310268,55.9137888 40.8077523,55.698209 42.4117128,55.2737212 C42.4425702,55.463448 42.563081,55.6465032 42.7344647,55.7542931 C42.5409804,55.9621587 42.3818979,56.8949478 42.3314418,57.0433935 C42.1246137,57.6521874 41.8087421,58.2048973 41.3258651,58.6358483 C40.4920893,59.379953 39.2965727,59.6662113 38.2042616,59.5475798 C36.0288134,59.311151 33.6876107,57.4772634 33.1795058,55.3037439 C33.6231854,55.3064543 34.0666566,55.3095816 34.5099193,55.312292 M24.0450834,46.8485965 C21.6309071,43.9536979 20.1097196,40.39684 19.8169911,36.6736063 C19.8213695,36.1060935 19.8226205,35.5385808 19.8169911,34.9708596 C19.8161571,34.8891311 19.7998944,34.8178271 19.7759174,34.7525694 C19.7859252,34.4788206 19.8019794,34.2046549 19.8259564,33.9300721 C19.8299179,33.8817022 19.8288754,33.8364596 19.82408,33.7937189 C26.7478183,32.5267186 34.1606884,30.2931537 38.0408007,24.0321665 C40.9165873,26.8759849 44.1968563,29.7815166 48.0675863,31.0476829 C49.8558573,31.6329174 51.5901278,32.3613852 53.3715185,32.9655924 C54.1462899,33.2282911 55.0415722,33.5468655 55.9368544,33.6930178 C56.8258817,41.7140867 52.5727699,49.5185333 45.2201552,52.939038 C43.388934,53.7909326 41.3669389,54.3876341 39.3470287,54.5310759 C37.1655341,54.6859848 35.0732758,54.1695524 33.0604545,53.3612325 C29.590871,51.9678866 26.4415375,49.7220206 24.0450834,46.8485965 M18.9815473,48.438341 C19.0955946,47.5816512 19.2033871,46.7241274 19.2961679,45.8647271 C19.4460766,44.4717982 19.5624174,43.0759504 19.6474838,41.6782262 C20.7689843,44.7011384 22.6587929,47.4282017 25.0333549,49.6753186 C23.4919433,49.7303603 21.9494892,49.7499584 20.4066181,49.7226461 C20.0817812,49.7168084 19.4654667,49.8298105 19.1948388,49.6926234 C18.6460771,49.4142878 18.9206664,48.8972299 18.9815473,48.438341 M53.2995873,31.6195739 C51.659557,31.0426791 50.0537201,30.380303 48.3999291,29.841562 C44.483747,28.5655966 41.2028524,25.4332266 38.3522938,22.5768987 C38.2063466,22.430538 38.0397582,22.3811256 37.8819267,22.3963455 C37.6878168,22.3907162 37.4939154,22.4789079 37.3698603,22.7034528 C33.7449472,29.2736323 26.176956,31.3910677 19.263434,32.6297132 C20.0719818,28.205741 22.249515,24.4162071 25.6231903,21.3720288 C29.1011137,18.233821 33.9820072,16.7964835 38.612497,16.8483978 C42.6504408,16.8936403 46.7357133,18.1201934 49.8627377,20.7375904 C52.1703725,22.6692603 53.8300014,25.1961722 55.0449081,27.9276139 C55.5519706,29.0680601 55.9633334,30.2447838 56.3988817,31.4131678 C56.5335702,31.7748998 56.6634633,32.1603998 56.8283837,32.5260932 C55.6445429,32.5442319 54.3087084,31.9744258 53.2995873,31.6195739 M55.4445951,50.2244841 C54.8462113,50.4780093 53.6825946,50.181952 53.0414691,50.1185707 C52.5423295,50.0693668 52.0467343,50.0264176 51.5500966,49.9999392 C52.2343808,49.3140036 52.8711278,48.578447 53.451164,47.7970225 C54.5232509,46.3530132 55.3747489,44.7628518 56.0052411,43.0899193 C55.9672948,44.1298728 55.9255956,45.1698263 55.8822284,46.2097799 C55.8515795,46.9453364 55.8207221,47.6808929 55.7934091,48.416658 C55.7786059,48.8186288 55.7646366,49.2203911 55.7521269,49.6221534 C55.7492079,49.7205612 55.7464975,49.818969 55.74337,49.9175853 C55.8330233,50.2050945 55.7333622,50.3074636 55.4445951,50.2244841 M16.034038,66.3210381 C15.9660683,62.2938244 18.0685429,58.5395255 21.6751083,56.6366274 C23.5478202,55.6485881 25.6192289,55.3844299 27.7102362,55.3308477 C29.1132064,55.2949872 30.5178446,55.2922769 31.9222743,55.2979061 C31.9193554,55.3512798 31.9206063,55.40653 31.9316566,55.465116 C32.5690292,58.8718603 36.7529203,61.5194885 40.0953212,60.6461194 C41.7119999,60.2237164 42.9135629,59.0939033 43.4810893,57.5329305 C43.6157777,57.1620249 43.924352,56.0545203 43.8603437,55.2968637 C47.7331586,54.7712577 51.8617982,55.112766 55.3107406,57.0721652 C58.3039105,58.7726185 60.5861088,61.5968387 61.2647636,65.0010811 C57.6688314,68.194956 53.4588783,70.6745404 48.8217167,72.1223025 C37.8120805,75.5596949 25.2543607,73.1570437 16.034038,66.3210381 M55.8870238,4.24740527 C43.2373573,-2.50103407 25.1709623,-1.21068276 14.6137626,8.91406116 C14.1909325,9.31936782 13.7849906,9.74051981 13.3923925,10.1733473 C13.2481132,10.1256028 13.0821503,10.1310236 12.9111835,10.2223427 C6.53995986,13.6251256 3.39020938,20.9998722 1.89487539,27.7164124 C1.08361709,31.360211 0.612415918,35.1916517 0.766077539,38.9288543 C0.949554102,43.4007795 2.19385879,47.79598 3.69607314,51.9864423 C5.87527432,58.0652083 9.8523373,63.1392557 14.8433168,66.9579784 C14.9325531,67.1908629 15.1435512,67.3224208 15.3668505,67.3505671 C23.2461264,73.1599626 33.5197714,75.9030798 43.2402763,74.6198171 C59.1675014,72.5171846 71.8401024,59.2404725 74.693163,43.6351235 C77.5018139,28.2718326 69.7470102,11.641333 55.8870238,4.24740527" id="Fill-4" fill="#232020"></path>
                                <path d="M26.2253062,55.5190526 C22.6095669,58.4204145 19.2450655,61.6092856 16.1543194,65.0643998 C15.6163995,65.6661051 14.7346695,64.7783501 15.269879,64.1799806 C18.3604166,60.7248664 21.7251265,57.5357869 25.3406573,54.634425 C25.9630181,54.1350888 26.8532964,55.0151297 26.2253062,55.5190526 Z M29.9336386,54.851902 C30.5522465,54.3461026 31.4416908,55.2265605 30.818079,55.7365297 C26.0514413,59.6342704 21.4978866,63.7817835 17.1732606,68.1648915 C16.6065683,68.739076 15.7227533,67.8540313 16.2886117,67.2802639 C20.6132377,62.8971559 25.1667924,58.7496428 29.9336386,54.851902 Z M32.4791674,56.3667982 C33.0669179,55.8170072 33.9528178,56.7001754 33.3638163,57.2514259 C28.9117992,61.4168692 24.4597821,65.5823125 20.007765,69.7477558 C19.4200146,70.2975468 18.5339062,69.4143786 19.1231161,68.8631282 C23.5751332,64.6976849 28.0271503,60.5322415 32.4791674,56.3667982 Z M34.7296742,58.8206548 C35.3253476,58.2810799 36.2120814,59.1636227 35.6141146,59.7052825 C31.3845629,63.5356807 27.2075521,67.4232054 23.0837079,71.3670227 C22.5015868,71.9236939 21.6161039,71.0399002 22.199059,70.482395 C26.3231117,66.5385777 30.5001225,62.651053 34.7296742,58.8206548 Z M38.304027,59.7934117 C38.8880246,59.2388254 39.773716,60.1224106 39.1886759,60.6780393 C34.9101276,64.7406966 30.6313708,68.8033538 26.3528224,72.866011 C25.7688249,73.4205973 24.8831334,72.5370121 25.4681735,71.9815918 C29.7467218,67.9187261 34.0254787,63.8560689 38.304027,59.7934117 Z M48.5276747,56.1524068 C42.6791507,61.9130154 36.9717787,67.814981 31.4101454,73.8530912 C30.8632601,74.4468738 29.9809046,73.5599527 30.5254964,72.968672 C36.0871297,66.9303533 41.7945018,61.0285962 47.6432342,55.2677792 C48.217641,54.7021429 49.1022899,55.586562 48.5276747,56.1524068 Z M52.7998013,55.3185884 C53.352733,54.7308521 54.2359224,55.6171477 53.6842417,56.2032161 C48.0521368,62.1883696 42.4204488,68.1737316 36.7883438,74.1588851 C36.3065093,74.6709392 35.3949644,73.9845865 35.8059102,73.40102 C35.9541509,73.1902355 36.1026001,72.979451 36.2510494,72.768875 C36.3515445,72.6258501 36.4822715,72.5470405 36.6196705,72.5134734 C42.0132559,66.7818451 47.4064244,61.0502168 52.7998013,55.3185884 Z M57.7605489,57.8797971 C52.2158038,63.1039582 46.8157549,68.4790668 41.5658233,73.9992851 C41.0095557,74.5841026 40.1265748,73.6980155 40.6811744,73.1146575 C45.9313145,67.5944391 51.3313633,62.219539 56.8761084,56.9951695 C57.461774,56.4430851 58.3476739,57.3266703 57.7605489,57.8797971 Z M59.7713895,60.3094063 C57.7368846,62.3532443 55.712596,64.40709 53.7004002,66.4728196 C52.6944065,67.5056844 51.6909148,68.5414681 50.6905506,69.5797537 C50.1665999,70.123707 49.6432747,70.6682857 49.120992,71.2139068 C48.9310521,71.4121818 48.7411121,71.6106654 48.5513807,71.8091489 C48.4089778,71.9580115 48.266575,72.1070826 48.1245892,72.2561537 C48.0943572,72.3066086 48.0670442,72.3412181 48.0411907,72.366237 C48.0374378,72.4037654 48.0305574,72.4404599 48.0174222,72.4742354 C47.9075447,72.7550729 47.7755667,72.9377111 47.4703284,73.0121424 C47.2122103,73.0748982 46.8909178,72.975031 46.7637352,72.7246332 C46.2575066,71.7267949 47.785783,70.7994266 48.3787459,70.180625 C49.519011,68.9907664 50.6628206,67.8046607 51.8105916,66.6220992 C54.1538792,64.2077725 56.513221,61.8092911 58.8867405,59.4247786 C59.4557264,58.8533045 60.3399583,59.7381407 59.7713895,60.3094063 Z M59.9625804,62.3805775 C60.5048787,61.7826251 61.3868172,62.6699631 60.8470208,63.2652052 C59.2576551,65.0179897 57.6457718,66.7499251 56.006784,68.4566331 C55.1638343,69.3341721 54.3144212,70.2054563 53.4585447,71.0702773 C52.9852586,71.5483474 52.4873699,72.328938 51.7465833,72.3301889 C51.4478084,72.3306059 51.2489031,72.1304545 51.1434041,71.8710916 C51.1319368,71.8425283 51.120261,71.813965 51.1085853,71.7856102 C50.9055101,71.2866911 51.3783792,70.9795837 51.8041282,71.0488027 C52.0126243,70.8936854 52.6041277,70.1554185 52.7165071,70.0415823 C53.0965955,69.6569163 53.4756414,69.2709993 53.8530193,68.8838313 C54.5137435,68.2060268 55.1705062,67.5244695 55.8230989,66.8391593 C57.2216907,65.3703396 58.6002669,63.8829643 59.9625804,62.3805775 Z" id="Combined-Shape" fill="#FF5039"></path>
                            </g>
                        </g>
                        <g id="guy" transform="translate(53.000000, 39.537102)">
                            <path d="M32.688211,46.9863763 C35.5650401,48.2590059 38.7277174,48.4514432 41.7200533,47.451103 C42.4798131,47.1971608 42.1539337,45.9887465 41.3877105,46.244982 C38.7329298,47.1321116 35.8880006,47.0422519 33.3195372,45.906184 C32.5900094,45.5834398 31.9528453,46.6609218 32.688211,46.9863763" id="Fill-6" fill="#232020"></path>
                            <path d="M68.3642487,56.1287311 C66.2188239,59.3957864 63.3788986,62.2277207 60.2777277,64.5905502 C60.1246916,64.7068882 59.9701959,64.8213498 59.8159088,64.9358114 C59.8148664,64.9328925 59.8148664,64.9303906 59.8138239,64.9274718 C58.5903688,61.3268308 56.9849489,57.5193666 53.2405675,55.991961 C50.0011637,54.670753 46.2574079,54.4872808 42.7721872,54.9862 C46.3481037,53.5236351 49.8687687,50.8791342 51.7954811,47.6398082 C53.1529992,45.3576648 53.4321754,42.7456886 53.6475519,40.151851 C53.8983727,37.1310237 54.0664206,34.1043587 54.1664987,31.0749833 C56.0273263,30.7574514 57.8030875,30.1117545 59.3328234,28.8868694 C59.5248483,28.7327945 59.5842697,28.3291557 59.4303996,28.1287958 C55.748567,23.3303735 51.8868024,18.2973988 46.4250387,15.4191794 C41.5666627,12.858909 35.8021627,12.2323933 30.4648712,13.4376802 C27.383716,14.1334149 24.4647707,15.4633796 21.9375895,17.3585635 C21.8518976,17.4227787 21.7905998,17.4986695 21.7476496,17.579981 C17.9799167,20.7734389 16.095529,25.9694537 18.4152565,30.6085887 C18.5664162,30.9111093 18.9938332,30.9942972 19.2709245,30.8329251 C19.8050915,30.5220649 20.3482238,30.1991122 20.8769699,29.8526001 C20.952237,34.4283538 20.3526022,39.0793729 21.5770998,43.5473368 C22.6942218,47.6237544 25.2003449,51.3580382 28.7633346,53.6797949 C29.544778,54.1887216 30.371882,54.6248849 31.2306774,54.9836981 C27.3858009,55.1700891 23.4648234,54.7103663 20.014213,56.7662969 C17.1669904,58.4625803 15.026778,61.2830477 14.2607633,64.5015245 C9.14260122,60.3004292 5.26290591,54.5813103 3.27281069,48.2665324 C1.21578823,41.7403446 1.3721603,34.6020269 2.98029067,27.9916087 C4.54984927,21.5411031 7.72983169,15.3437057 12.8748898,11.0283573 C13.5474982,10.4643889 14.252215,9.94378665 14.9819513,9.46050432 C15.0795275,9.43173255 15.1712658,9.37648242 15.2486178,9.28662276 C15.8184376,8.91967846 16.4020182,8.57441722 16.9993595,8.25125605 C17.5039201,7.97813273 17.3277409,7.35391043 16.9293048,7.15459296 C18.6462702,5.47665673 20.9080358,4.3902097 23.1966974,3.6373484 C26.5611989,2.53067774 30.1214782,2.01674722 33.6308844,1.6314557 C41.5061989,0.766843187 49.8203976,1.23428019 56.4255539,6.04271002 C62.264487,10.2932177 67.3032121,15.8000927 70.3466295,22.3834071 C73.5866588,29.3924602 74.7258815,37.7291847 72.9223903,45.2832335 C72.0189767,49.0673467 70.5040441,52.8704325 68.3642487,56.1287311 M37.6210827,58.9671287 C36.0486051,58.9729665 33.6302589,57.4684948 33.3767277,55.7599104 C33.3859015,55.7426056 33.3923649,55.7242584 33.4000792,55.7063282 C35.6676828,56.2800956 38.0593415,56.3353458 40.3450841,55.7868057 C40.5233483,57.3771757 39.2775841,58.9610825 37.6210827,58.9671287 M22.1039694,28.9704743 C23.2346437,28.0645805 24.1872624,26.9777165 24.6701393,25.5558074 C25.0272931,24.5035529 25.0821276,23.4052218 24.9201261,22.3302418 C29.2239025,25.7269785 34.1831906,28.2699443 39.4702345,29.7729565 C42.8414079,30.7311815 46.3435167,31.2672121 49.8483361,31.338933 C50.8668395,31.3595736 51.8955592,31.3391415 52.9101012,31.2409422 C52.8325407,33.5337186 52.7168253,35.8250356 52.5537814,38.1134337 C52.387193,40.4489508 52.3254782,42.8928833 51.5798961,45.131869 C50.252193,49.118427 46.2405197,52.052105 42.5503473,53.71086 C38.5737013,55.4986711 34.0510041,55.2447289 30.2528307,53.1183284 C26.7108991,51.1353697 24.1712082,47.6825489 22.9665177,43.8394328 C21.457423,39.0251652 22.2882799,33.9265158 22.1039694,28.9704743 M48.8300412,30.053794 C45.5481042,29.901387 42.2951481,29.3253261 39.151027,28.3754407 C33.6930163,26.7269018 28.6253102,23.9354147 24.3209083,20.2159338 C24.0014923,19.4534819 23.5861681,18.7310603 23.1080866,18.0791087 C23.1028742,18.0718115 23.0964108,18.0668077 23.0907814,18.0599275 C28.4849923,14.2685172 35.5086002,13.12682 41.8558468,14.9315188 C48.9511774,16.94867 53.6880001,22.701356 58.0147111,28.323735 C55.3882858,30.1453215 51.9164088,30.1972358 48.8300412,30.053794 M20.8279733,28.3887842 C20.3127794,28.755937 19.7708981,29.0882718 19.2373566,29.4030933 C17.7828878,25.8591619 19.0941198,22.1065309 21.617965,19.428463 C22.1565104,19.9551114 22.7065231,20.4692504 23.272173,20.9652507 C23.7929962,22.326906 23.9537467,23.8084436 23.4637809,25.2232641 C23.0991212,26.2753101 22.4021188,27.1088574 21.5685514,27.8143912 C21.2141081,27.7405854 20.8102511,27.9303123 20.8279733,28.3887842 M49.6600641,70.3617918 C45.6066916,71.7634774 41.6039835,72.0370177 37.3508717,71.9202627 C33.0890031,71.8032992 28.8056593,71.4597059 24.710796,70.1993773 C21.3392057,69.1615087 18.1692311,67.481696 15.3528659,65.3605077 C15.9677208,62.1320233 18.0207819,59.3188532 20.897611,57.7003369 C24.3304992,55.769084 28.3903351,56.4673206 32.1868405,56.1710548 C32.719548,58.4967728 35.7025016,60.38737 37.949047,60.2030638 C39.9531115,60.0385644 41.394445,58.3429064 41.579798,56.4566876 C45.0965016,55.7428141 48.94805,55.7797171 52.3532082,56.9868804 C55.9714494,58.269726 57.4571925,61.8741199 58.607674,65.260015 C58.6635509,65.4245145 58.7655055,65.5354318 58.8864333,65.6044423 C56.0415041,67.5921963 52.9399162,69.2278088 49.6600641,70.3617918 M73.4215299,27.0117006 C72.2893961,23.1915185 70.5492877,19.5360443 68.3037848,16.2450126 C66.1356339,13.0676085 63.4700114,10.4149765 60.6079855,7.86679849 C58.0868507,5.6221835 55.4130968,3.56145765 52.28086,2.24441949 C48.3186002,0.578158758 43.9351784,-0.00790967314 39.6608,0.00876961341 C35.3880895,0.0254489 31.0438649,0.540213381 26.8574718,1.39419285 C23.5405075,2.07074641 20.1122062,3.09360366 17.3602663,5.13681626 C16.1518229,6.03395339 15.1287326,7.11456267 14.3420768,8.39532338 C3.28010806,15.7890426 -1.07725181,31.1592137 0.94745376,43.86883 C2.08313198,50.9956807 5.59316372,57.7059662 10.624383,62.8573638 C11.7350417,63.9944742 12.9088747,65.0350532 14.1379591,65.9820197 C14.2359523,66.1508974 14.4027492,66.2697373 14.5808048,66.3183158 C19.4168717,69.9164549 25.089425,72.0737121 31.2171251,72.776744 C35.5738595,73.2764971 40.2464655,73.572763 44.5959025,72.9153906 C48.8492228,72.2724041 52.9601403,70.6553473 56.6701198,68.5018429 C60.1836959,66.4625916 63.4376945,63.892939 66.1892174,60.9021344 C68.9480377,57.9036157 70.9464728,54.5168866 72.4684943,50.7484103 C75.5187921,43.1956123 75.7320836,34.8094755 73.4215299,27.0117006" id="Fill-8" fill="#232020"></path>
                            <path d="M26.0953352,56.4359844 C22.4841829,59.4192833 19.0302366,62.582927 15.7422532,65.9187843 C15.2460325,66.4220818 14.3780632,65.7645009 14.7598196,65.1607107 C14.844052,65.0274849 14.9280759,64.8944676 15.0125168,64.7614503 C15.1167649,64.5965339 15.2595847,64.5098016 15.4097019,64.4812383 C18.5323479,61.3488683 21.8003157,58.3689053 25.2106863,55.5513568 C25.8270007,55.0422215 26.7164451,55.9228879 26.0953352,56.4359844 Z M29.0472646,56.8892857 C25.4236025,60.3863067 21.8835473,63.9677665 18.4225122,67.6257425 C18.3918632,67.6903747 18.3495385,67.7539645 18.2876152,67.8133845 C18.1174824,67.9768415 17.9473496,68.14009 17.7770083,68.303547 C17.1944702,68.8627201 16.3406787,68.0054048 16.8923593,67.4191278 C20.5568867,63.523889 24.3146118,59.7185097 28.1628242,56.0046581 C28.7424433,55.4452765 29.6277177,56.3290702 29.0472646,56.8892857 Z M26.7554338,63.1889272 C25.7408918,64.2149118 24.7263499,65.2411049 23.7115994,66.2670895 C23.1803513,66.8045795 22.6488948,67.3420695 22.1174382,67.879351 C21.9241624,68.0749157 21.730678,68.2702718 21.5376106,68.4658365 C21.5859817,68.4168411 20.8201755,69.2159874 20.8420676,68.9951953 C20.7636731,69.7901718 19.512071,69.7955926 19.5910911,68.9951953 C19.6419641,68.4810563 20.0114192,68.230033 20.3631521,67.8743473 C20.9429797,67.2880703 21.5225989,66.7017934 22.1024265,66.1155165 C23.1653396,65.0405365 24.2282527,63.9655565 25.2911658,62.8907849 C27.5135256,60.6432511 29.7358855,58.3957172 31.9580369,56.1479748 C32.5253547,55.5746244 33.4093782,56.459669 32.8426858,57.0326025 C30.8136018,59.0847802 28.7843093,61.1367495 26.7554338,63.1889272 Z M33.8369828,58.236576 C34.4007563,57.6594726 35.2845712,58.5449343 34.7216317,59.1212036 C30.9945556,62.935548 27.2674794,66.7501008 23.5404032,70.5646536 C22.9766298,71.141757 22.0930233,70.2562953 22.6559628,69.680026 C26.383039,65.8654731 30.1099066,62.0511288 33.8369828,58.236576 Z M38.0362192,60.3498207 C36.0853213,62.3279841 34.1709102,64.3422164 32.3009087,66.397313 C31.3660122,67.4249656 30.441332,68.4620002 29.5277021,69.508417 C29.0492036,70.05654 28.5734155,70.607165 28.1007549,71.1605003 C27.8232466,71.4853294 27.6070361,71.8545671 27.1735728,71.9588127 C26.9590303,72.0103099 26.7209277,71.9625655 26.5649727,71.7978575 C26.5326558,71.7638735 26.5005474,71.7298894 26.4682305,71.6959054 C26.2730781,71.4901247 26.2328384,71.1873956 26.3704458,70.9378318 C26.3929634,70.8969676 26.4158979,70.8558948 26.4384155,70.8148221 C26.545791,70.6205084 26.7611675,70.5089657 26.9784204,70.5050043 C27.0117798,70.5043789 27.0449307,70.5037534 27.0780815,70.5031279 C27.2465464,70.29005 27.4419072,70.0123399 27.4744326,69.9743945 C27.6466504,69.7736176 27.8192852,69.5730492 27.9923369,69.3728978 C28.4249663,68.8723107 28.8598892,68.374017 29.2975225,67.8778082 C30.1287964,66.93522 30.9690356,66.0001375 31.8178232,65.0731862 C33.5598081,63.1700796 35.3399478,61.302208 37.1517788,59.4651931 C37.7182627,58.8910086 38.6022861,59.7760533 38.0362192,60.3498207 Z M44.6467964,55.7018665 C45.1966006,55.1107943 46.0791646,55.9975068 45.5314453,56.5864941 C40.7589697,61.7180851 35.9860771,66.8496761 31.2133931,71.9812671 C30.6637974,72.5723394 29.7810249,71.6856268 30.3289526,71.0966395 C35.1016367,65.9650485 39.8741123,60.8334575 44.6467964,55.7018665 Z M49.354659,56.0270709 C49.8854901,55.4193194 50.7668031,56.3076999 50.239308,56.9116985 C45.5631576,62.265124 40.4499994,67.2167872 35.773849,72.5702128 C35.2430179,73.1779643 34.3619134,72.2897922 34.8894085,71.6857936 C39.5655589,66.3321596 44.6785086,61.3804964 49.354659,56.0270709 Z M53.1124675,56.4441573 C53.6147346,55.8147227 54.4943796,56.7056051 53.9971165,57.3287849 C49.6518494,62.7751975 45.0499236,68.0327171 40.2076018,73.0429663 C39.6469558,73.623197 38.7635579,72.7375268 39.3231614,72.1583386 C44.1654832,67.1480894 48.7674089,61.8907783 53.1124675,56.4441573 Z M55.7946238,59.0323864 C56.3552698,58.4521557 57.2388763,59.3378259 56.6790643,59.9170141 C52.5994212,64.139167 48.5193611,68.3613199 44.4397181,72.5834728 C43.8790721,73.1637035 42.9954656,72.2780333 43.5552776,71.6990536 C47.6349207,67.4766922 51.7147723,63.2545393 55.7946238,59.0323864 Z M57.3436873,62.4610223 C57.9520789,61.9395861 58.8404807,62.8208779 58.2281277,63.3456499 C55.2960471,65.8583844 52.6712898,68.6994924 49.967304,71.4492813 C49.4016541,72.0245082 48.5178391,71.1392551 49.0828635,70.5648621 C51.7868494,67.8148648 54.4116067,64.9737568 57.3436873,62.4610223 Z" id="Combined-Shape" fill="#00D64A"></path>
                        </g>
                        <g id="guy" transform="translate(162.331250, 209.501767)">
                            <path d="M32.688211,46.9863763 C35.5650401,48.2590059 38.7277174,48.4514432 41.7200533,47.451103 C42.4798131,47.1971608 42.1539337,45.9887465 41.3877105,46.244982 C38.7329298,47.1321116 35.8880006,47.0422519 33.3195372,45.906184 C32.5900094,45.5834398 31.9528453,46.6609218 32.688211,46.9863763" id="Fill-6" fill="#232020"></path>
                            <path d="M68.3642487,56.1287311 C66.2188239,59.3957864 63.3788986,62.2277207 60.2777277,64.5905502 C60.1246916,64.7068882 59.9701959,64.8213498 59.8159088,64.9358114 C59.8148664,64.9328925 59.8148664,64.9303906 59.8138239,64.9274718 C58.5903688,61.3268308 56.9849489,57.5193666 53.2405675,55.991961 C50.0011637,54.670753 46.2574079,54.4872808 42.7721872,54.9862 C46.3481037,53.5236351 49.8687687,50.8791342 51.7954811,47.6398082 C53.1529992,45.3576648 53.4321754,42.7456886 53.6475519,40.151851 C53.8983727,37.1310237 54.0664206,34.1043587 54.1664987,31.0749833 C56.0273263,30.7574514 57.8030875,30.1117545 59.3328234,28.8868694 C59.5248483,28.7327945 59.5842697,28.3291557 59.4303996,28.1287958 C55.748567,23.3303735 51.8868024,18.2973988 46.4250387,15.4191794 C41.5666627,12.858909 35.8021627,12.2323933 30.4648712,13.4376802 C27.383716,14.1334149 24.4647707,15.4633796 21.9375895,17.3585635 C21.8518976,17.4227787 21.7905998,17.4986695 21.7476496,17.579981 C17.9799167,20.7734389 16.095529,25.9694537 18.4152565,30.6085887 C18.5664162,30.9111093 18.9938332,30.9942972 19.2709245,30.8329251 C19.8050915,30.5220649 20.3482238,30.1991122 20.8769699,29.8526001 C20.952237,34.4283538 20.3526022,39.0793729 21.5770998,43.5473368 C22.6942218,47.6237544 25.2003449,51.3580382 28.7633346,53.6797949 C29.544778,54.1887216 30.371882,54.6248849 31.2306774,54.9836981 C27.3858009,55.1700891 23.4648234,54.7103663 20.014213,56.7662969 C17.1669904,58.4625803 15.026778,61.2830477 14.2607633,64.5015245 C9.14260122,60.3004292 5.26290591,54.5813103 3.27281069,48.2665324 C1.21578823,41.7403446 1.3721603,34.6020269 2.98029067,27.9916087 C4.54984927,21.5411031 7.72983169,15.3437057 12.8748898,11.0283573 C13.5474982,10.4643889 14.252215,9.94378665 14.9819513,9.46050432 C15.0795275,9.43173255 15.1712658,9.37648242 15.2486178,9.28662276 C15.8184376,8.91967846 16.4020182,8.57441722 16.9993595,8.25125605 C17.5039201,7.97813273 17.3277409,7.35391043 16.9293048,7.15459296 C18.6462702,5.47665673 20.9080358,4.3902097 23.1966974,3.6373484 C26.5611989,2.53067774 30.1214782,2.01674722 33.6308844,1.6314557 C41.5061989,0.766843187 49.8203976,1.23428019 56.4255539,6.04271002 C62.264487,10.2932177 67.3032121,15.8000927 70.3466295,22.3834071 C73.5866588,29.3924602 74.7258815,37.7291847 72.9223903,45.2832335 C72.0189767,49.0673467 70.5040441,52.8704325 68.3642487,56.1287311 M37.6210827,58.9671287 C36.0486051,58.9729665 33.6302589,57.4684948 33.3767277,55.7599104 C33.3859015,55.7426056 33.3923649,55.7242584 33.4000792,55.7063282 C35.6676828,56.2800956 38.0593415,56.3353458 40.3450841,55.7868057 C40.5233483,57.3771757 39.2775841,58.9610825 37.6210827,58.9671287 M22.1039694,28.9704743 C23.2346437,28.0645805 24.1872624,26.9777165 24.6701393,25.5558074 C25.0272931,24.5035529 25.0821276,23.4052218 24.9201261,22.3302418 C29.2239025,25.7269785 34.1831906,28.2699443 39.4702345,29.7729565 C42.8414079,30.7311815 46.3435167,31.2672121 49.8483361,31.338933 C50.8668395,31.3595736 51.8955592,31.3391415 52.9101012,31.2409422 C52.8325407,33.5337186 52.7168253,35.8250356 52.5537814,38.1134337 C52.387193,40.4489508 52.3254782,42.8928833 51.5798961,45.131869 C50.252193,49.118427 46.2405197,52.052105 42.5503473,53.71086 C38.5737013,55.4986711 34.0510041,55.2447289 30.2528307,53.1183284 C26.7108991,51.1353697 24.1712082,47.6825489 22.9665177,43.8394328 C21.457423,39.0251652 22.2882799,33.9265158 22.1039694,28.9704743 M48.8300412,30.053794 C45.5481042,29.901387 42.2951481,29.3253261 39.151027,28.3754407 C33.6930163,26.7269018 28.6253102,23.9354147 24.3209083,20.2159338 C24.0014923,19.4534819 23.5861681,18.7310603 23.1080866,18.0791087 C23.1028742,18.0718115 23.0964108,18.0668077 23.0907814,18.0599275 C28.4849923,14.2685172 35.5086002,13.12682 41.8558468,14.9315188 C48.9511774,16.94867 53.6880001,22.701356 58.0147111,28.323735 C55.3882858,30.1453215 51.9164088,30.1972358 48.8300412,30.053794 M20.8279733,28.3887842 C20.3127794,28.755937 19.7708981,29.0882718 19.2373566,29.4030933 C17.7828878,25.8591619 19.0941198,22.1065309 21.617965,19.428463 C22.1565104,19.9551114 22.7065231,20.4692504 23.272173,20.9652507 C23.7929962,22.326906 23.9537467,23.8084436 23.4637809,25.2232641 C23.0991212,26.2753101 22.4021188,27.1088574 21.5685514,27.8143912 C21.2141081,27.7405854 20.8102511,27.9303123 20.8279733,28.3887842 M49.6600641,70.3617918 C45.6066916,71.7634774 41.6039835,72.0370177 37.3508717,71.9202627 C33.0890031,71.8032992 28.8056593,71.4597059 24.710796,70.1993773 C21.3392057,69.1615087 18.1692311,67.481696 15.3528659,65.3605077 C15.9677208,62.1320233 18.0207819,59.3188532 20.897611,57.7003369 C24.3304992,55.769084 28.3903351,56.4673206 32.1868405,56.1710548 C32.719548,58.4967728 35.7025016,60.38737 37.949047,60.2030638 C39.9531115,60.0385644 41.394445,58.3429064 41.579798,56.4566876 C45.0965016,55.7428141 48.94805,55.7797171 52.3532082,56.9868804 C55.9714494,58.269726 57.4571925,61.8741199 58.607674,65.260015 C58.6635509,65.4245145 58.7655055,65.5354318 58.8864333,65.6044423 C56.0415041,67.5921963 52.9399162,69.2278088 49.6600641,70.3617918 M73.4215299,27.0117006 C72.2893961,23.1915185 70.5492877,19.5360443 68.3037848,16.2450126 C66.1356339,13.0676085 63.4700114,10.4149765 60.6079855,7.86679849 C58.0868507,5.6221835 55.4130968,3.56145765 52.28086,2.24441949 C48.3186002,0.578158758 43.9351784,-0.00790967314 39.6608,0.00876961341 C35.3880895,0.0254489 31.0438649,0.540213381 26.8574718,1.39419285 C23.5405075,2.07074641 20.1122062,3.09360366 17.3602663,5.13681626 C16.1518229,6.03395339 15.1287326,7.11456267 14.3420768,8.39532338 C3.28010806,15.7890426 -1.07725181,31.1592137 0.94745376,43.86883 C2.08313198,50.9956807 5.59316372,57.7059662 10.624383,62.8573638 C11.7350417,63.9944742 12.9088747,65.0350532 14.1379591,65.9820197 C14.2359523,66.1508974 14.4027492,66.2697373 14.5808048,66.3183158 C19.4168717,69.9164549 25.089425,72.0737121 31.2171251,72.776744 C35.5738595,73.2764971 40.2464655,73.572763 44.5959025,72.9153906 C48.8492228,72.2724041 52.9601403,70.6553473 56.6701198,68.5018429 C60.1836959,66.4625916 63.4376945,63.892939 66.1892174,60.9021344 C68.9480377,57.9036157 70.9464728,54.5168866 72.4684943,50.7484103 C75.5187921,43.1956123 75.7320836,34.8094755 73.4215299,27.0117006" id="Fill-8" fill="#232020"></path>
                            <path d="M26.0953352,56.4359844 C22.4841829,59.4192833 19.0302366,62.582927 15.7422532,65.9187843 C15.2460325,66.4220818 14.3780632,65.7645009 14.7598196,65.1607107 C14.844052,65.0274849 14.9280759,64.8944676 15.0125168,64.7614503 C15.1167649,64.5965339 15.2595847,64.5098016 15.4097019,64.4812383 C18.5323479,61.3488683 21.8003157,58.3689053 25.2106863,55.5513568 C25.8270007,55.0422215 26.7164451,55.9228879 26.0953352,56.4359844 Z M29.0472646,56.8892857 C25.4236025,60.3863067 21.8835473,63.9677665 18.4225122,67.6257425 C18.3918632,67.6903747 18.3495385,67.7539645 18.2876152,67.8133845 C18.1174824,67.9768415 17.9473496,68.14009 17.7770083,68.303547 C17.1944702,68.8627201 16.3406787,68.0054048 16.8923593,67.4191278 C20.5568867,63.523889 24.3146118,59.7185097 28.1628242,56.0046581 C28.7424433,55.4452765 29.6277177,56.3290702 29.0472646,56.8892857 Z M26.7554338,63.1889272 C25.7408918,64.2149118 24.7263499,65.2411049 23.7115994,66.2670895 C23.1803513,66.8045795 22.6488948,67.3420695 22.1174382,67.879351 C21.9241624,68.0749157 21.730678,68.2702718 21.5376106,68.4658365 C21.5859817,68.4168411 20.8201755,69.2159874 20.8420676,68.9951953 C20.7636731,69.7901718 19.512071,69.7955926 19.5910911,68.9951953 C19.6419641,68.4810563 20.0114192,68.230033 20.3631521,67.8743473 C20.9429797,67.2880703 21.5225989,66.7017934 22.1024265,66.1155165 C23.1653396,65.0405365 24.2282527,63.9655565 25.2911658,62.8907849 C27.5135256,60.6432511 29.7358855,58.3957172 31.9580369,56.1479748 C32.5253547,55.5746244 33.4093782,56.459669 32.8426858,57.0326025 C30.8136018,59.0847802 28.7843093,61.1367495 26.7554338,63.1889272 Z M33.8369828,58.236576 C34.4007563,57.6594726 35.2845712,58.5449343 34.7216317,59.1212036 C30.9945556,62.935548 27.2674794,66.7501008 23.5404032,70.5646536 C22.9766298,71.141757 22.0930233,70.2562953 22.6559628,69.680026 C26.383039,65.8654731 30.1099066,62.0511288 33.8369828,58.236576 Z M38.0362192,60.3498207 C36.0853213,62.3279841 34.1709102,64.3422164 32.3009087,66.397313 C31.3660122,67.4249656 30.441332,68.4620002 29.5277021,69.508417 C29.0492036,70.05654 28.5734155,70.607165 28.1007549,71.1605003 C27.8232466,71.4853294 27.6070361,71.8545671 27.1735728,71.9588127 C26.9590303,72.0103099 26.7209277,71.9625655 26.5649727,71.7978575 C26.5326558,71.7638735 26.5005474,71.7298894 26.4682305,71.6959054 C26.2730781,71.4901247 26.2328384,71.1873956 26.3704458,70.9378318 C26.3929634,70.8969676 26.4158979,70.8558948 26.4384155,70.8148221 C26.545791,70.6205084 26.7611675,70.5089657 26.9784204,70.5050043 C27.0117798,70.5043789 27.0449307,70.5037534 27.0780815,70.5031279 C27.2465464,70.29005 27.4419072,70.0123399 27.4744326,69.9743945 C27.6466504,69.7736176 27.8192852,69.5730492 27.9923369,69.3728978 C28.4249663,68.8723107 28.8598892,68.374017 29.2975225,67.8778082 C30.1287964,66.93522 30.9690356,66.0001375 31.8178232,65.0731862 C33.5598081,63.1700796 35.3399478,61.302208 37.1517788,59.4651931 C37.7182627,58.8910086 38.6022861,59.7760533 38.0362192,60.3498207 Z M44.6467964,55.7018665 C45.1966006,55.1107943 46.0791646,55.9975068 45.5314453,56.5864941 C40.7589697,61.7180851 35.9860771,66.8496761 31.2133931,71.9812671 C30.6637974,72.5723394 29.7810249,71.6856268 30.3289526,71.0966395 C35.1016367,65.9650485 39.8741123,60.8334575 44.6467964,55.7018665 Z M49.354659,56.0270709 C49.8854901,55.4193194 50.7668031,56.3076999 50.239308,56.9116985 C45.5631576,62.265124 40.4499994,67.2167872 35.773849,72.5702128 C35.2430179,73.1779643 34.3619134,72.2897922 34.8894085,71.6857936 C39.5655589,66.3321596 44.6785086,61.3804964 49.354659,56.0270709 Z M53.1124675,56.4441573 C53.6147346,55.8147227 54.4943796,56.7056051 53.9971165,57.3287849 C49.6518494,62.7751975 45.0499236,68.0327171 40.2076018,73.0429663 C39.6469558,73.623197 38.7635579,72.7375268 39.3231614,72.1583386 C44.1654832,67.1480894 48.7674089,61.8907783 53.1124675,56.4441573 Z M55.7946238,59.0323864 C56.3552698,58.4521557 57.2388763,59.3378259 56.6790643,59.9170141 C52.5994212,64.139167 48.5193611,68.3613199 44.4397181,72.5834728 C43.8790721,73.1637035 42.9954656,72.2780333 43.5552776,71.6990536 C47.6349207,67.4766922 51.7147723,63.2545393 55.7946238,59.0323864 Z M57.3436873,62.4610223 C57.9520789,61.9395861 58.8404807,62.8208779 58.2281277,63.3456499 C55.2960471,65.8583844 52.6712898,68.6994924 49.967304,71.4492813 C49.4016541,72.0245082 48.5178391,71.1392551 49.0828635,70.5648621 C51.7868494,67.8148648 54.4116067,64.9737568 57.3436873,62.4610223 Z" id="Combined-Shape" fill="#07C1E4"></path>
                        </g>
                        <g id="activity" transform="translate(224.000000, 140.000000)">
                            <circle id="circle" fill="#00D6A2" cx="14" cy="14" r="14"></circle>
                            <g id="activities/tasks_12_w" transform="translate(8.000000, 8.000000)" fill="#FFFFFF">
                                <g id="tasks_12_w" transform="translate(1.000000, 3.000000)">
                                    <g id="icon">
                                        <path d="M3.5024,7 C3.3694,7 3.2424,6.947 3.1484,6.853 L0.1464,3.846 C-0.0486,3.65 -0.0486,3.334 0.1474,3.139 C0.3414,2.944 0.6584,2.943 0.8544,3.14 L3.5024,5.792 L9.1444,0.146 C9.3394,-0.049 9.6554,-0.049 9.8514,0.146 C10.0464,0.341 10.0464,0.658 9.8514,0.854 L3.8564,6.854 C3.7624,6.947 3.6354,7 3.5024,7" id="fill"></path>
                                    </g>
                                </g>
                            </g>
                        </g>
                        <g id="activity" transform="translate(186.000000, 161.000000)">
                            <circle id="circle" fill="#FFB400" cx="14" cy="14" r="14"></circle>
                            <g id="activities/files_12_w" transform="translate(8.000000, 8.000000)" fill="#FFFFFF">
                                <g id="files_12_w" transform="translate(0.000000, 1.000000)">
                                    <g id="icon">
                                        <path d="M11.521,3.999 L11,3.999 L11,8.5 C11,8.776 10.776,9 10.5,9 L1.5,9 C1.225,9 1,8.776 1,8.5 L1,3.989 L0.5,3.989 L0.501,2.989 L1,2.989 L1,1.5 C1,1.225 1.225,1 1.5,1 L3.919,1 C4.053,1 4.179,1.053 4.273,1.147 L4.688,1.561 C4.971,1.844 5.348,2 5.748,2 L10.5,2 C10.776,2 11,2.225 11,2.5 L11,2.999 L11.521,2.999 L11.521,3.999 Z M1.001,2.98920045 L1.001,3.9887 L1.0005,3.9887 L1.0005,3.9892 L11.0005,3.9982 L11.0005,2.9985 L11.0005,2.9982 L1.001,2.98920045 Z M10.5,1 C11.328,1 12,1.673 12,2.5 L12,8.5 C12,9.328 11.328,10 10.5,10 L1.5,10 C0.673,10 0,9.328 0,8.5 L0,1.5 C0,0.673 0.673,0 1.5,0 L3.919,0 C4.319,0 4.696,0.157 4.98,0.44 L5.395,0.854 C5.488,0.948 5.617,1 5.748,1 L10.5,1 Z M11.0005,3.9985 L11.5215,3.9985 L11.5215,2.9985 L11.0005,2.9985 L11.0005,3.9985 Z M1.001,2.98920045 L1.001,2.9887 L0.501,2.9887 L0.5,3.9887 L1.0005,3.9887 L1.0005,2.9892 Z" id="fill"></path>
                                    </g>
                                </g>
                            </g>
                        </g>
                        <g id="activity" transform="translate(148.000000, 140.000000)">
                            <circle id="circle" fill="#D540D8" cx="14" cy="14" r="14"></circle>
                            <g id="activities/whiteboard_12_w" transform="translate(8.000000, 8.000000)" fill="#FFFFFF">
                                <g id="whiteboard_12_w">
                                    <g id="icon">
                                        <path d="M10.6933372,2.78575 L9.84333718,3.63575 L8.36333718,2.15475 L9.21333718,1.30575 C9.60833718,0.90975 10.2973372,0.90975 10.6933372,1.30575 C10.8913372,1.50275 11.0003372,1.76575 11.0003372,2.04575 C11.0003372,2.32575 10.8913372,2.58775 10.6933372,2.78575 Z M3.04533718,10.43275 L1.15333718,10.84475 L1.56533718,8.95275 L7.65633718,2.86175 L9.13633718,4.34275 L3.04533718,10.43275 Z M11.4003372,0.59775 C10.6023372,-0.19925 9.30333718,-0.19925 8.50533718,0.59775 L0.754337179,8.34975 C0.686337179,8.41775 0.639337179,8.50375 0.619337179,8.59675 L0.0113371786,11.39175 C-0.0246628214,11.55875 0.0263371786,11.73175 0.146337179,11.85175 C0.241337179,11.94675 0.369337179,11.99875 0.500337179,11.99875 C0.535337179,11.99875 0.571337179,11.99475 0.606337179,11.98775 L3.40133718,11.37975 C3.49533718,11.35875 3.58133718,11.31175 3.64833718,11.24375 L11.4003372,3.49275 C11.7873372,3.10575 12.0003372,2.59275 12.0003372,2.04575 C12.0003372,1.49875 11.7873372,0.98475 11.4003372,0.59775 Z" id="fill"></path>
                                    </g>
                                </g>
                            </g>
                        </g>
                        <g id="activity" transform="translate(186.000000, 73.000000)">
                            <circle id="circle" fill="#2ED557" cx="14" cy="14" r="14"></circle>
                            <g id="activities/camera_12_w" transform="translate(8.000000, 8.000000)" fill="#FFFFFF">
                                <g id="camera_12_w" transform="translate(0.000000, 1.000000)">
                                    <g id="icon">
                                        <path d="M1.4998,8.00003 C1.2238,8.00003 0.9998,7.77503 0.9998,7.50003 L0.9998,1.50003 C0.9998,1.22403 1.2238,1.00003 1.4998,1.00003 L7.5018,1.00003 C7.7778,1.00003 8.0018,1.22403 8.0018,1.50003 L8.0018,7.50003 C8.0018,7.77503 7.7778,8.00003 7.5018,8.00003 L1.4998,8.00003 Z M7.5018,3e-05 L1.4998,3e-05 C0.6728,3e-05 -0.0002,0.67303 -0.0002,1.50003 L-0.0002,7.50003 C-0.0002,8.32703 0.6728,9.00003 1.4998,9.00003 L7.5018,9.00003 C8.3288,9.00003 9.0018,8.32703 9.0018,7.50003 L9.0018,6.17903 L10.5788,7.75503 C10.7378,7.91503 10.9498,7.99903 11.1668,7.99903 C11.2738,7.99903 11.3828,7.97903 11.4858,7.93603 C11.7988,7.80603 12.0008,7.50303 12.0008,7.16503 L12.0008,1.83203 C12.0008,1.49403 11.7998,1.19203 11.4868,1.06303 C11.3828,1.02003 11.2748,0.99903 11.1668,0.99903 C10.9508,0.99903 10.7378,1.08303 10.5788,1.24303 L9.0018,2.81903 L9.0018,1.50003 C9.0018,0.67303 8.3288,3e-05 7.5018,3e-05 Z M11.0008,2.23403 L11.0008,6.76403 L9.7088,5.47203 L9.0018,4.76403 L9.0018,4.23403 L9.7088,3.52703 L11.0008,2.23403 Z" id="fill"></path>
                                    </g>
                                </g>
                            </g>
                        </g>
                        <g id="activity" transform="translate(224.000000, 94.000000)">
                            <circle id="circle" fill="#FF7033" cx="14" cy="14" r="14"></circle>
                            <g id="activities/meetings_12_w" transform="translate(8.000000, 8.000000)" fill="#FFFFFF">
                                <g id="meetings_12_w">
                                    <g id="icon">
                                        <path d="M10.375,11 L1.625,11 C1.28,11 1,10.72 1,10.375 L1,9 L11,9 L11,10.375 C11,10.72 10.72,11 10.375,11 M1.625,2.002 L10.375,2.002 C10.72,2.002 11,2.282 11,2.627 L11,8 L1,8 L1,2.627 C1,2.282 1.28,2.002 1.625,2.002 M10.375,1.002 L9,1.002 L9,0.5 C9,0.224 8.776,0 8.5,0 C8.224,0 8,0.224 8,0.5 L8,1.002 L4,1.002 L4,0.5 C4,0.224 3.776,0 3.5,0 C3.224,0 3,0.224 3,0.5 L3,1.002 L1.625,1.002 C0.729,1.002 0,1.731 0,2.627 L0,10.375 C0,11.271 0.729,12 1.625,12 L10.375,12 C11.271,12 12,11.271 12,10.375 L12,2.627 C12,1.731 11.271,1.002 10.375,1.002" id="fill"></path>
                                    </g>
                                </g>
                            </g>
                        </g>
                        <g id="activity" transform="translate(148.000000, 94.000000)">
                            <circle id="circle" fill="#07C1E4" cx="14" cy="14" r="14"></circle>
                            <g id="activities/chat_12_w" transform="translate(8.000000, 8.000000)" fill="#FFFFFF">
                                <g id="chat_12_w">
                                    <g id="icon">
                                        <path d="M3.2557,10.2617 C3.3427,10.2617 3.4287,10.2847 3.5057,10.3287 C4.2657,10.7677 5.1287,10.9997 5.9997,10.9997 C8.7567,10.9997 10.9997,8.7567 10.9997,5.9997 C10.9997,3.2427 8.7567,0.9997 5.9997,0.9997 C3.2427,0.9997 0.9997,3.2427 0.9997,5.9997 C0.9997,6.8717 1.2327,7.7337 1.6717,8.4937 C1.7377,8.6087 1.7557,8.7457 1.7217,8.8737 L1.2067,10.7927 L3.1267,10.2787 C3.1687,10.2677 3.2127,10.2617 3.2557,10.2617 M0.4997,11.9997 C0.3697,11.9997 0.2417,11.9487 0.1467,11.8537 C0.0197,11.7267 -0.0293,11.5427 0.0167,11.3707 L0.7037,8.8097 C0.2427,7.9437 -0.0003,6.9767 -0.0003,5.9997 C-0.0003,2.6917 2.6917,-0.0003 5.9997,-0.0003 C9.3087,-0.0003 11.9997,2.6917 11.9997,5.9997 C11.9997,9.3087 9.3087,11.9997 5.9997,11.9997 C5.0237,11.9997 4.0567,11.7577 3.1897,11.2967 L0.6297,11.9827 C0.5867,11.9947 0.5437,11.9997 0.4997,11.9997" id="fill"></path>
                                    </g>
                                </g>
                            </g>
                        </g>
                    </g>
                </g>
            </g>
        </g>
    </g>
</svg>