
<svg width="14px" height="14px" viewBox="0 0 14 14" version="1.1" xmlns="http://www.w3.org/2000/svg" xmlns:xlink="http://www.w3.org/1999/xlink">
    <!-- Generator: Sketch 49.2 (51160) - http://www.bohemiancoding.com/sketch -->
    <desc>Created with Sketch.</desc>
    <defs></defs>
    <g id="Symbols" stroke="none" stroke-width="1" fill="none" fill-rule="evenodd" opacity="0.6">
        <g id="content" transform="translate(-157.000000, -507.000000)" fill="#000000">
            <g id="meetings/pmr_16">
                <g transform="translate(156.000000, 506.000000)">
                    <g id="pmr_16" transform="translate(1.000000, 1.000000)">
                        <g id="icon" fill-rule="nonzero">
                            <path d="M1,1.7166748 L1,12.2833252 C1,12.6768404 1.3226324,13 1.7166748,13 L12.2833252,13 C12.6768404,13 13,12.6773676 13,12.2833252 L13,1.7166748 C13,1.32315961 12.6773676,1 12.2833252,1 L1.7166748,1 C1.32315961,1 1,1.3226324 1,1.7166748 Z M0,1.7166748 C0,0.76858149 0.772642642,0 1.7166748,0 L12.2833252,0 C13.2314185,0 14,0.772642642 14,1.7166748 L14,12.2833252 C14,13.2314185 13.2273574,14 12.2833252,14 L1.7166748,14 C0.76858149,14 0,13.2273574 0,12.2833252 L0,1.7166748 Z M4.0943,10 L4.1863,9.631 C4.2793,9.26 4.6123,9 4.9943,9 L9.0053,9 C9.3883,9 9.7203,9.26 9.8143,9.631 L9.9063,10 L4.0943,10 Z M7.0003,4 C8.1033,4 9.0003,4.897 9.0003,6 C9.0003,7.103 8.1033,8 7.0003,8 C5.8973,8 5.0003,7.103 5.0003,6 C5.0003,4.897 5.8973,4 7.0003,4 Z M10.9793,10.172 L10.7833,9.388 C10.5953,8.635 9.9533,8.113 9.1953,8.032 C9.6903,7.497 10.0003,6.787 10.0003,6 C10.0003,4.343 8.6563,3 7.0003,3 C5.3433,3 4.0003,4.343 4.0003,6 C4.0003,6.787 4.3093,7.497 4.8043,8.032 C4.0473,8.113 3.4053,8.635 3.2163,9.389 L3.0203,10.171 C2.9703,10.372 3.0143,10.58 3.1413,10.743 C3.2683,10.906 3.4603,11 3.6673,11 L10.3333,11 C10.5403,11 10.7313,10.906 10.8593,10.743 C10.9863,10.58 11.0303,10.372 10.9793,10.172 Z" id="fill"></path>
                        </g>
                    </g>
                </g>
            </g>
        </g>
    </g>
</svg>