<?xml version="1.0" encoding="UTF-8"?>
<svg width="24px" height="24px" viewBox="0 0 24 24" version="1.1" xmlns="http://www.w3.org/2000/svg" xmlns:xlink="http://www.w3.org/1999/xlink">
    <!-- Generator: Sketch 47.1 (45422) - http://www.bohemiancoding.com/sketch -->
    <title>Group</title>
    <desc>Created with Sketch.</desc>
    <defs></defs>
    <g id="B---better" stroke="none" stroke-width="1" fill="none" fill-rule="evenodd">
        <g id="Phase-2-Day-1-A-10.1" transform="translate(-846.000000, -172.000000)">
            <g id="App" transform="translate(208.000000, 128.000000)">
                <g id="content" transform="translate(320.000000, 0.000000)">
                    <g id="top-bar">
                        <g id="activity" transform="translate(318.000000, 44.000000)">
                            <g id="Group">
                                <circle id="Oval-5" fill="#26B249" cx="12" cy="12" r="12"></circle>
                                <g id="icon" transform="translate(7.000000, 7.000000)">
                                    <rect id="bounds" x="0" y="0" width="10" height="10"></rect>
                                    <g transform="translate(0.000000, 1.000000)" id="Page-1" fill="#FFFFFF">
                                        <path d="M9,4.793 L8.207,4 L9,3.207 L9,4.793 Z M7,6.5 C7,6.775 6.775,7 6.5,7 L1.5,7 C1.224,7 1,6.775 1,6.5 L1,1.5 C1,1.225 1.224,1 1.5,1 L6.5,1 C6.775,1 7,1.225 7,1.5 L7,6.5 Z M9.691,1.538 C9.507,1.462 9.289,1.503 9.146,1.647 L8,2.793 L8,1.5 C8,0.672 7.328,0 6.5,0 L1.5,0 C0.671,0 0,0.672 0,1.5 L0,6.5 C0,7.328 0.671,8 1.5,8 L6.5,8 C7.328,8 8,7.328 8,6.5 L8,5.207 L9.146,6.354 C9.242,6.449 9.37,6.5 9.5,6.5 C9.564,6.5 9.63,6.487 9.691,6.462 C9.878,6.385 10,6.202 10,6 L10,2 C10,1.798 9.878,1.615 9.691,1.538 L9.691,1.538 Z"></path>
                                    </g>
                                </g>
                            </g>
                        </g>
                    </g>
                </g>
            </g>
        </g>
    </g>
</svg>