
<svg width="16px" height="16px" viewBox="0 0 16 16" version="1.1" xmlns="http://www.w3.org/2000/svg" xmlns:xlink="http://www.w3.org/1999/xlink">
    <!-- Generator: Sketch 49.2 (51160) - http://www.bohemiancoding.com/sketch -->
    <desc>Created with Sketch.</desc>
    <defs></defs>
    <g id="Symbols" stroke="none" stroke-width="1" fill="none" fill-rule="evenodd" opacity="0.6">
        <g id="content" transform="translate(-128.000000, -506.000000)" fill="#000000">
            <g id="chat/mention_16">
                <g transform="translate(128.000000, 506.000000)">
                    <g id="mention_16">
                        <g id="icon">
                            <path d="M8,11 C6.346,11 5,9.654 5,8 C5,6.346 6.346,5 8,5 C9.654,5 11,6.346 11,8 C11,9.654 9.654,11 8,11 M8,0 C3.589,0 0,3.589 0,8 C0,12.411 3.589,16 8,16 C9.748,16 11.408,15.446 12.801,14.399 C13.021,14.233 13.065,13.92 12.899,13.699 C12.734,13.478 12.419,13.434 12.199,13.601 C10.982,14.516 9.53,15 8,15 C4.14,15 1,11.859 1,8 C1,4.14 4.14,1 8,1 C11.859,1 15,4.14 15,8 L15,9.5 C15,10.327 14.327,11 13.5,11 C12.673,11 12,10.327 12,9.5 L12,4.5 C12,4.224 11.776,4 11.5,4 C11.224,4 11,4.224 11,4.5 L11,5.382 C10.267,4.542 9.2,4 8,4 C5.794,4 4,5.794 4,8 C4,10.206 5.794,12 8,12 C9.3,12 10.444,11.368 11.176,10.405 C11.54,11.336 12.441,12 13.5,12 C14.879,12 16,10.879 16,9.5 L16,8 C16,3.589 12.411,0 8,0" id="fill"></path>
                        </g>
                    </g>
                </g>
            </g>
        </g>
    </g>
</svg>