
<svg width="32px" height="335px" viewBox="0 0 32 335" version="1.1" xmlns="http://www.w3.org/2000/svg" xmlns:xlink="http://www.w3.org/1999/xlink">
    <!-- Generator: Sketch 49 (51002) - http://www.bohemiancoding.com/sketch -->
    <desc>Created with Sketch.</desc>
    <defs></defs>
    <g id="Sharing" stroke="none" stroke-width="1" fill="none" fill-rule="evenodd">
        <g id="Sharing-3.0" transform="translate(-15.000000, -273.000000)">
            <g id="App">
                <g id="annotation" transform="translate(1.000000, 155.000000)">
                    <g id="item" transform="translate(10.000000, 106.000000)">
                        <rect id="bg" x="0" y="0" width="40" height="40"></rect>
                        <g id="assign" transform="translate(10.000000, 12.000000)">
                            <g id="Group">
                                <rect id="Rectangle-9" fill-opacity="0.5" fill="#F5F5F6" x="0" y="0" width="16" height="16"></rect>
                                <text id="FPO" font-family="SegoeUI-SemiBold, Segoe UI" font-size="8" font-weight="500" fill="#292929">
                                    <tspan x="0.12890625" y="11">FPO</tspan>
                                </text>
                            </g>
                        </g>
                        <g id="arrow-right_6" transform="translate(28.000000, 17.000000)">
                            <rect id="BOUND" x="0" y="0" width="6" height="6"></rect>
                            <g id="icon" transform="translate(3.500000, 3.000000) scale(-1, 1) translate(-3.500000, -3.000000) translate(2.000000, 0.000000)" fill="#FFFFFF">
                                <path d="M1.49994722,4.50015506 C1.38994722,4.50015506 1.27894722,4.46315506 1.18794722,4.39115506 L-1.31305278,2.39115506 C-1.52805278,2.21815506 -1.56305278,1.90315506 -1.39105278,1.68715506 C-1.21705278,1.47315506 -0.90305278,1.43715506 -0.68805278,1.60915506 L1.49994722,3.36015506 L3.68794722,1.60915506 C3.90294722,1.43715506 4.21794722,1.47315506 4.39094722,1.68715506 C4.56294722,1.90315506 4.52794722,2.21815506 4.31294722,2.39115506 L1.81194722,4.39115506 C1.72094722,4.46315506 1.60994722,4.50015506 1.49994722,4.50015506" id="fill" transform="translate(1.499947, 3.000208) rotate(90.000000) translate(-1.499947, -3.000208) "></path>
                            </g>
                        </g>
                    </g>
                    <g id="item" transform="translate(10.000000, 186.000000)">
                        <rect id="bg" x="0" y="0" width="40" height="40"></rect>
                        <g id="text-format_16" transform="translate(12.000000, 12.000000)">
                            <rect id="bound" x="0" y="0" width="16" height="16"></rect>
                            <g id="icon" transform="translate(0.000000, 2.000000)" fill="#FFFFFF">
                                <path d="M15.5,6 L13,6 L13,11.5 C13,11.776 12.776,12 12.5,12 C12.224,12 12,11.776 12,11.5 L12,6 L9.5,6 C9.224,6 9,5.776 9,5.5 C9,5.224 9.224,5 9.5,5 L15.5,5 C15.776,5 16,5.224 16,5.5 C16,5.776 15.776,6 15.5,6 L15.5,6 Z M6,11.5 C6,11.776 5.776,12 5.5,12 C5.224,12 5,11.776 5,11.5 L5,1 L0.5,1 C0.224,1 0,0.776 0,0.5 C0,0.224 0.224,0 0.5,0 L11.167,0 C11.443,0 11.667,0.224 11.667,0.5 C11.667,0.776 11.443,1 11.167,1 L6,1 L6,11.5 Z" id="fill"></path>
                            </g>
                        </g>
                    </g>
                    <g id="item" transform="translate(10.000000, 146.000000)">
                        <rect id="bg" x="0" y="0" width="40" height="40"></rect>
                        <g id="next_16" transform="translate(10.000000, 12.000000)">
                            <rect id="bound" x="0" y="0" width="16" height="16"></rect>
                            <g id="icon" transform="translate(8.000000, 8.500000) scale(-1, 1) translate(-8.000000, -8.500000) translate(0.000000, 2.000000)" fill="#FFFFFF">
                                <path d="M15.5001371,6 L1.70720593,6 L6.86169575,0.854 C7.05652528,0.659 7.05652528,0.342 6.86169575,0.147 C6.6658671,-0.049 6.35014336,-0.048 6.15431471,0.146 L0.146571487,6.146 C0.0526536655,6.24 -0.0003,6.367 -0.0003,6.5 C-0.0003,6.633 0.0526536655,6.76 0.146571487,6.854 L6.15431471,12.854 C6.25222904,12.951 6.38011714,13 6.50800523,13 C6.63589333,13 6.76378143,12.951 6.86169575,12.853 C7.05652528,12.658 7.05652528,12.341 6.86169575,12.146 L1.70720593,7 L15.5001371,7 C15.7758958,7 15.9997,6.776 15.9997,6.5 C15.9997,6.224 15.7758958,6 15.5001371,6" id="fill"></path>
                            </g>
                        </g>
                        <g id="arrow-right_6" transform="translate(28.000000, 17.000000)">
                            <rect id="BOUND" x="0" y="0" width="6" height="6"></rect>
                            <g id="icon" transform="translate(3.500000, 3.000000) scale(-1, 1) translate(-3.500000, -3.000000) translate(2.000000, 0.000000)" fill="#FFFFFF">
                                <path d="M1.49994722,4.50015506 C1.38994722,4.50015506 1.27894722,4.46315506 1.18794722,4.39115506 L-1.31305278,2.39115506 C-1.52805278,2.21815506 -1.56305278,1.90315506 -1.39105278,1.68715506 C-1.21705278,1.47315506 -0.90305278,1.43715506 -0.68805278,1.60915506 L1.49994722,3.36015506 L3.68794722,1.60915506 C3.90294722,1.43715506 4.21794722,1.47315506 4.39094722,1.68715506 C4.56294722,1.90315506 4.52794722,2.21815506 4.31294722,2.39115506 L1.81194722,4.39115506 C1.72094722,4.46315506 1.60994722,4.50015506 1.49994722,4.50015506" id="fill" transform="translate(1.499947, 3.000208) rotate(90.000000) translate(-1.499947, -3.000208) "></path>
                            </g>
                        </g>
                    </g>
                    <g id="item" transform="translate(10.000000, 226.000000)">
                        <rect id="bg" x="0" y="0" width="40" height="40"></rect>
                        <g id="shape-diagonal-arrowhead-dual_16" transform="translate(10.000000, 12.000000)">
                            <rect id="bound" x="0" y="0" width="16" height="16"></rect>
                            <g id="icon" transform="translate(2.000000, 2.000000)" fill="#FFFFFF">
                                <path d="M11.9614,0.3091 C11.9114,0.1861 11.8134,0.0891 11.6904,0.0381 C11.6294,0.0131 11.5654,0.0001 11.5004,0.0001 L6.5004,0.0001 C6.2234,0.0001 6.0004,0.2241 6.0004,0.5001 C6.0004,0.7761 6.2234,1.0001 6.5004,1.0001 L10.2934,1.0001 L1.0004,10.2931 L1.0004,6.5001 C1.0004,6.2241 0.7764,6.0001 0.5004,6.0001 C0.2234,6.0001 0.0004,6.2241 0.0004,6.5001 L0.0004,11.5001 C0.0004,11.5651 0.0134,11.6301 0.0384,11.6911 C0.0884,11.8131 0.1864,11.9111 0.3094,11.9611 C0.3704,11.9871 0.4354,12.0001 0.5004,12.0001 L5.5004,12.0001 C5.7764,12.0001 6.0004,11.7761 6.0004,11.5001 C6.0004,11.2241 5.7764,11.0001 5.5004,11.0001 L1.7074,11.0001 L11.0004,1.7071 L11.0004,5.5001 C11.0004,5.7761 11.2234,6.0001 11.5004,6.0001 C11.7764,6.0001 12.0004,5.7761 12.0004,5.5001 L12.0004,0.5001 C12.0004,0.4351 11.9864,0.3701 11.9614,0.3091" id="fill"></path>
                            </g>
                        </g>
                        <g id="arrow-right_6" transform="translate(28.000000, 17.000000)">
                            <rect id="BOUND" x="0" y="0" width="6" height="6"></rect>
                            <g id="icon" transform="translate(3.500000, 3.000000) scale(-1, 1) translate(-3.500000, -3.000000) translate(2.000000, 0.000000)" fill="#FFFFFF">
                                <path d="M1.49994722,4.50015506 C1.38994722,4.50015506 1.27894722,4.46315506 1.18794722,4.39115506 L-1.31305278,2.39115506 C-1.52805278,2.21815506 -1.56305278,1.90315506 -1.39105278,1.68715506 C-1.21705278,1.47315506 -0.90305278,1.43715506 -0.68805278,1.60915506 L1.49994722,3.36015506 L3.68794722,1.60915506 C3.90294722,1.43715506 4.21794722,1.47315506 4.39094722,1.68715506 C4.56294722,1.90315506 4.52794722,2.21815506 4.31294722,2.39115506 L1.81194722,4.39115506 C1.72094722,4.46315506 1.60994722,4.50015506 1.49994722,4.50015506" id="fill" transform="translate(1.499947, 3.000208) rotate(90.000000) translate(-1.499947, -3.000208) "></path>
                            </g>
                        </g>
                    </g>
                    <g id="item" transform="translate(10.000000, 306.000000)">
                        <g id="edit_16">
                            <rect id="bg" x="0" y="0" width="40" height="40"></rect>
                            <g id="icon" transform="translate(10.000000, 12.000000)" fill="#FFFFFF">
                                <path d="M1.7858,11.9318705 L1.1538,14.8433287 L4.0608,14.2103595 L14.5278,3.72830882 C14.8328,3.42384261 14.9998,3.01922303 14.9998,2.58856358 C14.9998,2.15790414 14.8328,1.75328456 14.5278,1.44881835 C13.9208,0.838884389 12.8598,0.838884389 12.2528,1.44881835 L1.7858,11.9318705 Z M0.4998,16.0001 C0.3688,16.0001 0.2408,15.9480203 0.1458,15.8528746 C0.0258,15.7326905 -0.0252,15.5584237 0.0118,15.3921691 L0.8408,11.5753246 C0.8608,11.4811804 0.9078,11.3950485 0.9748,11.3269442 L11.5458,0.740734096 C12.5298,-0.246778032 14.2508,-0.246778032 15.2348,0.740734096 C15.7278,1.23348863 15.9998,1.89049467 15.9998,2.58856358 C15.9998,3.2866325 15.7278,3.94263701 15.2348,4.43639307 L4.6648,15.0226032 C4.5978,15.089706 4.5118,15.136778 4.4178,15.1578102 L0.6058,15.9880816 C0.5708,15.9960939 0.5348,16.0001 0.4998,16.0001 L0.4998,16.0001 Z" id="fill"></path>
                            </g>
                        </g>
                        <g id="arrow-right_6" transform="translate(28.000000, 17.000000)">
                            <rect id="BOUND" x="0" y="0" width="6" height="6"></rect>
                            <g id="icon" transform="translate(3.500000, 3.000000) scale(-1, 1) translate(-3.500000, -3.000000) translate(2.000000, 0.000000)" fill="#FFFFFF">
                                <path d="M1.49994722,4.50015506 C1.38994722,4.50015506 1.27894722,4.46315506 1.18794722,4.39115506 L-1.31305278,2.39115506 C-1.52805278,2.21815506 -1.56305278,1.90315506 -1.39105278,1.68715506 C-1.21705278,1.47315506 -0.90305278,1.43715506 -0.68805278,1.60915506 L1.49994722,3.36015506 L3.68794722,1.60915506 C3.90294722,1.43715506 4.21794722,1.47315506 4.39094722,1.68715506 C4.56294722,1.90315506 4.52794722,2.21815506 4.31294722,2.39115506 L1.81194722,4.39115506 C1.72094722,4.46315506 1.60994722,4.50015506 1.49994722,4.50015506" id="fill" transform="translate(1.499947, 3.000208) rotate(90.000000) translate(-1.499947, -3.000208) "></path>
                            </g>
                        </g>
                    </g>
                    <g id="item" transform="translate(10.000000, 266.000000)">
                        <rect id="bg" x="0" y="0" width="40" height="40"></rect>
                        <rect id="selected" fill-opacity="0.24" fill="#FFFFFF" x="4" y="8" width="32" height="24" rx="2"></rect>
                        <g id="shape-square_16" transform="translate(10.000000, 12.000000)" fill="#FFFFFF">
                            <g id="icon">
                                <path d="M2,1 C1.449,1 1,1.449 1,2 L1,14 C1,14.551 1.449,15 2,15 L14,15 C14.551,15 15,14.551 15,14 L15,2 C15,1.449 14.551,1 14,1 L2,1 Z M14,16 L2,16 C0.897,16 0,15.103 0,14 L0,2 C0,0.897 0.897,0 2,0 L14,0 C15.103,0 16,0.897 16,2 L16,14 C16,15.103 15.103,16 14,16 Z" id="fill"></path>
                            </g>
                        </g>
                        <g id="arrow-right_6" transform="translate(28.000000, 17.000000)">
                            <rect id="BOUND" x="0" y="0" width="6" height="6"></rect>
                            <g id="icon" transform="translate(3.500000, 3.000000) scale(-1, 1) translate(-3.500000, -3.000000) translate(2.000000, 0.000000)" fill="#FFFFFF">
                                <path d="M1.49994722,4.50015506 C1.38994722,4.50015506 1.27894722,4.46315506 1.18794722,4.39115506 L-1.31305278,2.39115506 C-1.52805278,2.21815506 -1.56305278,1.90315506 -1.39105278,1.68715506 C-1.21705278,1.47315506 -0.90305278,1.43715506 -0.68805278,1.60915506 L1.49994722,3.36015506 L3.68794722,1.60915506 C3.90294722,1.43715506 4.21794722,1.47315506 4.39094722,1.68715506 C4.56294722,1.90315506 4.52794722,2.21815506 4.31294722,2.39115506 L1.81194722,4.39115506 C1.72094722,4.46315506 1.60994722,4.50015506 1.49994722,4.50015506" id="fill" transform="translate(1.499947, 3.000208) rotate(90.000000) translate(-1.499947, -3.000208) "></path>
                            </g>
                        </g>
                    </g>
                    <g id="item" transform="translate(10.000000, 346.000000)">
                        <rect id="bg" x="0" y="0" width="40" height="40"></rect>
                        <g id="shape-square_16" transform="translate(10.000000, 12.000000)">
                            <g id="icon" fill="#FFFFFF">
                                <path d="M2,1 C1.449,1 1,1.449 1,2 L1,14 C1,14.551 1.449,15 2,15 L14,15 C14.551,15 15,14.551 15,14 L15,2 C15,1.449 14.551,1 14,1 L2,1 Z M14,16 L2,16 C0.897,16 0,15.103 0,14 L0,2 C0,0.897 0.897,0 2,0 L14,0 C15.103,0 16,0.897 16,2 L16,14 C16,15.103 15.103,16 14,16 Z" id="fill"></path>
                            </g>
                            <rect id="color" fill="#FEFE00" x="1" y="1" width="14" height="14" rx="1"></rect>
                        </g>
                        <g id="arrow-right_6" transform="translate(28.000000, 17.000000)">
                            <rect id="BOUND" x="0" y="0" width="6" height="6"></rect>
                            <g id="icon" transform="translate(3.500000, 3.000000) scale(-1, 1) translate(-3.500000, -3.000000) translate(2.000000, 0.000000)" fill="#FFFFFF">
                                <path d="M1.49994722,4.50015506 C1.38994722,4.50015506 1.27894722,4.46315506 1.18794722,4.39115506 L-1.31305278,2.39115506 C-1.52805278,2.21815506 -1.56305278,1.90315506 -1.39105278,1.68715506 C-1.21705278,1.47315506 -0.90305278,1.43715506 -0.68805278,1.60915506 L1.49994722,3.36015506 L3.68794722,1.60915506 C3.90294722,1.43715506 4.21794722,1.47315506 4.39094722,1.68715506 C4.56294722,1.90315506 4.52794722,2.21815506 4.31294722,2.39115506 L1.81194722,4.39115506 C1.72094722,4.46315506 1.60994722,4.50015506 1.49994722,4.50015506" id="fill" transform="translate(1.499947, 3.000208) rotate(90.000000) translate(-1.499947, -3.000208) "></path>
                            </g>
                        </g>
                    </g>
                    <g id="item" transform="translate(10.000000, 386.000000)">
                        <rect id="bg" x="0" y="0" width="40" height="40"></rect>
                        <g id="Group" transform="translate(10.000000, 12.000000)" fill="#FFFFFF">
                            <g id="eraser_16">
                                <g id="icon">
                                    <path d="M14.5020107,6.70776137 L8.97001068,12.2617614 L3.74301068,7.03476137 L9.25301068,1.50276137 C9.91801068,0.834761374 11.0040107,0.831761374 11.6730107,1.49576137 L14.4950107,4.29576137 C14.8190107,4.61676137 14.9980107,5.04376137 15.0000107,5.49976137 C15.0010107,5.95576137 14.8240107,6.38476137 14.5020107,6.70776137 L14.5020107,6.70776137 Z M6.74601068,14.4947614 C6.08201068,15.1637614 4.99601068,15.1657614 4.32601068,14.5017614 L1.50401068,11.7017614 C1.18001068,11.3807614 1.00101068,10.9537614 1.00001068,10.4977614 C0.998010678,10.0417614 1.17501068,9.61276137 1.49701068,9.28976137 L3.03701068,7.74376137 L8.26401068,12.9707614 L6.74601068,14.4947614 Z M15.1990107,3.58576137 L12.3770107,0.785761374 C11.3170107,-0.266238626 9.59901068,-0.261238626 8.54401068,0.796761374 L0.788010678,8.58376137 C0.277010678,9.09676137 -0.00198932163,9.77776137 1.0678366e-05,10.5007614 C0.00201067837,11.2237614 0.286010678,11.9027614 0.800010678,12.4117614 L3.62201068,15.2117614 C4.14901068,15.7357614 4.84101068,15.9977614 5.53201068,15.9977614 C6.22901068,15.9977614 6.92501068,15.7317614 7.45501068,15.2007614 L15.2110107,7.41376137 C15.7220107,6.90076137 16.0020107,6.21976137 16.0000107,5.49676137 C15.9970107,4.77376137 15.7130107,4.09476137 15.1990107,3.58576137 L15.1990107,3.58576137 Z" id="fill"></path>
                                </g>
                            </g>
                        </g>
                        <g id="arrow-right_6" transform="translate(28.000000, 17.000000)">
                            <rect id="BOUND" x="0" y="0" width="6" height="6"></rect>
                            <g id="icon" transform="translate(3.500000, 3.000000) scale(-1, 1) translate(-3.500000, -3.000000) translate(2.000000, 0.000000)" fill="#FFFFFF">
                                <path d="M1.49994722,4.50015506 C1.38994722,4.50015506 1.27894722,4.46315506 1.18794722,4.39115506 L-1.31305278,2.39115506 C-1.52805278,2.21815506 -1.56305278,1.90315506 -1.39105278,1.68715506 C-1.21705278,1.47315506 -0.90305278,1.43715506 -0.68805278,1.60915506 L1.49994722,3.36015506 L3.68794722,1.60915506 C3.90294722,1.43715506 4.21794722,1.47315506 4.39094722,1.68715506 C4.56294722,1.90315506 4.52794722,2.21815506 4.31294722,2.39115506 L1.81194722,4.39115506 C1.72094722,4.46315506 1.60994722,4.50015506 1.49994722,4.50015506" id="fill" transform="translate(1.499947, 3.000208) rotate(90.000000) translate(-1.499947, -3.000208) "></path>
                            </g>
                        </g>
                    </g>
                    <g id="item" transform="translate(10.000000, 426.000000)">
                        <rect id="bg" x="0" y="0" width="40" height="40"></rect>
                        <g id="Group" transform="translate(10.000000, 12.000000)">
                            <g id="save_16">
                                <rect id="bound" x="0" y="0" width="16" height="16"></rect>
                                <g id="icon" transform="translate(1.000000, 0.000000)" fill="#FFFFFF">
                                    <path d="M7.146,11.8535 L3.146,7.8535 C2.951,7.6585 2.951,7.3415 3.146,7.1465 C3.342,6.9515 3.658,6.9515 3.853,7.1465 L7,10.2925 L7,1.4995 C7,1.2235 7.224,0.9995 7.5,0.9995 C7.776,0.9995 8,1.2235 8,1.4995 L8,10.2925 L11.146,7.1465 C11.342,6.9515 11.658,6.9515 11.853,7.1465 C12.049,7.3415 12.049,7.6585 11.853,7.8535 L7.854,11.8535 C7.808,11.8985 7.752,11.9355 7.691,11.9615 C7.63,11.9875 7.565,11.9995 7.5,11.9995 C7.435,11.9995 7.37,11.9875 7.309,11.9615 C7.247,11.9355 7.192,11.8985 7.146,11.8535 Z M14.999,3 L15,13 C15,14.105 14.104,15 13,15 L2.001,15 C0.896,15 0.001,14.105 0.001,13 L0,3 C0,1.895 0.896,1 2,1 L4.5,1 C4.775,1 5,1.225 5,1.5 C5,1.775 4.775,2 4.5,2 L2,2 C1.448,2 1,2.449 1,3 L1,13 C1,13.551 1.448,14 2,14 L13,14 C13.552,14 14,13.551 14,13 L14,3 C14,2.449 13.552,2 13,2 L10.5,2 C10.225,2 10,1.775 10,1.5 C10,1.225 10.225,1 10.5,1 L12.999,1 C14.103,1 14.999,1.895 14.999,3 Z" id="fill"></path>
                                </g>
                            </g>
                        </g>
                    </g>
                </g>
            </g>
        </g>
    </g>
</svg>