
<svg width="15px" height="20px" viewBox="0 0 15 20" version="1.1" xmlns="http://www.w3.org/2000/svg" xmlns:xlink="http://www.w3.org/1999/xlink">
    <!-- Generator: Sketch 48.2 (47327) - http://www.bohemiancoding.com/sketch -->
    <desc>Created with Sketch.</desc>
    <defs></defs>
    <g id="Video-Centric" stroke="none" stroke-width="1" fill="none" fill-rule="evenodd">
        <g id="audio/microphone-muted_20_w" transform="translate(-3.000000, 0.000000)" fill="#F5483F">
            <g id="microphone-muted_20_w" transform="translate(3.000000, 0.000000)">
                <g id="icon">
                    <path d="M11.00025,12.5 C11.00025,14.43 9.43025,16 7.50025,16 C5.63525,16 4.11925,14.529 4.01925,12.687 L11.00025,5.707 L11.00025,12.5 Z M4.00025,4.5 C4.00025,2.57 5.57025,1 7.50025,1 C9.36525,1 10.88125,2.471 10.98125,4.312 L4.00025,11.293 L4.00025,4.5 Z M14.85325,1.146 C14.65825,0.951 14.34125,0.951 14.14625,1.146 L11.85925,3.434 C11.37825,1.466 9.61625,0 7.50025,0 C5.01525,0 3.00025,2.015 3.00025,4.5 L3.00025,12.293 L0.14625,15.146 C-0.04875,15.342 -0.04875,15.658 0.14625,15.854 C0.24425,15.951 0.37225,16 0.50025,16 C0.62725,16 0.75625,15.951 0.85325,15.854 L3.14125,13.566 C3.58325,15.376 5.11325,16.74 7.00325,16.95 C7.00325,16.956 7.00025,16.961 7.00025,16.967 L7.00025,19 L5.50025,19 C5.22525,19 5.00025,19.224 5.00025,19.5 C5.00025,19.776 5.22525,20 5.50025,20 L9.50025,20 C9.77625,20 10.00025,19.776 10.00025,19.5 C10.00025,19.224 9.77625,19 9.50025,19 L8.00025,19 L8.00025,16.967 C8.00025,16.961 7.99725,16.956 7.99725,16.95 C10.24525,16.699 12.00025,14.815 12.00025,12.5 L12.00025,4.707 L14.85325,1.854 C15.04825,1.658 15.04825,1.342 14.85325,1.146 Z" id="fill"></path>
                </g>
            </g>
        </g>
    </g>
</svg>