
<svg xmlns="http://www.w3.org/2000/svg" version="1.1" xmlns:xlink="http://www.w3.org/1999/xlink" preserveAspectRatio="none" x="0px" y="0px" width="26px" height="26px" viewBox="0 0 26 26">
<defs>
<g id="Layer1_0_FILL">
<path fill="#292929" stroke="none" d="
M 26 0
Q 25.95 2.15 23.6 4.8 22.1 6.4 19.05 8.8 16.9 10.5 16 11.4 15.3 12.2 15.2 12.4 15 12.7 15 12.9 15 13.15 15.2 13.45 15.4 13.85 16.05 14.45 16.85 15.3 19.05 17.05 22.4 19.75 23.6 21.05 25.95 23.55 26 25.8
L 26 0 Z"/>

<path fill="#262626" stroke="none" d="
M 25 0
L 24 0
Q 23.95 1.45 22.1 3.45 20.9 4.75 17.8 7.25 15.05 9.5 14.6 10 14 10.55 13.5 11.35 13 12.1 13 12.9 13 13.75 13.5 14.5 13.8 14.95 14.6 15.85 15.2 16.45 17.8 18.6 20.7 20.95 22.1 22.4 24 24.45 24 25.95
L 24 26 25 26 25 25.95
Q 24.95 24 22.85 21.75 21.7 20.45 18.4 17.85 16.2 16.05 15.35 15.2 15.35 15.15 15.3 15.15 14.6 14.45 14.35 14 13.95 13.4 14 12.9 13.95 12.45 14.35 11.85 14.55 11.55 15.25 10.75 15.3 10.75 15.3 10.7 16.2 9.75 18.4 8.05 21.4 5.7 22.85 4.15 24.9 1.85 25 0 Z"/>

<path fill="#3B3B3B" stroke="none" d="
M 26 0
L 25 0
Q 24.9 1.85 22.85 4.15 21.4 5.7 18.4 8.05 16.2 9.75 15.3 10.7 15.3 10.75 15.25 10.75 14.55 11.55 14.35 11.85 13.95 12.45 14 12.9 13.95 13.4 14.35 14 14.6 14.45 15.3 15.15 15.35 15.15 15.35 15.2 16.2 16.05 18.4 17.85 21.7 20.45 22.85 21.75 24.95 24 25 25.95
L 25 26 26 26 26 25.8
Q 25.95 23.55 23.6 21.05 22.4 19.75 19.05 17.05 16.85 15.3 16.05 14.45 15.4 13.85 15.2 13.45 15 13.15 15 12.9 15 12.7 15.2 12.4 15.3 12.2 16 11.4 16.9 10.5 19.05 8.8 22.1 6.4 23.6 4.8 25.95 2.15 26 0 Z"/>
</g>
</defs>

<g transform="matrix( 1, 0, 0, 1, 0,0) ">
<use xlink:href="#Layer1_0_FILL"/>
</g>
</svg>
