
<svg width="682px" height="682px" viewBox="0 0 682 682" version="1.1" xmlns="http://www.w3.org/2000/svg" xmlns:xlink="http://www.w3.org/1999/xlink">
    <g id="Symbols" stroke="none" stroke-width="1" fill="none" fill-rule="evenodd">
        <g id="mark">
            <g>
                <circle id="bottom" fill="#00BCEB" transform="translate(341.000000, 341.000000) rotate(-360.000000) translate(-341.000000, -341.000000) " cx="341" cy="341" r="341"></circle>
                <circle id="top" fill="#FFFFFF" transform="translate(341.000000, 341.000000) rotate(-90.000000) translate(-341.000000, -341.000000) " cx="341" cy="341" r="222.449219"></circle>
                <path d="M481.783985,151.879585 L481.793475,151.876847 C478.645235,133.549284 484.145861,114.026078 498.295351,99.8765876 C521.443831,76.7281077 558.974932,76.7281077 582.123412,99.8765876 C715.292196,233.045371 715.292196,448.954629 582.123412,582.123412 C448.954629,715.292196 233.045371,715.292196 99.8765876,582.123412 C76.7281077,558.974932 76.7281077,521.443831 99.8765876,498.295351 C114.251532,483.920407 134.172803,478.47214 152.751989,481.950552 L152.752605,481.949684 C241.12845,498.579378 335.926742,472.700728 404.313735,404.313735 C472.925969,335.701501 498.749385,240.503704 481.783985,151.879585 Z" id="shape" fill="#005072"></path>
                <path d="M546.570048,426.149908 C535.714577,452.386739 519.623011,476.967691 498.295351,498.295351 C476.967691,519.623011 452.386739,535.714577 426.149908,546.570048 C399.921683,557.446315 371.161868,563.449219 341,563.449219 C310.838132,563.449219 282.078317,557.446315 255.850097,546.57005 C229.613261,535.714577 205.032309,519.623011 183.704649,498.295351 C183.448998,498.0397 183.1941,497.783582 182.939954,497.527 C178.890956,493.438539 174.999429,489.193832 171.275258,484.802711 C254.187747,494.773846 340.683282,467.944188 404.313735,404.313735 C467.944188,340.683282 494.773846,254.187747 484.802711,171.275258 C489.193832,174.999429 493.438539,178.890956 497.526978,182.939988 C497.783582,183.1941 498.0397,183.448998 498.295351,183.704649 C519.623011,205.032309 535.714577,229.613261 546.570048,255.850092 C557.446315,282.078317 563.449219,310.838132 563.449219,341 C563.449219,371.161868 557.446315,399.921683 546.57005,426.149903 L546.570048,426.149908 Z" id="shape" fill="#6EBE4A"></path>
            </g>
        </g>
    </g>
</svg>