<svg width="48px" height="19px" viewBox="0 0 48 19" version="1.1" xmlns="http://www.w3.org/2000/svg" xmlns:xlink="http://www.w3.org/1999/xlink">
    <!-- Generator: Sketch 48.2 (47327) - http://www.bohemiancoding.com/sketch -->
    <desc>Created with Sketch.</desc>
    <defs>
        <rect id="path-1" x="0" y="0" width="48" height="19"></rect>
        <path d="M1.19983891,12 C6.69149002,12 12.4341128,0 15.1723849,0 C17.9106569,0 23.9364148,12 29.1449308,12 C34.5746918,12 -4.29181219,12 1.19983891,12 Z" id="path-3"></path>
        <filter x="-72.4%" y="-141.7%" width="244.8%" height="450.0%" filterUnits="objectBoundingBox" id="filter-4">
            <feMorphology radius="1" operator="dilate" in="SourceAlpha" result="shadowSpreadOuter1"></feMorphology>
            <feOffset dx="0" dy="4" in="shadowSpreadOuter1" result="shadowOffsetOuter1"></feOffset>
            <feGaussianBlur stdDeviation="6" in="shadowOffsetOuter1" result="shadowBlurOuter1"></feGaussianBlur>
            <feComposite in="shadowBlurOuter1" in2="SourceAlpha" operator="out" result="shadowBlurOuter1"></feComposite>
            <feColorMatrix values="0 0 0 0 0   0 0 0 0 0   0 0 0 0 0  0 0 0 0.16 0" type="matrix" in="shadowBlurOuter1"></feColorMatrix>
        </filter>
    </defs>
    <g id="Video-Centric" stroke="none" stroke-width="1" fill="none" fill-rule="evenodd">
        <g id="2.0" transform="translate(-773.000000, -212.000000)">
            <g id="object" transform="translate(773.000000, 212.000000)">
                <mask id="mask-2" fill="white">
                    <use xlink:href="#path-1"></use>
                </mask>
                <g id="Mask"></g>
                <g mask="url(#mask-2)">
                    <g transform="translate(9.000000, 7.000000)">
                        <g>
                            <g id="bg">
                                <use fill="black" fill-opacity="1" filter="url(#filter-4)" xlink:href="#path-3"></use>
                                <use fill="#FFFFFF" fill-rule="evenodd" xlink:href="#path-3"></use>
                                <path stroke-opacity="0.12" stroke="#000000" stroke-width="1" d="M1.19983891,11.5 C1.56294938,11.5 1.93748339,11.4394963 2.32498297,11.3194249 C4.20199619,10.73781 6.14608208,8.95262067 8.83227289,5.6826218 C9.10431726,5.35145219 9.37996542,5.01104417 9.73602749,4.5677482 C9.74171206,4.56067093 10.418029,3.7172419 10.6067435,3.48310509 C11.298138,2.62529663 11.7798755,2.04737487 12.2340479,1.54111256 C13.4607832,0.173680496 14.3432393,-0.5 15.1723849,-0.5 C15.999525,-0.5 16.8974286,0.174196821 18.1469141,1.53711679 C18.6137289,2.04631137 19.1139397,2.63355049 19.8095456,3.47925435 C19.7510201,3.40810015 21.1952544,5.17445775 21.6164404,5.67992382 C23.4995446,7.93984062 24.897055,9.38459359 26.2592661,10.355166 C27.3226849,11.1128496 28.2819619,11.5 29.1449308,11.5 C29.5672202,11.5 29.5672202,11.5 29.6655268,11.5 C29.6661627,11.5 29.6661627,11.5 29.6665039,11.5 C29.6666194,11.5 29.6666194,11.5 29.6666615,12.5 L29.6665991,12.5 C29.665962,12.5 29.665962,12.5 29.6641595,12.5 C29.6588144,12.5 29.6588144,12.5 29.6488711,12.5 C29.6221505,12.5 29.6221505,12.5 29.5775434,12.5 C29.4620055,12.5 29.4620055,12.5 29.2789712,12.5 C28.2228513,12.5 28.2228513,12.5 26.3027775,12.5 C21.4258852,12.5 21.4258852,12.5 15.1666667,12.5 C8.89870285,12.5 8.89870285,12.5 4.01886747,12.5 C2.09949795,12.5 2.09949795,12.5 1.0477087,12.5 C0.866097037,12.5 0.866097037,12.5 0.752265084,12.5 C0.708566151,12.5 0.708566151,12.5 0.682828841,12.5 C0.673391534,12.5 0.673391534,12.5 0.668571719,12.5 C0.667035535,12.5 0.667035535,12.5 0.666669609,11.5 L0.666743882,11.5 C0.666854614,11.5 0.666854614,11.5 0.667039067,11.5 C0.667518678,11.5 0.667518678,11.5 0.668294162,11.5 C0.771395237,11.5 0.771395237,11.5 1.19983891,11.5 Z"></path>
                            </g>
                        </g>
                    </g>
                </g>
            </g>
        </g>
    </g>
</svg>