
<svg width="16px" height="12px" viewBox="0 0 16 12" version="1.1" xmlns="http://www.w3.org/2000/svg" xmlns:xlink="http://www.w3.org/1999/xlink">
    <g id="V2-flow" stroke="none" stroke-width="1" fill="none" fill-rule="evenodd">
        <g id="AV-main-flows" transform="translate(-403.000000, -4245.000000)">
            <g id="Group-6" transform="translate(130.000000, 3656.000000)">
                <g id="pairing" transform="translate(0.000000, 577.000000)">
                    <g id="Group" transform="translate(273.000000, 10.000000)">
                        <g id="device-connection_16">
                            <rect id="bound" x="0" y="0" width="16" height="16"></rect>
                            <g id="icon" transform="translate(0.000000, 2.000000)" fill="#292929">
                                <path d="M14,0 C15.103,0 16,0.897 16,2 L16,10 C16,11.103 15.103,12 14,12 L9.5,12 C9.224,12 9,11.776 9,11.5 C9,11.224 9.224,11 9.5,11 L14,11 C14.551,11 15,10.552 15,10 L15,2 C15,1.448 14.551,1 14,1 L2,1 C1.449,1 1,1.448 1,2 L1,2.5 C1,2.776 0.776,3 0.5,3 C0.224,3 0,2.776 0,2.5 L0,2 C0,0.897 0.897,0 2,0 L14,0 Z M0.5,11 C0.776,11 1,11.224 1,11.5 C1,11.776 0.776,12 0.5,12 C0.224,12 0,11.776 0,11.5 C0,11.224 0.224,11 0.5,11 Z M0.5,8 C2.43,8 4,9.57 4,11.5 C4,11.776 3.776,12 3.5,12 C3.224,12 3,11.776 3,11.5 C3,10.121 1.878,9 0.5,9 C0.224,9 0,8.776 0,8.5 C0,8.224 0.224,8 0.5,8 Z M0.5,5 C4.084,5 7,7.916 7,11.5 C7,11.776 6.776,12 6.5,12 C6.224,12 6,11.776 6,11.5 C6,8.468 3.533,6 0.5,6 C0.224,6 0,5.776 0,5.5 C0,5.224 0.224,5 0.5,5 Z" id="fill"></path>
                            </g>
                        </g>
                    </g>
                </g>
            </g>
        </g>
    </g>
</svg>