
<svg width="20px" height="16px" viewBox="0 0 20 16" version="1.1" xmlns="http://www.w3.org/2000/svg" xmlns:xlink="http://www.w3.org/1999/xlink">
    <!-- Generator: Sketch 48.2 (47327) - http://www.bohemiancoding.com/sketch -->
    <desc>Created with Sketch.</desc>
    <defs></defs>
    <g id="Video-Centric" stroke="none" stroke-width="1" fill="none" fill-rule="evenodd">
        <g id="video/camera-muted_20_w" transform="translate(0.000000, -2.000000)" fill="#FFFFFF">
            <g id="camera-muted_20_w" transform="translate(0.000000, 2.000000)">
                <g id="icon">
                    <path d="M19.0050447,11.855 C19.0050447,11.936 18.959093,11.972 18.9191349,11.989 C18.8701863,12.011 18.8192398,12.001 18.7772839,11.959 L14.9842665,8.107 L14.9842665,7.89 L18.7772839,4.041 C18.8192398,3.999 18.8691874,3.987 18.9191349,4.01 C18.959093,4.027 19.0050447,4.063 19.0050447,4.144 L19.0050447,11.855 Z M13.9853154,12.502 C13.9853154,13.33 13.3130213,14.002 12.4868888,14.002 L2.7231407,14.002 L13.8414665,2.872 C13.9313721,3.064 13.9853154,3.277 13.9853154,3.502 L13.9853154,12.502 Z M1.60831127,13.704 C1.24069727,13.43 0.998951101,12.996 0.998951101,12.502 L0.998951101,3.502 C0.998951101,2.675 1.67024624,2.002 2.49737775,2.002 L12.4868888,2.002 C12.7216423,2.002 12.9424105,2.062 13.1412017,2.16 L1.60831127,13.704 Z M19.2967384,3.085 C18.8731832,2.91 18.3926877,3.008 18.0700265,3.337 L14.9842665,6.47 L14.9842665,3.502 C14.9842665,2.998 14.831427,2.53 14.5746966,2.138 L15.8583487,0.854 C16.0531442,0.658 16.0531442,0.342 15.8583487,0.147 C15.6625543,-0.049 15.3468858,-0.049 15.1520903,0.147 L13.8744318,1.425 C13.4778483,1.159 13.0003496,1.002 12.4868888,1.002 L2.49737775,1.002 C1.11782628,1.002 0,2.122 0,3.502 L0,12.502 C0,13.272 0.354627641,13.953 0.902052845,14.411 L0.167823785,15.147 C-0.0279706308,15.342 -0.0279706308,15.658 0.167823785,15.854 C0.264722042,15.951 0.392587783,16 0.520453524,16 C0.648319265,16 0.776185006,15.951 0.874082214,15.854 L1.82608261,14.9 C2.04185605,14.96 2.26262424,15.002 2.49737775,15.002 L12.4868888,15.002 C13.8654413,15.002 14.9842665,13.883 14.9842665,12.502 L14.9842665,9.53 L18.0700265,12.662 C18.2857999,12.882 18.5744968,12.999 18.8691874,12.999 C19.0130363,12.999 19.1568853,12.971 19.2967384,12.914 C19.7242895,12.738 20,12.322 20,11.855 L20,4.144 C20,3.677 19.7242895,3.261 19.2967384,3.085 Z" id="fill"></path>
                </g>
            </g>
        </g>
    </g>
</svg>