<?xml version="1.0" encoding="UTF-8"?>
<svg width="32px" height="32px" viewBox="0 0 32 32" version="1.1" xmlns="http://www.w3.org/2000/svg" xmlns:xlink="http://www.w3.org/1999/xlink">
    <!-- Generator: Sketch 47.1 (45422) - http://www.bohemiancoding.com/sketch -->
    <title>+user</title>
    <desc>Created with Sketch.</desc>
    <defs></defs>
    <g id="Symbols" stroke="none" stroke-width="1" fill="none" fill-rule="evenodd">
        <g id="+user" fill="#000000">
            <g id="button">
                <circle id="bg" fill-opacity="0.12" cx="16" cy="16" r="16"></circle>
                <g id="common-actions/plus_12" transform="translate(11.000000, 11.000000)">
                    <g id="icon">
                        <path d="M10.5,5 L6,5 L6,0.5 C6,0.224 5.776,0 5.5,0 C5.224,0 5,0.224 5,0.5 L5,5 L0.5,5 C0.224,5 0,5.224 0,5.5 C0,5.776 0.224,6 0.5,6 L5,6 L5,10.5 C5,10.776 5.224,11 5.5,11 C5.776,11 6,10.776 6,10.5 L6,6 L10.5,6 C10.776,6 11,5.776 11,5.5 C11,5.224 10.776,5 10.5,5" id="fill"></path>
                    </g>
                </g>
            </g>
        </g>
    </g>
</svg>