
<svg width="6px" height="10px" viewBox="0 0 6 10" version="1.1" xmlns="http://www.w3.org/2000/svg" xmlns:xlink="http://www.w3.org/1999/xlink">
    <!-- Generator: Sketch 48.2 (47327) - http://www.bohemiancoding.com/sketch -->
    <desc>Created with Sketch.</desc>
    <defs></defs>
    <g id="Page-1" stroke="none" stroke-width="1" fill="none" fill-rule="evenodd">
        <g id="Meeting-List-8.0" transform="translate(-1189.000000, -167.000000)" fill="#000000">
            <g id="App" transform="translate(208.000000, 128.000000)">
                <g id="content" transform="translate(320.000000, 0.000000)">
                    <g id="navigation/arrow-right_12" transform="translate(658.000000, 38.000000)">
                        <g id="arrow-right_12" transform="translate(3.000000, 1.000000)">
                            <g id="icon" transform="translate(3.000000, 5.000000) scale(-1, 1) translate(-3.000000, -5.000000) ">
                                <path d="M0.500700764,9.99959 C0.363700764,9.99959 0.227700764,9.94359 0.128700764,9.83459 C-0.0562992361,9.62859 -0.0392992361,9.31259 0.165700764,9.12759 L4.75270076,4.99959 L0.165700764,0.87159 C-0.0392992361,0.68659 -0.0562992361,0.37059 0.128700764,0.16459 C0.313700764,-0.03941 0.629700764,-0.05641 0.834700764,0.12759 L5.83470076,4.62759 C5.94070076,4.72359 6.00070076,4.85759 6.00070076,4.99959 C6.00070076,5.14159 5.94070076,5.27559 5.83470076,5.37159 L0.834700764,9.87159 C0.739700764,9.95759 0.619700764,9.99959 0.500700764,9.99959" id="fill" transform="translate(3.000476, 4.999738) scale(-1, 1) translate(-3.000476, -4.999738) "></path>
                            </g>
                        </g>
                    </g>
                </g>
            </g>
        </g>
    </g>
</svg>