
<svg width="32px" height="32px" viewBox="0 0 32 32" version="1.1" xmlns="http://www.w3.org/2000/svg" xmlns:xlink="http://www.w3.org/1999/xlink">
    <!-- Generator: Sketch 51 (57462) - http://www.bohemiancoding.com/sketch -->
    <desc>Created with Sketch.</desc>
    <defs></defs>
    <g id="Page-1" stroke="none" stroke-width="1" fill="none" fill-rule="evenodd">
        <g id="Group">
            <circle id="bg" fill="#FFFFFF" cx="16" cy="16" r="16"></circle>
            <g id="activities/chat-active_14_b1" transform="translate(9.000000, 9.000000)" fill="#07C1E4">
                <g id="chat_14_b1">
                    <path d="M0.1715,13.8296667 C0.0233333333,13.6815 -0.0338333333,13.4668333 0.0198333333,13.2661667 L0.821333333,10.2783333 C0.2835,9.268 0,8.13983333 0,7 C0,3.14066667 3.14066667,0 7,0 C10.8605,0 14,3.14066667 14,7 C14,10.8605 10.8605,14 7,14 C5.86133333,14 4.73316667,13.7176667 3.72166667,13.1798333 L0.735,13.9801667 C0.684833333,13.9941667 0.634666667,14 0.583333333,14 C0.431666667,14 0.282333333,13.9405 0.1715,13.8296667 Z" id="fill" fill-rule="nonzero"></path>
                </g>
            </g>
        </g>
    </g>
</svg>