<?xml version="1.0" encoding="utf-8"?>
<!-- Generator: Adobe Illustrator 20.1.0, SVG Export Plug-In . SVG Version: 6.00 Build 0)  -->
<svg version="1.1" id="Layer_1" xmlns="http://www.w3.org/2000/svg" xmlns:xlink="http://www.w3.org/1999/xlink" x="0px" y="0px"
	 viewBox="0 0 12 14" style="enable-background:new 0 0 12 14;" xml:space="preserve">
<style type="text/css">
	.st0{clip-path:url(#svg_ico_flag_off);fill:#454545;}
</style>
<g>
	<defs>
		<path id="svg_ico_flag_off_1" d="M11.9,7.8L9.4,4.5l2.5-3.3C12,0.9,12,0.7,11.9,0.4C11.8,0.2,11.6,0,11.3,0H0.5C0.2,0,0,0.2,0,0.5v13
			C0,13.8,0.2,14,0.5,14S1,13.8,1,13.5V9h10.3c0.3,0,0.5-0.2,0.6-0.4C12,8.3,12,8.1,11.9,7.8z M1,8V1h9.7L8.5,4.1
			c-0.2,0.3-0.2,0.6,0,0.9L10.7,8H1z"/>
	</defs>
	<clipPath id="svg_ico_flag_off">
		<use xlink:href="#svg_ico_flag_off_1"  style="overflow:visible;"/>
	</clipPath>
	<rect x="-5" y="-5" class="st0" width="22" height="24"/>
</g>
</svg>
