
<svg width="12px" height="12px" viewBox="0 0 12 12" version="1.1" xmlns="http://www.w3.org/2000/svg" xmlns:xlink="http://www.w3.org/1999/xlink">
    <!-- Generator: Sketch 51 (57462) - http://www.bohemiancoding.com/sketch -->
    <desc>Created with Sketch.</desc>
    <defs></defs>
    <g id="Activity-menu-(WIP)" stroke="none" stroke-width="1" fill="none" fill-rule="evenodd">
        <g id="Collapse-btn-1.0" transform="translate(-1171.000000, -154.000000)" fill="#000000">
            <g id="App" transform="translate(208.000000, 128.000000)">
                <g id="content" transform="translate(388.000000, 0.000000)">
                    <g id="top-bar">
                        <g id="button" transform="translate(563.000000, 16.000000)">
                            <g id="activities/people_12" transform="translate(12.000000, 10.000000)">
                                <g id="people_12">
                                    <path d="M1.0492,11 L1.3982,9.645 C1.6482,8.676 2.5462,8 3.5822,8 L8.4182,8 C9.4542,8 10.3522,8.676 10.6022,9.645 L10.9512,11 L1.0492,11 Z M3.0002,4 C3.0002,2.346 4.3462,1 6.0002,1 C7.6542,1 9.0002,2.346 9.0002,4 C9.0002,5.654 7.6542,7 6.0002,7 C4.3462,7 3.0002,5.654 3.0002,4 Z M11.9742,10.961 L11.5702,9.395 C11.2212,8.043 10.0132,7.092 8.6002,7.015 C9.4502,6.281 10.0002,5.208 10.0002,4 C10.0002,1.794 8.2052,0 6.0002,0 C3.7942,0 2.0002,1.794 2.0002,4 C2.0002,5.208 2.5502,6.281 3.4002,7.015 C1.9872,7.092 0.7792,8.043 0.4302,9.395 L0.0262,10.961 C-0.0378,11.21 0.0162,11.47 0.1742,11.673 C0.3352,11.881 0.5792,12 0.8442,12 L11.1562,12 C11.4212,12 11.6652,11.881 11.8262,11.673 C11.9842,11.47 12.0382,11.21 11.9742,10.961 Z" id="fill"></path>
                                </g>
                            </g>
                        </g>
                    </g>
                </g>
            </g>
        </g>
    </g>
</svg>