
<svg width="16px" height="16px" viewBox="0 0 16 16" version="1.1" xmlns="http://www.w3.org/2000/svg" xmlns:xlink="http://www.w3.org/1999/xlink">
    <!-- Generator: Sketch 49.2 (51160) - http://www.bohemiancoding.com/sketch -->
    <desc>Created with Sketch.</desc>
    <defs></defs>
    <g id="Symbols" stroke="none" stroke-width="1" fill="none" fill-rule="evenodd" opacity="0.6">
        <g id="content" transform="translate(-100.000000, -506.000000)" fill="#000000">
            <g id="chat/emoticons_16">
                <g transform="translate(100.000000, 506.000000)">
                    <g id="emoticons_16">
                        <g id="icon">
                            <path d="M8,0 C12.411,0 16,3.589 16,8 C16,12.411 12.411,16 8,16 C3.589,16 0,12.411 0,8 C0,3.589 3.589,0 8,0 Z M8,15 C11.86,15 15,11.86 15,8 C15,4.14 11.86,1 8,1 C4.14,1 1,4.14 1,8 C1,11.86 4.14,15 8,15 Z M11.3262,10.2227 C11.4792,9.9937 11.7902,9.9307 12.0202,10.0847 C12.2492,10.2397 12.3102,10.5497 12.1572,10.7787 C11.2262,12.1697 9.6722,12.9997 8.0002,12.9997 C6.3292,12.9997 4.7752,12.1697 3.8442,10.7807 C3.6902,10.5507 3.7512,10.2407 3.9802,10.0867 C4.2102,9.9327 4.5202,9.9937 4.6742,10.2237 C5.4202,11.3357 6.6632,11.9997 8.0002,11.9997 C9.3372,11.9997 10.5812,11.3357 11.3262,10.2227 Z M5.0044,7.9805 C4.7414,7.9805 4.4854,7.8745 4.2994,7.6885 C4.1134,7.5025 4.0064,7.2465 4.0064,6.9835 C4.0064,6.7205 4.1134,6.4645 4.2994,6.2795 C4.6684,5.9075 5.3364,5.9065 5.7094,6.2795 C5.8944,6.4645 6.0004,6.7215 6.0004,6.9835 C6.0004,7.2455 5.8944,7.5015 5.7094,7.6885 C5.5224,7.8745 5.2654,7.9805 5.0044,7.9805 Z M10.998,7.9805 C10.735,7.9805 10.478,7.8745 10.293,7.6885 C10.106,7.5025 10,7.2465 10,6.9835 C10,6.7205 10.106,6.4645 10.293,6.2795 C10.662,5.9075 11.33,5.9065 11.702,6.2795 C11.888,6.4645 11.994,6.7215 11.994,6.9835 C11.994,7.2455 11.888,7.5015 11.702,7.6885 C11.516,7.8745 11.259,7.9805 10.998,7.9805 Z" id="fill"></path>
                        </g>
                    </g>
                </g>
            </g>
        </g>
    </g>
</svg>