
<svg width="9px" height="12px" viewBox="0 0 9 12" version="1.1" xmlns="http://www.w3.org/2000/svg" xmlns:xlink="http://www.w3.org/1999/xlink">
    <!-- Generator: Sketch 49.2 (51160) - http://www.bohemiancoding.com/sketch -->
    <desc>Created with Sketch.</desc>
    <defs></defs>
    <g id="Roster-Refresh" stroke="none" stroke-width="1" fill="none" fill-rule="evenodd" opacity="0.600000024">
        <g id="Roster-Refresh-4.0" transform="translate(-1204.000000, -278.000000)" fill="#000000">
            <g id="App" transform="translate(208.000000, 128.000000)">
                <g id="roster" transform="translate(744.000000, 0.000000)">
                    <g id="list" transform="translate(0.000000, 96.000000)">
                        <g id="audio/microphone-muted_12" transform="translate(250.000000, 54.000000)">
                            <g id="microphone-muted_12" transform="translate(2.000000, 0.000000)">
                                <g id="icon">
                                    <path d="M3.019,7.6875 L6,4.7075 L6,7.5005 C6,8.3275 5.327,8.9995 4.5,8.9995 C3.737,8.9995 3.113,8.4255 3.019,7.6875 Z M3,2.5005 C3,1.6725 3.673,1.0005 4.5,1.0005 C5.327,1.0005 6,1.6725 6,2.5005 L6,3.2925 L3,6.2925 L3,2.5005 Z M7,7.5005 L7,3.7075 L8.822,1.8845 C9.018,1.6895 9.018,1.3735 8.822,1.1775 C8.627,0.9825 8.311,0.9825 8.115,1.1775 L6.981,2.3125 C6.883,1.0205 5.816,0.0005 4.5,0.0005 C3.119,0.0005 2,1.1195 2,2.5005 L2,7.2925 L0.146,9.1465 C-0.049,9.3415 -0.049,9.6585 0.146,9.8535 C0.244,9.9515 0.372,10.0005 0.5,10.0005 C0.628,10.0005 0.756,9.9515 0.853,9.8535 L2.209,8.4975 C2.531,9.2335 3.193,9.7855 3.999,9.9495 L3.999,11.0005 L2.5,11.0005 C2.224,11.0005 2,11.2235 2,11.5005 C2,11.7765 2.224,11.9995 2.5,11.9995 L6.5,11.9995 C6.777,11.9995 7,11.7765 7,11.5005 C7,11.2235 6.777,11.0005 6.5,11.0005 L4.999,11.0005 L4.999,9.9495 C6.141,9.7185 7,8.7085 7,7.5005 Z" id="fill"></path>
                                </g>
                            </g>
                        </g>
                    </g>
                </g>
            </g>
        </g>
    </g>
</svg>