<svg width="22px" height="22px" viewBox="0 0 22 22" version="1.1" xmlns="http://www.w3.org/2000/svg" xmlns:xlink="http://www.w3.org/1999/xlink">
    <!-- Generator: Sketch 51 (57462) - http://www.bohemiancoding.com/sketch -->
    <desc>Created with Sketch.</desc>
    <defs></defs>
    <g id="Activity-menu-(WIP)" stroke="none" stroke-width="1" fill="none" fill-rule="evenodd">
        <g id="Activity-menu-1.0-(v2)" transform="translate(-231.000000, -254.000000)" fill="#69D067">
            <g id="App" transform="translate(208.000000, 128.000000)">
                <g id="activities/handset_24_w" transform="translate(22.000000, 125.000000)">
                    <g id="handset_24_w" transform="translate(0.000000, 1.000000)">
                        <path d="M3.359,1 C2.935,1 2.544,1.192 2.283,1.526 C2.028,1.855 1.939,2.272 2.041,2.673 C2.946,6.234 5.516,10.329 9.093,13.906 C12.671,17.483 16.765,20.054 20.327,20.959 C20.723,21.058 21.144,20.972 21.473,20.717 C21.807,20.456 22,20.064 22,19.641 L22,17.218 C22,16.43 21.532,15.72 20.807,15.407 L18.68,14.493 C17.98,14.191 17.183,14.215 16.501,14.556 L15.289,15.162 C14.681,15.463 13.948,15.384 13.419,14.957 C11.343,13.292 9.375,11.336 8.016,9.59 C7.603,9.058 7.529,8.33 7.827,7.734 L8.444,6.5 C8.786,5.816 8.809,5.022 8.507,4.32 L7.592,2.191 C7.28,1.468 6.57,1 5.782,1 L3.359,1 Z M20.657,22 C20.465,22 20.272,21.977 20.081,21.928 C16.349,20.98 12.087,18.313 8.386,14.613 C4.686,10.913 2.02,6.65 1.072,2.919 C0.893,2.218 1.047,1.486 1.494,0.912 C1.945,0.333 2.625,0 3.359,0 L5.782,0 C6.969,0 8.041,0.705 8.51,1.796 L9.425,3.926 C9.844,4.898 9.813,6 9.338,6.947 L8.721,8.182 C8.592,8.439 8.625,8.743 8.805,8.977 C10.118,10.663 12.028,12.559 14.045,14.178 C14.271,14.359 14.583,14.395 14.842,14.268 L16.053,13.661 C17.001,13.189 18.102,13.156 19.075,13.573 L19.075,13.574 L21.203,14.489 C22.295,14.959 23,16.03 23,17.218 L23,19.641 C23,20.375 22.667,21.055 22.088,21.506 C21.67,21.83 21.169,22 20.657,22 L20.657,22 Z" id="fill"></path>
                    </g>
                </g>
            </g>
        </g>
    </g>
</svg>