<svg width="24px" height="24px" viewBox="0 0 24 24" version="1.1" xmlns="http://www.w3.org/2000/svg" xmlns:xlink="http://www.w3.org/1999/xlink">
    <!-- Generator: Sketch 48.2 (47327) - http://www.bohemiancoding.com/sketch -->
    <desc>Created with Sketch.</desc>
    <defs></defs>
    <g id="Space-info" stroke="none" stroke-width="1" fill="none" fill-rule="evenodd">
        <g id="Space-info-1.0" transform="translate(-538.000000, -446.000000)">
            <g id="Dialog" transform="translate(208.000000, 128.000000)">
                <g id="dialog" transform="translate(302.000000, 68.000000)">
                    <g id="list" transform="translate(16.000000, 206.000000)">
                        <g transform="translate(0.000000, 32.000000)" id="item">
                            <g>
                                <g transform="translate(12.000000, 12.000000)">
                                    <g id="button">
                                        <circle id="bg" fill="#07C1E4" cx="12" cy="12" r="12"></circle>
                                        <g id="common-actions/plus_8_w" transform="translate(8.000000, 8.000000)" fill="#FFFFFF">
                                            <g id="plus_8_w" transform="translate(1.000000, 1.000000)">
                                                <g id="icon">
                                                    <path d="M4,3 L6.5,3 C6.77614237,3 7,3.22385763 7,3.5 C7,3.77614237 6.77614237,4 6.5,4 L4,4 L4,6.5 C4,6.77614237 3.77614237,7 3.5,7 C3.22385763,7 3,6.77614237 3,6.5 L3,4 L0.5,4 C0.223857625,4 3.38176876e-17,3.77614237 0,3.5 C-3.38176876e-17,3.22385763 0.223857625,3 0.5,3 L3,3 L3,0.5 C3,0.223857625 3.22385763,5.07265313e-17 3.5,0 C3.77614237,-5.07265313e-17 4,0.223857625 4,0.5 L4,3 Z" id="fill"></path>
                                                </g>
                                            </g>
                                        </g>
                                    </g>
                                </g>
                            </g>
                        </g>
                    </g>
                </g>
            </g>
        </g>
    </g>
</svg>