
<svg width="28px" height="28px" viewBox="0 0 28 28" version="1.1" xmlns="http://www.w3.org/2000/svg" xmlns:xlink="http://www.w3.org/1999/xlink">
    <!-- Generator: Sketch 51 (57462) - http://www.bohemiancoding.com/sketch -->
    <desc>Created with Sketch.</desc>
    <defs></defs>
    <g id="Prototype-(USE)" stroke="none" stroke-width="1" fill="none" fill-rule="evenodd">
        <g id="Open-word-1.0" transform="translate(-900.000000, -496.000000)">
            <g id="App" transform="translate(208.000000, 128.000000)">
                <g id="content" transform="translate(388.000000, 0.000000)">
                    <g id="light/buttons/circle/dark-grey/32/normal" transform="translate(304.000000, 368.000000)">
                        <circle id="circle" fill="#333333" cx="14" cy="14" r="14"></circle>
                        <g id="activities/chat_10_w" transform="translate(8.000000, 8.000000)" fill="#FFFFFF" stroke-width="1">
                            <g id="chat_10_w">
                                <path d="M6,10.8 C5.1636,10.8 4.3356,10.5768 3.6048,10.1556 C3.5136,10.1016 3.4092,10.0752 3.3048,10.0752 C3.2532,10.0752 3.2004,10.0824 3.15,10.0956 L1.4484,10.5516 L1.9044,8.85 C1.9452,8.6964 1.9248,8.532 1.8444,8.3952 C1.4232,7.6644 1.2,6.8364 1.2,6 C1.2,3.3528 3.3528,1.2 6,1.2 C8.6472,1.2 10.8,3.3528 10.8,6 C10.8,8.6472 8.6472,10.8 6,10.8 M6,0 C2.6916,0 0,2.6916 0,6 C0,6.9624 0.2352,7.9152 0.6828,8.772 L0.0204,11.2452 C-0.0348,11.4516 0.024,11.6724 0.1752,11.8248 C0.2904,11.9388 0.4428,12 0.6,12 C0.6516,12 0.7032,11.994 0.7548,11.9796 L3.228,11.3172 C4.0848,11.7648 5.0376,12 6,12 C9.3084,12 12,9.3084 12,6 C12,2.6916 9.3084,0 6,0" id="fill"></path>
                            </g>
                        </g>
                    </g>
                </g>
            </g>
        </g>
    </g>
</svg>