
<svg width="10px" height="10px" viewBox="0 0 10 10" version="1.1" xmlns="http://www.w3.org/2000/svg" xmlns:xlink="http://www.w3.org/1999/xlink">
    <!-- Generator: Sketch 49.3 (51167) - http://www.bohemiancoding.com/sketch -->
    <desc>Created with Sketch.</desc>
    <defs></defs>
    <g id="Exploration-(reduced-top-bar-height)-Copy" stroke="none" stroke-width="1" fill="none" fill-rule="evenodd">
        <g id="Chat-1.0" transform="translate(-988.000000, -211.000000)" fill="#FFFFFF">
            <g id="App" transform="translate(208.000000, 128.000000)">
                <g id="content" transform="translate(320.000000, 0.000000)">
                    <g id="multistream">
                        <g id="avatars" transform="translate(220.000000, 64.000000)">
                            <g id="button" transform="translate(216.000000, 0.000000)">
                                <g id="label" transform="translate(14.000000, 15.000000)">
                                    <g id="activities/people_10_w" transform="translate(10.000000, 4.000000)">
                                        <g id="people_10_w">
                                            <g id="icon">
                                                <path d="M1.03733256,9 L1.32833256,7.623 C1.52933256,6.667 2.22633256,6 3.02133256,6 L6.97833256,6 C7.77433256,6 8.47033256,6.667 8.67233256,7.623 L8.96233256,9 L1.03733256,9 Z M5.00033256,1 C6.10233256,1 7.00033256,1.897 7.00033256,3 C7.00033256,4.103 6.10233256,5 5.00033256,5 C3.89733256,5 3.00033256,4.103 3.00033256,3 C3.00033256,1.897 3.89733256,1 5.00033256,1 Z M9.65033256,7.417 C9.36833256,6.079 8.37733256,5.131 7.20233256,5.021 C7.69333256,4.487 8.00033256,3.781 8.00033256,3 C8.00033256,1.346 6.65433256,0 5.00033256,0 C3.34533256,0 2.00033256,1.346 2.00033256,3 C2.00033256,3.781 2.30733256,4.487 2.79833256,5.021 C1.62233256,5.131 0.631332557,6.079 0.349332557,7.417 L0.0193325574,8.982 C-0.0356674426,9.241 0.0283325574,9.514 0.190332557,9.713 C0.338332557,9.896 0.553332557,10 0.781332557,10 L9.21833256,10 C9.44633256,10 9.66233256,9.896 9.80933256,9.713 C9.97133256,9.514 10.0353326,9.241 9.98133256,8.983 L9.65033256,7.417 Z" id="fill"></path>
                                            </g>
                                        </g>
                                    </g>
                                </g>
                            </g>
                        </g>
                    </g>
                </g>
            </g>
        </g>
    </g>
</svg>