
<svg width="12px" height="12px" viewBox="0 0 12 12" version="1.1" xmlns="http://www.w3.org/2000/svg" xmlns:xlink="http://www.w3.org/1999/xlink">
    <!-- Generator: Sketch 49.2 (51160) - http://www.bohemiancoding.com/sketch -->
    <desc>Created with Sketch.</desc>
    <defs></defs>
    <g id="Roster-Refresh" stroke="none" stroke-width="1" fill="none" fill-rule="evenodd" opacity="0.6">
        <g id="Roster-Refresh-1.0" transform="translate(-1202.000000, -422.000000)" fill="#000000">
            <g id="App" transform="translate(208.000000, 128.000000)">
                <g id="roster" transform="translate(744.000000, 0.000000)">
                    <g id="list" transform="translate(0.000000, 96.000000)">
                        <g id="audio/speaker-disconnected_12" transform="translate(250.000000, 198.000000)">
                            <g id="speaker-disconnected_12">
                                <g id="icon">
                                    <path d="M6,10.499 L2.862,7.159 C2.768,7.06 2.636,7.003 2.498,7.003 L1.5,7.003 C1.224,7.003 1,6.777 1,6.503 L1,5.497 C1,5.222 1.224,4.997 1.499,4.997 L2.497,4.999 L2.498,4.999 C2.636,4.999 2.768,4.941 2.862,4.841 L6,1.5 L6,10.499 Z M6.585,0.051 C6.837,0.155 7,0.398 7,0.671 L7,11.327 C7,11.601 6.837,11.844 6.585,11.948 C6.501,11.983 6.414,12 6.327,12 C6.153,12 5.982,11.932 5.853,11.803 L2.282,8 L1.501,8.002 C0.673,8.002 0,7.329 0,6.503 L0,5.497 C0,4.67 0.673,3.997 1.5,3.997 L2.282,3.997 L5.842,0.207 C6.045,0.003 6.333,-0.053 6.585,0.051 Z M10.707,6.001 L11.853,7.147 C11.951,7.244 12,7.372 12,7.5 C12,7.628 11.951,7.756 11.853,7.854 C11.756,7.951 11.628,8 11.5,8 C11.372,8 11.244,7.951 11.146,7.854 L10,6.708 L8.853,7.854 C8.756,7.951 8.628,8 8.5,8 C8.372,8 8.244,7.951 8.146,7.854 C7.951,7.658 7.951,7.342 8.146,7.147 L9.293,6.001 L8.146,4.854 C7.951,4.659 7.951,4.342 8.146,4.147 C8.342,3.952 8.658,3.952 8.853,4.147 L10,5.293 L11.146,4.147 C11.342,3.952 11.658,3.952 11.853,4.147 C11.951,4.245 12,4.373 12,4.501 C12,4.628 11.951,4.756 11.853,4.854 L10.707,6.001 Z" id="fill"></path>
                                </g>
                            </g>
                        </g>
                    </g>
                </g>
            </g>
        </g>
    </g>
</svg>