
<svg width="14px" height="14px" viewBox="0 0 14 14" version="1.1" xmlns="http://www.w3.org/2000/svg" xmlns:xlink="http://www.w3.org/1999/xlink">
    <!-- Generator: Sketch 49.2 (51160) - http://www.bohemiancoding.com/sketch -->
    <desc>Created with Sketch.</desc>
    <defs></defs>
    <g id="Symbols" stroke="none" stroke-width="1" fill="none" fill-rule="evenodd" opacity="0.6">
        <g id="content" transform="translate(-73.000000, -507.000000)" fill="#000000">
            <g id="chat/markdown_16">
                <g transform="translate(72.000000, 506.000000)">
                    <g id="markdown_16" transform="translate(1.000000, 1.000000)">
                        <g id="icon">
                            <path d="M13,12.0557 C13,12.5767 12.576,12.9997 12.056,12.9997 L1.944,12.9997 C1.424,12.9997 1,12.5767 1,12.0557 L1,1.9997 C1,1.4487 1.448,0.9997 2,0.9997 L12.056,0.9997 C12.576,0.9997 13,1.4237 13,1.9447 L13,12.0557 Z M12.056,-0.0003 C13.13,-0.0003 14,0.8707 14,1.9447 L14,12.0557 C14,13.1297 13.13,13.9997 12.056,13.9997 L1.944,13.9997 C0.87,13.9997 0,13.1297 0,12.0557 L0,1.9997 C0,0.8957 0.896,-0.0003 2,-0.0003 L12.056,-0.0003 Z M10.1465,8.1465 L10.0005,8.2925 L10.0005,4.5005 C10.0005,4.4345 9.9865,4.3695 9.9605,4.3085 C9.9445,4.2685 9.9165,4.2345 9.8895,4.2005 C9.8755,4.1835 9.8695,4.1625 9.8535,4.1465 C9.8375,4.1305 9.8175,4.1245 9.7995,4.1105 C9.7655,4.0845 9.7325,4.0555 9.6915,4.0395 C9.5695,3.9885 9.4305,3.9885 9.3085,4.0395 C9.2675,4.0555 9.2345,4.0845 9.2005,4.1105 C9.1825,4.1245 9.1625,4.1305 9.1465,4.1465 L7.0005,6.2925 L4.8535,4.1465 C4.8375,4.1305 4.8175,4.1245 4.7995,4.1105 C4.7655,4.0845 4.7325,4.0555 4.6915,4.0395 C4.5695,3.9885 4.4305,3.9885 4.3085,4.0395 C4.2675,4.0555 4.2345,4.0845 4.2005,4.1105 C4.1825,4.1245 4.1625,4.1305 4.1465,4.1465 C4.1305,4.1625 4.1245,4.1835 4.1105,4.2005 C4.0845,4.2345 4.0555,4.2685 4.0395,4.3085 C4.0135,4.3695 4.0005,4.4345 4.0005,4.5005 L4.0005,9.5005 C4.0005,9.7745 4.2245,10.0005 4.5005,10.0005 C4.7755,10.0005 5.0005,9.7745 5.0005,9.5005 L5.0005,5.7075 L6.6465,7.3535 C6.7445,7.4515 6.8725,7.5005 7.0005,7.5005 C7.1275,7.5005 7.2555,7.4515 7.3535,7.3535 L9.0005,5.7075 L9.0005,8.2925 L8.8535,8.1465 C8.6585,7.9515 8.3415,7.9515 8.1465,8.1465 C7.9515,8.3415 7.9515,8.6585 8.1465,8.8535 L9.1465,9.8535 C9.1635,9.8705 9.1855,9.8775 9.2045,9.8915 C9.2375,9.9175 9.2695,9.9445 9.3085,9.9605 C9.3705,9.9865 9.4345,10.0005 9.5005,10.0005 C9.5655,10.0005 9.6295,9.9865 9.6915,9.9605 C9.7305,9.9445 9.7625,9.9175 9.7955,9.8915 C9.8145,9.8775 9.8365,9.8705 9.8535,9.8535 L10.8535,8.8535 C11.0485,8.6585 11.0485,8.3415 10.8535,8.1465 C10.6585,7.9515 10.3415,7.9515 10.1465,8.1465 Z" id="fill"></path>
                        </g>
                    </g>
                </g>
            </g>
        </g>
    </g>
</svg>