
<svg width="28px" height="28px" viewBox="0 0 28 28" version="1.1" xmlns="http://www.w3.org/2000/svg" xmlns:xlink="http://www.w3.org/1999/xlink">
    <!-- Generator: Sketch 49.3 (51167) - http://www.bohemiancoding.com/sketch -->
    <desc>Created with Sketch.</desc>
    <defs></defs>
    <g id="Page-1" stroke="none" stroke-width="1" fill="none" fill-rule="evenodd">
        <g id="1.2" transform="translate(-932.000000, -532.000000)">
            <g id="App" transform="translate(208.000000, 120.000000)">
                <g id="content" transform="translate(412.000000, -94.000000)">
                    <g id="chat">
                        <g id="message" transform="translate(16.000000, 340.000000)">
                            <g id="img" transform="translate(48.000000, 26.000000)">
                                <g id="hover" transform="translate(0.000000, 128.000000)">
                                    <g id="dark/button/circle/grey/28/normal" transform="translate(248.000000, 12.000000)">
                                        <circle id="circle" fill="#333333" cx="14" cy="14" r="14"></circle>
                                        <g id="content/open-in-folder_10_w" transform="translate(9.000000, 9.000000)" fill="#FFFFFF" stroke-width="1">
                                            <g id="open-in-folder_10_w" transform="translate(0.000000, 1.000000)">
                                                <g id="icon">
                                                    <path d="M7.5006345,7 L1.30806429,7 L2.80699205,4 L8.99956225,4 L7.5006345,7 Z M0.999285171,5.382 L0.999285171,1.3 C0.999285171,1.135 1.13318938,1 1.29907072,1 L3.29064607,1 L3.99714068,1.707 C4.18300773,1.894 4.43982402,2 4.7036353,2 L6.69521065,2 C6.8600927,2 6.9949962,2.135 6.9949962,2.3 L6.9949962,3 L2.80699205,3 C2.4262644,3 2.08350958,3.212 1.91263182,3.553 L0.999285171,5.382 Z M9.84995393,3.475 C9.66608546,3.178 9.34831278,3 8.99956225,3 L7.99428137,3 L7.99428137,2.3 C7.99428137,1.583 7.41169811,1 6.69521065,1 L4.7036353,1 L3.99714068,0.293 C3.81127364,0.106 3.55345807,0 3.29064607,0 L1.29907072,0 C0.582583255,0 0,0.583 0,1.3 L0,6.7 C0,7.417 0.582583255,8 1.29907072,8 L7.62354657,8 C7.92932783,8 8.20213269,7.83 8.33903475,7.558 L9.89392248,4.447 C10.049811,4.135 10.0328231,3.771 9.84995393,3.475 Z" id="fill"></path>
                                                </g>
                                            </g>
                                        </g>
                                    </g>
                                </g>
                            </g>
                        </g>
                    </g>
                </g>
            </g>
        </g>
    </g>
</svg>