
<svg width="28px" height="28px" viewBox="0 0 28 28" version="1.1" xmlns="http://www.w3.org/2000/svg" xmlns:xlink="http://www.w3.org/1999/xlink">
    <!-- Generator: Sketch 51 (57462) - http://www.bohemiancoding.com/sketch -->
    <desc>Created with Sketch.</desc>
    <defs></defs>
    <g id="Prototype-(USE)" stroke="none" stroke-width="1" fill="none" fill-rule="evenodd">
        <g id="Open-word-1.0" transform="translate(-934.000000, -496.000000)">
            <g id="App" transform="translate(208.000000, 128.000000)">
                <g id="content" transform="translate(388.000000, 0.000000)">
                    <g id="light/buttons/circle/dark-grey/32/normal" transform="translate(338.000000, 368.000000)">
                        <circle id="circle" fill="#333333" cx="14" cy="14" r="14"></circle>
                        <g id="navigation/arrow-tail-down_10_w" transform="translate(8.000000, 8.000000)" fill="#FFFFFF" stroke-width="1">
                            <g id="arrow-tail-down_10_w" transform="translate(1.800000, 1.200000)">
                                <path d="M8.2242,4.9758 C7.9902,4.7418 7.6098,4.7418 7.3758,4.9758 L4.7994,7.551 L4.7994,0.6006 C4.7994,0.2682 4.5318,0.0006 4.1994,0.0006 C3.8682,0.0006 3.5994,0.2682 3.5994,0.6006 L3.5994,7.551 L1.0242,4.9758 C0.7902,4.7418 0.4098,4.7418 0.1758,4.9758 C-0.0582,5.2098 -0.0582,5.5902 0.1758,5.8242 L3.7758,9.4242 C3.8886,9.537 4.041,9.6006 4.1994,9.6006 C4.359,9.6006 4.5114,9.537 4.6242,9.4242 L8.2242,5.8242 C8.4582,5.5902 8.4582,5.2098 8.2242,4.9758" id="fill"></path>
                            </g>
                        </g>
                    </g>
                </g>
            </g>
        </g>
    </g>
</svg>