
<svg width="8px" height="4px" viewBox="0 0 8 4" version="1.1" xmlns="http://www.w3.org/2000/svg" xmlns:xlink="http://www.w3.org/1999/xlink">
    <!-- Generator: Sketch 51 (57462) - http://www.bohemiancoding.com/sketch -->
    <desc>Created with Sketch.</desc>
    <defs></defs>
    <g id="Activity-menu-(WIP)" stroke="none" stroke-width="1" fill="none" fill-rule="evenodd">
        <g id="Activity-menu-1.1" transform="translate(-922.000000, -196.000000)" fill="#FFFFFF">
            <g id="App" transform="translate(208.000000, 128.000000)">
                <g id="content" transform="translate(388.000000, 0.000000)">
                    <g id="arrow-right_8_w" transform="translate(330.000000, 70.000000) scale(-1, 1) rotate(-270.000000) translate(-330.000000, -70.000000) translate(328.000000, 66.000000)">
                        <g id="fill">
                            <path d="M2.0001,6.00003 C1.8841,6.00003 1.7681,5.96003 1.6751,5.87903 L-1.8249,2.87903 C-2.0349,2.70003 -2.0599,2.38403 -1.8789,2.17503 C-1.6989,1.96403 -1.3839,1.94103 -1.1749,2.12103 L2.0001,4.84103 L5.1751,2.12103 C5.3841,1.94103 5.7011,1.96403 5.8791,2.17503 C6.0601,2.38403 6.0351,2.70003 5.8251,2.87903 L2.3251,5.87903 C2.2321,5.96003 2.1161,6.00003 2.0001,6.00003" transform="translate(2.000100, 4.000008) scale(1, 1) rotate(90.000000) translate(-2.000100, -4.000008) "></path>
                        </g>
                    </g>
                </g>
            </g>
        </g>
    </g>
</svg>