
<svg width="22px" height="22px" viewBox="0 0 22 22" version="1.1" xmlns="http://www.w3.org/2000/svg" xmlns:xlink="http://www.w3.org/1999/xlink">
    <!-- Generator: Sketch 49.3 (51167) - http://www.bohemiancoding.com/sketch -->
    <desc>Created with Sketch.</desc>
    <defs></defs>
    <g id="Prototype---option-3" stroke="none" stroke-width="1" fill="none" fill-rule="evenodd">
        <g id="Chat-with/Share" transform="translate(-433.000000, -75.000000)" fill="#FFFFFF">
            <g id="Group-7" transform="translate(380.000000, 50.000000)">
                <g id="format/pop-out_24_w" transform="translate(52.000000, 24.000000)">
                    <g id="pop-out_24_w" transform="translate(1.000000, 1.000000)">
                        <g id="icon">
                            <path d="M21.5,10.9966 C21.776,10.9966 22,11.2206 22,11.4966 L22,19.5316 C22,20.8926 20.893,21.9996 19.531,21.9996 L2.469,21.9996 C1.107,21.9996 0,20.8926 0,19.5316 L0,2.4756 C0,1.1146 1.107,0.0066 2.469,0.0066 L10.5,-0.0004 C10.776,-0.0004 11,0.2236 11,0.4996 C11,0.7756 10.776,0.9996 10.5,0.9996 L2.469,1.0066 C1.659,1.0066 1,1.6656 1,2.4756 L1,19.5316 C1,20.3416 1.659,20.9996 2.469,20.9996 L19.531,20.9996 C20.341,20.9996 21,20.3416 21,19.5316 L21,11.4966 C21,11.2206 21.224,10.9966 21.5,10.9966 Z M21.9615,0.3091 C21.9865,0.3701 21.9995,0.4351 21.9995,0.5001 L21.9995,7.4961 C21.9995,7.7731 21.7765,7.9961 21.4995,7.9961 C21.2235,7.9961 20.9995,7.7731 20.9995,7.4961 L20.9995,1.7071 L11.8545,10.8511 C11.7575,10.9491 11.6295,10.9981 11.5015,10.9981 C11.3735,10.9981 11.2455,10.9491 11.1475,10.8511 C10.9525,10.6561 10.9525,10.3401 11.1475,10.1441 L20.2925,1.0001 L14.4995,1.0001 C14.2235,1.0001 13.9995,0.7761 13.9995,0.5001 C13.9995,0.2241 14.2235,0.0001 14.4995,0.0001 L21.4995,0.0001 C21.5655,0.0001 21.6295,0.0131 21.6905,0.0381 C21.8135,0.0891 21.9105,0.1871 21.9615,0.3091 Z" id="fill"></path>
                        </g>
                    </g>
                </g>
            </g>
        </g>
    </g>
</svg>