
<svg width="28px" height="19px" viewBox="0 0 28 19" version="1.1" xmlns="http://www.w3.org/2000/svg" xmlns:xlink="http://www.w3.org/1999/xlink">
    <!-- Generator: Sketch 51 (57462) - http://www.bohemiancoding.com/sketch -->
    <desc>Created with Sketch.</desc>
    <defs></defs>
    <g id="Activity-menu-(WIP)" stroke="none" stroke-width="1" fill="none" fill-rule="evenodd">
        <g id="Activity-menu-1.0-(v2)" transform="translate(-228.000000, -207.000000)" fill="#FFFFFF">
            <g id="App" transform="translate(208.000000, 128.000000)">
                <g id="meetings/team_24_w" transform="translate(19.000000, 77.000000)">
                    <g id="team_24_w" transform="translate(1.000000, 2.000000)">
                        <path d="M23.5462,16 L23.2692,14.912 C23.0862,14.194 22.7442,13.555 22.3042,13 L24.9782,13 C25.7732,13 26.4702,13.668 26.6712,14.624 L26.9622,16 L23.5462,16 Z M5.0942,18 L5.0032,17.898 L5.7002,15.158 C6.1732,13.299 7.8692,12 9.8232,12 L18.1762,12 C20.1302,12 21.8272,13.299 22.2992,15.158 L23.0232,18 L5.0942,18 Z M4.4542,16 L1.0372,16 L1.3282,14.624 C1.5292,13.668 2.2262,13 3.0212,13 L5.6952,13 C5.2552,13.555 4.9132,14.194 4.7312,14.912 L4.4542,16 Z M5.0002,8 C6.1022,8 7.0002,8.897 7.0002,10 C7.0002,11.103 6.1022,12 5.0002,12 C3.8972,12 3.0002,11.103 3.0002,10 C3.0002,8.897 3.8972,8 5.0002,8 Z M9.0002,6 C9.0002,3.243 11.2432,1 14.0002,1 C16.7572,1 19.0002,3.243 19.0002,6 C19.0002,8.757 16.7572,11 14.0002,11 C11.2432,11 9.0002,8.757 9.0002,6 Z M23.0002,8 C24.1022,8 25.0002,8.897 25.0002,10 C25.0002,11.103 24.1022,12 23.0002,12 C21.8972,12 21.0002,11.103 21.0002,10 C21.0002,8.897 21.8972,8 23.0002,8 Z M27.6502,14.417 C27.3682,13.079 26.3772,12.131 25.2012,12.021 C25.6922,11.487 26.0002,10.781 26.0002,10 C26.0002,8.346 24.6542,7 23.0002,7 C21.3452,7 20.0002,8.346 20.0002,10 C20.0002,10.555 20.1612,11.066 20.4242,11.513 C19.7362,11.191 18.9782,11 18.1762,11 L17.3092,11 C18.9292,9.925 20.0002,8.086 20.0002,6 C20.0002,2.691 17.3082,0 14.0002,0 C10.6922,0 8.0002,2.691 8.0002,6 C8.0002,8.086 9.0712,9.925 10.6912,11 L9.8232,11 C9.0222,11 8.2632,11.191 7.5752,11.514 C7.8382,11.067 8.0002,10.555 8.0002,10 C8.0002,8.346 6.6542,7 5.0002,7 C3.3452,7 2.0002,8.346 2.0002,10 C2.0002,10.781 2.3072,11.487 2.7972,12.021 C1.6222,12.131 0.6312,13.079 0.3492,14.417 L0.0192,15.983 C-0.0358,16.241 0.0282,16.514 0.1902,16.713 C0.3382,16.896 0.5532,17 0.7812,17 L4.1992,17 L4.0332,17.652 C3.9512,17.976 4.0222,18.313 4.2272,18.578 C4.4362,18.846 4.7522,19 5.0942,19 L22.9062,19 C23.2482,19 23.5642,18.846 23.7722,18.578 C23.9782,18.313 24.0482,17.977 23.9662,17.652 L23.8002,17 L27.2182,17 C27.4462,17 27.6612,16.896 27.8092,16.713 C27.9712,16.514 28.0352,16.24 27.9802,15.982 L27.6502,14.417 Z" id="fill"></path>
                    </g>
                </g>
            </g>
        </g>
    </g>
</svg>