
<svg width="22px" height="22px" viewBox="0 0 22 22" version="1.1" xmlns="http://www.w3.org/2000/svg" xmlns:xlink="http://www.w3.org/1999/xlink">
    <!-- Generator: Sketch 51 (57462) - http://www.bohemiancoding.com/sketch -->
    <desc>Created with Sketch.</desc>
    <defs></defs>
    <g id="Activity-menu-(WIP)" stroke="none" stroke-width="1" fill="none" fill-rule="evenodd">
        <g id="Activity-menu-1.0-(v2)" transform="translate(-231.000000, -157.000000)" fill="#07C1E4">
            <g id="App" transform="translate(208.000000, 128.000000)">
                <g id="navigation/home-active_24_b1" transform="translate(22.000000, 28.000000)">
                    <g id="home-active_24_b1" transform="translate(1.000000, 1.000000)">
                        <path d="M12.63006,0.603 C11.70006,-0.201 10.29506,-0.201 9.36206004,0.603 L1.21306004,7.633 C0.438060035,8.302 -0.00593996469,9.276 6.0035306e-05,10.3 L0.0520600353,20.508 C0.0560600353,21.333 0.726060035,22 1.55106004,22 L7.49606004,22 C8.32406004,22 8.99606004,21.328 8.99606004,20.5 L8.99606004,14.516 C8.99606004,14.241 9.22106004,14.017 9.49606004,14.017 L12.49706,14.017 C12.77206,14.017 12.99706,14.241 12.99706,14.517 L12.99706,20.5 C12.99706,21.328 13.66906,22 14.49706,22 L20.50006,22 C21.32806,22 22.00006,21.328 22.00006,20.5 L22.00006,10.288 C22.00006,9.27 21.55606,8.302 20.78506,7.637 L12.63006,0.603 Z" id="fill"></path>
                    </g>
                </g>
            </g>
        </g>
    </g>
</svg>