
<svg width="22px" height="22px" viewBox="0 0 22 22" version="1.1" xmlns="http://www.w3.org/2000/svg" xmlns:xlink="http://www.w3.org/1999/xlink">
    <!-- Generator: Sketch 51 (57462) - http://www.bohemiancoding.com/sketch -->
    <desc>Created with Sketch.</desc>
    <defs></defs>
    <g id="Activity-menu-(WIP)" stroke="none" stroke-width="1" fill="none" fill-rule="evenodd">
        <g id="Activity-menu-1.0-(v2)" transform="translate(-231.000000, -363.000000)" fill="#FFFFFF">
            <g id="App" transform="translate(208.000000, 128.000000)">
                <g id="Group" transform="translate(22.000000, 234.000000)">
                    <g id="meetings/calendar-empty_24_w">
                        <g id="calendar-empty_24_w" transform="translate(1.000000, 1.000000)">
                            <path d="M19.531,21 L2.469,21 C1.659,21 1,20.343 1,19.534 L1,17 L21,17 L21,19.534 C21,20.343 20.341,21 19.531,21 M2.469,3 L19.531,3 C20.341,3 21,3.70753846 21,4.57876923 L21,17 L1,17 L1,4.57876923 C1,3.70753846 1.659,3 2.469,3 M19.531,2 L17,2 L17,0.5 C17,0.224 16.776,0 16.5,0 C16.223,0 16,0.224 16,0.5 L16,2 L6,2 L6,0.5 C6,0.224 5.776,0 5.5,0 C5.223,0 5,0.224 5,0.5 L5,2 L2.469,2 C1.107,2 0,3.106 0,4.466 L0,19.534 C0,20.894 1.107,22 2.469,22 L19.531,22 C20.892,22 22,20.894 22,19.534 L22,4.466 C22,3.106 20.892,2 19.531,2" id="fill"></path>
                        </g>
                    </g>
                    <path d="M5.890625,10.9238281 C5.890625,9.42382812 7.02734375,8.34570312 8.59765625,8.34570312 C10.1152344,8.34570312 11.2753906,9.37695312 11.2753906,10.71875 C11.2753906,11.5976562 10.8769531,12.2832031 9.48828125,13.7714844 L7.45507812,15.9570312 L7.45507812,16.0507812 L11.4160156,16.0507812 L11.4160156,17 L5.94335938,17 L5.94335938,16.2734375 L8.8671875,13.0800781 C9.95703125,11.8964844 10.2207031,11.4394531 10.2207031,10.7597656 C10.2207031,9.91601562 9.5,9.265625 8.56835938,9.265625 C7.578125,9.265625 6.91015625,9.92773438 6.91015625,10.9238281 L6.91015625,10.9296875 L5.890625,10.9296875 L5.890625,10.9238281 Z M14.9199219,13.1035156 L14.9199219,12.2011719 L15.9453125,12.2011719 C16.90625,12.2011719 17.5859375,11.5800781 17.5859375,10.7011719 C17.5859375,9.83984375 16.9355469,9.265625 15.9628906,9.265625 C14.9902344,9.265625 14.3515625,9.8046875 14.2636719,10.7128906 L13.2382812,10.7128906 C13.34375,9.24804688 14.3925781,8.34570312 16.0039062,8.34570312 C17.4804688,8.34570312 18.6582031,9.33007812 18.6582031,10.5605469 C18.6582031,11.5683594 18.1015625,12.3066406 17.1757812,12.5292969 L17.1757812,12.6230469 C18.3242188,12.7695312 19.0214844,13.5664062 19.0214844,14.7207031 C19.0214844,16.1152344 17.7148438,17.1992188 16.0449219,17.1992188 C14.328125,17.1992188 13.1445312,16.2441406 13.0683594,14.796875 L14.0878906,14.796875 C14.1816406,15.6992188 14.9433594,16.2792969 16.0332031,16.2792969 C17.1464844,16.2792969 17.9375,15.6171875 17.9375,14.6914062 C17.9375,13.7128906 17.1933594,13.1035156 15.9921875,13.1035156 L14.9199219,13.1035156 Z" id="date"></path>
                </g>
            </g>
        </g>
    </g>
</svg>