
<svg width="25px" height="25px" viewBox="0 0 25 25" version="1.1" xmlns="http://www.w3.org/2000/svg" xmlns:xlink="http://www.w3.org/1999/xlink">
    <!-- Generator: Sketch 51 (57462) - http://www.bohemiancoding.com/sketch -->
    <desc>Created with Sketch.</desc>
    <defs></defs>
    <g id="Symbols" stroke="none" stroke-width="1" fill="none" fill-rule="evenodd">
        <g id="circle">
            <circle fill="#2ED557" cx="12.0627119" cy="12.4812012" r="12"></circle>
            <g id="meetings/device-in-room_32_w" transform="translate(6.000000, 6.000000)" fill="#FFFFFF">
                <g id="device-in-room_32_w" transform="translate(0.000000, 1.218750)">
                    <g id="icon">
                        <path d="M12.5967833,8.45824687 C12.5765611,8.48546562 12.5317833,8.53137187 12.4584778,8.53137187 L9.84258889,8.53137187 L9.69778333,8.09424687 C9.46161667,7.38371562 8.84989444,6.90637187 8.1757,6.90637187 L7.69614444,6.90637187 C8.28042222,6.46965312 8.66608889,5.72337187 8.66608889,4.87512187 C8.66608889,4.73618437 8.65345,4.60130937 8.63358889,4.46887187 L11.5661722,4.46887187 C11.8279778,4.46887187 12.0518667,4.67930937 12.0988111,4.96896562 L12.6357833,8.29168437 C12.6491444,8.37293437 12.6173667,8.43102812 12.5967833,8.45824687 L12.5967833,8.45824687 Z M9.8852,10.0690281 C9.85089444,10.1246844 9.79672778,10.1563719 9.73678333,10.1563719 L3.26206111,10.1563719 C3.20211667,10.1563719 3.14795,10.1246844 3.11364444,10.0690281 C3.0797,10.0133719 3.07211667,9.94552812 3.09342222,9.88215312 L3.63978333,8.23643437 C3.82322778,7.68393437 4.29881111,7.31262187 4.82350556,7.31262187 L8.1757,7.31262187 C8.70003333,7.31262187 9.17561667,7.68393437 9.35906111,8.23643437 L9.90578333,9.88215312 C9.92672778,9.94552812 9.91950556,10.0133719 9.8852,10.0690281 L9.8852,10.0690281 Z M0.54145,8.53137187 C0.468144444,8.53137187 0.423366667,8.48546562 0.403144444,8.45824687 C0.382922222,8.43143437 0.351144444,8.37334062 0.364144444,8.29209062 L0.901116667,4.96896562 C0.948061111,4.67930937 1.17195,4.46887187 1.43411667,4.46887187 L4.36525556,4.46887187 C4.34539444,4.60130937 4.33275556,4.73618437 4.33275556,4.87512187 C4.33275556,5.72337187 4.71842222,6.46965312 5.3027,6.90637187 L4.82350556,6.90637187 C4.14895,6.90637187 3.53722778,7.38371562 3.30142222,8.09424687 L3.15625556,8.53137187 L0.54145,8.53137187 Z M2.17258889,3.66693437 C2.24625556,3.41749687 2.45281111,3.25012187 2.68645,3.25012187 L3.61017222,3.25012187 L4.53425556,3.25012187 C4.63536667,3.25012187 4.73214444,3.28262187 4.81664444,3.34112187 C4.66281111,3.55440312 4.54183889,3.79815312 4.45878333,4.06262187 L2.05522778,4.06262187 L2.17258889,3.66693437 Z M2.5272,1.62512187 C2.5272,0.952778125 3.01325556,0.406371875 3.61053333,0.406371875 C4.20781111,0.406371875 4.69386667,0.952778125 4.69386667,1.62512187 C4.69386667,2.29705937 4.20781111,2.84387187 3.61053333,2.84387187 C3.01325556,2.84387187 2.5272,2.29705937 2.5272,1.62512187 L2.5272,1.62512187 Z M6.49942222,2.84387187 C7.49500556,2.84387187 8.30497778,3.75509062 8.30497778,4.87512187 C8.30497778,5.99515312 7.49500556,6.90637187 6.49942222,6.90637187 C5.50383889,6.90637187 4.69386667,5.99515312 4.69386667,4.87512187 C4.69386667,3.75509062 5.50383889,2.84387187 6.49942222,2.84387187 L6.49942222,2.84387187 Z M10.3123944,3.25012187 C10.5456722,3.25012187 10.7525889,3.41749687 10.8262556,3.66693437 L10.9432556,4.06262187 L8.54006111,4.06262187 C8.45700556,3.79815312 8.33639444,3.55440312 8.1822,3.34071562 C8.2667,3.28262187 8.36311667,3.25012187 8.46458889,3.25012187 L9.38831111,3.25012187 L10.3123944,3.25012187 Z M8.30497778,1.62512187 C8.30497778,0.952778125 8.79103333,0.406371875 9.38831111,0.406371875 C9.98558889,0.406371875 10.4716444,0.952778125 10.4716444,1.62512187 C10.4716444,2.29705937 9.98558889,2.84387187 9.38831111,2.84387187 C8.79103333,2.84387187 8.30497778,2.29705937 8.30497778,1.62512187 L8.30497778,1.62512187 Z M12.9914778,8.21896562 L12.4541444,4.89624687 C12.3761444,4.41321562 12.0023944,4.06262187 11.5661722,4.06262187 L11.3242278,4.06262187 L11.16895,3.53815312 C11.0476167,3.13027812 10.7132278,2.85524687 10.3326167,2.84549687 C10.6366722,2.54771562 10.8327556,2.11424687 10.8327556,1.62512187 C10.8327556,0.727715625 10.1860056,0.000121875 9.38831111,0.000121875 C8.59061667,0.000121875 7.94386667,0.727715625 7.94386667,1.62512187 C7.94386667,2.11424687 8.14031111,2.54812187 8.44436667,2.84590312 C8.25586667,2.85077812 8.0782,2.92146562 7.92906111,3.04659062 C7.54736667,2.66837187 7.04795,2.43762187 6.49942222,2.43762187 C5.95089444,2.43762187 5.45147778,2.66877812 5.06978333,3.04659062 C4.92064444,2.92187187 4.74297778,2.85077812 4.55447778,2.84590312 C4.85889444,2.54812187 5.05497778,2.11424687 5.05497778,1.62512187 C5.05497778,0.727715625 4.40822778,0.000121875 3.61053333,0.000121875 C2.81283889,0.000121875 2.16608889,0.727715625 2.16608889,1.62512187 C2.16608889,2.11424687 2.36217222,2.54771562 2.66622778,2.84549687 C2.28561667,2.85524687 1.95086667,3.13027812 1.82989444,3.53815312 L1.67461667,4.06262187 L1.43411667,4.06262187 C0.997533333,4.06262187 0.624144444,4.41321562 0.545783333,4.89624687 L0.00881111111,8.21937187 C-0.0197166667,8.39771562 0.0228944444,8.57971562 0.126172222,8.71905937 C0.229088889,8.85759062 0.380755556,8.93762187 0.54145,8.93762187 L3.0212,8.93762187 L2.7547,9.73996562 C2.69258889,9.92684062 2.71606111,10.1368719 2.81717222,10.3005906 C2.91828333,10.4643094 3.08475556,10.5626219 3.26206111,10.5626219 L9.73678333,10.5626219 C9.91408889,10.5626219 10.0805611,10.4643094 10.1820333,10.3005906 C10.2831444,10.1368719 10.3062556,9.92684062 10.2441444,9.73996562 L9.97764444,8.93762187 L12.4584778,8.93762187 C12.6191722,8.93762187 12.7708389,8.85759062 12.8741167,8.71865312 C12.9773944,8.57971562 13.0200056,8.39771562 12.9914778,8.21896562 L12.9914778,8.21896562 Z" id="fill"></path>
                    </g>
                </g>
            </g>
        </g>
    </g>
</svg>