
<svg width="16px" height="16px" viewBox="0 0 16 16" version="1.1" xmlns="http://www.w3.org/2000/svg" xmlns:xlink="http://www.w3.org/1999/xlink">
    <!-- Generator: Sketch 51 (57462) - http://www.bohemiancoding.com/sketch -->
    <desc>Created with Sketch.</desc>
    <defs></defs>
    <g id="Page-1" stroke="none" stroke-width="1" fill="none" fill-rule="evenodd">
        <g id="audio/speaker-disconnected_16" fill="#000000">
            <g id="speaker-disconnected_16">
                <path d="M8.5471,0.0567 C8.8221,0.1707 9.0001,0.4367 9.0001,0.7347 L9.0001,15.2657 C9.0001,15.5637 8.8221,15.8287 8.5471,15.9437 C8.4551,15.9817 8.3601,15.9997 8.2651,15.9997 C8.0741,15.9997 7.8871,15.9247 7.7461,15.7837 L3.2651,10.9997 L2.0001,10.9997 C0.8981,10.9997 0.0001,10.1027 0.0001,8.9997 L0.0001,6.9997 C0.0001,5.8977 0.8981,4.9997 2.0001,4.9997 L3.2651,4.9997 L7.7351,0.2277 C7.7391,0.2237 7.7421,0.2197 7.7461,0.2157 C7.9571,0.0047 8.2711,-0.0583 8.5471,0.0567 Z M8.0001,14.5927 L8.0001,1.4067 L3.8461,5.8417 C3.7521,5.9427 3.6201,5.9997 3.4811,5.9997 L2.0001,5.9997 C1.4491,5.9997 1.0001,6.4477 1.0001,6.9997 L1.0001,8.9997 C1.0001,9.5517 1.4491,9.9997 2.0001,9.9997 L3.4811,9.9997 C3.6201,9.9997 3.7521,10.0577 3.8461,10.1577 L8.0001,14.5927 Z M14.1939,8.4999 L15.8399,10.1459 C16.0359,10.3419 16.0359,10.6579 15.8399,10.8539 C15.7429,10.9509 15.6149,10.9999 15.4869,10.9999 C15.3589,10.9999 15.2309,10.9509 15.1329,10.8539 L13.4869,9.2069 L11.8399,10.8539 C11.7429,10.9509 11.6149,10.9999 11.4869,10.9999 C11.3589,10.9999 11.2309,10.9509 11.1329,10.8539 C10.9379,10.6579 10.9379,10.3419 11.1329,10.1459 L12.7799,8.4999 L11.1329,6.8539 C10.9379,6.6579 10.9379,6.3419 11.1329,6.1459 C11.3289,5.9509 11.6449,5.9509 11.8399,6.1459 L13.4869,7.7929 L15.1329,6.1459 C15.3289,5.9509 15.6449,5.9509 15.8399,6.1459 C16.0359,6.3419 16.0359,6.6579 15.8399,6.8539 L14.1939,8.4999 Z" id="fill"></path>
            </g>
        </g>
    </g>
</svg>