
<svg width="25px" height="24px" viewBox="0 0 25 24" version="1.1" xmlns="http://www.w3.org/2000/svg" xmlns:xlink="http://www.w3.org/1999/xlink">
    <!-- Generator: Sketch 51 (57462) - http://www.bohemiancoding.com/sketch -->
    <desc>Created with Sketch.</desc>
    <defs></defs>
    <g id="Activity-menu-(WIP)" stroke="none" stroke-width="1" fill="none" fill-rule="evenodd">
        <g id="Popovers-1.1" transform="translate(-1056.000000, -288.000000)">
            <g id="Popover" transform="translate(1041.000000, 180.000000)">
                <g id="people" transform="translate(8.000000, 64.000000)">
                    <g id="item" transform="translate(0.000000, 32.000000)">
                        <g id="Group" transform="translate(7.000000, 12.000000)">
                            <circle id="bg" fill="#07C1E4" cx="12.7938144" cy="12" r="12"></circle>
                            <g id="common-actions/plus_8_w" transform="translate(8.793814, 8.000000)" fill="#FFFFFF">
                                <g id="plus_8_w">
                                    <path d="M4.5,3.5 L7.5,3.5 C7.77614237,3.5 8,3.72385763 8,4 C8,4.27614237 7.77614237,4.5 7.5,4.5 L4.5,4.5 L4.5,7.5 C4.5,7.77614237 4.27614237,8 4,8 C3.72385763,8 3.5,7.77614237 3.5,7.5 L3.5,4.5 L0.5,4.5 C0.223857625,4.5 3.38176876e-17,4.27614237 0,4 C-3.38176876e-17,3.72385763 0.223857625,3.5 0.5,3.5 L3.5,3.5 L3.5,0.5 C3.5,0.223857625 3.72385763,5.07265313e-17 4,0 C4.27614237,-5.07265313e-17 4.5,0.223857625 4.5,0.5 L4.5,3.5 Z" id="fill"></path>
                                </g>
                            </g>
                        </g>
                    </g>
                </g>
            </g>
        </g>
    </g>
</svg>