<?xml version="1.0" encoding="UTF-8"?>
<svg width="32px" height="32px" viewBox="0 0 32 32" version="1.1" xmlns="http://www.w3.org/2000/svg" xmlns:xlink="http://www.w3.org/1999/xlink">
    <g id="Symbols" stroke="none" stroke-width="1" fill="none" fill-rule="evenodd">
        <g id="button" fill="#000000">
            <g>
                <circle id="bg" fill-opacity="0.12" cx="16" cy="16" r="16"></circle>
                <g id="settings/settings_12" transform="translate(10.000000, 10.000000)">
                    <g id="icon">
                        <path d="M11,6.005 C11,6.063 10.963,6.114 10.908,6.132 L9.6,6.566 C9.462,6.611 9.351,6.714 9.295,6.848 L8.928,7.735 C8.872,7.869 8.878,8.021 8.942,8.15 L9.559,9.38 C9.585,9.432 9.574,9.494 9.531,9.537 C9.491,9.578 9.427,9.586 9.377,9.563 L8.144,8.947 C8.014,8.881 7.862,8.877 7.729,8.933 L6.843,9.3 C6.709,9.356 6.606,9.467 6.561,9.605 L6.128,10.908 C6.092,11.015 5.908,11.019 5.871,10.909 L5.435,9.605 C5.389,9.467 5.286,9.356 5.152,9.301 L4.266,8.935 C4.205,8.909 4.14,8.897 4.075,8.897 C3.998,8.897 3.92,8.914 3.85,8.95 L2.622,9.568 C2.571,9.593 2.509,9.583 2.53,9.618 C2.512,9.591 2.489,9.562 2.465,9.539 C2.425,9.498 2.415,9.437 2.441,9.385 L3.057,8.148 C3.121,8.018 3.126,7.866 3.07,7.733 L2.702,6.848 C2.646,6.714 2.536,6.611 2.398,6.566 L1.092,6.132 C1.037,6.114 1,6.063 1,6.002 C1,5.944 1.037,5.893 1.092,5.875 L2.403,5.435 C2.54,5.389 2.65,5.285 2.706,5.152 L3.071,4.267 C3.127,4.133 3.121,3.982 3.057,3.853 L2.441,2.621 C2.416,2.569 2.425,2.507 2.469,2.463 C2.509,2.422 2.572,2.412 2.624,2.439 L3.853,3.054 C3.983,3.118 4.134,3.124 4.268,3.068 L5.154,2.702 C5.288,2.646 5.391,2.535 5.437,2.398 L5.872,1.091 C5.908,0.985 6.091,0.981 6.128,1.091 L6.563,2.399 C6.609,2.536 6.712,2.647 6.846,2.703 L7.731,3.07 C7.865,3.125 8.016,3.121 8.146,3.055 L9.383,2.438 C9.432,2.413 9.495,2.422 9.539,2.465 C9.58,2.506 9.59,2.568 9.564,2.62 L8.945,3.852 C8.88,3.982 8.874,4.133 8.93,4.267 L9.295,5.153 C9.35,5.287 9.461,5.391 9.599,5.437 L10.908,5.875 C10.963,5.893 11,5.944 11,6.002 L11,6.005 Z M11.226,4.926 C11.689,5.082 12,5.514 12,6.002 L12,6.005 C12,6.495 11.687,6.928 11.223,7.082 L10.131,7.442 L9.939,7.906 L10.453,8.933 C10.672,9.37 10.586,9.897 10.24,10.242 C9.895,10.588 9.37,10.673 8.931,10.458 L7.9,9.943 L7.437,10.136 L7.077,11.223 C6.923,11.688 6.491,12 6.001,12 C5.51,12 5.078,11.69 4.923,11.227 L4.559,10.138 L4.095,9.946 L3.072,10.46 C2.636,10.681 2.107,10.597 1.761,10.249 C1.737,10.226 1.714,10.197 1.696,10.17 C1.414,9.902 1.328,9.377 1.545,8.94 L2.06,7.906 L1.867,7.442 L0.777,7.081 C0.312,6.927 0,6.495 0,6.005 C0,5.513 0.311,5.081 0.774,4.926 L1.869,4.559 L2.06,4.096 L1.546,3.067 C1.329,2.63 1.414,2.104 1.759,1.759 C2.105,1.411 2.633,1.324 3.07,1.544 L4.096,2.057 L4.56,1.865 L4.923,0.776 C5.077,0.312 5.509,0 5.999,0 C6.49,0 6.922,0.312 7.077,0.776 L7.44,1.866 L7.903,2.059 L8.936,1.544 C9.375,1.325 9.897,1.409 10.245,1.757 C10.593,2.105 10.678,2.632 10.457,3.069 L9.94,4.097 L10.132,4.561 L11.226,4.926 Z M6,7.0001 C5.449,7.0001 5,6.5511 5,6.0001 C5,5.4491 5.449,5.0001 6,5.0001 C6.551,5.0001 7,5.4491 7,6.0001 C7,6.5511 6.551,7.0001 6,7.0001 Z M6,4.0001 C4.897,4.0001 4,4.8971 4,6.0001 C4,7.1031 4.897,8.0001 6,8.0001 C7.103,8.0001 8,7.1031 8,6.0001 C8,4.8971 7.103,4.0001 6,4.0001 Z" id="fill"></path>
                    </g>
                </g>
            </g>
        </g>
    </g>
</svg>