<svg id="Layer_1" data-name="Layer 1" xmlns="http://www.w3.org/2000/svg" xmlns:xlink="http://www.w3.org/1999/xlink" viewBox="0 0 37 22"><defs><style>.cls-1{fill:none;clip-rule:evenodd;}.cls-2{clip-path:url(#clip-path);}.cls-3{fill:#010101;opacity:0.8;}</style><clipPath id="clip-path" transform="translate(4.29 5)"><path class="cls-1" d="M16.53,10.65A3.62,3.62,0,0,1,14.21,12V0h13.5c-.39,0-2.05.2-4.2,2.39-1.84,1.87-5.2,6.18-5.77,6.87C17.49,9.56,17.06,10.11,16.53,10.65Zm-4.65,0c-.53-.53-1-1.09-1.21-1.39-.57-.69-3.93-5-5.77-6.87C2.76.2,1.1,0,.71,0h13.5V12A3.62,3.62,0,0,1,11.88,10.65Z"/></clipPath></defs><title>tip_triangle_down_black</title><g class="cls-2"><rect class="cls-3" width="37" height="22"/></g></svg>