<svg id="Layer_1" data-name="Layer 1" xmlns="http://www.w3.org/2000/svg" xmlns:xlink="http://www.w3.org/1999/xlink" viewBox="0 0 37 22"><defs><style>.cls-1{fill:none;}.cls-2{clip-path:url(#clip-path);}.cls-3{fill:#010101;opacity:0.8;isolation:isolate;}</style><clipPath id="clip-path" transform="translate(0)"><path class="cls-1" d="M16.18,6.35A3.62,3.62,0,0,1,18.5,5V17H5c.39,0,2-.2,4.2-2.39C11,12.74,14.4,8.43,15,7.74,15.22,7.44,15.65,6.89,16.18,6.35Zm4.65,0A12.24,12.24,0,0,1,22,7.74c.57.69,3.93,5,5.77,6.87C29.95,16.8,31.61,17,32,17H18.5V5A3.62,3.62,0,0,1,20.83,6.35Z"/></clipPath></defs><title>tip_triangle_up_black</title><g class="cls-2"><rect class="cls-3" width="37" height="22"/></g></svg>