
<svg width="20px" height="20px" viewBox="0 0 20 20" version="1.1" xmlns="http://www.w3.org/2000/svg" xmlns:xlink="http://www.w3.org/1999/xlink">
    <!-- Generator: Sketch 48.2 (47327) - http://www.bohemiancoding.com/sketch -->
    <desc>Created with Sketch.</desc>
    <defs></defs>
    <g id="Floating-Action-Bar" stroke="none" stroke-width="1" fill="none" fill-rule="evenodd">
        <g id="1.3" transform="translate(-333.000000, -557.000000)" fill="#FFFFFF">
            <g id="App" transform="translate(171.000000, 44.000000)">
                <g id="video-area" transform="translate(1.000000, 61.000000)">
                    <g id="call-control" transform="translate(145.000000, 436.000000)">
                        <g id="button">
                            <g id="activities/handset_20_w" transform="translate(16.000000, 16.000000)">
                                <g id="handset_20_w">
                                    <g id="icon">
                                        <path d="M2.1781932,0.999950002 C1.81219717,0.999950002 1.47420083,1.16494175 1.25020326,1.4539273 C1.02320572,1.74691265 0.946206558,2.12189391 1.03820556,2.48287586 C1.86119664,5.68971551 4.1801715,9.37753112 7.40113658,12.59937 C10.6211017,15.819209 14.3090617,18.139093 17.5170269,18.9610519 C17.877023,19.0520474 18.2520189,18.9770511 18.5460158,18.7490625 C18.8340126,18.5250737 19.0000108,18.1860907 19.0000108,17.8211089 L19.0000108,15.6292185 C19.0000108,14.9352532 18.5880153,14.3092845 17.9500222,14.0342983 L16.0250431,13.2063397 C15.4030498,12.940353 14.6980575,12.9583521 14.092064,13.2633368 L12.9950759,13.8113094 C12.434082,14.0932953 11.7540894,14.0232988 11.2700946,13.6353182 C9.38011513,12.120394 7.58813455,10.3424829 6.35514792,8.75556222 C5.97015209,8.26058697 5.90115284,7.58062097 6.17914983,7.02464877 L6.73814377,5.90770461 C7.0401405,5.30273486 7.06114027,4.59977001 6.79314317,3.97680116 L5.96515215,2.04989751 C5.69115512,1.4119294 5.06516191,0.999950002 4.37016944,0.999950002 L2.1781932,0.999950002 Z M17.8210236,20 C17.6370256,20 17.4520276,19.9770011 17.2690296,19.9300035 C13.8920662,19.0630468 10.037108,16.6491675 6.69414425,13.3063347 C3.34918051,9.96150192 0.935206677,6.10669467 0.0702160547,2.73086346 C-0.0997821024,2.06789661 0.0422163582,1.379931 0.460211827,0.840957952 C0.874207339,0.306984651 1.50120054,0 2.1781932,0 L4.37016944,0 C5.46515757,0 6.45114688,0.648967552 6.8831422,1.65491725 L7.71113322,3.58182091 C8.09612905,4.47577621 8.06712936,5.48572571 7.63213408,6.35468227 L7.07414013,7.47262637 C6.96514131,7.68861557 6.99214102,7.94560272 7.14413937,8.14259287 C8.31512667,9.64551772 10.0911074,11.4084296 11.8960879,12.8543573 C12.0760859,13.0013499 12.3320831,13.0233488 12.5480808,12.9163542 L13.6450689,12.3683816 C14.5140595,11.9324034 15.5250485,11.9034048 16.4190388,12.2883856 L18.3450179,13.1163442 C19.351007,13.5483226 20,14.5342733 20,15.6292185 L20,17.8211089 C20,18.4980751 19.6940033,19.1240438 19.1590091,19.539023 C18.7700133,19.8420079 18.3010184,20 17.8210236,20 L17.8210236,20 Z" id="fill"></path>
                                    </g>
                                </g>
                            </g>
                        </g>
                    </g>
                </g>
            </g>
        </g>
    </g>
</svg>