
<svg width="116px" height="2px" viewBox="0 0 116 2" version="1.1" xmlns="http://www.w3.org/2000/svg" xmlns:xlink="http://www.w3.org/1999/xlink">
    <!-- Generator: Sketch 49 (51002) - http://www.bohemiancoding.com/sketch -->
    <desc>Created with Sketch.</desc>
    <defs></defs>
    <g id="Video-Centric-" stroke="none" stroke-width="1" fill="none" fill-rule="evenodd">
        <g id="Video-Centric-5.1" transform="translate(-625.000000, -665.000000)" fill="#FFFFFF">
            <g id="App">
                <g id="video-strip" transform="translate(325.000000, 638.000000)">
                    <g id="attendee" transform="translate(294.000000, 1.000000)">
                        <g id="sound-wave" transform="translate(6.000000, 26.000000)">
                            <rect id="Rectangle-211" x="15" y="0" width="2" height="2" rx="1"></rect>
                            <rect id="Rectangle-211" x="10" y="0" width="2" height="2" rx="1"></rect>
                            <rect id="Rectangle-211" x="20" y="0" width="2" height="2" rx="1"></rect>
                            <rect id="Rectangle-211" x="25" y="0" width="2" height="2" rx="1"></rect>
                            <rect id="Rectangle-211" x="30" y="0" width="2" height="2" rx="1"></rect>
                            <rect id="Rectangle-211" x="35" y="0" width="2" height="2" rx="1"></rect>
                            <rect id="Rectangle-211" x="40" y="0" width="2" height="2" rx="1"></rect>
                            <rect id="Rectangle-211" x="45" y="0" width="2" height="2" rx="1"></rect>
                            <rect id="Rectangle-211" x="50" y="0" width="2" height="2" rx="1"></rect>
                            <rect id="Rectangle-211" x="55" y="0" width="2" height="2" rx="1"></rect>
                            <rect id="Rectangle-211" x="60" y="0" width="2" height="2" rx="1"></rect>
                            <rect id="Rectangle-211" x="65" y="0" width="2" height="2" rx="1"></rect>
                            <rect id="Rectangle-211" x="70" y="0" width="2" height="2" rx="1"></rect>
                            <rect id="Rectangle-211" x="75" y="0" width="2" height="2" rx="1"></rect>
                            <rect id="Rectangle-211" x="80" y="0" width="2" height="2" rx="1"></rect>
                            <rect id="Rectangle-211" x="85" y="0" width="2" height="2" rx="1"></rect>
                            <rect id="Rectangle-211" x="90" y="0" width="2" height="2" rx="1"></rect>
                            <rect id="Rectangle-211" x="95" y="0" width="2" height="2" rx="1"></rect>
                            <rect id="Rectangle-211" x="100" y="0" width="2" height="2" rx="1"></rect>
                            <rect id="Rectangle-211" x="5" y="0" width="2" height="2" rx="1"></rect>
                            <rect id="Rectangle-211" x="0" y="0" width="2" height="2" rx="1"></rect>
                            <rect id="Rectangle-211" x="114" y="0" width="2" height="2" rx="1"></rect>
                            <rect id="Rectangle-211" x="109" y="0" width="2" height="2" rx="1"></rect>
                            <rect id="Rectangle-211" x="104" y="0" width="2" height="2" rx="1"></rect>
                        </g>
                    </g>
                </g>
            </g>
        </g>
    </g>
</svg>