
<svg width="14px" height="14px" viewBox="0 0 14 14" version="1.1" xmlns="http://www.w3.org/2000/svg" xmlns:xlink="http://www.w3.org/1999/xlink">
    <!-- Generator: Sketch 49 (51002) - http://www.bohemiancoding.com/sketch -->
    <desc>Created with Sketch.</desc>
    <defs>
        <path d="M12,6 C12,9.31435706 9.31435706,12 6,12 C2.68564294,12 0,9.31435706 0,6 C0,2.68614178 2.68589439,0 6,0 C9.31410561,0 12,2.68614178 12,6 Z" id="path-1"></path>
    </defs>
    <g id="Sharing" stroke="none" stroke-width="1" fill="none" fill-rule="evenodd">
        <g id="Sharing-5.0" transform="translate(-761.000000, -21.000000)">
            <g id="App" transform="translate(-11.000000, -10.000000)">
                <g id="top-control-bar" transform="translate(27.000000, 22.000000)">
                    <g id="icon" transform="translate(746.000000, 10.000000)">
                        <g id="Path">
                            <use fill-opacity="0.8" fill="#FFFFFF" fill-rule="evenodd" xlink:href="#path-1"></use>
                            <path stroke-opacity="0.08" stroke="#000000" stroke-width="1" d="M12.5,6 C12.5,9.59049944 9.59049944,12.5 6,12.5 C2.40950056,12.5 -0.5,9.59049944 -0.5,6 C-0.5,2.40991715 2.40983427,-0.5 6,-0.5 C9.59016573,-0.5 12.5,2.40991715 12.5,6 Z"></path>
                        </g>
                        <path d="M9,6 C9,7.65714271 7.65714271,9 6,9 C4.34285729,9 3,7.65714271 3,6 C3,4.34285729 4.34285729,3 6,3 C7.65714271,3 9,4.34285729 9,6 Z" id="Path" fill="#F5483F"></path>
                    </g>
                </g>
            </g>
        </g>
    </g>
</svg>