
<svg width="64px" height="52px" viewBox="0 0 64 52" version="1.1" xmlns="http://www.w3.org/2000/svg" xmlns:xlink="http://www.w3.org/1999/xlink">
    <g id="Interstitial" stroke="none" stroke-width="1" fill="none" fill-rule="evenodd">
        <g id="Intersitial-FTE-7.0" transform="translate(-610.000000, -494.000000)">
            <g id="Group-6" transform="translate(590.000000, 470.000000)">
                <g id="img_click" transform="translate(20.000000, 20.000000)">
                    <rect id="bound" x="0" y="0" width="64" height="64"></rect>
                    <g id="Group" transform="translate(0.000000, 4.000000)">
                        <g id="Group-12" transform="translate(0.145055, 0.000000)">
                            <path d="M58.4391808,34.0800475 L5.35666836,34.0800475 L5.35666836,2.96129273 C5.35666836,1.45888012 6.57622091,0.240814829 8.08030927,0.240814829 L55.7155399,0.240814829 C57.2196283,0.240814829 58.4391808,1.45888012 58.4391808,2.96129273 L58.4391808,34.0800475 Z" id="Fill-1" fill="#06457A"></path>
                            <path d="M31.8979881,34.0800475 L0.233103545,34.0800475 L0.233103545,34.8652519 C0.233103545,36.1120055 1.2449275,37.122754 2.4932034,37.122754 L31.8979881,37.122754 L61.3026141,37.122754 C62.55089,37.122754 63.5628726,36.1120055 63.5628726,34.8652519 L63.5628726,34.0800475 L31.8979881,34.0800475 Z" id="Fill-3" fill="#77BD4A"></path>
                        </g>
                        <g id="Group-7" transform="translate(0.000000, 6.500000)">
                            <path d="M-4.26325641e-14,12.851823 C-4.26325641e-14,19.9496584 5.77684666,25.703646 12.9026597,25.703646 L12.9026597,25.703646 C20.0284727,25.703646 25.8051408,19.9496584 25.8051408,12.851823 L25.8051408,12.851823 C25.8051408,5.75398758 20.0284727,1.42108547e-14 12.9026597,1.42108547e-14 L12.9026597,1.42108547e-14 C5.77684666,1.42108547e-14 -4.26325641e-14,5.75398758 -4.26325641e-14,12.851823 L-4.26325641e-14,12.851823 Z" id="Clip-14" fill="#00BCEB"></path>
                            <g id="Group-28" transform="translate(6.861947, 12.780692)" stroke="#FFFFFF" stroke-width="1.125">
                                <path d="M3.89939828,14.5526254 L3.89939828,1.94424923 C3.89939828,0.909644672 4.74134181,0.0710068066 5.77984595,0.0710068066 C6.81852862,0.0710068066 7.66029363,0.909644672 7.66029363,1.94424923 L7.66029363,14.5526254" id="Stroke-16"></path>
                                <path d="M7.66036504,14.5526254 L7.66036504,11.4655276 C7.66036504,10.430923 8.50230857,9.59228514 9.54081271,9.59228514 C10.5794954,9.59228514 11.4212604,10.430923 11.4212604,11.4655276 L11.4212604,14.5526254" id="Stroke-18"></path>
                                <path d="M0.138431513,17.9572355 L0.138431513,14.8701377 C0.138431513,13.8355331 0.980375046,12.9968952 2.01887919,12.9968952 C3.05756186,12.9968952 3.89932686,13.8355331 3.89932686,14.8701377 L3.89932686,20.1582153" id="Stroke-20"></path>
                                <path d="M11.4213497,14.5526254 L11.4213497,11.4655276 C11.4213497,10.430923 12.2632932,9.59228514 13.3016188,9.59228514 C14.3403015,9.59228514 15.1820665,10.430923 15.1820665,11.4655276 L15.1820665,14.5526254" id="Stroke-22"></path>
                                <path d="M15.1821379,14.5526254 L15.1821379,11.4655276 C15.1821379,10.430923 16.0240814,9.59228514 17.0625856,9.59228514 C18.1012682,9.59228514 18.9430332,10.430923 18.9430332,11.4655276 L18.9430332,14.5526254" id="Stroke-24"></path>
                                <path d="M18.9431046,14.5526254 L18.9431046,22.4401959 C18.9431046,27.6125074 14.7335655,31.8056967 9.54086627,31.8056967 C4.3479885,31.8056967 0.138449366,27.6125074 0.138449366,22.4401959 L0.138449366,17.9573244" id="Stroke-26"></path>
                            </g>
                            <g id="Group-47" transform="translate(6.824288, 11.987258)" stroke="#FFFFFF" stroke-width="1.125">
                                <path d="M3.93705677,15.3460591 L3.93705677,2.73768296 C3.93705677,1.7030784 4.7790003,0.864440533 5.81750445,0.864440533 C6.85618712,0.864440533 7.69795212,1.7030784 7.69795212,2.73768296 L7.69795212,15.3460591" id="Stroke-29"></path>
                                <path d="M7.69802353,15.3460591 L7.69802353,12.2589613 C7.69802353,11.2243567 8.53996707,10.3857189 9.57847121,10.3857189 C10.6171539,10.3857189 11.4589189,11.2243567 11.4589189,12.2589613 L11.4589189,15.3460591" id="Stroke-32"></path>
                                <path d="M0.176090008,18.7506692 L0.176090008,15.6635714 C0.176090008,14.6289668 1.01803354,13.790329 2.05653768,13.790329 C3.09522036,13.790329 3.93698536,14.6289668 3.93698536,15.6635714 L3.93698536,20.951649" id="Stroke-35"></path>
                                <path d="M11.4590081,15.3460591 L11.4590081,12.2589613 C11.4590081,11.2243567 12.3009517,10.3857189 13.3392773,10.3857189 C14.37796,10.3857189 15.219725,11.2243567 15.219725,12.2589613 L15.219725,15.3460591" id="Stroke-38"></path>
                                <path d="M15.2197964,15.3460591 L15.2197964,12.2589613 C15.2197964,11.2243567 16.0617399,10.3857189 17.1002441,10.3857189 C18.1389267,10.3857189 18.9806917,11.2243567 18.9806917,12.2589613 L18.9806917,15.3460591" id="Stroke-41"></path>
                                <path d="M18.9807631,15.3460591 L18.9807631,23.2336296 C18.9807631,28.4059411 14.771224,32.5991304 9.57852477,32.5991304 C4.385647,32.5991304 0.176107861,28.4059411 0.176107861,23.2336296 L0.176107861,18.7507581" id="Stroke-44"></path>
                            </g>
                            <g id="Group-58" transform="translate(5.076655, 4.778422)" stroke="#FFFFFF" stroke-linecap="round" stroke-width="1.125">
                                <path d="M7.90341464,3.31245952 L7.90341464,0.14444986" id="Stroke-48"></path>
                                <path d="M4.86754407,4.224167 L2.67377772,2.03901389" id="Stroke-50"></path>
                                <path d="M3.0590615,6.51370528 L0.0433468808,5.78727702" id="Stroke-52"></path>
                                <path d="M15.0869461,5.82687936 L12.07141,6.55330763" id="Stroke-54"></path>
                                <path d="M10.6207535,4.224167 L12.8146984,2.03901389" id="Stroke-56"></path>
                            </g>
                        </g>
                    </g>
                </g>
            </g>
        </g>
    </g>
</svg>