
<svg width="64px" height="56px" viewBox="0 0 64 56" version="1.1" xmlns="http://www.w3.org/2000/svg" xmlns:xlink="http://www.w3.org/1999/xlink">
    <g id="Interstitial" stroke="none" stroke-width="1" fill="none" fill-rule="evenodd">
        <g id="Intersitial-FTE-4.0" transform="translate(-366.000000, -560.000000)">
            <g id="FTE" transform="translate(346.000000, 536.000000)">
                <g id="img_device" transform="translate(20.000000, 20.000000)">
                    <rect id="bound" x="0" y="0" width="64" height="64"></rect>
                    <g id="illustration" transform="translate(0.000000, 4.000000)">
                        <g id="device">
                            <rect id="Rectangle" fill-opacity="0.3" fill="#FFFFFF" x="0" y="6" width="60" height="28" rx="1"></rect>
                            <rect id="Rectangle" stroke="#FFFFFF" x="0.5" y="0.5" width="59" height="39" rx="4"></rect>
                        </g>
                        <g id="dx80" transform="translate(26.000000, 22.000000)">
                            <g id="Group-13" fill="#02BBCC">
                                <path d="M2,0 L36,0 C37.1045695,-2.02906125e-16 38,0.8954305 38,2 L38,32 C38,33.1045695 37.1045695,34 36,34 L31.2249935,34 C30.6965926,34 30.1896632,33.7908933 29.8149333,33.4183547 L29.0850667,32.6927564 C28.7103368,32.3202178 28.2034074,32.1111111 27.6750065,32.1111111 L10.3249935,32.1111111 C9.79659263,32.1111111 9.28966323,32.3202178 8.91493327,32.6927564 L8.18506673,33.4183547 C7.81033677,33.7908933 7.30340737,34 6.77500648,34 L2,34 C0.8954305,34 1.3527075e-16,33.1045695 0,32 L0,2 C-1.3527075e-16,0.8954305 0.8954305,2.02906125e-16 2,0 Z" id="Rectangle"></path>
                            </g>
                            <rect id="Rectangle" fill="#005FA4" x="0" y="25" width="38" height="1"></rect>
                            <circle id="Oval" fill="#005FA4" cx="19" cy="3" r="1"></circle>
                        </g>
                        <g id="webex-share" transform="translate(10.000000, 27.000000)">
                            <circle id="Oval" fill="#F86627" cx="12" cy="12" r="12"></circle>
                            <g id="hardware/webex-share_12" transform="translate(6.000000, 5.500000)" fill="#FFFFFF">
                                <g id="webex-share_12">
                                    <path d="M6.5,0.000461538462 C7.01257143,0.000461538462 7.43546939,0.385885008 7.49326822,0.883708259 L7.5,1.00046154 L7.5,2.44146154 C7.778,2.61046154 8.039,2.81346154 8.254,3.08446154 C8.843,3.82646154 9.441,4.67346154 10.008,5.62846154 C10.552,6.54546154 10.992,7.43346154 11.35,8.26746154 C12.033,9.86146154 10.94,11.6384615 9.164,11.8314615 C8.4304,11.9106615 7.6488,11.9674615 6.823296,11.9900855 L6.196,12.0004615 L6.046,12.0004615 C4.886,12.0004615 3.804,11.9294615 2.814,11.8184615 C1.073,11.6214615 -0.005,9.88946154 0.627,8.31146154 C0.964,7.46846154 1.394,6.56446154 1.944,5.62846154 C2.525,4.64046154 3.147,3.77946154 3.76,3.03646154 C3.9304,2.82926154 4.12832,2.66430154 4.339424,2.52314954 L4.5,2.42146154 L4.5,1.00046154 C4.5,0.486961538 4.88628571,0.0648594976 5.38343149,0.00717910406 L5.5,0.000461538462 L6.5,0.000461538462 Z M5.983,3.00046154 C5.413,3.00046154 4.883,3.24546154 4.531,3.67146154 C3.892,4.44746154 3.311,5.27746154 2.805,6.13646154 C2.326,6.95146154 1.906,7.80846154 1.555,8.68346154 C1.375,9.13246154 1.414,9.61046154 1.664,10.0284615 C1.93,10.4734615 2.39,10.7634615 2.926,10.8244615 C3.7516,10.9180615 4.58808,10.9745415 5.421616,10.9933895 L6.046,11.0004615 L6.191,11.0004615 C7.144,10.9944615 8.107,10.9394615 9.055,10.8364615 C9.607,10.7774615 10.077,10.4804615 10.345,10.0214615 C10.594,9.59546154 10.624,9.11346154 10.431,8.66146154 C10.061,7.79846154 9.629,6.95046154 9.148,6.13946154 C8.647,5.29446154 8.082,4.47646154 7.47,3.70546154 C7.115,3.25746154 6.573,3.00046154 5.983,3.00046154 Z M6,5.24996154 C7.241,5.24996154 8.25,6.25996154 8.25,7.49996154 C8.25,8.73996154 7.241,9.74996154 6,9.74996154 C4.759,9.74996154 3.75,8.73996154 3.75,7.49996154 C3.75,6.25996154 4.759,5.24996154 6,5.24996154 Z M6,6.24996154 C5.31,6.24996154 4.75,6.80996154 4.75,7.49996154 C4.75,8.18996154 5.31,8.74996154 6,8.74996154 C6.69,8.74996154 7.25,8.18996154 7.25,7.49996154 C7.25,6.80996154 6.69,6.24996154 6,6.24996154 Z M6.5,1.00046154 L5.5,1.00046154 L5.5,2.05046154 C5.66,2.02346154 5.821,2.00046154 5.983,2.00046154 C6.099,2.00046154 6.21411111,2.01157265 6.32862963,2.02786895 L6.5,2.05546154 L6.5,1.00046154 Z" id="fill"></path>
                                </g>
                            </g>
                        </g>
                    </g>
                </g>
            </g>
        </g>
    </g>
</svg>