
<svg width="64px" height="60px" viewBox="0 0 64 60" version="1.1" xmlns="http://www.w3.org/2000/svg" xmlns:xlink="http://www.w3.org/1999/xlink">
    <defs>
        <circle id="path-1" cx="24" cy="24" r="24"></circle>
    </defs>
    <g id="Interstitial" stroke="none" stroke-width="1" fill="none" fill-rule="evenodd">
        <g id="Intersitial-FTE-3.0" transform="translate(-734.000000, -560.000000)">
            <g id="Group-6" transform="translate(714.000000, 538.000000)">
                <g id="img_headset" transform="translate(20.000000, 20.000000)">
                    <rect id="bound" x="0" y="0" width="64" height="64"></rect>
                    <g id="illustration" transform="translate(1.000000, 2.000000)">
                        <path d="M45.5,44 L14.5,44 C6.49187113,44 9.80712939e-16,37.5081289 0,29.5 C-9.80712939e-16,21.4918711 6.49187113,15 14.5,15 L18.9392523,15 L18.9392523,15" id="Path-4" stroke="#FFFFFF"></path>
                        <g id="Path" transform="translate(8.000000, 0.000000)">
                            <mask id="mask-2" fill="white">
                                <use xlink:href="#path-1"></use>
                            </mask>
                            <use id="Mask" fill="#FAB000" xlink:href="#path-1"></use>
                            <path d="M8.5,44 L6.5,44 C-1.50812887,44 -8,37.5081289 -8,29.5 C-8,21.4918711 -1.50812887,15 6.5,15 L17,15 L17,15" id="Path-4" stroke="#005FA4" mask="url(#mask-2)"></path>
                            <polyline id="Path-5" stroke="#005FA4" stroke-linecap="round" stroke-linejoin="round" mask="url(#mask-2)" points="11 9 17 15 11 21"></polyline>
                        </g>
                        <g id="headset" transform="translate(34.000000, 31.000000)">
                            <g id="Group-2">
                                <circle id="Oval" fill="#08599C" cx="14" cy="14" r="14"></circle>
                                <path d="M2.8,22.5620549 C5.37072104,25.8693595 9.4049686,28 13.9409377,28 C21.7055434,28 28,21.7567776 28,14.0553724 C28,11.2851162 27.1855617,8.7035339 25.7812206,6.53333333" id="Path" stroke="#FFFFFF" stroke-linecap="round"></path>
                            </g>
                            <g id="audio/microphone_12" transform="translate(8.000000, 8.000000)" fill="#FFFFFF">
                                <g id="microphone_12" transform="translate(3.000000, 0.000000)">
                                    <path d="M1.5,7.5 L1.5,2.5 C1.5,1.673 2.173,1 3,1 C3.827,1 4.5,1.673 4.5,2.5 L4.5,7.5 C4.5,8.327 3.827,9 3,9 C2.173,9 1.5,8.327 1.5,7.5 M5.5,7.5 L5.5,2.5 C5.5,1.125 4.375,1.77635684e-15 3,1.77635684e-15 C1.625,1.77635684e-15 0.5,1.125 0.5,2.5 L0.5,7.5 C0.5,8.704 1.362,9.716 2.5,9.949 L2.5,11 L2.501,11 L1.5,11 C1.225,11 1,11.226 1,11.5 C1,11.775 1.225,12 1.5,12 L4.5,12 C4.775,12 5,11.775 5,11.5 C5,11.226 4.775,11 4.5,11 L3.5,11 L3.5,9.949 C4.638,9.716 5.5,8.704 5.5,7.5" id="fill"></path>
                                </g>
                            </g>
                        </g>
                        <g id="audio/speaker_16" transform="translate(24.000000, 16.000000)" fill="#FFFFFF">
                            <g id="speaker_16">
                                <path d="M8.547,0.0568 C8.787625,0.15655 8.95398438,0.372675 8.99181445,0.624784375 L9,0.7348 L9,15.2658 C9,15.5638 8.822,15.8288 8.547,15.9438 C8.455,15.9818 8.36,15.9998 8.265,15.9998 C8.1122,15.9998 7.96196,15.9518 7.835784,15.860408 L7.746,15.7838 L3.265,10.9998 L2,10.9998 C0.948090909,10.9998 0.0820578512,10.1824921 0.00550093914,9.14886734 L0,8.9998 L0,6.9998 C0,5.94789091 0.818219008,5.08185785 1.85105691,5.00530094 L2,4.9998 L3.265,4.9998 L7.735,0.2278 C7.739,0.2238 7.742,0.2198 7.746,0.2158 C7.957,0.0048 8.271,-0.0582 8.547,0.0568 Z M8,1.4068 L3.846,5.8418 C3.7708,5.9226 3.67128,5.97524 3.563312,5.993064 L3.481,5.9998 L2,5.9998 C1.48835714,5.9998 1.06466327,6.38608571 1.00674599,6.88323149 L1,6.9998 L1,8.9998 C1,9.51237143 1.38714796,9.93526939 1.88361625,9.99306822 L2,9.9998 L3.481,9.9998 C3.5922,9.9998 3.69892,10.03692 3.785288,10.102968 L3.846,10.1578 L8,14.5928 L8,1.4068 Z M13.6572,2.3428 C16.7762,5.4618 16.7762,10.5378 13.6572,13.6568 C13.5592,13.7548 13.4312,13.8038 13.3032,13.8038 C13.1762,13.8038 13.0482,13.7548 12.9502,13.6568 C12.7552,13.4618 12.7552,13.1458 12.9502,12.9498 C15.6792,10.2208 15.6792,5.7798 12.9502,3.0498 C12.7552,2.8548 12.7552,2.5378 12.9502,2.3428 C13.1452,2.1478 13.4622,2.1478 13.6572,2.3428 Z M11.5362,3.7578 C11.7312,3.5628 12.0482,3.5628 12.2432,3.7578 C13.3762,4.8908 14.0002,6.3978 14.0002,7.9998 C14.0002,9.6028 13.3762,11.1098 12.2432,12.2418 C12.1452,12.3398 12.0172,12.3888 11.8892,12.3888 C11.7622,12.3888 11.6342,12.3398 11.5362,12.2418 C11.3412,12.0468 11.3412,11.7308 11.5362,11.5348 C12.4802,10.5908 13.0002,9.3358 13.0002,7.9998 C13.0002,6.6638 12.4802,5.4088 11.5362,4.4648 C11.3412,4.2698 11.3412,3.9528 11.5362,3.7578 Z" id="fill"></path>
                            </g>
                        </g>
                    </g>
                </g>
            </g>
        </g>
    </g>
</svg>