
<svg width="60px" height="50px" viewBox="0 0 60 50" version="1.1" xmlns="http://www.w3.org/2000/svg" xmlns:xlink="http://www.w3.org/1999/xlink">
    <g id="Interstitial" stroke="none" stroke-width="1" fill="none" fill-rule="evenodd">
        <g id="Intersitial-FTE-2.0" transform="translate(-459.000000, -466.000000)">
            <g id="Group" transform="translate(437.000000, 442.000000)">
                <g id="img_mute" transform="translate(20.000000, 20.000000)">
                    <rect id="bound" x="0" y="0" width="64" height="64"></rect>
                    <g id="illustration" transform="translate(1.000000, 4.000000)">
                        <path d="M46,0 C48.209139,-4.05812251e-16 50,1.790861 50,4 L50,13.424 L59.4069076,6.49561735 C59.8515711,6.16806147 60.4775785,6.26299592 60.8051344,6.70765938 C60.9317162,6.87949659 61,7.08732503 61,7.30075176 L61,26.8030146 C61,27.3552994 60.5522847,27.8030146 60,27.8030146 C59.7674708,27.8030146 59.5422103,27.7219806 59.3629681,27.5738521 L50,19.835 L50,29 C50,31.209139 48.209139,33 46,33 L21,33 C18.790861,33 17,31.209139 17,29 L17,4 C17,1.790861 18.790861,4.05812251e-16 21,0 L46,0 Z" id="Combined-Shape" fill="#00B8E6"></path>
                        <path d="M50,20 C53.3137085,20 56,22.6862915 56,26 L56,39 C56,41.9727145 53.8381232,44.4404956 51.0008069,44.9169061 L51,48 L54,48 C54.5522847,48 55,48.4477153 55,49 C55,49.5522847 54.5522847,50 54,50 L46,50 C45.4477153,50 45,49.5522847 45,49 C45,48.4477153 45.4477153,48 46,48 L49,48 L49.0001915,44.9170737 C46.1623839,44.4410745 44,41.9730632 44,39 L44,26 C44,22.6862915 46.6862915,20 50,20 Z" id="Combined-Shape" fill="#FAB000"></path>
                        <g id="settings" transform="translate(0.000000, 14.000000)">
                            <rect id="Rectangle" x="0" y="0" width="36" height="36"></rect>
                            <g id="Group" transform="translate(1.000000, 7.000000)" stroke="#FFFFFF">
                                <rect id="Rectangle" x="0.5" y="3.9" width="34" height="1" rx="0.5"></rect>
                                <rect id="Rectangle" stroke-width="1.2" fill="#005FA4" x="4.6" y="0.6" width="6.8" height="6.8" rx="3.4"></rect>
                            </g>
                            <g id="Group" transform="translate(1.000000, 22.000000)" stroke="#FFFFFF">
                                <rect id="Rectangle" x="0.5" y="3.9" width="34" height="1" rx="0.5"></rect>
                                <rect id="Rectangle" stroke-width="1.2" fill="#005FA4" x="23.6" y="0.6" width="6.8" height="6.8" rx="3.4"></rect>
                            </g>
                        </g>
                    </g>
                </g>
            </g>
        </g>
    </g>
</svg>