
<svg width="24px" height="24px" viewBox="0 0 24 24" version="1.1" xmlns="http://www.w3.org/2000/svg" xmlns:xlink="http://www.w3.org/1999/xlink">
    <!-- Generator: Sketch 48.2 (47327) - http://www.bohemiancoding.com/sketch -->
    <desc>Created with Sketch.</desc>
    <defs></defs>
    <g id="Floating-Action-Bar" stroke="none" stroke-width="1" fill="none" fill-rule="evenodd">
        <g id="3.0" transform="translate(-453.000000, -425.000000)" fill="#4F5051">
            <g id="Share-dialog" transform="translate(185.000000, 88.000000)">
                <g id="Group-3" transform="translate(64.000000, 312.000000)">
                    <g id="item" transform="translate(148.000000, 0.000000)">
                        <g id="applications_24" transform="translate(56.000000, 25.000000)">
                            <g id="icon">
                                <path d="M23,3 L12,3 L12,2.531 C12,1.687 12.687,1 13.531,1 L21.469,1 C22.313,1 23,1.687 23,2.531 L23,3 Z M23,9.469 C23,10.313 22.313,11 21.469,11 L18,11 L18,8.531 C18,7.136 16.864,6 15.469,6 L12,6 L12,4 L23,4 L23,9.469 Z M17,9 L6,9 L6,8.531 C6,7.687 6.687,7 7.531,7 L15.469,7 C16.313,7 17,7.687 17,8.531 L17,9 Z M17,15.469 C17,16.313 16.313,17 15.469,17 L13,17 L13,14.531 C13,13.136 11.864,12 10.469,12 L6,12 L6,10 L17,10 L17,15.469 Z M12,15 L1,15 L1,14.531 C1,13.687 1.687,13 2.531,13 L10.469,13 C11.313,13 12,13.687 12,14.531 L12,15 Z M12,21.469 C12,22.313 11.313,23 10.469,23 L2.531,23 C1.687,23 1,22.313 1,21.469 L1,16 L12,16 L12,21.469 Z M21.469,0 L13.531,0 C12.136,0 11,1.136 11,2.531 L11,6 L7.531,6 C6.136,6 5,7.136 5,8.531 L5,12 L2.531,12 C1.136,12 0,13.136 0,14.531 L0,21.469 C0,22.864 1.136,24 2.531,24 L10.469,24 C11.864,24 13,22.864 13,21.469 L13,18 L15.469,18 C16.864,18 18,16.864 18,15.469 L18,12 L21.469,12 C22.864,12 24,10.864 24,9.469 L24,2.531 C24,1.136 22.864,0 21.469,0 L21.469,0 Z" id="fill"></path>
                            </g>
                        </g>
                    </g>
                </g>
            </g>
        </g>
    </g>
</svg>