
<svg width="20px" height="20px" viewBox="0 0 20 20" version="1.1" xmlns="http://www.w3.org/2000/svg" xmlns:xlink="http://www.w3.org/1999/xlink">
    <!-- Generator: Sketch 48.2 (47327) - http://www.bohemiancoding.com/sketch -->
    <desc>Created with Sketch.</desc>
    <defs></defs>
    <g id="Symbols" stroke="none" stroke-width="1" fill="none" fill-rule="evenodd">
        <g id="video-controls/record_20_w" fill="#FFFFFF">
            <g id="record_20_w">
                <g id="icon">
                    <path d="M10,1 C5.038,1 1,5.038 1,10 C1,14.962 5.038,19 10,19 C14.962,19 19,14.962 19,10 C19,5.038 14.962,1 10,1 M10,20 C4.486,20 0,15.514 0,10 C0,4.486 4.486,0 10,0 C15.514,0 20,4.486 20,10 C20,15.514 15.514,20 10,20 Z M10,7 C11.654,7 13,8.346 13,10 C13,11.654 11.654,13 10,13 C8.346,13 7,11.654 7,10 C7,8.346 8.346,7 10,7 Z M10,14 C12.206,14 14,12.206 14,10 C14,7.794 12.206,6 10,6 C7.794,6 6,7.794 6,10 C6,12.206 7.794,14 10,14 Z" id="fill"></path>
                </g>
            </g>
        </g>
    </g>
</svg>