
<svg width="24px" height="24px" viewBox="0 0 24 24" version="1.1" xmlns="http://www.w3.org/2000/svg" xmlns:xlink="http://www.w3.org/1999/xlink">
    <!-- Generator: Sketch 49 (51002) - http://www.bohemiancoding.com/sketch -->
    <desc>Created with Sketch.</desc>
    <defs></defs>
    <g id="Call-Control" stroke="none" stroke-width="1" fill="none" fill-rule="evenodd">
        <g id="Call-Control-1.1" transform="translate(-363.000000, -362.000000)" fill="#343537">
            <g id="App">
                <g id="Dialog" transform="translate(343.000000, 234.000000)">
                    <g id="item" transform="translate(0.000000, 104.000000)">
                        <g id="icon" transform="translate(20.000000, 24.000000)">
                            <path d="M2.44453033,1.99184958 C1.99226187,1.99184958 1.57272336,2.19716245 1.29501466,2.5542283 C1.02226504,2.90534305 0.92804244,3.35167536 1.03615047,3.78015438 C1.98531915,7.51744362 4.68206904,11.8121523 8.43510383,15.5653111 C12.1851632,19.3164863 16.4797299,22.0133253 20.2188793,22.9635172 C20.6483359,23.0706369 21.0946535,22.9774031 21.4457567,22.7036526 C21.8028107,22.4259347 22.0081168,22.0073742 22.0081168,21.5550908 L22.0081168,19.0159558 C22.0081168,18.1788348 21.5112166,17.4240373 20.7415667,17.0927595 L18.5109707,16.133641 C17.7671081,15.8132735 16.9270393,15.8400535 16.2040049,16.2010867 L14.9334875,16.8358705 C14.3106266,17.1502868 13.5538704,17.0669714 13.0044038,16.6246065 C10.8303414,14.8809349 8.76835427,12.8317737 7.34807261,11.0047868 C6.92159139,10.4572858 6.84422967,9.7054638 7.15169288,9.08952521 L7.79835744,7.79615335 C8.16037057,7.07210315 8.18516599,6.23101471 7.86480917,5.48811937 L6.90572232,3.25744965 C6.57544732,2.48876623 5.82067473,1.99184958 4.98457317,1.99184958 L2.44453033,1.99184958 Z M20.5719661,24 C20.3726109,24 20.1732557,23.9752038 19.9748923,23.9246194 C16.0681259,22.931778 11.6059421,20.1407133 7.73388935,16.2665488 C3.85786928,12.3913925 1.06689679,7.92906119 0.0750799886,4.02414938 C-0.109397937,3.29712364 0.0492927517,2.53935055 0.512471199,1.94523265 C0.979616914,1.34516366 1.68380684,1 2.44453033,1 L4.98457317,1 C6.21839327,1 7.33021991,1.73198499 7.81720196,2.86566907 L8.77628881,5.09633878 C9.21169639,6.10802536 9.17896643,7.25361163 8.68603348,8.23951011 L8.03936892,9.53387382 C7.89952275,9.81258355 7.93423634,10.1438613 8.13061607,10.3957911 C9.50626598,12.1642589 11.5087441,14.1529173 13.6242893,15.8519557 C13.8712517,16.0493337 14.2124367,16.0880159 14.4901454,15.9491569 L15.7606627,15.3133813 C16.7475205,14.8204321 17.8920771,14.7886929 18.9027384,15.223123 L21.1333344,16.1822416 C22.266981,16.6692397 22.9999336,17.7811031 22.9999336,19.0159558 L22.9999336,21.5550908 C22.9999336,22.3158394 22.6547813,23.0200526 22.0537404,23.4862219 C21.6223001,23.8234508 21.102588,24 20.5719661,24 Z M14.14575,9.85425 C13.95075,9.65925 13.95075,9.34225 14.14575,9.14725 L22.29175,1.00025 L15.49975,1.00025 C15.22375,1.00025 14.99975,0.77725 14.99975,0.50025 C14.99975,0.22425 15.22375,0.00025 15.49975,0.00025 L23.49975,0.00025 C23.77575,0.00025 23.99975,0.22425 23.99975,0.50025 L23.99975,8.50025 C23.99975,8.77725 23.77575,9.00025 23.49975,9.00025 C23.22275,9.00025 22.99975,8.77725 22.99975,8.50025 L22.99975,1.70825 L14.85275,9.85425 C14.65775,10.04925 14.34075,10.04925 14.14575,9.85425 Z" id="Combined-Shape"></path>
                        </g>
                    </g>
                </g>
            </g>
        </g>
    </g>
</svg>