
<svg width="12px" height="12px" viewBox="0 0 12 12" version="1.1" xmlns="http://www.w3.org/2000/svg" xmlns:xlink="http://www.w3.org/1999/xlink">
    <g id="V2-flow" stroke="none" stroke-width="1" fill="none" fill-rule="evenodd">
        <g id="AV-main-flows" transform="translate(-425.000000, -7198.000000)">
            <rect fill="#FFFFFF" x="0" y="0" width="6687" height="10089"></rect>
            <g id="App-Copy-12" transform="translate(132.000000, 6818.000000)" fill="#E14634">
                <g id="content" transform="translate(147.000000, 62.000000)">
                    <g id="disconnect" transform="translate(146.000000, 314.000000)">
                        <g id="alerts-and-notifications/error-legacy_12" transform="translate(0.000000, 4.000000)">
                            <g id="error-legacy_12">
                                <path d="M11.569,2.8411 C11.848,3.1201 12,3.4891 12,3.8811 L12,8.1191 C12,8.5061 11.843,8.8851 11.569,9.1581 L9.158,11.5691 C8.885,11.8431 8.506,12.0001 8.119,12.0001 L3.881,12.0001 C3.495,12.0001 3.116,11.8431 2.842,11.5701 L0.431,9.1581 C0.157,8.8861 0,8.5071 0,8.1191 L0,3.8811 C0,3.4881 0.153,3.1191 0.431,2.8411 L2.841,0.4311 C3.119,0.1531 3.488,0.0001 3.881,0.0001 L8.119,0.0001 C8.507,0.0001 8.886,0.1571 9.159,0.4311 L11.569,2.8411 Z M11,8.1191 L11,3.8811 C11,3.7561 10.951,3.6371 10.861,3.5481 L8.451,1.1381 C8.363,1.0501 8.243,1.0001 8.119,1.0001 L3.881,1.0001 C3.755,1.0001 3.637,1.0491 3.548,1.1381 L1.138,3.5481 C1.05,3.6361 1,3.7571 1,3.8811 L1,8.1191 C1,8.2431 1.05,8.3631 1.137,8.4501 L3.548,10.8621 C3.636,10.9491 3.757,11.0001 3.881,11.0001 L8.119,11.0001 C8.242,11.0001 8.363,10.9501 8.451,10.8621 L10.862,8.4511 C10.95,8.3631 11,8.2421 11,8.1191 Z M7.8535,4.1465 C8.0485,4.3415 8.0485,4.6585 7.8535,4.8535 L6.7075,6.0005 L7.8535,7.1465 C8.0485,7.3415 8.0485,7.6585 7.8535,7.8535 C7.7555,7.9515 7.6275,8.0005 7.4995,8.0005 C7.3725,8.0005 7.2445,7.9515 7.1465,7.8535 L5.9995,6.7075 L4.8535,7.8535 C4.7555,7.9515 4.6275,8.0005 4.4995,8.0005 C4.3725,8.0005 4.2445,7.9515 4.1465,7.8535 C3.9515,7.6585 3.9515,7.3415 4.1465,7.1465 L5.2925,6.0005 L4.1465,4.8535 C3.9515,4.6585 3.9515,4.3415 4.1465,4.1465 C4.3415,3.9515 4.6585,3.9515 4.8535,4.1465 L5.9995,5.2925 L7.1465,4.1465 C7.3415,3.9515 7.6585,3.9515 7.8535,4.1465 Z" id="fill"></path>
                            </g>
                        </g>
                    </g>
                </g>
            </g>
        </g>
    </g>
</svg>