
<svg width="16px" height="16px" viewBox="0 0 16 16" version="1.1" xmlns="http://www.w3.org/2000/svg" xmlns:xlink="http://www.w3.org/1999/xlink">
    <g id="Mockup" stroke="none" stroke-width="1" fill="none" fill-rule="evenodd">
        <g id="Switch-Audio-2.0" transform="translate(-580.000000, -475.000000)" fill="#000000">
            <g id="Dialog-Copy-2" transform="translate(540.000000, 257.000000)">
                <g id="item" transform="translate(20.000000, 198.000000)">
                    <g id="phone/outgoing-call-legacy_16" transform="translate(20.000000, 20.000000)">
                        <g id="outgoing-call-legacy_16">
                            <path d="M13.7006,10.6729 C14.4896,11.0129 14.9996,11.7869 14.9996,12.6449 L14.9996,14.2609 C14.9996,14.8029 14.7546,15.3029 14.3266,15.6359 C14.0196,15.8749 13.6496,15.9999 13.2716,15.9999 C13.1296,15.9999 12.9866,15.9829 12.8456,15.9469 C10.3306,15.3079 7.4606,13.5149 4.9736,11.0269 C2.4846,8.5389 0.6916,5.6689 0.0526,3.1539 C-0.0784,2.6359 0.0366,2.0959 0.3656,1.6729 C0.6966,1.2449 1.1986,0.9999 1.7386,0.9999 L3.3546,0.9999 C4.2126,0.9999 4.9866,1.5099 5.3266,2.2989 L5.9366,3.7179 C6.2356,4.4119 6.2126,5.1979 5.8746,5.8729 L5.4626,6.6959 C5.4066,6.8089 5.4206,6.9449 5.5016,7.0489 C6.3556,8.1469 7.6516,9.4329 8.9676,10.4889 C9.0696,10.5719 9.2056,10.5869 9.3196,10.5299 L10.1276,10.1249 C10.8036,9.7869 11.5886,9.7659 12.2816,10.0629 L13.7006,10.6729 Z M13.9996,14.2609 L13.9996,12.6449 C13.9996,12.1869 13.7276,11.7729 13.3056,11.5919 L11.8876,10.9819 L11.8866,10.9819 C11.4636,10.7999 10.9856,10.8129 10.5746,11.0199 L9.7666,11.4239 C9.3046,11.6539 8.7456,11.5939 8.3416,11.2679 C6.9486,10.1509 5.6256,8.8359 4.7126,7.6629 C4.3976,7.2579 4.3416,6.7029 4.5686,6.2489 L4.9796,5.4259 C5.1866,5.0139 5.1996,4.5349 5.0196,4.1129 L4.4076,2.6939 C4.2276,2.2729 3.8126,1.9999 3.3546,1.9999 L1.7386,1.9999 C1.5086,1.9999 1.2956,2.1049 1.1536,2.2859 C1.0166,2.4649 0.9676,2.6909 1.0226,2.9079 C1.6186,5.2539 3.3156,7.9549 5.6806,10.3199 C8.0446,12.6839 10.7466,14.3819 13.0916,14.9769 C13.3086,15.0329 13.5356,14.9839 13.7126,14.8459 C13.8956,14.7049 13.9996,14.4899 13.9996,14.2609 Z M15.5001,0.000200000002 C15.7751,0.000200000002 16.0001,0.2252 16.0001,0.5002 L16.0001,6.5002 C16.0001,6.7752 15.7751,7.0002 15.5001,7.0002 C15.2251,7.0002 15.0001,6.7752 15.0001,6.5002 L15.0001,1.7072 L9.8541,6.8542 C9.7561,6.9512 9.6281,7.0002 9.5001,7.0002 C9.3721,7.0002 9.2441,6.9512 9.1461,6.8542 C8.9511,6.6582 8.9511,6.3422 9.1461,6.1462 L14.2931,1.0002 L9.5001,1.0002 C9.2251,1.0002 9.0001,0.7752 9.0001,0.5002 C9.0001,0.2252 9.2251,0.000200000002 9.5001,0.000200000002 L10.4981,0.000200000002 L10.5001,0.000200000002 L10.5051,0.000200000002 L15.5001,0.000200000002 Z" id="fill"></path>
                        </g>
                    </g>
                </g>
            </g>
        </g>
    </g>
</svg>