
<svg width="24px" height="21px" viewBox="0 0 24 21" version="1.1" xmlns="http://www.w3.org/2000/svg" xmlns:xlink="http://www.w3.org/1999/xlink">
    <!-- Generator: Sketch 48.2 (47327) - http://www.bohemiancoding.com/sketch -->
    <desc>Created with Sketch.</desc>
    <defs></defs>
    <g id="Floating-Action-Bar" stroke="none" stroke-width="1" fill="none" fill-rule="evenodd">
        <g id="Floating-Action-Bar-1.2" transform="translate(-233.000000, -471.000000)">
            <g id="Dialog" transform="translate(213.000000, 197.000000)">
                <g id="item" transform="translate(0.000000, 248.000000)">
                    <g id="telepresence_24" transform="translate(20.000000, 24.000000)">
                        <rect id="bound" x="0" y="0" width="24" height="24"></rect>
                        <g id="icon" transform="translate(0.000000, 2.000000)" fill="#000000">
                            <path d="M12,14 C9.243,14 7,11.757 7,9 C7,6.243 9.243,4 12,4 C14.757,4 17,6.243 17,9 C17,11.757 14.757,14 12,14 Z M23,15.5 C23,16.327 22.327,17 21.5,17 L20.198,17 C19.531,15.219 17.765,14 15.737,14 L15.31,14 C16.929,12.924 18,11.086 18,9 C18,5.691 15.308,3 12,3 C8.692,3 6,5.691 6,9 C6,11.086 7.071,12.924 8.69,14 L8.263,14 C6.235,14 4.469,15.219 3.802,17 L2.5,17 C1.673,17 1,16.327 1,15.5 L1,2.5 C1,1.673 1.673,1 2.5,1 L21.5,1 C22.327,1 23,1.673 23,2.5 L23,15.5 Z M3.999,20.007 L4.623,17.658 C5.039,16.093 6.536,15 8.263,15 L15.737,15 C17.464,15 18.961,16.093 19.377,17.658 L19.969,20 L3.999,20.007 Z M21.5,0 L2.5,0 C1.119,0 0,1.119 0,2.5 L0,15.5 C0,16.881 1.119,18 2.5,18 L3.498,18 L3.033,19.75 C2.955,20.045 3.017,20.354 3.205,20.598 C3.401,20.854 3.703,21 4.031,21 L19.969,21 C20.297,21 20.599,20.854 20.795,20.598 C20.983,20.354 21.045,20.045 20.967,19.75 L20.502,18 L21.5,18 C22.881,18 24,16.881 24,15.5 L24,2.5 C24,1.119 22.881,0 21.5,0 Z" id="fill"></path>
                        </g>
                    </g>
                </g>
            </g>
        </g>
    </g>
</svg>