
<svg width="16px" height="16px" viewBox="0 0 16 16" version="1.1" xmlns="http://www.w3.org/2000/svg" xmlns:xlink="http://www.w3.org/1999/xlink">
    <g id="Mockup" stroke="none" stroke-width="1" fill="none" fill-rule="evenodd">
        <g id="Switch-Audio-1.0" transform="translate(-702.000000, -488.000000)" fill="#000000">
            <g id="network/streaming_16" transform="translate(702.000000, 488.000000)">
                <g id="streaming_16">
                    <path d="M8,7 C8.553,7 9,7.448 9,8 C9,8.366 8.794,8.672 8.5,8.847 L8.5,15.5 C8.5,15.776 8.276,16 8,16 C7.724,16 7.5,15.776 7.5,15.5 L7.5,8.847 C7.206,8.672 7,8.366 7,8 C7,7.448 7.447,7 8,7 Z M8,0 C12.411,0 16,3.589 16,8 C16,11.581 13.588,14.749 10.133,15.704 C10.089,15.716 10.044,15.722 10,15.722 C9.78,15.722 9.579,15.576 9.518,15.354 C9.444,15.089 9.601,14.813 9.867,14.739 C12.889,13.904 15,11.133 15,8 C15,4.14 11.859,1 8,1 C4.141,1 1,4.14 1,8 C1,11.133 3.111,13.904 6.133,14.739 C6.399,14.813 6.556,15.089 6.482,15.354 C6.408,15.62 6.132,15.773 5.867,15.704 C2.412,14.749 0,11.581 0,8 C0,3.589 3.589,0 8,0 Z M9.7764,11.5645 C11.1484,10.8785 12.0004,9.5125 12.0004,8.0005 C12.0004,5.7945 10.2064,4.0005 8.0004,4.0005 C5.7944,4.0005 4.0004,5.7945 4.0004,8.0005 C4.0004,9.5125 4.8514,10.8785 6.2234,11.5645 C6.4704,11.6885 6.5704,11.9885 6.4474,12.2355 C6.3234,12.4825 6.0244,12.5835 5.7764,12.4595 C4.0634,11.6025 3.0004,9.8945 3.0004,8.0005 C3.0004,5.2435 5.2434,3.0005 8.0004,3.0005 C10.7564,3.0005 13.0004,5.2435 13.0004,8.0005 C13.0004,9.8945 11.9364,11.6025 10.2234,12.4595 C10.1514,12.4955 10.0754,12.5115 10.0004,12.5115 C9.8174,12.5115 9.6404,12.4105 9.5524,12.2355 C9.4294,11.9885 9.5294,11.6885 9.7764,11.5645 Z" id="fill"></path>
                </g>
            </g>
        </g>
    </g>
</svg>