
<svg width="12px" height="12px" viewBox="0 0 12 12" version="1.1" xmlns="http://www.w3.org/2000/svg" xmlns:xlink="http://www.w3.org/1999/xlink">
    <!-- Generator: Sketch 49 (51002) - http://www.bohemiancoding.com/sketch -->
    <desc>Created with Sketch.</desc>
    <defs></defs>
    <g id="Video-Centric-" stroke="none" stroke-width="1" fill="none" fill-rule="evenodd">
        <g id="Video-Centric-5.0" transform="translate(-637.000000, -269.000000)" fill="#292929">
            <g id="Dialog" transform="translate(613.000000, 108.000000)">
                <g id="input" transform="translate(16.000000, 153.000000)">
                    <g id="search_12" transform="translate(8.000000, 8.000000)">
                        <g id="icon">
                            <path d="M1,5 C1,2.794 2.794,1 5,1 C7.206,1 9,2.794 9,5 C9,7.206 7.206,9 5,9 C2.794,9 1,7.206 1,5 M11.854,11.146 L8.855,8.148 C9.56,7.286 10,6.2 10,5 C10,2.239 7.761,0 5,0 C2.239,0 0,2.239 0,5 C0,7.761 2.239,10 5,10 C6.2,10 7.286,9.56 8.148,8.855 L11.146,11.854 C11.244,11.951 11.372,12 11.5,12 C11.628,12 11.756,11.951 11.854,11.854 C12.049,11.658 12.049,11.342 11.854,11.146" id="fill"></path>
                        </g>
                    </g>
                </g>
            </g>
        </g>
    </g>
</svg>