
<svg width="10px" height="14px" viewBox="0 0 10 14" version="1.1" xmlns="http://www.w3.org/2000/svg" xmlns:xlink="http://www.w3.org/1999/xlink">
    <!-- Generator: Sketch 48.2 (47327) - http://www.bohemiancoding.com/sketch -->
    <desc>Created with Sketch.</desc>
    <defs></defs>
    <g id="Floating-Action-Bar" stroke="none" stroke-width="1" fill="none" fill-rule="evenodd">
        <g id="Floating-Action-Bar-2.1" transform="translate(-434.000000, -470.000000)">
            <g id="Dialog" transform="translate(393.000000, 322.000000)">
                <g id="button" transform="translate(16.000000, 139.000000)">
                    <g id="pause_16" transform="translate(22.000000, 8.000000)">
                        <rect id="bound" x="0" y="0" width="16" height="17"></rect>
                        <g id="icon" transform="translate(3.000000, 1.000000)" fill="#292929">
                            <path d="M3,12 C3,12.551 2.551,13 2,13 C1.448,13 1,12.551 1,12 L1,2 C1,1.449 1.448,1 2,1 C2.551,1 3,1.449 3,2 L3,12 Z M2,0 C3.1,0 4,0.9 4,2 L4,12 C4,13.1 3.1,14 2,14 C0.9,14 0,13.1 0,12 L0,2 C0,0.9 0.9,0 2,0 Z M8,0 C9.1,0 10,0.9 10,2 L10,12 C10,13.1 9.1,14 8,14 C6.9,14 6,13.1 6,12 L6,2 C6,0.9 6.9,0 8,0 Z M9,12 L9,2 C9,1.449 8.551,1 8,1 C7.448,1 7,1.449 7,2 L7,12 C7,12.551 7.448,13 8,13 C8.551,13 9,12.551 9,12 Z" id="fill"></path>
                        </g>
                    </g>
                </g>
            </g>
        </g>
    </g>
</svg>