
<svg width="16px" height="12px" viewBox="0 0 16 12" version="1.1" xmlns="http://www.w3.org/2000/svg" xmlns:xlink="http://www.w3.org/1999/xlink">
    <g id="V2-flow" stroke="none" stroke-width="1" fill="none" fill-rule="evenodd">
        <g id="AV-main-flows" transform="translate(-2163.000000, -1696.000000)">
            <rect fill="#FFFFFF" x="0" y="0" width="6687" height="10089"></rect>
            <g id="Dialog" transform="translate(2143.000000, 1375.000000)" fill="#000000">
                <g id="activities/camera_16" transform="translate(20.000000, 319.000000)">
                    <g id="camera_16" transform="translate(0.000000, 2.000000)">
                        <path d="M15.388,2.088 C15.76,2.241 16,2.602 16,3.003 L16,8.997 C16,9.399 15.76,9.758 15.389,9.911 C15.266,9.963 15.136,9.987 15.008,9.987 C14.752,9.987 14.499,9.888 14.309,9.697 L12.004,7.392 L12,7.379 L12,9.991 C12,11.101 11.098,12 9.992,12 L2.009,12 C0.899,12 8.8817842e-16,11.098 8.8817842e-16,9.991 L8.8817842e-16,2.009 C8.8817842e-16,0.9 0.902,-9.09494702e-13 2.009,-9.09494702e-13 L9.992,-9.09494702e-13 C11.101,-9.09494702e-13 12,0.902 12,2.009 L12,4.611 L14.309,2.303 C14.593,2.02 15.016,1.936 15.388,2.088 Z M12.026,6 L15.016,8.99 L15,3.003 L12.026,6 Z M1,9.9914698 C1,10.5469054 1.45267418,11 2.0085302,11 L9.9914698,11 C10.5469054,11 11,10.5473258 11,9.9914698 L11,2.0085302 C11,1.45309463 10.5473258,1 9.9914698,1 L2.0085302,1 C1.45309463,1 1,1.45267418 1,2.0085302 L1,9.9914698 Z" id="fill"></path>
                    </g>
                </g>
            </g>
        </g>
    </g>
</svg>