
<svg width="12px" height="12px" viewBox="0 0 12 12" version="1.1" xmlns="http://www.w3.org/2000/svg" xmlns:xlink="http://www.w3.org/1999/xlink">
    <g id="V2-flow" stroke="none" stroke-width="1" fill="none" fill-rule="evenodd">
        <g id="AV-main-flows" transform="translate(-138.000000, -269.000000)">
            <g id="App-Copy-7" transform="translate(130.000000, 260.000000)">
                <g id="platform/top-bar/light">
                    <g id="webex-logo" transform="translate(8.000000, 9.000000)">
                        <g id="webex-ball">
                            <circle id="bottom" fill="#00BCEB" transform="translate(6.000000, 6.000000) rotate(-360.000000) translate(-6.000000, -6.000000) " cx="6" cy="6" r="6"></circle>
                            <circle id="top" fill="#FFFFFF" transform="translate(6.000000, 6.000000) rotate(-90.000000) translate(-6.000000, -6.000000) " cx="6" cy="6" r="3.9140625"></circle>
                            <path d="M8.47713757,2.67236807 L8.47730454,2.67231988 C8.4219103,2.34984077 8.5186955,2.00632395 8.76766014,1.75735931 C9.17496477,1.35005468 9.83533605,1.35005468 10.2426407,1.75735931 C12.5857864,4.10050506 12.5857864,7.89949494 10.2426407,10.2426407 C7.89949494,12.5857864 4.10050506,12.5857864 1.75735931,10.2426407 C1.35005468,9.83533605 1.35005468,9.17496477 1.75735931,8.76766014 C2.01029089,8.51472856 2.36081179,8.41886464 2.68771828,8.48006836 L2.68772912,8.4800531 C4.24272933,8.77265767 5.91073446,8.31731486 7.11402466,7.11402466 C8.32127804,5.90677127 8.77564901,4.23173673 8.47713757,2.67236807 L8.47713757,2.67236807 Z" id="shape" fill="#005072"></path>
                            <path d="M9.61706829,7.49823885 C9.42606293,7.95988397 9.14292688,8.39239339 8.76766014,8.76766014 C8.39239339,9.14292688 7.95988397,9.42606293 7.49823885,9.61706829 C7.03674516,9.80843956 6.53070736,9.9140625 6,9.9140625 C5.46929264,9.9140625 4.96325484,9.80843956 4.50176124,9.61706832 C4.04011603,9.42606293 3.60760661,9.14292688 3.23233986,8.76766014 C3.22784161,8.76316188 3.2233566,8.75865541 3.21888482,8.75414076 C3.14764146,8.68220303 3.07916884,8.60751611 3.0136409,8.53025298 C4.47251168,8.70569818 5.99442725,8.23362207 7.11402466,7.11402466 C8.23362207,5.99442725 8.70569818,4.47251168 8.53025298,3.0136409 C8.60751611,3.07916884 8.68220303,3.14764146 8.75414038,3.21888542 C8.75865541,3.2233566 8.76316188,3.22784161 8.76766014,3.23233986 C9.14292688,3.60760661 9.42606293,4.04011603 9.61706829,4.50176115 C9.80843956,4.96325484 9.9140625,5.46929264 9.9140625,6 C9.9140625,6.53070736 9.80843956,7.03674516 9.61706832,7.49823876 L9.61706829,7.49823885 Z" id="shape" fill="#6EBE4A"></path>
                        </g>
                    </g>
                </g>
            </g>
        </g>
    </g>
</svg>