
<svg width="24px" height="24px" viewBox="0 0 24 24" version="1.1" xmlns="http://www.w3.org/2000/svg" xmlns:xlink="http://www.w3.org/1999/xlink">
    <defs>
        <polygon id="path-1" points="12 0 24 0 24 12 12 12"></polygon>
    </defs>
    <g id="🎧Audio-Connection-Fix" stroke="none" stroke-width="1" fill="none" fill-rule="evenodd">
        <g id="Disconnect-to-Audio-1.1" transform="translate(-709.000000, -402.000000)">
            <g id="Dialog-Copy-2" transform="translate(491.000000, 226.000000)">
                <g id="Group-2" transform="translate(187.000000, 176.000000)">
                    <g id="animated/spinner_24" transform="translate(31.000000, 0.000000)">
                        <g id="spinner_24">
                            <path d="M12,23 C18.0750256,23 23,18.0750256 23,12 C23,5.92497441 18.0750256,1 12,1 C5.92497441,1 1,5.92497441 1,12 C1,18.0750256 5.92497441,23 12,23 Z M12,24 C5.37268966,24 0,18.6273103 0,12 C0,5.37268966 5.37268966,0 12,0 C18.6273103,0 24,5.37268966 24,12 C24,18.6273103 18.6273103,24 12,24 Z" id="4/4" fill-opacity="0.12" fill="#000000" fill-rule="nonzero"></path>
                            <mask id="mask-2" fill="white">
                                <use xlink:href="#path-1"></use>
                            </mask>
                            <g id="mask"></g>
                            <path d="M12,23 C18.0750256,23 23,18.0750256 23,12 C23,5.92497441 18.0750256,1 12,1 C5.92497441,1 1,5.92497441 1,12 C1,18.0750256 5.92497441,23 12,23 Z M12,24 C5.37268966,24 0,18.6273103 0,12 C0,5.37268966 5.37268966,0 12,0 C18.6273103,0 24,5.37268966 24,12 C24,18.6273103 18.6273103,24 12,24 Z" id="1/4" fill="#000000" fill-rule="nonzero" mask="url(#mask-2)"></path>
                        </g>
                    </g>
                </g>
            </g>
        </g>
    </g>
</svg>