
<svg width="9px" height="9px" viewBox="0 0 9 9" version="1.1" xmlns="http://www.w3.org/2000/svg" xmlns:xlink="http://www.w3.org/1999/xlink">
    <!-- Generator: Sketch 48.2 (47327) - http://www.bohemiancoding.com/sketch -->
    <desc>Created with Sketch.</desc>
    <defs></defs>
    <g id="Video-Centric" stroke="none" stroke-width="1" fill="none" fill-rule="evenodd">
        <g id="icon" transform="translate(0.000000, -0.500000)" fill="#292929">
            <path d="M5.207,5 L8.853,1.353 C9.049,1.158 9.049,0.842 8.853,0.647 C8.658,0.451 8.342,0.451 8.147,0.647 L4.5,4.293 L0.853,0.647 C0.658,0.451 0.342,0.451 0.147,0.647 C-0.049,0.842 -0.049,1.158 0.147,1.353 L3.793,5 L0.147,8.646 C-0.049,8.842 -0.049,9.158 0.147,9.353 C0.244,9.451 0.372,9.5 0.5,9.5 C0.628,9.5 0.756,9.451 0.853,9.353 L4.5,5.707 L8.147,9.353 C8.244,9.451 8.372,9.5 8.5,9.5 C8.628,9.5 8.756,9.451 8.853,9.353 C9.049,9.158 9.049,8.842 8.853,8.646 L5.207,5" id="Fill-3"></path>
        </g>
    </g>
</svg>