<?xml version="1.0" encoding="UTF-8" standalone="no"?>
<svg width="32px" height="33px" viewBox="0 0 32 33" version="1.1" xmlns="http://www.w3.org/2000/svg" xmlns:xlink="http://www.w3.org/1999/xlink">
    <!-- Generator: Sketch 40 (33762) - http://www.bohemiancoding.com/sketch -->
    <title>avatar</title>
    <desc>Created with Sketch.</desc>
    <defs></defs>
    <g id="Page-1" stroke="none" stroke-width="1" fill="none" fill-rule="evenodd">
        <g id="iPhone-7" transform="translate(-8.000000, -243.000000)">
            <g id="App">
                <g id="content" transform="translate(8.000000, 165.000000)">
                    <g id="message" transform="translate(0.000000, 78.500000)">
                        <g id="avatar">
                            <circle id="bg" fill="#04C9EF" cx="16" cy="16" r="16"></circle>
                            <g id="icon" transform="translate(12.444444, 11.555556)" fill="#FFFFFF">
                                <path d="M4.42311111,7.04711111 L6.81244444,7.04711111 L6.81244444,4.032 L5.61777778,4.032 C5.59881472,3.80444331 5.6130368,3.55318656 5.66044444,3.27822222 C5.70785209,3.00325788 5.78844388,2.73777906 5.90222222,2.48177778 C6.01600057,2.2257765 6.15822137,1.99822322 6.32888889,1.79911111 C6.49955641,1.599999 6.70814692,1.45303751 6.95466667,1.35822222 L6.95466667,0.135111111 C6.5374794,0.248889458 6.16770532,0.438517191 5.84533333,0.704 C5.52296135,0.969482809 5.25748252,1.27762788 5.04888889,1.62844444 C4.84029525,1.97926101 4.68385237,2.35851648 4.57955556,2.76622222 C4.47525874,3.17392796 4.42311111,3.58636828 4.42311111,4.00355556 L4.42311111,7.04711111 Z" id="Path"></path>
                                <path d="M0.0426666667,7.04711111 L2.432,7.04711111 L2.432,4.032 L1.23733333,4.032 C1.21837028,3.80444331 1.23259236,3.55318656 1.28,3.27822222 C1.32740764,3.00325788 1.40799943,2.73777906 1.52177778,2.48177778 C1.63555612,2.2257765 1.77777692,1.99822322 1.94844444,1.79911111 C2.11911196,1.599999 2.32770247,1.45303751 2.57422222,1.35822222 L2.57422222,0.135111111 C2.15703495,0.248889458 1.78726087,0.438517191 1.46488889,0.704 C1.14251691,0.969482809 0.87703808,1.27762788 0.668444444,1.62844444 C0.459850809,1.97926101 0.303407929,2.35851648 0.199111111,2.76622222 C0.0948142933,3.17392796 0.0426666667,3.58636828 0.0426666667,4.00355556 L0.0426666667,7.04711111 Z" id="Path"></path>
                            </g>
                        </g>
                    </g>
                </g>
            </g>
        </g>
    </g>
</svg>