
<svg width="12px" height="12px" viewBox="0 0 12 12" version="1.1" xmlns="http://www.w3.org/2000/svg" xmlns:xlink="http://www.w3.org/1999/xlink">
    <!-- Generator: Sketch 49 (51002) - http://www.bohemiancoding.com/sketch -->
    <desc>Created with Sketch.</desc>
    <defs></defs>
    <g id="Video-Centric-" stroke="none" stroke-width="1" fill="none" fill-rule="evenodd">
        <g id="Video-Centric-6.0" transform="translate(-1331.000000, -696.000000)" fill="#292929" stroke="#292929" stroke-width="0.1">
            <g id="App" transform="translate(-2.000000, 0.000000)">
                <g id="button" transform="translate(1329.000000, 692.000000)">
                    <g id="format/pop-out_12" transform="translate(10.000000, 10.000000) scale(-1, 1) translate(-10.000000, -10.000000) translate(5.000000, 5.000000)">
                        <g id="pop-out_12">
                            <g id="icon">
                                <path d="M9.58333333,5.83333333 C9.81333333,5.83333333 10,6.02 10,6.25 L10,8.75 C10,9.43916667 9.43916667,10 8.75,10 L1.25,10 C0.560833333,10 0,9.43916667 0,8.75 L0,1.25 C0,0.560833333 0.560833333,0 1.25,0 L3.75,0 C3.98,0 4.16666667,0.186666667 4.16666667,0.416666667 C4.16666667,0.646666667 3.98,0.833333333 3.75,0.833333333 L1.25,0.833333333 C1.02083333,0.833333333 0.833333333,1.02 0.833333333,1.25 L0.833333333,8.75 C0.833333333,8.98 1.02083333,9.16666667 1.25,9.16666667 L8.75,9.16666667 C8.97916667,9.16666667 9.16666667,8.98 9.16666667,8.75 L9.16666667,6.25 C9.16666667,6.02 9.35333333,5.83333333 9.58333333,5.83333333 Z M9.58333333,0 C9.81333333,0 10,0.186666667 10,0.416666667 L10,3.75 C10,3.98 9.81333333,4.16666667 9.58333333,4.16666667 C9.35333333,4.16666667 9.16666667,3.98 9.16666667,3.75 L9.16666667,1.4225 L5.71166667,4.87833333 C5.63,4.95916667 5.52333333,5 5.41666667,5 C5.31,5 5.20333333,4.95916667 5.12166667,4.87833333 C4.95916667,4.715 4.95916667,4.45166667 5.12166667,4.28833333 L8.5775,0.833333333 L6.25,0.833333333 C6.02,0.833333333 5.83333333,0.646666667 5.83333333,0.416666667 C5.83333333,0.186666667 6.02,0 6.25,0 L9.58333333,0 Z" id="fill"></path>
                            </g>
                        </g>
                    </g>
                </g>
            </g>
        </g>
    </g>
</svg>