
<svg width="20px" height="20px" viewBox="0 0 20 20" version="1.1" xmlns="http://www.w3.org/2000/svg" xmlns:xlink="http://www.w3.org/1999/xlink">
    <!-- Generator: Sketch 48.2 (47327) - http://www.bohemiancoding.com/sketch -->
    <desc>Created with Sketch.</desc>
    <defs></defs>
    <g id="Video-Centric-" stroke="none" stroke-width="1" fill="none" fill-rule="evenodd">
        <g id="Video-Centric-3.0" transform="translate(-603.000000, -590.000000)" fill="#FFFFFF">
            <g id="App">
                <g id="call-control" transform="translate(287.000000, 574.000000)">
                    <g id="button-copy" transform="translate(300.000000, 0.000000)">
                        <g id="activities/chat_20_w" transform="translate(16.000000, 16.000000)">
                            <g id="chat_20_w">
                                <g id="icon">
                                    <path d="M5.2598,17.7246 C5.3468,17.7246 5.4328,17.7466 5.5098,17.7916 C6.8778,18.5816 8.4308,18.9996 9.9998,18.9996 C14.9628,18.9996 18.9998,14.9626 18.9998,9.9996 C18.9998,5.0376 14.9628,0.9996 9.9998,0.9996 C5.0378,0.9996 0.9998,5.0376 0.9998,9.9996 C0.9998,11.5696 1.4178,13.1216 2.2088,14.4906 C2.2748,14.6056 2.2928,14.7416 2.2588,14.8706 L1.2068,18.7926 L5.1308,17.7416 C5.1728,17.7306 5.2168,17.7246 5.2598,17.7246 M0.4998,19.9996 C0.3688,19.9996 0.2408,19.9486 0.1468,19.8536 C0.0198,19.7276 -0.0292,19.5426 0.0168,19.3706 L1.2398,14.8076 C0.4278,13.3326 -0.0002,11.6746 -0.0002,9.9996 C-0.0002,4.4856 4.4858,-0.0004 9.9998,-0.0004 C15.5138,-0.0004 19.9998,4.4856 19.9998,9.9996 C19.9998,15.5136 15.5138,19.9996 9.9998,19.9996 C8.3248,19.9996 6.6668,19.5726 5.1918,18.7606 L0.6298,19.9836 C0.5868,19.9946 0.5428,19.9996 0.4998,19.9996" id="fill"></path>
                                </g>
                            </g>
                        </g>
                    </g>
                </g>
            </g>
        </g>
    </g>
</svg>