<?xml version="1.0" encoding="UTF-8"?>
<svg width="20px" height="18px" viewBox="0 0 20 18" version="1.1" xmlns="http://www.w3.org/2000/svg" xmlns:xlink="http://www.w3.org/1999/xlink">
    <!-- Generator: Sketch 54.1 (76490) - https://sketchapp.com -->
    <title>settings/audio-and-video-connection_20</title>
    <desc>Created with Sketch.</desc>
    <g id="Page-1" stroke="none" stroke-width="1" fill="none" fill-rule="evenodd">
        <g id="Artboard" transform="translate(-240.000000, -143.000000)" fill="#000000">
            <g id="settings/audio-and-video-connection_20" transform="translate(240.000000, 142.000000)">
                <g id="audio-and-video-connection_20" transform="translate(0.000000, 1.000000)">
                    <path d="M19.5201098,1.06 C19.8111098,1.181 19.9991098,1.463 19.9991098,1.778 L19.9991098,6.222 C19.9991098,6.538 19.8111098,6.82 19.5201098,6.941 C19.4231098,6.981 19.3211098,7 19.2211098,7 C19.0201098,7 18.8211098,6.921 18.6721098,6.772 L17.9991098,6.099 L17.9991098,6.667 C17.9991098,7.402 17.4001098,8 16.6651098,8 L11.3331098,8 C10.5981098,8 10.0001098,7.402 10.0001098,6.667 L10.0001098,1.333 C10.0001098,0.598 10.5981098,-2.16840434e-19 11.3331098,-2.16840434e-19 L16.6651098,-2.16840434e-19 C17.4001098,-2.16840434e-19 17.9991098,0.598 17.9991098,1.333 L17.9991098,1.901 L18.6721098,1.228 C18.8951098,1.004 19.2291098,0.938 19.5201098,1.06 Z M18.9991098,5.685 L18.9991098,2.315 L17.9991098,3.315 L17.9991098,4.685 L18.9991098,5.685 Z M16.9991098,6.667 L16.9991098,1.333 C16.9991098,1.15 16.8501098,1 16.6651098,1 L11.3331098,1 C11.1491098,1 11.0001098,1.15 11.0001098,1.333 L11.0001098,6.667 C11.0001098,6.851 11.1491098,7 11.3331098,7 L16.6651098,7 C16.8501098,7 16.9991098,6.851 16.9991098,6.667 Z M16.0093098,17.9995 C15.8453098,17.9995 15.6813098,17.9785 15.5183098,17.9375 C12.4813098,17.1665 9.01530977,14.9995 6.00830977,11.9915 C3.00030977,8.9845 0.833309772,5.5175 0.0613097718,2.4805 C-0.0896902282,1.8845 0.0413097718,1.2625 0.420309772,0.7745 C0.803309772,0.2825 1.38130977,-0.0005 2.00530977,-0.0005 L3.96730977,-0.0005 C4.96630977,-0.0005 5.86830977,0.5925 6.26330977,1.5115 L7.00430977,3.2345 C7.35330977,4.0485 7.32730977,4.9685 6.93130977,5.7605 L6.43130977,6.7605 C6.34330977,6.9355 6.36630977,7.1435 6.48930977,7.3025 C7.53130977,8.6415 9.11130977,10.2095 10.7153098,11.4975 C10.8703098,11.6225 11.0833098,11.6455 11.2583098,11.5595 L12.2393098,11.0685 C13.0313098,10.6725 13.9523098,10.6465 14.7653098,10.9955 L16.4883098,11.7365 C17.4063098,12.1315 18.0003098,13.0325 18.0003098,14.0325 L18.0003098,15.9945 C18.0003098,16.6185 17.7173098,17.1955 17.2243098,17.5795 C16.8703098,17.8545 16.4443098,17.9995 16.0093098,17.9995 Z M2.00530977,0.9995 C1.69230977,0.9995 1.40230977,1.1415 1.20930977,1.3895 C1.02130977,1.6315 0.956309772,1.9395 1.03130977,2.2345 C1.75930977,5.1025 3.83030977,8.4005 6.71530977,11.2845 C9.59930977,14.1685 12.8973098,16.2405 15.7643098,16.9685 C16.0593098,17.0425 16.3683098,16.9785 16.6103098,16.7895 C16.8583098,16.5975 17.0003098,16.3075 17.0003098,15.9945 L17.0003098,14.0325 C17.0003098,13.4325 16.6443098,12.8925 16.0933098,12.6555 L14.3703098,11.9145 C13.8283098,11.6805 13.2143098,11.6985 12.6863098,11.9625 L11.7053098,12.4535 C11.1823098,12.7135 10.5483098,12.6445 10.0893098,12.2775 C8.40330977,10.9235 6.80330977,9.3345 5.70030977,7.9165 C5.34330977,7.4575 5.27930977,6.8285 5.53730977,6.3125 L6.03630977,5.3135 C6.30030977,4.7855 6.31830977,4.1715 6.08530977,3.6295 L5.34430977,1.9065 C5.10730977,1.3555 4.56630977,0.9995 3.96730977,0.9995 L2.00530977,0.9995 Z" id="fill"></path>
                </g>
            </g>
        </g>
    </g>
</svg>