
<svg width="16px" height="16px" viewBox="0 0 16 16" version="1.1" xmlns="http://www.w3.org/2000/svg" xmlns:xlink="http://www.w3.org/1999/xlink">
    <g id="V2-flow" stroke="none" stroke-width="1" fill="none" fill-rule="evenodd">
        <g id="AV-main-flows" transform="translate(-941.000000, -3582.000000)">
            <g id="audio/headset_16" transform="translate(941.000000, 3582.000000)" fill="#000000">
                <g id="headset_16">
                    <path d="M13,10.0029985 L13,6.0049975 C14.103,6.0049975 15,6.90154923 15,8.003998 C15,9.10644678 14.103,10.0029985 13,10.0029985 L13,10.0029985 Z M8,15.0004998 C7.448,15.0004998 7,14.5527236 7,14.0009995 C7,13.4492754 7.448,13.0014993 8,13.0014993 C8.552,13.0014993 9,13.4492754 9,14.0009995 C9,14.5527236 8.552,15.0004998 8,15.0004998 L8,15.0004998 Z M3,10.0029985 C1.897,10.0029985 1,9.10644678 1,8.003998 C1,6.90154923 1.897,6.0049975 3,6.0049975 L3,10.0029985 Z M13,5.00549725 L13,4.99750125 C13,2.24187906 10.757,0 8,0 C5.243,0 3,2.24187906 3,4.99750125 L3,5.00549725 C1.346,5.00549725 0,6.35082459 0,8.003998 C0,9.65717141 1.346,11.0024988 3,11.0024988 L3.5,11.0024988 C3.776,11.0024988 4,10.7786107 4,10.5027486 L4,4.99750125 C4,2.7926037 5.794,0.99950025 8,0.99950025 C10.206,0.99950025 12,2.7926037 12,4.99750125 L12,9.6021989 C11.962,11.1314343 11.057,12.4347826 9.76,13.0704648 C9.425,12.4387806 8.767,12.001999 8,12.001999 C6.896,12.001999 6,12.8975512 6,14.0009995 C6,15.1044478 6.896,16 8,16 C9.087,16 9.967,15.1324338 9.995,14.0529735 C11.307,13.4802599 12.328,12.3748126 12.767,11.0024988 L13,11.0024988 C14.654,11.0024988 16,9.65717141 16,8.003998 C16,6.35082459 14.654,5.00549725 13,5.00549725 L13,5.00549725 Z" id="fill"></path>
                </g>
            </g>
        </g>
    </g>
</svg>