
<svg width="20px" height="20px" viewBox="0 0 20 20" version="1.1" xmlns="http://www.w3.org/2000/svg" xmlns:xlink="http://www.w3.org/1999/xlink">
    <g id="In-Meeting-Layout" stroke="none" stroke-width="1" fill="none" fill-rule="evenodd">
        <g id="Webex-Meetings-Copy-3" >
            <g id="microphone_disconnected" transform="translate(0, 0)">
                <g id="icon_audio" transform="translate(0.500000, 0.000000)">
                    <path d="M13.9952285,12.5 C13.9952285,14.43 12.4261649,16 10.4973161,16 C8.56846717,16 6.99940357,14.43 6.99940357,12.5 L6.99940357,4.5 C6.99940357,2.57 8.56846717,1 10.4973161,1 C12.4261649,1 13.9952285,2.57 13.9952285,4.5 L15,4.5 L15,12.5 L13.9952285,12.5 Z M6,4.5 L6,12.5 C6,14.815 7.75395326,16.699 10.0006125,16.95 C10.0006125,16.954 9.99961308,17.6373333 9.99761427,19 L7.99880713,19 C7.72397115,19 7.49910535,19.224 7.49910535,19.5 C7.49910535,19.776 7.72397115,20 7.99880713,20 L12.995825,20 C13.2716604,20 13.4955268,19.776 13.4955268,19.5 C13.4955268,19.224 13.2716604,19 12.995825,19 L10.9970178,19 L10.9970178,16.967 C13.2406788,16.699 14.9946321,14.815 14.9946321,12.5 L14.9946321,4.5 C14.9946321,2.015 12.9808339,0 10.4973161,0 C8.01379819,0 6,2.015 6,4.5 Z" fill="#FFFFFF"></path>
                    <path d="M17,5.5 C17.276,5.5 17.5,5.276 17.5,5 C17.5,4.724 17.276,4.5 17,4.5 C16.724,4.5 16.5,4.724 16.5,5 C16.5,5.276 16.724,5.5 17,5.5 Z M17,3.5 C17.829,3.5 18.5,4.171 18.5,5 C18.5,5.652 18.081,6.202 17.5,6.408 L17.5,13 C17.5,13.276 17.276,13.5 17,13.5 C16.724,13.5 16.5,13.276 16.5,13 L16.5,6.408 C15.919,6.202 15.5,5.652 15.5,5 C15.5,4.171 16.171,3.5 17,3.5 Z M13,12.5 C13.276,12.5 13.5,12.276 13.5,12 C13.5,11.724 13.276,11.5 13,11.5 C12.724,11.5 12.5,11.724 12.5,12 C12.5,12.276 12.724,12.5 13,12.5 Z M13.5,4 L13.5,10.592 C14.081,10.798 14.5,11.348 14.5,12 C14.5,12.829 13.829,13.5 13,13.5 C12.171,13.5 11.5,12.829 11.5,12 C11.5,11.348 11.919,10.798 12.5,10.592 L12.5,4 C12.5,3.724 12.724,3.5 13,3.5 C13.276,3.5 13.5,3.724 13.5,4 Z" fill="#FFFFFF" transform="translate(15.000000, 8.500000) rotate(90.000000) translate(-15.000000, -8.500000) "></path>
                </g>
            </g>
        </g>
    </g>
</svg>