
<svg width="300px" height="35px" viewBox="0 0 300 35" version="1.1" xmlns="http://www.w3.org/2000/svg" xmlns:xlink="http://www.w3.org/1999/xlink">
    <defs>
        <circle id="path-1" cx="150" cy="8" r="8"></circle>
        <filter x="-21.9%" y="-15.6%" width="143.8%" height="143.8%" filterUnits="objectBoundingBox" id="filter-2">
            <feOffset dx="0" dy="1" in="SourceAlpha" result="shadowOffsetOuter1"></feOffset>
            <feGaussianBlur stdDeviation="1" in="shadowOffsetOuter1" result="shadowBlurOuter1"></feGaussianBlur>
            <feColorMatrix values="0 0 0 0 0   0 0 0 0 0   0 0 0 0 0  0 0 0 0.32 0" type="matrix" in="shadowBlurOuter1"></feColorMatrix>
        </filter>
    </defs>
    <g id="Mockup" stroke="none" stroke-width="1" fill="none" fill-rule="evenodd">
        <g id="In-Meeting-Settings" transform="translate(-566.000000, -341.000000)">
            <g id="Dialog" transform="translate(518.000000, 170.000000)">
                <g transform="translate(20.000000, 78.000000)" id="slider">
                    <g transform="translate(28.000000, 93.000000)">
                        <g transform="translate(0.000000, 16.000000)">
                            <rect id="bg" fill-opacity="0.16" fill="#000000" x="0" y="7" width="300" height="2" rx="1"></rect>
                            <rect id="bg" fill="#049FD9" x="0" y="7" width="150" height="2" rx="1"></rect>
                            <g id="mover">
                                <use fill="black" fill-opacity="1" filter="url(#filter-2)" xlink:href="#path-1"></use>
                                <use fill="#FFFFFF" fill-rule="evenodd" xlink:href="#path-1"></use>
                            </g>
                        </g>
                        <g id="scale">
                            <rect id="Rectangle" fill="#049FD9" x="0" y="0" width="2" height="8" rx="1"></rect>
                            <rect id="Rectangle" fill="#049FD9" x="33" y="0" width="2" height="8" rx="1"></rect>
                            <rect id="Rectangle" fill="#049FD9" x="66" y="0" width="2" height="8" rx="1"></rect>
                            <rect id="Rectangle" fill-opacity="0.16" fill="#000000" x="99" y="0" width="2" height="8" rx="1"></rect>
                            <rect id="Rectangle" fill-opacity="0.16" fill="#000000" x="132" y="0" width="2" height="8" rx="1"></rect>
                            <rect id="Rectangle" fill-opacity="0.16" fill="#000000" x="166" y="0" width="2" height="8" rx="1"></rect>
                            <rect id="Rectangle" fill-opacity="0.16" fill="#000000" x="199" y="0" width="2" height="8" rx="1"></rect>
                            <rect id="Rectangle" fill-opacity="0.16" fill="#000000" x="232" y="0" width="2" height="8" rx="1"></rect>
                            <rect id="Rectangle" fill-opacity="0.16" fill="#000000" x="265" y="0" width="2" height="8" rx="1"></rect>
                            <rect id="Rectangle" fill-opacity="0.16" fill="#000000" x="298" y="0" width="2" height="8" rx="1"></rect>
                        </g>
                    </g>
                </g>
            </g>
        </g>
    </g>
</svg>