
<svg width="12px" height="16px" viewBox="0 0 12 16" version="1.1" xmlns="http://www.w3.org/2000/svg" xmlns:xlink="http://www.w3.org/1999/xlink">
    <g id="Mockup" stroke="none" stroke-width="1" fill="none" fill-rule="evenodd">
        <g id="Switch-Audio-1.0" transform="translate(-704.000000, -608.000000)" fill="#000000">
            <g id="format/copy_16" transform="translate(702.000000, 608.000000)">
                <g id="copy_16" transform="translate(2.000000, 0.000000)">
                    <path d="M7.5,1 L2,1 C1.448,1 1,1.448 1,2 L1,10.5 C1,10.776 0.776,11 0.5,11 C0.224,11 0,10.776 0,10.5 L0,2 C0,0.897 0.897,0 2,0 L7.5,0 C7.776,0 8,0.224 8,0.5 C8,0.776 7.776,1 7.5,1 Z M10,2 C11.103,2 12,2.897 12,4 L12,14 C12,15.103 11.103,16 10,16 L4,16 C2.897,16 2,15.103 2,14 L2,4 C2,2.897 2.897,2 4,2 L10,2 Z M11,14 L11,4 C11,3.448 10.552,3 10,3 L4,3 C3.448,3 3,3.448 3,4 L3,14 C3,14.552 3.448,15 4,15 L10,15 C10.552,15 11,14.552 11,14 Z" id="fill"></path>
                </g>
            </g>
        </g>
    </g>
</svg>