
<svg width="14px" height="14px" viewBox="0 0 14 14" version="1.1" xmlns="http://www.w3.org/2000/svg" xmlns:xlink="http://www.w3.org/1999/xlink">
    <g id="Mockup" stroke="none" stroke-width="1" fill="none" fill-rule="evenodd" opacity="0.8">
        <g id="Connect-device-2.0" transform="translate(-862.000000, -418.000000)" fill="#000000">
            <g id="Dialog" transform="translate(540.000000, 253.000000)">
                <g id="header" transform="translate(0.000000, 156.000000)">
                    <g id="settings/settings_14" transform="translate(322.000000, 9.000000)">
                        <g id="settings_14">
                            <path d="M4.7246,10.5146 C4.7886,10.5146 4.8536,10.5276 4.9146,10.5526 L5.9616,10.9846 C6.0956,11.0386 6.1996,11.1506 6.2456,11.2876 L6.7616,12.8296 C6.8286,13.0356 7.1706,13.0316 7.2376,12.8286 L7.7486,11.2876 C7.7946,11.1506 7.8986,11.0386 8.0326,10.9836 L9.0776,10.5486 C9.2106,10.4936 9.3626,10.4976 9.4936,10.5636 L10.9506,11.2906 C11.0436,11.3366 11.1616,11.3206 11.2396,11.2436 C11.3166,11.1646 11.3346,11.0496 11.2866,10.9526 L10.5586,9.4996 C10.4946,9.3706 10.4886,9.2196 10.5436,9.0846 L10.9776,8.0366 C11.0336,7.9036 11.1446,7.7996 11.2826,7.7536 L12.8286,7.2426 C12.9316,7.2076 12.9996,7.1136 12.9996,7.0056 L12.9996,7.0016 C12.9996,6.8946 12.9316,6.7996 12.8306,6.7666 L11.2816,6.2466 C11.1446,6.2016 11.0346,6.0986 10.9786,5.9646 L10.5456,4.9166 C10.4906,4.7836 10.4956,4.6316 10.5606,4.5016 L11.2916,3.0456 C11.3406,2.9496 11.3226,2.8336 11.2456,2.7566 C11.1696,2.6796 11.0546,2.6606 10.9556,2.7086 L9.4956,3.4386 C9.3676,3.5036 9.2156,3.5086 9.0806,3.4526 L8.0356,3.0196 C7.9016,2.9636 7.7976,2.8526 7.7516,2.7156 L7.2386,1.1706 C7.1686,0.9646 6.8296,0.9666 6.7616,1.1706 L6.2476,2.7146 C6.2026,2.8526 6.0986,2.9636 5.9636,3.0186 L4.9176,3.4516 C4.7856,3.5066 4.6326,3.5006 4.5036,3.4366 L3.0496,2.7096 C2.9546,2.6616 2.8366,2.6806 2.7616,2.7566 C2.7386,2.7806 2.7096,2.8026 2.6826,2.8216 C2.6836,2.8336 2.6646,2.9506 2.7126,3.0446 L3.4406,4.5026 C3.5046,4.6326 3.5106,4.7846 3.4546,4.9166 L3.0226,5.9616 C2.9676,6.0966 2.8566,6.1996 2.7196,6.2446 L1.1696,6.7646 C1.0686,6.7986 0.9996,6.8946 0.9996,7.0016 C0.9996,7.1136 1.0686,7.2076 1.1706,7.2426 L2.7146,7.7546 C2.8526,7.8006 2.9636,7.9046 3.0196,8.0376 L3.4536,9.0826 C3.5096,9.2166 3.5036,9.3676 3.4396,9.4966 L2.7116,10.9596 C2.6636,11.0556 2.6836,11.1706 2.7586,11.2466 C2.7826,11.2706 2.8046,11.2986 2.8236,11.3266 C2.8366,11.3266 2.9526,11.3456 3.0496,11.2966 L4.4996,10.5676 C4.5706,10.5326 4.6476,10.5146 4.7246,10.5146 M7.0006,13.9996 C6.4596,13.9996 5.9846,13.6576 5.8136,13.1476 L5.3706,11.8216 L4.7456,11.5636 L3.4986,12.1906 C3.0146,12.4316 2.4346,12.3376 2.0536,11.9566 C2.0306,11.9336 2.0076,11.9056 1.9896,11.8776 C1.6716,11.5746 1.5776,10.9946 1.8176,10.5146 L2.4436,9.2556 L2.1836,8.6316 L0.8566,8.1916 C0.3436,8.0216 -0.0004,7.5446 -0.0004,7.0056 C-0.0004,6.4646 0.3416,5.9886 0.8516,5.8176 L2.1856,5.3696 L2.4446,4.7456 L1.8186,3.4936 C1.5786,3.0136 1.6706,2.4336 2.0506,2.0526 C2.0746,2.0296 2.1036,2.0056 2.1306,1.9876 C2.4386,1.6686 3.0176,1.5756 3.4976,1.8156 L4.7466,2.4406 L5.3706,2.1816 L5.8126,0.8546 C5.9836,0.3426 6.4596,-0.0004 6.9986,-0.0004 C7.5386,-0.0004 8.0166,0.3426 8.1876,0.8546 L8.6286,2.1836 L9.2526,2.4426 L10.5096,1.8146 C10.9916,1.5736 11.5706,1.6676 11.9516,2.0476 C12.3356,2.4346 12.4286,3.0146 12.1856,3.4956 L11.5576,4.7466 L11.8156,5.3716 L13.1476,5.8186 C13.6576,5.9876 13.9996,6.4626 13.9996,7.0016 L13.9996,7.0056 C13.9996,7.5446 13.6566,8.0216 13.1436,8.1916 L11.8136,8.6306 L11.5546,9.2566 L12.1806,10.5056 C12.4216,10.9896 12.3286,11.5696 11.9466,11.9496 C11.5626,12.3316 10.9846,12.4256 10.5026,12.1856 L9.2506,11.5606 L8.6256,11.8196 L8.1866,13.1436 C8.0166,13.6566 7.5396,13.9996 7.0006,13.9996 Z M7,5 C8.103,5 9,5.897 9,7 C9,8.103 8.103,9 7,9 C5.897,9 5,8.103 5,7 C5,5.897 5.897,5 7,5 Z M7,10 C8.654,10 10,8.654 10,7 C10,5.346 8.654,4 7,4 C5.346,4 4,5.346 4,7 C4,8.654 5.346,10 7,10 Z" id="fill"></path>
                        </g>
                    </g>
                </g>
            </g>
        </g>
    </g>
</svg>