
<svg width="16px" height="16px" viewBox="0 0 16 16" version="1.1" xmlns="http://www.w3.org/2000/svg" xmlns:xlink="http://www.w3.org/1999/xlink">
    <g id="Mockup" stroke="none" stroke-width="1" fill="none" fill-rule="evenodd">
        <g id="Switch-Audio-1.0" transform="translate(-702.000000, -696.000000)" fill="#000000">
            <g id="settings/settings_16" transform="translate(702.000000, 696.000000)">
                <g id="settings_16">
                    <path d="M5.37562438,12.1486357 C5.43956044,12.1486357 5.5044955,12.1616699 5.56443556,12.185733 L6.77322677,12.6860458 C6.90609391,12.7421931 7.00899101,12.8524825 7.05494505,12.9888403 L7.64835165,14.7725205 C7.75024975,15.0793256 8.25174825,15.0723071 8.35064935,14.7725205 L8.94005994,12.9878377 C8.98601399,12.8514799 9.08891109,12.7411905 9.22077922,12.6850432 L10.4275724,12.1827251 C10.5594406,12.1275804 10.7092907,12.1325936 10.8391608,12.1967619 L12.5194805,13.0389718 C12.6613387,13.1101586 12.8331668,13.0810823 12.9450549,12.9687877 C13.0589411,12.8534851 13.0869131,12.6820353 13.014985,12.5396617 L12.1758242,10.8572472 C12.1118881,10.7279078 12.1058941,10.5775132 12.1608392,10.4431606 L12.6613387,9.23097999 C12.7172827,9.09763009 12.8271728,8.99435911 12.964036,8.94924073 L14.7482517,8.35668591 C14.8981019,8.307557 15,8.16618606 15,8.00576513 L15,8.0017546 C15,7.84333893 14.8991009,7.70297062 14.7492507,7.65183645 L12.963037,7.05226322 C12.8261738,7.00714483 12.7162837,6.90387386 12.6613387,6.77052396 L12.1638362,5.5583433 C12.1088911,5.4249934 12.1138861,5.27359615 12.1788212,5.14425677 L13.022977,3.459837 C13.0939061,3.31746342 13.0669331,3.14501092 12.954046,3.03271627 C12.8391608,2.91741372 12.6673327,2.89034269 12.5264735,2.96052685 L10.8431568,3.804742 C10.7152847,3.87091563 10.5654346,3.87592879 10.4315684,3.81978146 L9.31368631,3.35456076 C9.18081918,3.29941607 8.99000999,3.15202934 8.94405594,3.01466891 L8.35064935,1.22697816 C8.24875125,0.921175764 7.74825175,0.927191549 7.64835165,1.22798079 L7.05594406,3.01366628 C7.00999001,3.15002407 6.90709291,3.26031346 6.77422577,3.31646079 L5.56843157,3.8177762 C5.43456543,3.87292089 5.28571429,3.86790774 5.15684316,3.80373937 L3.48051948,2.96152948 C3.33866134,2.88934006 3.16783217,2.91741372 3.05494505,3.03071101 C2.94005994,3.14601355 2.91308691,3.31746342 2.98301698,3.45883437 L3.82217782,5.1452594 C3.88611389,5.27459878 3.89210789,5.4249934 3.83716284,5.5583433 L3.33866134,6.7685187 C3.28471528,6.9018686 3.17382617,7.00413694 3.03896104,7.05025796 L1.25074925,7.65183645 C1.1008991,7.70196799 1,7.8423363 1,8.0017546 C1,8.16618606 1.1018981,8.307557 1.25174825,8.35668591 L3.03196803,8.95024336 C3.16883117,8.99636438 3.27772228,9.09863272 3.33366633,9.23097999 L3.83616384,10.4411554 C3.89110889,10.5745053 3.88611389,10.7248999 3.82117882,10.8542393 L2.98201798,12.5476827 C2.91208791,12.6900563 2.94005994,12.8605035 3.05094905,12.9727982 C3.16683317,13.0891034 3.33666334,13.1181797 3.47952048,13.0449876 L5.15284715,12.2017751 C5.22277722,12.1656804 5.2987013,12.1486357 5.37562438,12.1486357 M8,16 C7.412,16 6.893,15.6260234 6.707,15.0690582 L6.184,13.5051559 L5.393,13.1791763 L3.921,13.9191301 C3.395,14.1831136 2.764,14.0811199 2.347,13.6651459 C1.93,13.248172 1.827,12.6172114 2.089,12.0922442 L2.828,10.607337 L2.499,9.81938629 L0.933,9.29841885 C0.375,9.11343041 0,8.59446285 0,8.00649959 C0,7.41653647 0.373,6.8975689 0.928,6.71058059 L2.503,6.18261359 L2.829,5.3936629 L2.09,3.91575527 C1.827,3.39178801 1.93,2.76082745 2.345,2.34485345 C2.761,1.92687957 3.393,1.82288607 3.92,2.08686957 L5.395,2.82482345 L6.184,2.49784388 L6.706,0.930941816 C6.893,0.373976626 7.412,0 7.998,0 C8.589,0 9.108,0.373976626 9.293,0.931941754 L9.816,2.49884382 L10.605,2.82682332 L12.087,2.08586963 C12.611,1.82288607 13.244,1.92587963 13.66,2.3408537 C14.078,2.75982751 14.179,3.39278795 13.915,3.91775514 L13.172,5.39566277 L13.498,6.18461346 L15.07,6.71158053 C15.627,6.89656896 16,7.41553653 16,8.00149991 L16,8.00549966 C16,8.59446285 15.625,9.11343041 15.067,9.29841885 L13.497,9.81838635 L13.17,10.607337 L13.909,12.0822449 C14.172,12.608212 14.069,13.2401725 13.654,13.6551466 C13.235,14.0721205 12.602,14.1751141 12.081,13.9131304 L10.601,13.1751766 L9.812,13.5031561 L9.293,15.0670583 C9.108,15.6250234 8.588,16 8,16 Z M8,6 C9.10271903,6 10,6.89705512 10,7.9994966 C10,9.10294488 9.10271903,10 8,10 C6.89728097,10 6,9.10294488 6,7.9994966 C6,6.89705512 6.89728097,6 8,6 Z M8,11 C9.65458207,11 11,9.65380097 11,7.99949656 C11,6.34519215 9.65458207,5 8,5 C6.34541793,5 5,6.34519215 5,7.99949656 C5,9.65380097 6.34541793,11 8,11 Z" id="fill"></path>
                </g>
            </g>
        </g>
    </g>
</svg>