
<svg width="16px" height="12px" viewBox="0 0 16 12" version="1.1" xmlns="http://www.w3.org/2000/svg" xmlns:xlink="http://www.w3.org/1999/xlink">
    <g id="Mockup" stroke="none" stroke-width="1" fill="none" fill-rule="evenodd">
        <g id="Switch-Audio-1.0" transform="translate(-702.000000, -530.000000)" fill="#000000">
            <g id="hardware/generic-device_16" transform="translate(702.000000, 528.000000)">
                <g id="generic-device_16" transform="translate(0.000000, 2.000000)">
                    <path d="M14.006,0 C15.107,0 16,0.902 16,2.009 L16,9.991 C16,11.1 15.105,12 14.006,12 L1.994,12 C0.893,12 0,11.097 0,9.991 L0,2.009 C0,0.899 0.895,0 1.994,0 L14.006,0 Z M15,9.991 L15,2.009 C15,1.451 14.553,1 14.006,1 L1.994,1 C1.447,1 1,1.451 1,2.009 L1,9.991 C1,10.549 1.447,11 1.994,11 L14.006,11 C14.553,11 15,10.549 15,9.991 Z M2.30000001,2 L13.7,2 C13.8656854,2 14,2.13431458 14,2.30000001 L14,9.69999999 C14,9.86568542 13.8656854,10 13.7,10 L2.30000001,10 C2.13431458,10 2,9.86568542 2,9.69999999 L2,2.30000001 C2,2.13431458 2.13431458,2 2.30000001,2 Z M3,3 L3,9 L13,9 L13,3 L3,3 Z" id="fill"></path>
                </g>
            </g>
        </g>
    </g>
</svg>