
<svg width="16px" height="16px" viewBox="0 0 16 16" version="1.1" xmlns="http://www.w3.org/2000/svg" xmlns:xlink="http://www.w3.org/1999/xlink">
    <g id="Mockup" stroke="none" stroke-width="1" fill="none" fill-rule="evenodd">
        <g id="Switch-Audio-1.0" transform="translate(-702.000000, -568.000000)" fill="#000000">
            <g id="contacts/participant-add_16" transform="translate(702.000000, 568.000000)">
                <g id="participant-add_16">
                    <path d="M9.50023807,15 C9.77623807,15 10.0002381,15.224 10.0002381,15.5 C10.0002381,15.776 9.77623807,16 9.50023807,16 L0.969238071,16 C0.678238071,16 0.404238071,15.866 0.220238071,15.634 C0.0252380712,15.39 -0.0437619288,15.072 0.0272380712,14.765 L0.578238071,12.416 C1.04923807,10.405 2.74523807,9 4.70323807,9 L5.03123807,9 C3.80623807,8.088 3.00023807,6.642 3.00023807,5 C3.00023807,2.243 5.24323807,0 8.00023807,0 C10.7572381,0 13.0002381,2.243 13.0002381,5 C13.0002381,7.757 10.7572381,10 8.00023807,10 L4.70323807,10 C3.21223807,10 1.91623807,11.087 1.55223807,12.645 L1.00123807,14.993 L9.50023807,15 Z M4.00023807,5 C4.00023807,7.206 5.79523807,9 8.00023807,9 C10.2062381,9 12.0002381,7.206 12.0002381,5 C12.0002381,2.794 10.2062381,1 8.00023807,1 C5.79523807,1 4.00023807,2.794 4.00023807,5 Z M15.5002381,12 C15.7752381,12 16.0002381,12.225 16.0002381,12.5 C16.0002381,12.775 15.7752381,13 15.5002381,13 L13.0002381,13 L13.0002381,15.5 C13.0002381,15.775 12.7752381,16 12.5002381,16 C12.2252381,16 12.0002381,15.775 12.0002381,15.5 L12.0002381,13 L9.50023807,13 C9.22523807,13 9.00023807,12.775 9.00023807,12.5 C9.00023807,12.225 9.22523807,12 9.50023807,12 L12.0002381,12 L12.0002381,9.5 C12.0002381,9.225 12.2252381,9 12.5002381,9 C12.7752381,9 13.0002381,9.225 13.0002381,9.5 L13.0002381,12 L15.5002381,12 Z" id="fill"></path>
                </g>
            </g>
        </g>
    </g>
</svg>