
<svg width="16px" height="16px" viewBox="0 0 16 16" version="1.1" xmlns="http://www.w3.org/2000/svg" xmlns:xlink="http://www.w3.org/1999/xlink">
    <g id="Mockup" stroke="none" stroke-width="1" fill="none" fill-rule="evenodd">
        <g id="Switch-Audio-1.0" transform="translate(-702.000000, -448.000000)" fill="#000000">
            <g id="alerts-and-notifications/private-circle_16" transform="translate(702.000000, 448.000000)">
                <g id="private-circle_16">
                    <path d="M8,0 C3.582,0 0,3.582 0,8 C0,12.418 3.582,16 8,16 C12.418,16 16,12.418 16,8 C16,3.582 12.418,0 8,0 M8,1 C11.859,1 15,4.141 15,8 C15,11.859 11.859,15 8,15 C4.141,15 1,11.859 1,8 C1,4.141 4.141,1 8,1" id="fill"></path>
                    <path d="M9.24225,4.25 C10.34325,4.25 11.23425,5.141 11.23425,6.242 C11.23425,7.342 10.34325,8.234 9.24225,8.234 C8.87825,8.234 8.54125,8.13 8.24725,7.959 L6.96125,9.245 L7.60525,9.899 C7.79825,10.094 7.79725,10.409 7.60225,10.603 L6.60125,11.603 C6.50825,11.697 6.38125,11.75 6.24825,11.75 C6.11525,11.75 5.98825,11.697 5.89425,11.603 L4.89625,10.603 C4.70125,10.408 4.70125,10.091 4.89625,9.896 L7.53525,7.255 C7.35825,6.958 7.25025,6.614 7.25025,6.242 C7.25025,5.141 8.14125,4.25 9.24225,4.25 Z M9.24225,7.234 C9.78925,7.234 10.23425,6.789 10.23425,6.242 C10.23425,5.695 9.78925,5.25 9.24225,5.25 C8.69525,5.25 8.25025,5.695 8.25025,6.242 C8.25025,6.789 8.69525,7.234 9.24225,7.234 Z M6.24925,10.543 L6.54425,10.247 L6.25425,9.953 L5.95725,10.25 L6.24925,10.543 Z" id="fill"></path>
                </g>
            </g>
        </g>
    </g>
</svg>