
<svg width="8px" height="12px" viewBox="0 0 8 12" version="1.1" xmlns="http://www.w3.org/2000/svg" xmlns:xlink="http://www.w3.org/1999/xlink">
    <!-- Generator: Sketch 48.2 (47327) - http://www.bohemiancoding.com/sketch -->
    <desc>Created with Sketch.</desc>
    <defs></defs>
    <g id="Video-Centric" stroke="none" stroke-width="1" fill="none" fill-rule="evenodd">
        <g id="2.0" transform="translate(-930.000000, -307.000000)">
            <g id="item" transform="translate(874.000000, 293.000000)">
                <g id="call-muted" transform="translate(54.000000, 14.000000)">
                    <rect id="Rectangle-9" x="0" y="0" width="12" height="12"></rect>
                    <g id="phone-ios_12" transform="translate(2.000000, 0.000000)" fill="#4F5051" fill-rule="nonzero">
                        <g id="icon">
                            <path d="M1.5,1 C1.22385763,1 1,1.22385763 1,1.5 L1,10.5 C1,10.7761424 1.22385763,11 1.5,11 L6.5,11 C6.77614237,11 7,10.7761424 7,10.5 L7,1.5 C7,1.22385763 6.77614237,1 6.5,1 L1.5,1 Z M1.5,0 L6.5,0 C7.32842712,-1.52179594e-16 8,0.671572875 8,1.5 L8,10.5 C8,11.3284271 7.32842712,12 6.5,12 L1.5,12 C0.671572875,12 0,11.3284271 0,10.5 L0,1.5 C0,0.671572875 0.671572875,1.52179594e-16 1.5,0 Z M1,9 L1,10 L7,10 L7,9 L1,9 Z" id="fill"></path>
                        </g>
                    </g>
                </g>
            </g>
        </g>
    </g>
</svg>