
<svg width="20px" height="18px" viewBox="0 0 20 18" version="1.1" xmlns="http://www.w3.org/2000/svg" xmlns:xlink="http://www.w3.org/1999/xlink">
    <defs>
        <path d="M5.9995,4.99925 C5.8725,4.99925 5.7445,4.95025 5.6465,4.85325 C5.4515,4.65725 5.4515,4.34025 5.6465,4.14525 L9.6465,0.14525 C9.6625,0.12925 9.6825,0.12325 9.7005,0.10925 C9.7345,0.08325 9.7675,0.05525 9.8085,0.03825 C9.9305,-0.01275 10.0695,-0.01275 10.1915,0.03825 C10.2325,0.05525 10.2655,0.08325 10.2995,0.10925 C10.3175,0.12325 10.3375,0.12925 10.3535,0.14525 L14.3535,4.14525 C14.5485,4.34025 14.5485,4.65725 14.3535,4.85325 C14.1585,5.04725 13.8415,5.04725 13.6465,4.85325 L10.4995,1.70625 L10.4995,10.49925 C10.4995,10.77425 10.2755,10.99925 9.9995,10.99925 C9.7245,10.99925 9.4995,10.77425 9.4995,10.49925 L9.4995,1.70625 L6.3535,4.85325 C6.2555,4.95025 6.1275,4.99925 5.9995,4.99925 Z M17.5,3.00025 C18.875,3.00025 20,4.12525 20,5.50025 L20,15.50025 C20,16.87525 18.875,18.00025 17.5,18.00025 L2.5,18.00025 C1.125,18.00025 0,16.87525 0,15.50025 L0,5.50025 C0,4.12525 1.125,3.00025 2.5,3.00025 C2.775,3.00025 3,3.22625 3,3.50025 C3,3.77525 2.775,4.00025 2.5,4.00025 C1.673,4.00025 1,4.67425 1,5.50025 L1,15.50025 C1,16.32725 1.673,17.00025 2.5,17.00025 L17.5,17.00025 C18.327,17.00025 19,16.32725 19,15.50025 L19,5.50025 C19,4.67425 18.327,4.00025 17.5,4.00025 C17.225,4.00025 17,3.77525 17,3.50025 C17,3.22625 17.225,3.00025 17.5,3.00025 Z" id="path-1"></path>
    </defs>
    <g id="V2-flow" stroke="none" stroke-width="1" fill="none" fill-rule="evenodd">
        <g id="AV-main-flows" transform="translate(-4307.000000, -954.000000)">
            <g id="App" transform="translate(3657.000000, 260.000000)">
                <g id="call-control" transform="translate(514.000000, 677.000000)">
                    <g id="button" transform="translate(120.000000, 0.000000)">
                        <g id="content-share_20_w" transform="translate(16.000000, 17.000000)">
                            <mask id="mask-2" fill="white">
                                <use xlink:href="#path-1"></use>
                            </mask>
                            <use id="fill" fill="#FFFFFF" xlink:href="#path-1"></use>
                        </g>
                    </g>
                </g>
            </g>
        </g>
    </g>
</svg>