
<svg width="20px" height="14px" viewBox="0 0 20 14" version="1.1" xmlns="http://www.w3.org/2000/svg" xmlns:xlink="http://www.w3.org/1999/xlink">
    <g id="In-Meeting-Layout" stroke="none" stroke-width="1" fill="none" fill-rule="evenodd">
        <g id="Webex-Meetings-Copy-3" transform="translate(-523.000000, -571.000000)" fill="#FFFFFF">
            <g id="button" transform="translate(507.000000, 552.000000)">
                <g id="Group-5" transform="translate(16.000000, 16.000000)">
                    <g id="activities/camera_20_w">
                        <g id="camera_20_w" transform="translate(0.000000, 3.000000)">
                            <path d="M19.004,10.855 C19.004,10.936 18.957,10.972 18.917,10.989 C18.868,11.011 18.817,11.001 18.776,10.959 L15,7.127 L15,6.872 L18.776,3.041 C18.817,2.999 18.867,2.987 18.917,3.01 C18.957,3.027 19.004,3.063 19.004,3.144 L19.004,10.855 Z M14,11.497 C14,12.323 13.323,13 12.506,13 L2.493,13 C1.67,13 1,12.327 1,11.497 L1,2.503 C1,1.677 1.676,1 2.493,1 L12.506,1 C13.33,1 14,1.673 14,2.503 L14,11.497 Z M19.296,2.085 C18.871,1.91 18.39,2.008 18.068,2.337 L15,5.451 L15,2.503 C15,1.122 13.883,0 12.506,0 L2.493,0 C1.127,0 0,1.121 0,2.503 L0,11.497 C0,12.878 1.116,14 2.493,14 L12.506,14 C13.872,14 15,12.879 15,11.497 L15,8.548 L18.068,11.662 C18.284,11.882 18.573,11.999 18.867,11.999 C19.012,11.999 19.156,11.971 19.296,11.914 C19.724,11.738 20,11.322 20,10.855 L20,3.144 C20,2.677 19.724,2.261 19.296,2.085 Z" id="fill"></path>
                        </g>
                    </g>
                    <path d="M9.49930024,6.99877543 C9.77520368,6.99877543 9.99912531,6.77477543 9.99912531,6.49877543 C9.99912531,6.22277543 9.77520368,5.99877543 9.49930024,5.99877543 C9.22339681,5.99877543 8.99947518,6.22277543 8.99947518,6.49877543 C8.99947518,6.77477543 9.22339681,6.99877543 9.49930024,6.99877543 Z M9.49930024,4.99877543 C10.3280102,4.99877543 10.9987754,5.66977543 10.9987754,6.49877543 C10.9987754,7.15077543 10.579922,7.70077543 9.99912531,7.90677543 L9.99912531,14.4987754 C9.99912531,14.7747754 9.77520368,14.9987754 9.49930024,14.9987754 C9.22339681,14.9987754 8.99947518,14.7747754 8.99947518,14.4987754 L8.99947518,7.90677543 C8.41867846,7.70077543 7.99982506,7.15077543 7.99982506,6.49877543 C7.99982506,5.66977543 8.67059029,4.99877543 9.49930024,4.99877543 Z M5.50069976,13.9987754 C5.77660319,13.9987754 6.00052482,13.7747754 6.00052482,13.4987754 C6.00052482,13.2227754 5.77660319,12.9987754 5.50069976,12.9987754 C5.22479632,12.9987754 5.00087469,13.2227754 5.00087469,13.4987754 C5.00087469,13.7747754 5.22479632,13.9987754 5.50069976,13.9987754 Z M6.00052482,12.0907754 C6.58132154,12.2967754 7.00017494,12.8467754 7.00017494,13.4987754 C7.00017494,14.3277754 6.32940971,14.9987754 5.50069976,14.9987754 C4.6719898,14.9987754 4.00122457,14.3277754 4.00122457,13.4987754 C4.00122457,12.8467754 4.42007797,12.2967754 5.00087469,12.0907754 L5.00087469,4.49877543 C5.00087469,4.22277543 5.22479632,3.99877543 5.50069976,3.99877543 C5.77660319,3.99877543 6.00052482,4.22277543 6.00052482,4.49877543 L6.00052482,12.0907754 Z" id="fill" transform="translate(7.500000, 9.498775) rotate(90.000000) translate(-7.500000, -9.498775) "></path>
                </g>
            </g>
        </g>
    </g>
</svg>