
<svg width="12px" height="12px" viewBox="0 0 12 12" version="1.1" xmlns="http://www.w3.org/2000/svg" xmlns:xlink="http://www.w3.org/1999/xlink">
    <!-- Generator: Sketch 48.2 (47327) - http://www.bohemiancoding.com/sketch -->
    <desc>Created with Sketch.</desc>
    <defs>
        <polygon id="path-1" points="0.0002 0 6.7302 0 6.7302 5.9999 0.0002 5.9999"></polygon>
        <polygon id="path-3" points="0 0 8.95 0 8.95 11.1599 0 11.1599"></polygon>
    </defs>
    <g id="Video-Centric" stroke="none" stroke-width="1" fill="none" fill-rule="evenodd">
        <g id="2.0" transform="translate(-908.000000, -197.000000)">
            <g id="webex-logo" transform="translate(908.000000, 197.000000)">
                <path d="M7.6199,0.2299 C8.0899,0.3599 8.5399,0.5499 8.9499,0.7799 L7.8799,2.6299 C7.9799,2.7099 8.0699,2.7999 8.1399,2.8999 C8.3599,3.2099 8.1599,4.3099 8.1599,4.3099 L8.1499,4.2999 C8.0499,5.0299 7.7699,5.8399 7.2699,6.6999 L7.2599,6.7199 L7.2499,6.7499 C6.7299,7.6499 6.1399,8.3199 5.5299,8.7799 L5.5399,8.7799 C5.5399,8.7799 4.6499,9.4599 4.2699,9.4099 C4.1799,9.3899 4.0999,9.3499 4.0099,9.3199 L2.9499,11.1599 C3.8399,11.6899 4.8899,11.9999 5.9999,11.9999 C9.3199,11.9999 11.9999,9.3199 11.9999,5.9999 C11.9999,3.2499 10.1499,0.9399 7.6199,0.2299" id="Fill-1" fill="#4B9639"></path>
                <path d="M1.26,9.6698 C1.72,10.2698 2.29,10.7698 2.95,11.1598 C2.3,10.7698 1.72,10.2698 1.26,9.6698" id="Fill-3" fill="#4B9639"></path>
                <path d="M6.9202,0.08 C7.1002,0.11 7.2802,0.14 7.4602,0.19 C7.2802,0.14 7.1002,0.11 6.9202,0.08" id="Fill-5" fill="#4B9639"></path>
                <path d="M0.05,6.7401 C0.02,6.4901 0,6.2501 0,6.0001 C0,6.2501 0.02,6.4901 0.05,6.7401" id="Fill-7" fill="#4B9639"></path>
                <g id="Group-11">
                    <mask id="mask-2" fill="white">
                        <use xlink:href="#path-1"></use>
                    </mask>
                    <g id="Clip-10"></g>
                    <path d="M6.0002,-0.0001 C6.2502,-0.0001 6.4902,0.0199 6.7302,0.0499 C6.4902,0.0199 6.2502,-0.0001 6.0002,-0.0001 C2.6902,-0.0001 0.0002,2.6899 0.0002,5.9999 C0.0002,2.6899 2.6902,-0.0001 6.0002,-0.0001" id="Fill-9" fill="#4B9639" mask="url(#mask-2)"></path>
                </g>
                <path d="M1.22,9.6102 C1.09,9.4402 0.96,9.2502 0.85,9.0702 C0.96,9.2602 1.09,9.4402 1.22,9.6102" id="Fill-12" fill="#4B9639"></path>
                <path d="M0.1902,7.4701 C0.1502,7.3001 0.1102,7.1201 0.0802,6.9401 C0.1102,7.1201 0.1502,7.3001 0.1902,7.4701" id="Fill-14" fill="#4B9639"></path>
                <path d="M0.8,8.9799 C0.56,8.5699 0.37,8.1199 0.24,7.6599 C0.37,8.1299 0.56,8.5699 0.8,8.9799" id="Fill-16" fill="#4B9639"></path>
                <path d="M3.1902,8.8202 L3.2102,8.8302 L3.1902,8.8202 Z" id="Fill-18" fill="#004923"></path>
                <polygon id="Fill-20" fill="#004923" points="3.2302 8.85 3.2102 8.83 3.2402 8.85"></polygon>
                <g id="Group-24">
                    <mask id="mask-4" fill="white">
                        <use xlink:href="#path-3"></use>
                    </mask>
                    <g id="Clip-23"></g>
                    <path d="M3.24,8.8099 C1.93,7.6099 1.58,5.6099 2.5,4.0099 L2.51,3.9899 L2.53,3.9699 C3.45,2.3599 5.36,1.6699 7.06,2.1999 L7.16,2.2399 C7.16,2.2399 7.56,2.3799 7.88,2.6299 L8.95,0.7799 C8.08,0.2899 7.08,-0.0001 6,-0.0001 C2.69,-0.0001 0,2.6899 0,5.9999 C0,8.1999 1.19,10.1199 2.95,11.1599 L4.01,9.3199 C3.6,9.1599 3.24,8.8099 3.24,8.8099" id="Fill-22" fill="#299FDA" mask="url(#mask-4)"></path>
                </g>
                <path d="M8.1399,2.8998 C7.8399,2.4698 7.1599,2.2398 7.1599,2.2398 L7.0499,2.1998 C5.3499,1.6698 3.4499,2.3598 2.5199,3.9698 L2.5099,3.9898 L2.4999,4.0098 C1.5699,5.6098 1.9299,7.6098 3.2399,8.8098 C3.2399,8.8098 3.7499,9.3298 4.2699,9.4098 C4.6499,9.4598 5.5399,8.7798 5.5399,8.7798 L5.5299,8.7798 C6.1299,8.3198 6.7199,7.6498 7.2499,6.7498 L7.2599,6.7298 L7.2699,6.6998 C7.7699,5.8398 8.0499,5.0298 8.1499,4.2998 L8.1599,4.3098 C8.1599,4.3098 8.3599,3.2098 8.1399,2.8998" id="Fill-25" fill="#FFFFFF"></path>
                <path d="M6.3498,7.85 C5.9598,7.7 5.5498,7.5 5.1398,7.26 C3.3898,6.25 2.2498,4.92 2.4198,4.14 C1.5798,5.72 1.9398,7.65 3.2198,8.82 C3.4398,9.01 4.2098,9.67 4.7498,9.25 L4.8298,9.22 C5.3798,8.95 5.9298,8.51 6.4498,7.89 L6.3498,7.85 Z" id="Fill-27" fill="#27A0DA"></path>
                <path d="M6.4499,7.8798 C6.0299,8.3798 5.5899,8.7598 5.1499,9.0298 C4.8599,9.2098 4.4899,9.4198 4.2699,9.3898 C3.9199,9.3398 3.5899,9.0898 3.3999,8.9298 C3.5699,9.0798 3.7499,9.2198 3.9499,9.3298 C5.8199,10.4098 8.2099,9.7698 9.2999,7.8998 C8.9699,8.4498 7.8199,8.4098 6.4499,7.8798" id="Fill-29" fill="#2E7831"></path>
            </g>
        </g>
    </g>
</svg>