
<svg width="16px" height="16px" viewBox="0 0 16 16" version="1.1" xmlns="http://www.w3.org/2000/svg" xmlns:xlink="http://www.w3.org/1999/xlink">
    <g id="V2-flow" stroke="none" stroke-width="1" fill="none" fill-rule="evenodd">
        <g id="AV-main-flows" transform="translate(-400.000000, -5673.000000)" fill="#000000">
            <g id="Group-3-Copy" transform="translate(130.000000, 5241.000000)">
                <g id="Group-2" transform="translate(256.000000, 421.000000)">
                    <g id="audio">
                        <g id="audio-options_20" transform="translate(14.000000, 11.000000)">
                            <path d="M14.4,14.32504 C14.4,14.59784 14.2768,14.84984 14.0616,15.01784 C13.8496,15.18184 13.58,15.23864 13.324,15.17384 C10.8912,14.55544 8.0928,12.79784 5.648,10.35224 C3.2016,7.90664 1.4448,5.10824 0.8264,2.67544 C0.7616,2.41864 0.8176,2.14984 0.9824,1.93944 C1.1504,1.72344 1.4024,1.60024 1.6752,1.60024 L3.336,1.60024 C3.8536,1.60024 4.32,1.90744 4.5248,2.38264 L5.152,3.84264 C5.3528,4.30824 5.3376,4.83464 5.1112,5.28824 L4.6872,6.13544 C4.4704,6.57064 4.5224,7.08104 4.8232,7.46824 C5.7568,8.66824 7.1104,10.01304 8.5376,11.15864 C8.9176,11.46424 9.4448,11.52184 9.8808,11.30504 L10.712,10.88984 C11.1656,10.66264 11.692,10.64744 12.1584,10.84744 L13.6176,11.47544 C14.0928,11.67944 14.4,12.14584 14.4,12.66344 L14.4,14.32504 Z M13.9336,10.74024 C14.7024,11.07144 15.2,11.82584 15.2,12.66344 L15.2,14.32504 C15.2,14.84664 14.964,15.32904 14.552,15.64904 C14.256,15.87944 13.9,16.00024 13.5368,16.00024 C13.4,16.00024 13.2632,15.98344 13.1272,15.94904 C10.5584,15.29624 7.6264,13.46264 5.0824,10.91784 C2.5368,8.37384 0.7032,5.44104 0.0512,2.87304 C-0.0752,2.37464 0.0336,1.85544 0.3504,1.44744 C0.6712,1.03624 1.1536,0.80024 1.6752,0.80024 L3.336,0.80024 C4.1744,0.80024 4.9288,1.29704 5.26,2.06664 L5.8872,3.52584 C6.1816,4.20824 6.1592,4.98104 5.8264,5.64584 L5.4032,6.49224 C5.3248,6.64984 5.3448,6.83544 5.4552,6.97704 C6.352,8.12984 7.6576,9.42664 9.0384,10.53464 C9.1768,10.64504 9.3672,10.66584 9.5232,10.58984 L10.3536,10.17384 C11.0184,9.84184 11.792,9.82024 12.4736,10.11224 L12.4744,10.11224 L13.9336,10.74024 Z M8.9166,7.0834 C8.7606,6.9274 8.7606,6.6738 8.9166,6.5178 L14.6334,0.8002 L10.7998,0.8002 C10.5782,0.8002 10.3998,0.6218 10.3998,0.4002 C10.3998,0.1794 10.5782,0.0002 10.7998,0.0002 L15.5998,0.0002 C15.8206,0.0002 15.9998,0.1794 15.9998,0.4002 L15.9998,5.2002 C15.9998,5.4218 15.8206,5.6002 15.5998,5.6002 C15.3782,5.6002 15.1998,5.4218 15.1998,5.2002 L15.1998,1.3666 L9.4822,7.0834 C9.3262,7.2394 9.0726,7.2394 8.9166,7.0834 Z" id="fill"></path>
                        </g>
                    </g>
                </g>
            </g>
        </g>
    </g>
</svg>