
<svg width="16px" height="18px" viewBox="0 0 16 18" version="1.1" xmlns="http://www.w3.org/2000/svg" xmlns:xlink="http://www.w3.org/1999/xlink">
    <!-- Generator: Sketch 48.2 (47327) - http://www.bohemiancoding.com/sketch -->
    <desc>Created with Sketch.</desc>
    <defs></defs>
    <g id="Video-Centric" stroke="none" stroke-width="1" fill="none" fill-rule="evenodd">
        <g id="alerts-and-notifications/private_20_w" transform="translate(-2.000000, -1.000000)" fill="#FFFFFF">
            <g id="private_20_w" transform="translate(2.000000, 1.000000)">
                <g id="icon">
                    <path d="M11.5,8 C9.57,8 8,6.43 8,4.5 C8,2.57 9.57,1 11.5,1 C13.43,1 15,2.57 15,4.5 C15,6.43 13.43,8 11.5,8 Z M4.813,14.979 L3,16.793 L1.216,15.009 L3.073,13.239 L4.813,14.979 Z M11.5,0 C9.019,0 7,2.019 7,4.5 C7,5.526 7.359,6.463 7.939,7.221 L2.769,12.147 C2.754,12.159 2.74,12.172 2.727,12.186 C2.719,12.193 2.712,12.201 2.704,12.209 L0.155,14.638 C0.058,14.73 0.002,14.859 2.03287907e-20,14.994 C-0.002,15.129 0.051,15.258 0.146,15.354 L2.646,17.854 C2.744,17.951 2.872,18 3,18 C3.128,18 3.256,17.951 3.354,17.854 L5.874,15.333 C6.069,15.138 6.069,14.821 5.874,14.626 L3.797,12.549 L8.635,7.94 C9.415,8.592 10.406,9 11.5,9 C13.981,9 16,6.981 16,4.5 C16,2.019 13.981,0 11.5,0 Z" id="fill"></path>
                </g>
            </g>
        </g>
    </g>
</svg>