
<svg width="2px" height="10px" viewBox="0 0 2 10" version="1.1" xmlns="http://www.w3.org/2000/svg" xmlns:xlink="http://www.w3.org/1999/xlink">
    <g id="App" stroke="none" stroke-width="1" fill="none" fill-rule="evenodd">
        <g id="2.1-1.0-copy" transform="translate(-855.000000, -404.000000)" fill="#FFFFFF">
            <g id="App" transform="translate(520.000000, 124.000000)">
                <g id="content" transform="translate(1.000000, 63.000000)">
                    <g id="list" transform="translate(0.000000, 112.000000)">
                        <g id="item" transform="translate(0.000000, 81.000000)">
                            <g id="call" transform="translate(292.000000, 17.000000)">
                                <g id="common-actions/more-adr_12_w" transform="translate(38.000000, 7.000000)">
                                    <g id="more-adr_12_w" transform="translate(4.166667, 0.833333)">
                                        <path d="M-1.66666667,4.16666667 C-1.66666667,4.6275 -2.03916667,5 -2.5,5 C-2.96083333,5 -3.33333333,4.6275 -3.33333333,4.16666667 C-3.33333333,3.70583333 -2.96083333,3.33333333 -2.5,3.33333333 C-2.03916667,3.33333333 -1.66666667,3.70583333 -1.66666667,4.16666667 Z M1.66666667,4.16666667 C1.66666667,4.6275 1.29416667,5 0.833333333,5 C0.3725,5 0,4.6275 0,4.16666667 C0,3.70583333 0.3725,3.33333333 0.833333333,3.33333333 C1.29416667,3.33333333 1.66666667,3.70583333 1.66666667,4.16666667 Z M5,4.16666667 C5,4.6275 4.6275,5 4.16666667,5 C3.70583333,5 3.33333333,4.6275 3.33333333,4.16666667 C3.33333333,3.70583333 3.70583333,3.33333333 4.16666667,3.33333333 C4.6275,3.33333333 5,3.70583333 5,4.16666667 Z" id="fill" transform="translate(0.833333, 4.166667) rotate(90.000000) translate(-0.833333, -4.166667) "></path>
                                    </g>
                                </g>
                            </g>
                        </g>
                    </g>
                </g>
            </g>
        </g>
    </g>
</svg>