
<svg width="12px" height="12px" viewBox="0 0 12 12" version="1.1" xmlns="http://www.w3.org/2000/svg" xmlns:xlink="http://www.w3.org/1999/xlink">
    <!-- Generator: Sketch 49 (51002) - http://www.bohemiancoding.com/sketch -->
    <desc>Created with Sketch.</desc>
    <defs></defs>
    <g id="Sharing" stroke="none" stroke-width="1" fill="none" fill-rule="evenodd">
        <g id="Sharing-1.0" transform="translate(-26.000000, -387.000000)">
            <g id="App">
                <g id="sharing" transform="translate(0.000000, 154.000000)">
                    <g id="sharing-control" transform="translate(16.000000, 191.000000)">
                        <g id="button" transform="translate(10.000000, 42.000000)">
                            <g id="grid-view">
                                <rect id="bound" x="0" y="0" width="12" height="12"></rect>
                                <g id="icon" fill="#343537" fill-rule="nonzero">
                                    <path d="M4.02192857,6.57142857 C4.79869954,6.57142857 5.42871429,7.20127194 5.42871429,7.97785714 L5.42871429,10.0935714 C5.42871429,10.8701566 4.79869954,11.5 4.02192857,11.5 L1.90657143,11.5 C1.12980763,11.5 0.500142857,10.8701638 0.500142857,10.0935714 L0.500142857,7.97785714 C0.500142857,7.20126472 1.12980763,6.57142857 1.90657143,6.57142857 L4.02192857,6.57142857 Z M4.02192857,7.57142857 L1.90657143,7.57142857 C1.68215331,7.57142857 1.50014286,7.75348856 1.50014286,7.97785714 L1.50014286,10.0935714 C1.50014286,10.31794 1.68215331,10.5 1.90657143,10.5 L4.02192857,10.5 C4.24647568,10.5 4.42871429,10.317811 4.42871429,10.0935714 L4.42871429,7.97785714 C4.42871429,7.7536176 4.24647568,7.57142857 4.02192857,7.57142857 Z" id="Stroke-1"></path>
                                    <path d="M4.02192857,0.5 C4.79869954,0.5 5.42871429,1.12984336 5.42871429,1.90642857 L5.42871429,4.02214286 C5.42871429,4.79872806 4.79869954,5.42857143 4.02192857,5.42857143 L1.90657143,5.42857143 C1.12980763,5.42857143 0.500142857,4.79873528 0.500142857,4.02214286 L0.500142857,1.90642857 C0.500142857,1.12983615 1.12980763,0.5 1.90657143,0.5 L4.02192857,0.5 Z M4.02192857,1.5 L1.90657143,1.5 C1.68215331,1.5 1.50014286,1.68205999 1.50014286,1.90642857 L1.50014286,4.02214286 C1.50014286,4.24651144 1.68215331,4.42857143 1.90657143,4.42857143 L4.02192857,4.42857143 C4.24647568,4.42857143 4.42871429,4.2463824 4.42871429,4.02214286 L4.42871429,1.90642857 C4.42871429,1.68218903 4.24647568,1.5 4.02192857,1.5 Z" id="Stroke-3"></path>
                                    <path d="M10.0933571,6.57142857 C10.8701281,6.57142857 11.5001429,7.20127194 11.5001429,7.97785714 L11.5001429,10.0935714 C11.5001429,10.8701566 10.8701281,11.5 10.0933571,11.5 L7.978,11.5 C7.2012362,11.5 6.57157143,10.8701638 6.57157143,10.0935714 L6.57157143,7.97785714 C6.57157143,7.20126472 7.2012362,6.57142857 7.978,6.57142857 L10.0933571,6.57142857 Z M10.0933571,7.57142857 L7.978,7.57142857 C7.75358188,7.57142857 7.57157143,7.75348856 7.57157143,7.97785714 L7.57157143,10.0935714 C7.57157143,10.31794 7.75358188,10.5 7.978,10.5 L10.0933571,10.5 C10.3179043,10.5 10.5001429,10.317811 10.5001429,10.0935714 L10.5001429,7.97785714 C10.5001429,7.7536176 10.3179043,7.57142857 10.0933571,7.57142857 Z" id="Stroke-5"></path>
                                    <path d="M10.0933571,0.5 C10.8701281,0.5 11.5001429,1.12984336 11.5001429,1.90642857 L11.5001429,4.02214286 C11.5001429,4.79872806 10.8701281,5.42857143 10.0933571,5.42857143 L7.978,5.42857143 C7.2012362,5.42857143 6.57157143,4.79873528 6.57157143,4.02214286 L6.57157143,1.90642857 C6.57157143,1.12983615 7.2012362,0.5 7.978,0.5 L10.0933571,0.5 Z M10.0933571,1.5 L7.978,1.5 C7.75358188,1.5 7.57157143,1.68205999 7.57157143,1.90642857 L7.57157143,4.02214286 C7.57157143,4.24651144 7.75358188,4.42857143 7.978,4.42857143 L10.0933571,4.42857143 C10.3179043,4.42857143 10.5001429,4.2463824 10.5001429,4.02214286 L10.5001429,1.90642857 C10.5001429,1.68218903 10.3179043,1.5 10.0933571,1.5 Z" id="Stroke-7"></path>
                                </g>
                            </g>
                        </g>
                    </g>
                </g>
            </g>
        </g>
    </g>
</svg>