<?xml version="1.0" encoding="UTF-8"?>
<svg width="24px" height="24px" viewBox="0 0 24 24" version="1.1" xmlns="http://www.w3.org/2000/svg" xmlns:xlink="http://www.w3.org/1999/xlink">
    <!-- Generator: Sketch 47.1 (45422) - http://www.bohemiancoding.com/sketch -->
    <title>Group</title>
    <desc>Created with Sketch.</desc>
    <defs></defs>
    <g id="B---better" stroke="none" stroke-width="1" fill="none" fill-rule="evenodd">
        <g id="Phase-2-Day-1-B-5.0" transform="translate(-847.000000, -172.000000)">
            <g id="App" transform="translate(208.000000, 128.000000)">
                <g id="content" transform="translate(320.000000, 0.000000)">
                    <g id="top-bar">
                        <g id="activity" transform="translate(319.000000, 44.000000)">
                            <g id="Group">
                                <g>
                                    <circle id="Oval-5" fill="#07C1E4" cx="12" cy="12" r="12"></circle>
                                    <g id="core/chat_12" transform="translate(7.000000, 7.000000)" stroke="#FFFFFF">
                                        <g id="icon">
                                            <path d="M0.416666667,10 C0.308333333,10 0.201666667,9.9575 0.1225,9.87833333 C0.0166666667,9.7725 -0.0241666667,9.61916667 0.0141666667,9.47583333 L0.586666667,7.34166667 C0.2025,6.62 0,5.81416667 0,5 C0,2.24333333 2.24333333,0 5,0 C7.7575,0 10,2.24333333 10,5 C10,7.7575 7.7575,10 5,10 C4.18666667,10 3.38083333,9.79833333 2.65833333,9.41416667 L0.525,9.98583333 C0.489166667,9.99583333 0.453333333,10 0.416666667,10" id="fill"></path>
                                        </g>
                                    </g>
                                </g>
                            </g>
                        </g>
                    </g>
                </g>
            </g>
        </g>
    </g>
</svg>