<?xml version="1.0" encoding="UTF-8"?>
<svg width="24px" height="24px" viewBox="0 0 24 24" version="1.1" xmlns="http://www.w3.org/2000/svg" xmlns:xlink="http://www.w3.org/1999/xlink">
    <!-- Generator: Sketch 47.1 (45422) - http://www.bohemiancoding.com/sketch -->
    <title>Group</title>
    <desc>Created with Sketch.</desc>
    <defs></defs>
    <g id="B---better" stroke="none" stroke-width="1" fill="none" fill-rule="evenodd">
        <g id="Phase-2-Day-1-A-10.0" transform="translate(-847.000000, -172.000000)">
            <g id="App" transform="translate(208.000000, 128.000000)">
                <g id="content" transform="translate(320.000000, 0.000000)">
                    <g id="top-bar">
                        <g id="activity" transform="translate(319.000000, 44.000000)">
                            <g id="Group">
                                <circle id="Oval-5" fill="#D69700" cx="12" cy="12" r="12"></circle>
                                <g id="icon" transform="translate(7.000000, 7.000000)">
                                    <rect id="bounds" x="0" y="0" width="10" height="10"></rect>
                                    <path d="M9.521,3.999 L9,3.999 L9,7.5 C9,7.776 8.776,8 8.5,8 L1.5,8 C1.225,8 1,7.776 1,7.5 L1,3.989 L0.5,3.989 L0.501,2.989 L1,2.989 L1,1.5 C1,1.225 1.225,1 1.5,1 L3.919,1 C4.053,1 4.179,1.053 4.273,1.147 L4.688,1.561 C4.971,1.844 5.348,2 5.748,2 L8.5,2 C8.776,2 9,2.225 9,2.5 L9,2.999 L9.521,2.999 L9.521,3.999 Z M1.001,2.98920056 L1.001,3.9887 L1.0005,3.9887 L1.0005,3.9892 L9.0005,3.9982 L9.0005,2.9982 L1.001,2.98920056 Z M5.748,1 L8.5,1 C9.328,1 10,1.673 10,2.5 L10,7.5 C10,8.328 9.328,9 8.5,9 L1.5,9 C0.673,9 0,8.328 0,7.5 L0,1.5 C0,0.673 0.673,0 1.5,0 L3.919,0 C4.319,0 4.696,0.157 4.98,0.44 L5.395,0.854 C5.488,0.948 5.617,1 5.748,1 Z M9.0005,3.9985 L9.5215,3.9985 L9.5215,2.9985 L9.0005,2.9985 L9.0005,3.9985 Z M1.001,2.98920056 L1.001,2.9887 L0.501,2.9887 L0.5,3.9887 L1.0005,3.9887 L1.0005,2.9892 Z" id="fill" fill="#FFFFFF"></path>
                                </g>
                            </g>
                        </g>
                    </g>
                </g>
            </g>
        </g>
    </g>
</svg>