
<svg width="22px" height="22px" viewBox="0 0 22 22" version="1.1" xmlns="http://www.w3.org/2000/svg" xmlns:xlink="http://www.w3.org/1999/xlink">
    <!-- Generator: Sketch 51 (57462) - http://www.bohemiancoding.com/sketch -->
    <desc>Created with Sketch.</desc>
    <defs></defs>
    <g id="Page-1" stroke="none" stroke-width="1" fill="none" fill-rule="evenodd">
        <g id="icon" transform="translate(-1.000000, -1.000000)">
            <rect id="bounds" x="0" y="0" width="24" height="24"></rect>
            <g transform="translate(1.000000, 1.000000)" fill="#FFFFFF">
                <path d="M19.531,21 L2.469,21 C1.659,21 1,20.343 1,19.534 L1,17 L21,17 L21,19.534 C21,20.343 20.341,21 19.531,21 M19.531,3 C20.341,3 21,3.657 21,4.466 L21,17 L1,17 L1,4.466 C1,3.657 1.659,3 2.469,3 L19.531,3 Z M19.531,2 L17,2 L17,0.5 C17,0.224 16.776,0 16.5,0 C16.223,0 16,0.224 16,0.5 L16,2 L6,2 L6,0.5 C6,0.224 5.776,0 5.5,0 C5.223,0 5,0.224 5,0.5 L5,2 L2.469,2 C1.107,2 0,3.106 0,4.466 L0,19.534 C0,20.894 1.107,22 2.469,22 L19.531,22 C20.892,22 22,20.894 22,19.534 L22,4.466 C22,3.106 20.892,2 19.531,2" id="fill"></path>
                <text id="18" font-family="SFProText-Regular, SF Pro Text" font-size="12" font-weight="normal">
                    <tspan x="4" y="17">18</tspan>
                </text>
            </g>
        </g>
    </g>
</svg>