
<svg width="24px" height="16px" viewBox="0 0 24 16" version="1.1" xmlns="http://www.w3.org/2000/svg" xmlns:xlink="http://www.w3.org/1999/xlink">
    <!-- Generator: Sketch 51 (57462) - http://www.bohemiancoding.com/sketch -->
    <desc>Created with Sketch.</desc>
    <defs></defs>
    <g id="Page-1" stroke="none" stroke-width="1" fill="none" fill-rule="evenodd">
        <g id="team_32" fill="#FFFFFF">
            <path d="M19.2282572,12.0949333 L19.0908572,11.6119822 C18.9534572,11.1266133 18.7128572,10.6962489 18.4098572,10.32512 C18.5088572,10.2930844 18.6120572,10.2719289 18.7200572,10.2719289 L20.3784572,10.2719289 C20.3904572,10.2719289 20.4018572,10.2755556 20.4138572,10.2755556 C20.4252572,10.2755556 20.4366572,10.2719289 20.4486572,10.2719289 L22.0890572,10.2719289 C22.5576572,10.2719289 22.9644572,10.5953067 23.1006572,11.07584 L23.4030572,12.0949333 L19.2282572,12.0949333 Z M19.1580572,14.42144 C19.1340572,14.4528711 19.0812572,14.5066667 18.9948572,14.5066667 L5.04785724,14.5066667 C4.96145724,14.5066667 4.90865724,14.4528711 4.88465724,14.42144 C4.83605724,14.35616 4.82105724,14.2727467 4.84385724,14.1923556 L5.52845724,11.7788089 C5.88605724,10.5185422 6.95765724,9.67111111 8.19545724,9.67111111 L15.8472572,9.67111111 C17.0850572,9.67111111 18.1566572,10.5185422 18.5142572,11.7788089 L19.1988572,14.1923556 C19.2216572,14.2727467 19.2066572,14.35616 19.1580572,14.42144 Z M0.618657243,12.0949333 L0.898857243,11.07584 C1.03565724,10.5953067 1.44185724,10.2719289 1.91105724,10.2719289 L3.56945724,10.2719289 C3.58145724,10.2719289 3.59225724,10.2755556 3.60425724,10.2755556 C3.61625724,10.2755556 3.62705724,10.2719289 3.63905724,10.2719289 L5.28005724,10.2719289 C5.40065724,10.2719289 5.51585724,10.2948978 5.62445724,10.336 C5.32565724,10.7041067 5.08805724,11.1308444 4.95185724,11.6119822 L4.81505724,12.0949333 L0.618657243,12.0949333 Z M1.80425724,7.85777778 C1.80425724,6.85802667 2.61185724,6.04444444 3.60425724,6.04444444 C4.59665724,6.04444444 5.40425724,6.85802667 5.40425724,7.85777778 C5.40425724,8.84604444 4.61525724,9.64874667 3.63905724,9.66748444 L3.56945724,9.66748444 C2.59325724,9.64874667 1.80425724,8.84604444 1.80425724,7.85777778 Z M7.80005724,4.83555556 C7.80005724,2.50300444 9.68405724,0.604444444 12.0000572,0.604444444 C14.3160572,0.604444444 16.2000572,2.50300444 16.2000572,4.83555556 C16.2000572,7.16871111 14.3160572,9.06666667 12.0000572,9.06666667 C9.68405724,9.06666667 7.80005724,7.16871111 7.80005724,4.83555556 Z M18.6138572,7.85777778 C18.6138572,6.85802667 19.4208572,6.04444444 20.4138572,6.04444444 C21.4062572,6.04444444 22.2138572,6.85802667 22.2138572,7.85777778 C22.2138572,8.84604444 21.4242572,9.64874667 20.4480572,9.66748444 L20.3784572,9.66748444 C19.4028572,9.64874667 18.6138572,8.84604444 18.6138572,7.85777778 Z M23.979654,12.0078933 L23.6784541,10.9120356 C23.6784541,10.9114311 23.6778541,10.9108267 23.6778541,10.9096178 C23.4702541,10.17824 22.8168542,9.66748444 22.0890542,9.66748444 L21.9900542,9.66748444 C22.4904542,9.22503111 22.8138542,8.58190222 22.8138542,7.85777778 C22.8138542,6.52256 21.7392543,5.44 20.4138545,5.44 C19.0878547,5.44 18.0138548,6.52256 18.0138548,7.85777778 C18.0138548,8.58190222 18.3360548,9.22503111 18.8370547,9.66748444 L18.7200547,9.66748444 C18.4512547,9.66748444 18.1962548,9.74424889 17.9670548,9.86997333 C17.3772549,9.36828444 16.636255,9.06666667 15.8472551,9.06666667 L14.3184553,9.06666667 C15.7962551,8.2416 16.800055,6.65493333 16.800055,4.83555556 C16.800055,2.16935111 14.6466553,0 12.0000556,0 C9.35345598,0 7.20005628,2.16935111 7.20005628,4.83555556 C7.20005628,6.65493333 8.20385616,8.2416 9.68165592,9.06666667 L8.19545616,9.06666667 C7.39925622,9.06666667 6.65165634,9.37493333 6.0588564,9.88508444 C5.82365646,9.75029333 5.55905649,9.66748444 5.28005653,9.66748444 L5.18045654,9.66748444 C5.68145647,9.22503111 6.0042564,8.58190222 6.0042564,7.85777778 C6.0042564,6.52256 4.92965658,5.44 3.60425676,5.44 C2.27885694,5.44 1.20425708,6.52256 1.20425708,7.85777778 C1.20425708,8.58190222 1.52705704,9.22503111 2.02805697,9.66748444 L1.91105698,9.66748444 C1.18265708,9.66748444 0.529257172,10.17824 0.3210572,10.9120356 L0.0204572404,12.0066844 C-0.0257427534,12.1716978 0.00725724218,12.3524267 0.109857228,12.4884267 C0.210057215,12.6226133 0.361857195,12.6993778 0.526257172,12.6993778 L4.64285661,12.6993778 L4.26665667,14.0255289 C4.19285668,14.2866489 4.24445667,14.5707378 4.40525665,14.7847111 C4.56065662,14.9920356 4.79465659,15.1111111 5.04785656,15.1111111 L18.9948547,15.1111111 C19.2480547,15.1111111 19.4820546,14.9920356 19.6374546,14.7847111 C19.7982545,14.5707378 19.8498545,14.2866489 19.7760545,14.0255289 L19.3998546,12.6993778 L23.4738541,12.6993778 C23.6382541,12.6993778 23.790054,12.6226133 23.890254,12.4884267 C23.992254,12.3524267 24.025854,12.1716978 23.979654,12.0078933 Z" id="Shape"></path>
        </g>
    </g>
</svg>