
<svg width="16px" height="12px" viewBox="0 0 16 12" version="1.1" xmlns="http://www.w3.org/2000/svg" xmlns:xlink="http://www.w3.org/1999/xlink">
    <!-- Generator: Sketch 49.2 (51160) - http://www.bohemiancoding.com/sketch -->
    <desc>Created with Sketch.</desc>
    <defs></defs>
    <g id="Symbols" stroke="none" stroke-width="1" fill="none" fill-rule="evenodd" opacity="0.6">
        <g id="content" transform="translate(-44.000000, -508.000000)" fill="#000000">
            <g id="format/screenshot_16">
                <g transform="translate(44.000000, 506.000000)">
                    <g id="screenshot_16" transform="translate(0.000000, 2.000000)">
                        <g id="icon">
                            <path d="M14,0 C15.105,0 16,0.895 16,2 L16,6.5 C16,6.775 15.775,7 15.5,7 C15.225,7 15,6.775 15,6.5 L15,2 C15,1.449 14.551,1 14,1 L2,1 C1.449,1 1,1.449 1,2 L1,10 C1,10.551 1.449,11 2,11 L10.5,11 C10.775,11 11,11.225 11,11.5 C11,11.775 10.775,12 10.5,12 L2,12 C0.895,12 0,11.105 0,10 L0,2 C0,0.895 0.895,0 2,0 L14,0 Z M15.5,9 C15.775,9 16,9.225 16,9.5 C16,9.775 15.775,10 15.5,10 L14,10 L14,11.5 C14,11.775 13.775,12 13.5,12 C13.225,12 13,11.775 13,11.5 L13,10 L11.5,10 C11.225,10 11,9.775 11,9.5 C11,9.225 11.225,9 11.5,9 L13,9 L13,7.5 C13,7.225 13.225,7 13.5,7 C13.775,7 14,7.225 14,7.5 L14,9 L15.5,9 Z" id="fill"></path>
                        </g>
                    </g>
                </g>
            </g>
        </g>
    </g>
</svg>