
<svg width="23px" height="23px" viewBox="0 0 23 23" version="1.1" xmlns="http://www.w3.org/2000/svg" xmlns:xlink="http://www.w3.org/1999/xlink">
    <!-- Generator: Sketch 51 (57462) - http://www.bohemiancoding.com/sketch -->
    <desc>Created with Sketch.</desc>
    <defs></defs>
    <g id="Page-1" stroke="none" stroke-width="1" fill="none" fill-rule="evenodd">
        <g id="handset_20_w" fill="#69D067">
            <g id="icon">
                <path d="M20.4941772,23 C20.2825795,23 20.0698318,22.9735513 19.859384,22.919504 C15.9758761,21.9225039 11.5426742,19.1465427 7.69826588,15.3022849 C3.85155758,11.4557272 1.07548768,7.02269887 0.0807484628,3.14049298 C-0.114749418,2.3780811 0.0485488119,1.58692065 0.529243601,0.967101645 C1.00533844,0.353032348 1.72638062,0 2.50492218,0 L5.02569486,0 C6.2849312,0 7.41881891,0.746312684 7.91561353,1.90315484 L8.8678032,4.11909405 C9.3105484,5.14714264 9.27719877,6.30858457 8.77695419,7.30788461 L8.13526115,8.59352032 C8.0099125,8.8419079 8.04096217,9.13744313 8.21576027,9.3639818 C9.56239567,11.0923454 11.6047735,13.119694 13.680501,14.7825109 C13.8874988,14.9515524 14.1818956,14.9768512 14.4302929,14.8538073 L15.6918292,14.2236388 C16.6911684,13.7222639 17.8538058,13.6889156 18.8818946,14.1316434 L21.0967706,15.0837958 C22.2536581,15.580571 23,16.7144143 23,17.9736013 L23,20.4942753 C23,21.2727864 22.6481038,21.9926504 22.0328605,22.4698765 C21.5855153,22.8183091 21.0461712,23 20.4941772,23 Z" id="fill"></path>
            </g>
        </g>
    </g>
</svg>