<?xml version="1.0" encoding="UTF-8"?>
<svg width="24px" height="24px" viewBox="0 0 24 24" version="1.1" xmlns="http://www.w3.org/2000/svg" xmlns:xlink="http://www.w3.org/1999/xlink">
    <!-- Generator: Sketch 47.1 (45422) - http://www.bohemiancoding.com/sketch -->
    <title>Group</title>
    <desc>Created with Sketch.</desc>
    <defs></defs>
    <g id="B---better" stroke="none" stroke-width="1" fill="none" fill-rule="evenodd">
        <g id="Phase-2-Day-1-A-10.3" transform="translate(-827.000000, -172.000000)">
            <g id="App" transform="translate(208.000000, 128.000000)">
                <g id="content" transform="translate(320.000000, 0.000000)">
                    <g id="top-bar">
                        <g id="activity" transform="translate(299.000000, 44.000000)">
                            <g id="Group">
                                <circle id="Oval-5" fill="#B235B5" cx="12" cy="12" r="12"></circle>
                                <g id="icon" transform="translate(7.000000, 7.000000)">
                                    <rect id="bounds" x="0" y="0" width="10" height="10"></rect>
                                    <path d="M7.84333718,3.63575 L6.36333718,2.15475 L7.21333718,1.30575 C7.60833718,0.90975 8.29733718,0.90975 8.69333718,1.30575 C8.89133718,1.50275 9.00033718,1.76575 9.00033718,2.04575 C9.00033718,2.32575 8.89133718,2.58775 8.69333718,2.78575 L7.84333718,3.63575 Z M3.04533718,8.43275 L1.15333718,8.84475 L1.56533718,6.95275 L5.65633718,2.86175 L7.13633718,4.34275 L3.04533718,8.43275 Z M6.50533718,0.59775 L0.754337179,6.34975 C0.686337179,6.41775 0.639337179,6.50375 0.619337179,6.59675 L0.0113371786,9.39175 C-0.0246628214,9.55875 0.0263371786,9.73175 0.146337179,9.85175 C0.241337179,9.94675 0.369337179,9.99875 0.500337179,9.99875 C0.535337179,9.99875 0.571337179,9.99475 0.606337179,9.98775 L3.40133718,9.37975 C3.49533718,9.35875 3.58133718,9.31175 3.64833718,9.24375 L9.40033718,3.49275 C9.78733718,3.10575 10.0003372,2.59275 10.0003372,2.04575 C10.0003372,1.49875 9.78733718,0.98475 9.40033718,0.59775 C8.60233718,-0.19925 7.30333718,-0.19925 6.50533718,0.59775 Z" id="fill" fill="#FFFFFF"></path>
                                </g>
                            </g>
                        </g>
                    </g>
                </g>
            </g>
        </g>
    </g>
</svg>