
<svg width="24px" height="24px" viewBox="0 0 24 24" version="1.1" xmlns="http://www.w3.org/2000/svg" xmlns:xlink="http://www.w3.org/1999/xlink">
    <!-- Generator: Sketch 48.2 (47327) - http://www.bohemiancoding.com/sketch -->
    <desc>Created with Sketch.</desc>
    <defs></defs>
    <g id="Page-1" stroke="none" stroke-width="1" fill="none" fill-rule="evenodd">
        <g id="Meeting-List-10.0" transform="translate(-988.000000, -342.000000)">
            <g id="Popover" transform="translate(964.000000, 143.000000)">
                <g id="Meeting-Recording" transform="translate(12.000000, 156.000000)">
                    <g id="image" transform="translate(12.000000, 43.000000)">
                        <circle id="Oval-7" fill="#EBEBEB" cx="12" cy="12" r="12"></circle>
                        <g id="video-controls/play-circle_16" opacity="0.6" transform="translate(4.000000, 4.000000)" fill="#000000">
                            <g id="play-circle_16">
                                <g id="icon">
                                    <path d="M8,15 C4.14,15 1,11.86 1,8 C1,4.14 4.14,1 8,1 C11.86,1 15,4.14 15,8 C15,11.86 11.86,15 8,15 M8,0 C12.411,0 16,3.589 16,8 C16,12.411 12.411,16 8,16 C3.589,16 0,12.411 0,8 C0,3.589 3.589,0 8,0 Z M6.146,9.976 L6,9.887 L6,6.088 L6.146,6 L10.003,7.984 L6.146,9.976 Z M10.463,7.11842047 L6.605,5.12342047 C6.262,4.94642047 5.86,4.96042047 5.528,5.16142047 C5.198,5.36242047 5,5.71342047 5,6.10042047 L5,9.89942047 C5,10.2864205 5.198,10.6374205 5.528,10.8394205 C5.705,10.9464205 5.902,11.0004205 6.1,11.0004205 C6.272,11.0004205 6.445,10.9594205 6.605,10.8774205 L10.462,8.88442047 C10.794,8.71342047 11,8.37442047 11,8.00142047 C11,7.62842047 10.794,7.28942047 10.463,7.11842047 Z" id="fill"></path>
                                </g>
                            </g>
                        </g>
                    </g>
                </g>
            </g>
        </g>
    </g>
</svg>