
<svg width="12px" height="10px" viewBox="0 0 12 10" version="1.1" xmlns="http://www.w3.org/2000/svg" xmlns:xlink="http://www.w3.org/1999/xlink">
    <!-- Generator: Sketch 49.2 (51160) - http://www.bohemiancoding.com/sketch -->
    <desc>Created with Sketch.</desc>
    <defs></defs>
    <g id="Roster-Refresh" stroke="none" stroke-width="1" fill="none" fill-rule="evenodd" opacity="0.6">
        <g id="Roster-Refresh-1.0" transform="translate(-1202.000000, -327.000000)" fill="#000000">
            <g id="App" transform="translate(208.000000, 128.000000)">
                <g id="roster" transform="translate(744.000000, 0.000000)">
                    <g id="list" transform="translate(0.000000, 96.000000)">
                        <g id="activities/share-screen_12" transform="translate(250.000000, 102.000000)">
                            <g id="share-screen_12" transform="translate(0.000000, 1.000000)">
                                <g id="icon">
                                    <path d="M11,5.499 C11,5.775 10.775,6 10.499,6 L4.501,6 C4.225,6 4,5.775 4,5.499 L4,1.501 C4,1.225 4.225,1 4.501,1 L10.499,1 C10.775,1 11,1.225 11,1.501 L11,5.499 Z M8,8.499 C8,8.775 7.775,9 7.499,9 L1.501,9 C1.225,9 1,8.775 1,8.499 L1,4.501 C1,4.225 1.225,4 1.501,4 L3,4 L3,5.499 C3,6.328 3.672,7 4.501,7 L8,7 L8,8.499 Z M10.499,0 L4.501,0 C3.672,0 3,0.672 3,1.501 L3,3 L1.501,3 C0.672,3 0,3.672 0,4.501 L0,8.499 C0,9.328 0.672,10 1.501,10 L7.499,10 C8.328,10 9,9.328 9,8.499 L9,7 L10.499,7 C11.328,7 12,6.328 12,5.499 L12,1.501 C12,0.672 11.328,0 10.499,0 L10.499,0 Z" id="fill"></path>
                                </g>
                            </g>
                        </g>
                    </g>
                </g>
            </g>
        </g>
    </g>
</svg>