<svg width="8px" height="9px" viewBox="0 0 8 9" version="1.1" xmlns="http://www.w3.org/2000/svg" xmlns:xlink="http://www.w3.org/1999/xlink">
    <!-- Generator: Sketch 48.2 (47327) - http://www.bohemiancoding.com/sketch -->
    <desc>Created with Sketch.</desc>
    <defs></defs>
    <g id="Page-1" stroke="none" stroke-width="1" fill="none" fill-rule="evenodd">
        <g id="Screen-2.0" transform="translate(-225.000000, -215.000000)" fill="#FFFFFF">
            <g id="App" transform="translate(208.000000, 128.000000)">
                <g id="sidebar">
                    <g id="item" transform="translate(0.000000, 72.000000)">
                        <g id="list">
                            <g id="activities/people_10_w" transform="translate(16.000000, 15.000000)">
                                <g id="people_10_w" transform="translate(1.000000, 0.000000)">
                                    <g id="icon">
                                        <path d="M1.06051148,8 L1.25151148,7.122 C1.39651148,6.461 1.89351148,6 2.46051148,6 L5.53951148,6 C6.10651148,6 6.60351148,6.461 6.74751148,7.122 L6.93951148,8 L1.06051148,8 Z M3.99951148,1 C5.10251148,1 5.99951148,1.896 5.99951148,3 C5.99951148,4.103 5.10251148,5 3.99951148,5 C2.89751148,5 1.99951148,4.103 1.99951148,3 C1.99951148,1.896 2.89751148,1 3.99951148,1 Z M7.72450329,6.909 C7.52850349,6.009 6.91050415,5.334 6.13850497,5.098 C6.66950441,4.556 6.99950406,3.816 6.99950406,3 C6.99950406,1.345 5.65450548,0 3.99950724,0 C2.345509,0 0.999510424,1.345 0.999510424,3 C0.999510424,3.816 1.33051007,4.557 1.86150951,5.098 C1.08851033,5.334 0.471510984,6.009 0.275511192,6.908 L0.0185114647,8.081 C-0.0324884811,8.309 0.0235114594,8.552 0.166511308,8.732 C0.303511162,8.902 0.504510949,9 0.718510722,9 L7.28150376,9 C7.49550353,9 7.69650332,8.902 7.83250317,8.732 C7.97650302,8.552 8.03250296,8.309 7.98150301,8.083 L7.72450329,6.909 Z" id="fill"></path>
                                    </g>
                                </g>
                            </g>
                        </g>
                    </g>
                </g>
            </g>
        </g>
    </g>
</svg>