
<svg width="14px" height="14px" viewBox="0 0 14 14" version="1.1" xmlns="http://www.w3.org/2000/svg" xmlns:xlink="http://www.w3.org/1999/xlink">
    <!-- Generator: Sketch 49.2 (51160) - http://www.bohemiancoding.com/sketch -->
    <desc>Created with Sketch.</desc>
    <defs></defs>
    <g id="Symbols" stroke="none" stroke-width="1" fill="none" fill-rule="evenodd" opacity="0.6">
        <g id="content" transform="translate(-17.000000, -507.000000)" fill="#000000">
            <g id="content/attachment_16">
                <g transform="translate(16.000000, 506.000000)">
                    <g id="attachment_16" transform="translate(1.000000, 1.000000)">
                        <g id="icon">
                            <path d="M12.838,1.125 C11.34,-0.375 8.727,-0.375 7.229,1.125 C7.033,1.32 7.033,1.637 7.229,1.832 C7.424,2.027 7.74,2.027 7.936,1.832 C9.057,0.711 11.01,0.711 12.131,1.832 C12.692,2.393 13,3.138 13,3.93 C13,4.722 12.692,5.467 12.131,6.027 L6.065,12.094 C4.943,13.215 2.99,13.215 1.869,12.094 C1.309,11.533 1,10.788 1,9.996 C1,9.204 1.309,8.459 1.869,7.898 L5.895,3.873 C6.375,3.393 7.158,3.393 7.639,3.873 C8.119,4.354 8.119,5.137 7.639,5.617 L5.147,8.109 C4.951,8.305 4.951,8.621 5.147,8.816 C5.342,9.012 5.658,9.012 5.854,8.816 L8.346,6.324 C9.217,5.453 9.217,4.037 8.346,3.166 C7.475,2.295 6.059,2.295 5.188,3.166 L1.162,7.191 C0.412,7.94 0,8.937 0,9.996 C0,11.056 0.412,12.052 1.162,12.801 C1.911,13.551 2.907,13.963 3.967,13.963 C5.026,13.963 6.023,13.551 6.772,12.801 L12.838,6.734 C13.588,5.985 14,4.989 14,3.93 C14,2.87 13.588,1.874 12.838,1.125" id="fill"></path>
                        </g>
                    </g>
                </g>
            </g>
        </g>
    </g>
</svg>