
<svg width="16px" height="14px" viewBox="0 0 16 14" version="1.1" xmlns="http://www.w3.org/2000/svg" xmlns:xlink="http://www.w3.org/1999/xlink">
    <!-- Generator: Sketch 50.2 (55047) - http://www.bohemiancoding.com/sketch -->
    <desc>Created with Sketch.</desc>
    <defs></defs>
    <g id="Page-1" stroke="none" stroke-width="1" fill="none" fill-rule="evenodd">
        <g id="Chat-1.0" transform="translate(-980.000000, -209.000000)" fill="#FFFFFF">
            <g id="App" transform="translate(208.000000, 128.000000)">
                <g id="content" transform="translate(320.000000, 0.000000)">
                    <g id="multistream">
                        <g id="avatars" transform="translate(220.000000, 64.000000)">
                            <g id="button" transform="translate(216.000000, 0.000000)">
                                <g id="label" transform="translate(16.000000, 16.000000)">
                                    <g id="format/back-to-fullscreen-adr_12_w">
                                        <g id="back-to-fullscreen-adr_12_w" transform="translate(0.000000, 1.333333)">
                                            <g id="icon">
                                                <path d="M14.6666667,11.3333333 C14.6666667,11.7013333 14.368,12 14,12 L2,12 C1.632,12 1.33333333,11.7013333 1.33333333,11.3333333 L1.33333333,2 C1.33333333,1.632 1.632,1.33333333 2,1.33333333 L14,1.33333333 C14.368,1.33333333 14.6666667,1.632 14.6666667,2 L14.6666667,11.3333333 Z M14,0 C15.1053333,0 16,0.894666667 16,2 L16,11.3333333 C16,12.4386667 15.1053333,13.3333333 14,13.3333333 L2,13.3333333 C0.894666667,13.3333333 0,12.4386667 0,11.3333333 L0,2 C0,0.894666667 0.894666667,0 2,0 L14,0 Z M6,2.66666667 L3.33333333,2.66666667 C2.96666667,2.66666667 2.66666667,2.96666667 2.66666667,3.33333333 L2.66666667,6 C2.66666667,6.36666667 2.96666667,6.66666667 3.33333333,6.66666667 C3.7,6.66666667 4,6.36666667 4,6 L4,4 L6,4 C6.36666667,4 6.66666667,3.7 6.66666667,3.33333333 C6.66666667,2.96666667 6.36666667,2.66666667 6,2.66666667 Z M12.6666667,6.66666667 C12.3,6.66666667 12,6.96666667 12,7.33333333 L12,9.33333333 L10,9.33333333 C9.63333333,9.33333333 9.33333333,9.63333333 9.33333333,10 C9.33333333,10.3666667 9.63333333,10.6666667 10,10.6666667 L12.6666667,10.6666667 C13.0333333,10.6666667 13.3333333,10.3666667 13.3333333,10 L13.3333333,7.33333333 C13.3333333,6.96666667 13.0333333,6.66666667 12.6666667,6.66666667 Z" id="fill"></path>
                                            </g>
                                        </g>
                                    </g>
                                </g>
                            </g>
                        </g>
                    </g>
                </g>
            </g>
        </g>
    </g>
</svg>