
<svg width="24px" height="24px" viewBox="0 0 24 24" version="1.1" xmlns="http://www.w3.org/2000/svg" xmlns:xlink="http://www.w3.org/1999/xlink">
    <!-- Generator: Sketch 51 (57462) - http://www.bohemiancoding.com/sketch -->
    <desc>Created with Sketch.</desc>
    <defs></defs>
    <g id="Page-1" stroke="none" stroke-width="1" fill="none" fill-rule="evenodd">
        <g id="icon">
            <g id="meetings/webex-teams_16_w">
                <g id="webex-teams_16_w">
                    <g id="icon">
                        <g id="mark">
                            <g>
                                <circle id="Oval" fill="#FFFFFF" cx="12" cy="12" r="10.3108504"></circle>
                                <path d="M18.9333672,5.00880163 C18.1214753,4.18674514 17.1995523,3.53951859 16.2153715,3.06407263 C17.9875576,6.72889448 17.3558319,11.2643085 14.3148582,14.3050281 C11.2743927,17.3457477 6.74024927,17.9777275 3.07593564,16.2065578 C3.53461013,17.1554168 4.15210542,18.0471004 4.93401201,18.8384092 L5.01863174,18.9237912 C8.86107878,22.7662383 15.0909202,22.7662383 18.9333672,18.9237912 C22.7758143,15.0810901 22.7758143,8.85124867 18.9333672,5.00880163" id="Fill-1" fill="#6EBE4A"></path>
                                <path d="M5.06831089,7.24408377 C4.50900754,7.24408377 3.94970419,7.0306286 3.52304798,6.60397239 C2.66973555,5.75065997 2.66973555,4.36675899 3.52304798,3.51344657 C5.78872206,1.24777248 8.80072688,7.62339867e-05 12.0050955,7.62339867e-05 C13.2121336,7.62339867e-05 14.1902156,0.978412397 14.1902156,2.18545052 C14.1902156,3.39223453 13.2121336,4.37082481 12.0050955,4.37082481 C9.96837744,4.37082481 8.05363381,5.16391238 6.6135738,6.60397239 C6.18691759,7.0306286 5.62761424,7.24408377 5.06831089,7.24408377" id="Fill-3" fill="#D541D8"></path>
                                <path d="M12.3842579,0.0349913999 C13.4101132,0.214903609 14.190241,1.10811182 14.190241,2.18529805 C14.190241,3.30034716 13.3549707,4.21845848 12.2762597,4.35212207 C16.3692625,4.49569608 19.6552014,7.86803354 19.6552014,11.9953416 C19.6552014,10.8025338 20.6223566,9.83537862 21.8151644,9.83537862 C23.0082263,9.83537862 23.9751273,10.8025338 23.9751273,11.9953416 C23.9751273,5.52231376 18.8092583,0.236503238 12.3842579,0.0349913999" id="Fill-5" fill="#FBAB18"></path>
                                <path d="M21.8152406,9.83545485 C20.6224328,9.83545485 19.6552777,10.80261 19.6552777,11.9954178 C19.6552777,16.1227259 16.3690846,19.4953174 12.2760819,19.6386373 C13.3550469,19.7723009 14.1903173,20.6906663 14.1903173,21.8054613 C14.1903173,22.8829017 13.4101895,23.7761099 12.3843341,23.955768 C18.8093345,23.7545103 23.9752036,18.4686997 23.9752036,11.9954178 C23.9752036,10.80261 23.0080484,9.83545485 21.8152406,9.83545485" id="Fill-7" fill="#005073"></path>
                                <path d="M6.42375117,6.77145846 C6.02758855,7.0857966 5.54833089,7.24410918 5.06831089,7.24410918 C4.50900754,7.24410918 3.94970419,7.03065401 3.52304798,6.6039978 C2.77087264,5.85182247 2.68244122,4.6879836 3.25622902,3.83822876 C1.26016914,5.97760854 0.0350889705,8.84553113 0.0350889705,11.9955195 C0.0350889705,15.1457619 1.26042325,18.0136845 3.25673725,20.1533184 C2.68244122,19.3030553 2.77061853,18.1389623 3.52304798,17.3865329 C4.31638967,16.5939535 5.56611882,16.5390651 6.42375117,17.2190722 C5.14225785,15.8506722 4.35501489,14.0136872 4.35501489,11.9955195 C4.35501489,9.9770976 5.14225785,8.14011263 6.42375117,6.77145846" id="Fill-9" fill="#FF3D67"></path>
                                <path d="M12.00507,23.9911151 C8.80095558,23.9911151 5.78844254,22.7431648 3.52302257,20.4774907 C2.66971014,19.6239242 2.66971014,18.2402773 3.52302257,17.3867108 C4.37684322,16.5333983 5.76074419,16.5336525 6.61354839,17.3869649 C8.0536084,18.8270249 9.96835203,19.6201125 12.00507,19.6201125 C13.2121082,19.6201125 14.1904443,20.5987027 14.1904443,21.8054867 C14.1904443,23.0122708 13.2121082,23.9911151 12.00507,23.9911151" id="Fill-12" fill="#00BCEB"></path>
                            </g>
                        </g>
                    </g>
                </g>
            </g>
        </g>
    </g>
</svg>