<?xml version="1.0" encoding="UTF-8"?>
<svg width="24px" height="24px" viewBox="0 0 24 24" version="1.1" xmlns="http://www.w3.org/2000/svg" xmlns:xlink="http://www.w3.org/1999/xlink">
    <!-- Generator: Sketch 47.1 (45422) - http://www.bohemiancoding.com/sketch -->
    <title>Group</title>
    <desc>Created with Sketch.</desc>
    <defs></defs>
    <g id="B---better" stroke="none" stroke-width="1" fill="none" fill-rule="evenodd">
        <g id="Phase-2-Day-1-A-10.4" transform="translate(-846.000000, -172.000000)">
            <g id="App" transform="translate(208.000000, 128.000000)">
                <g id="content" transform="translate(320.000000, 0.000000)">
                    <g id="top-bar">
                        <g id="activity" transform="translate(318.000000, 44.000000)">
                            <g id="Group">
                                <circle id="Oval-5" fill="#019CAB" cx="12" cy="12" r="12"></circle>
                                <g id="icon" transform="translate(7.000000, 7.000000)">
                                    <rect id="bounds" x="0" y="0" width="10" height="10"></rect>
                                    <g transform="translate(1.000000, 2.000000)" id="fill" fill="#FFFFFF">
                                        <path d="M2.1484,5.853 L0.1464,3.846 C-0.0486,3.65 -0.0486,3.334 0.1474,3.139 C0.3414,2.944 0.6584,2.943 0.8544,3.14 L2.5024,4.792 L7.1444,0.146 C7.3394,-0.049 7.6554,-0.049 7.8514,0.146 C8.0464,0.341 8.0464,0.658 7.8514,0.854 L2.8564,5.854 C2.7624,5.947 2.6354,6 2.5024,6 C2.3694,6 2.2424,5.947 2.1484,5.853 Z"></path>
                                    </g>
                                </g>
                            </g>
                        </g>
                    </g>
                </g>
            </g>
        </g>
    </g>
</svg>