
<svg width="13px" height="13px" viewBox="0 0 13 13" version="1.1" xmlns="http://www.w3.org/2000/svg" xmlns:xlink="http://www.w3.org/1999/xlink">
    <!-- Generator: Sketch 49.2 (51160) - http://www.bohemiancoding.com/sketch -->
    <desc>Created with Sketch.</desc>
    <defs></defs>
    <g id="Symbols" stroke="none" stroke-width="1" fill="none" fill-rule="evenodd">
        <g id="share-content-" transform="translate(-516.000000, -34.000000)" fill="#FFFFFF">
            <g id="content-">
                <g id="multistream">
                    <g id="avatars" transform="translate(196.000000, 8.000000)">
                        <g id="button" transform="translate(288.000000, 0.000000)">
                            <g id="activities/people_14_w" transform="translate(31.000000, 25.000000)">
                                <g id="people_14_w" transform="translate(1.000000, 1.000000)">
                                    <g id="icon">
                                        <path d="M1.05494229,12 L1.43294229,10.655 C1.70694229,9.681 2.70594229,9 3.86194229,9 L9.13794229,9 C10.2939423,9 11.2929423,9.681 11.5669423,10.655 L11.9449423,12 L1.05494229,12 Z M2.99994229,4.5 C2.99994229,2.57 4.56994229,1 6.49994229,1 C8.42994229,1 9.99994229,2.57 9.99994229,4.5 C9.99994229,6.43 8.42994229,8 6.49994229,8 C4.56994229,8 2.99994229,6.43 2.99994229,4.5 Z M12.9699423,11.951 L12.5299423,10.385 C12.1469423,9.023 10.8209423,8.068 9.27994229,8.011 C10.3189423,7.186 10.9999423,5.927 10.9999423,4.5 C10.9999423,2.019 8.98094229,0 6.49994229,0 C4.01894229,0 1.99994229,2.019 1.99994229,4.5 C1.99994229,5.927 2.67994229,7.186 3.71994229,8.011 C2.17894229,8.068 0.852942295,9.023 0.470942295,10.385 L0.0299422949,11.95 C-0.0380577051,12.194 0.0109422949,12.451 0.164942295,12.654 C0.328942295,12.871 0.594942295,13 0.874942295,13 L12.1249423,13 C12.4059423,13 12.6709423,12.871 12.8349423,12.654 C12.9889423,12.451 13.0379423,12.194 12.9699423,11.951 Z" id="fill"></path>
                                    </g>
                                </g>
                            </g>
                        </g>
                    </g>
                </g>
            </g>
        </g>
    </g>
</svg>