
<svg width="24px" height="24px" viewBox="0 0 24 24" version="1.1" xmlns="http://www.w3.org/2000/svg" xmlns:xlink="http://www.w3.org/1999/xlink">
    <!-- Generator: Sketch 51 (57462) - http://www.bohemiancoding.com/sketch -->
    <desc>Created with Sketch.</desc>
    <defs></defs>
    <g id="Page-1" stroke="none" stroke-width="1" fill="none" fill-rule="evenodd">
        <g id="icon" stroke="#FFFFFF" stroke-width="0.7">
            <g id="meetings/webex-teams_16_w">
                <g id="webex-teams_16_w">
                    <g id="icon">
                        <path d="M4.55282352,14.9780856 C4.16993237,14.0297654 3.96855398,13.0260409 3.96855398,12.00015 C3.96855398,10.9735148 4.16919611,9.97131192 4.55167933,9.02526165 C3.6663688,8.91825642 2.84648698,8.52108874 2.20504174,7.88102667 C1.93374443,7.60972597 1.70847419,7.30083785 1.52971187,6.96170277 C0.758916598,8.540943 0.35,10.2456933 0.35,12.00015 C0.35,13.7552323 0.759208266,15.4605727 1.53053654,17.0402865 C1.70931951,16.7024178 1.93447514,16.3943436 2.20627319,16.1225423 C2.84525611,15.4821623 3.66551562,15.0851361 4.55282352,14.9780856 Z M5.10386157,14.9530075 C5.10408454,14.9530412 5.10431102,14.9530755 5.10454127,14.9531103 C5.10463143,14.9530781 5.10470379,14.9530523 5.10455047,14.9530222 Z M4.99578387,8.35771083 C4.99539226,8.35779861 4.99550089,8.35787077 4.99564007,8.35796323 C4.99623548,8.35784492 4.9968145,8.35772987 4.99737883,8.35761792 Z M19.3696929,8.84613543 C20.0663214,8.29783645 20.9289407,7.99035851 21.839523,7.99035851 C22.2218866,7.99035851 22.5977401,8.04869199 22.962449,8.16045269 C21.7947365,4.83341018 19.1670472,2.20548115 15.8389962,1.03633011 C15.951102,1.40111492 16.0094457,1.77686124 16.0094457,2.16020401 C16.0094457,3.0697382 15.7016747,3.93146849 15.1531351,4.62957138 C17.0433373,5.44095489 18.556795,6.95470965 19.3696929,8.84613543 Z M22.2052826,10.2268878 C22.0848835,10.2025753 21.9642198,10.190396 21.839973,10.190396 C21.2300188,10.190396 20.6721552,10.4927325 20.3386101,10.987882 C20.1381218,11.2834773 20.029946,11.6321556 20.029946,12.00045 L20.029946,12.0049501 C20.029946,12.4044113 19.992467,12.8105664 19.9210133,13.252792 C19.9083845,13.3363371 19.893417,13.4117741 19.8677698,13.5283537 C19.8630997,13.5495391 19.8630997,13.5495391 19.8584843,13.5704043 C19.8493642,13.6116736 19.8493642,13.6116736 19.8408739,13.6508881 C19.7819811,13.9294388 19.7110807,14.1985501 19.6261185,14.4627682 C19.6092197,14.5131908 19.6092197,14.5131908 19.5921156,14.5647361 C19.5404849,14.7202652 19.5139792,14.7967189 19.4773285,14.8909452 C19.3851007,15.1237135 19.2773406,15.3574496 19.1462109,15.6145998 C19.1299083,15.6468078 19.1175928,15.6723721 19.0873937,15.7361156 C19.0854641,15.7401912 19.0854641,15.7401912 19.0835241,15.744288 C19.0265678,15.8645638 18.9961415,15.9252482 18.9542519,15.9971815 C18.7804782,16.2990028 18.5802325,16.5938996 18.3539411,16.8848397 C18.2611244,17.0056147 18.1820027,17.0965417 18.0097474,17.2863506 C18.0066314,17.2897842 18.0066314,17.2897842 18.0035196,17.2932131 C17.969432,17.3307779 17.969432,17.3307779 17.9329788,17.3711099 C17.8792516,17.4294389 17.8792516,17.4294389 17.8246023,17.4888111 C17.7304288,17.5908336 17.6634041,17.6609197 17.5901477,17.7322412 C17.4092871,17.9063428 17.2402287,18.0581913 17.0680556,18.1989009 C16.9756752,18.2728061 16.9016686,18.3284411 16.735812,18.4505315 C16.2412449,18.8143697 15.7096885,19.1189178 15.146849,19.3602344 C15.7010693,20.0599699 16.0128958,20.9259603 16.0128958,21.839196 C16.0128958,22.2318123 15.9513666,22.6175245 15.8336079,22.9908047 C16.3840177,22.7987502 16.920004,22.5636376 17.4268449,22.2950933 C17.4564267,22.2781056 17.4564267,22.2781056 17.4758249,22.2678895 C17.4837043,22.2637153 17.4837043,22.2637153 17.4904842,22.2600502 C18.010057,21.9802767 18.4997348,21.6692563 18.9917893,21.304306 C18.9654625,21.3215076 18.9610215,21.3244093 18.957411,21.3275603 C18.9590588,21.3262225 18.9611329,21.3244615 18.9683754,21.3183122 L18.9820893,21.307453 C19.9232784,20.5997169 20.7484844,19.7634879 21.4212527,18.8354824 C21.4434591,18.8045148 21.4434591,18.8045148 21.4575196,18.7881101 C21.4578599,18.7877207 21.4581868,18.7873467 21.4584996,18.7869889 C21.7654766,18.3586262 22.0488242,17.8940537 22.3130758,17.3896043 C22.338402,17.3425958 22.338402,17.3425958 22.362447,17.2979939 C22.3857534,17.2544233 22.3857534,17.2544233 22.4063206,17.2147896 C22.6422238,16.745872 22.8479527,16.2552534 23.0208525,15.7511841 C23.0441407,15.6800247 23.0672244,15.6060891 23.0981441,15.50437 C23.2662564,14.9790125 23.3946874,14.4576631 23.4824603,13.9352708 C23.4874843,13.9057546 23.4907619,13.8825889 23.4988641,13.8213236 C23.5045679,13.7780533 23.5045679,13.7780533 23.5113248,13.7308807 C23.6028277,13.1171728 23.65,12.5514555 23.65,12.00045 C23.65,11.1368058 23.0400182,10.397573 22.2052826,10.2268878 Z M21.4584996,18.7869889 C21.4660603,18.7783417 21.4654196,18.7791623 21.4492926,18.7998159 C21.452364,18.7955438 21.455433,18.7912682 21.4584996,18.7869889 Z M21.9890756,19.2436435 C21.9884353,19.2443733 21.9879624,19.2449006 21.9872985,19.2456407 C21.9885432,19.2442321 21.9893527,19.2433159 21.9900941,19.2424372 Z M12.7066392,20.1718627 L12.7059685,20.1715788 C12.4863841,20.0783819 12.2490082,20.029892 12.0027,20.029892 L11.9997,20.029892 C11.4651008,20.029892 10.9367685,19.9783947 10.4211436,19.8762116 C8.87065533,19.5689464 7.45396433,18.8106569 6.32064318,17.6773216 C5.97690822,17.3335823 5.51953717,17.14832 5.04166451,17.1483187 C4.56550367,17.1470282 4.10753042,17.3325972 3.76246201,17.6764393 C3.58747987,17.8526735 3.45343753,18.0556453 3.36418863,18.2774853 C3.29811685,18.4395502 3.25645345,18.6099935 3.23995608,18.7851088 C3.18824684,19.3190133 3.37429473,19.8506333 3.76158285,20.2379263 C4.03340275,20.5097496 4.32004095,20.7694048 4.61970887,21.0159329 C5.21039708,21.5009403 5.84492099,21.9255436 6.51572146,22.2858476 C7.17923411,22.6407879 7.87768218,22.9296535 8.60463512,23.1505214 C9.10399032,23.3018025 9.64463136,23.4157902 10.2754231,23.5098426 C10.5697914,23.5538467 10.8569557,23.5882337 11.1340223,23.6121477 C11.4419618,23.6371584 11.7251875,23.65 11.9997,23.65 L12.0057001,23.65 C12.3696993,23.65 12.7187129,23.5405485 13.0161148,23.3392486 C13.306013,23.1438799 13.5343117,22.8668655 13.6707573,22.5438985 C13.7641971,22.3224561 13.812727,22.0848787 13.812727,21.839946 C13.812727,21.3522402 13.6201291,20.8970031 13.2822302,20.5603936 C13.1155694,20.3937308 12.9218171,20.2626614 12.7066392,20.1718627 Z M12.9791173,19.5270714 C12.9792291,19.5271188 12.9793408,19.5271662 12.9794525,19.5272136 L12.9787819,19.5269298 C12.9788937,19.526977 12.9790055,19.5270242 12.9791173,19.5270714 Z M5.01667185,6.85202886 C5.0550063,6.8416049 5.09362746,6.83418266 5.13464968,6.83271844 C5.59377176,6.80721134 6.00832294,6.63426361 6.31959317,6.32417847 C7.37938014,5.26437825 8.68632507,4.53164528 10.1199037,4.18978809 C10.5918775,4.07645086 11.077948,4.00678929 11.5973786,3.97930674 L11.5867535,3.97961844 C11.6364533,3.97693193 11.6752038,3.97558372 11.7646861,3.97326224 C11.7723101,3.97255964 11.7769704,3.97241813 11.8036475,3.97160804 C11.8486317,3.97143434 11.8486317,3.97143434 11.8963292,3.97088168 C11.9125298,3.97069328 11.9125298,3.97069328 11.9290317,3.9705156 C11.9624878,3.97019796 11.9624878,3.97019796 11.99715,3.970108 L12.00015,3.970108 C12.1245691,3.970108 12.2456501,3.95759302 12.3658123,3.9320449 C12.4832799,3.90830114 12.595159,3.87349387 12.7056763,3.82597217 C12.9207298,3.73646902 13.1149135,3.60563892 13.2806302,3.43865994 C13.4457109,3.27483737 13.5765397,3.08065074 13.6676672,2.86175365 C13.761257,2.64421788 13.810177,2.40596795 13.810177,2.160054 C13.810177,1.67234818 13.6175791,1.21711106 13.2787338,0.879551609 C13.1151814,0.714739118 12.9206327,0.583345643 12.7018362,0.491010686 C12.595159,0.445114093 12.4832799,0.410306822 12.3623169,0.385837977 C12.2495395,0.361842477 12.1289347,0.35 12.00015,0.35 L11.99865,0.35 C11.9169291,0.35 11.846871,0.35076988 11.7274729,0.351263048 C11.704191,0.353255271 11.704191,0.353255271 11.6910606,0.353961223 C11.6839407,0.354380299 11.6839407,0.354380299 11.6564782,0.355951548 C11.5731671,0.357340084 11.491363,0.360091724 11.3883375,0.364785783 C10.6690948,0.402822306 9.96116102,0.504618893 9.27178013,0.668967025 C8.58228449,0.833342511 7.91117743,1.06033208 7.26580597,1.34732929 C6.62117914,1.63399537 6.00102807,1.98189826 5.41498793,2.38571589 C4.82932017,2.78728025 4.27698018,3.24708353 3.76349092,3.75903378 C3.72120374,3.80288769 3.68927606,3.83782786 3.65901965,3.87409086 C3.50336788,4.05606837 3.39235596,4.27747824 3.31674993,4.54487905 C3.19717491,4.95819787 3.2164663,5.38522947 3.37594226,5.75775101 C3.46515014,5.96675494 3.59428705,6.15793061 3.76053283,6.32417847 C3.76526589,6.32891158 3.77801323,6.33731969 3.82320446,6.36268089 C3.82591377,6.36420125 3.82591377,6.36420125 3.82870102,6.36576587 C3.88810726,6.39912123 3.92135902,6.41940195 3.96478826,6.45198278 C4.18713737,6.62092052 4.43060978,6.72944279 4.6978314,6.78113028 C4.74679766,6.79027794 4.783321,6.79901975 4.85875943,6.81844331 C4.87651676,6.82301603 4.87651676,6.82301603 4.89323958,6.82727221 C4.95095274,6.84187135 4.98811195,6.84936755 5.01667185,6.85202886 Z M11.7592473,3.97374975 C11.759113,3.97376557 11.7591557,3.9737788 11.7592095,3.97379547 C11.7594335,3.97377317 11.7596534,3.97375128 11.7598694,3.97372979 Z M11.3883375,0.364785783 C11.3867773,0.364856868 11.3852123,0.364928398 11.3836423,0.365000375 C11.3791422,0.365000375 11.3791422,0.365000375 11.3930009,0.364518552 C11.3914412,0.36460048 11.3898815,0.364682707 11.3883218,0.364765235 Z M5.17441519,7.53151996 C5.1719505,7.53166303 5.169485,7.53180295 5.16701867,7.53193974 C5.17057937,7.53180786 5.1740852,7.53157063 5.17733015,7.5312939 Z M17.3492451,9.56322126 C16.4445682,13.4176832 13.3780219,16.4290063 9.50432251,17.2615106 C10.2879706,17.6446096 11.1484995,17.848455 12.0385505,17.848455 C15.2607925,17.848455 17.8836279,15.2255868 17.8836279,12.0033001 C17.8836279,11.1481334 17.6985896,10.3202276 17.3492451,9.56322126 Z" id="fill"></path>
                    </g>
                </g>
            </g>
        </g>
    </g>
</svg>