<svg width="10px" height="10px" viewBox="0 0 10 10" version="1.1" xmlns="http://www.w3.org/2000/svg" xmlns:xlink="http://www.w3.org/1999/xlink">
    <!-- Generator: Sketch 48.2 (47327) - http://www.bohemiancoding.com/sketch -->
    <desc>Created with Sketch.</desc>
    <defs></defs>
    <g id="Symbols" stroke="none" stroke-width="1" fill="none" fill-rule="evenodd">
        <path d="M5,6 C5.551,6 6,5.551 6,5 C6,4.449 5.551,4 5,4 C4.449,4 4,4.449 4,5 C4,5.551 4.449,6 5,6 Z M5,0 C7.757,0 10,2.243 10,5 C10,6.103 9.103,7 8,7 C7.4,7 6.867,6.729 6.5,6.309 C6.133,6.729 5.6,7 5,7 C3.897,7 3,6.103 3,5 C3,3.897 3.897,3 5,3 C5.383,3 5.738,3.114 6.042,3.301 C6.119,3.124 6.294,3 6.5,3 C6.776,3 7,3.224 7,3.5 L7,5 C7,5.551 7.449,6 8,6 C8.551,6 9,5.551 9,5 C9,2.794 7.206,1 5,1 C2.794,1 1,2.794 1,5 C1,7.206 2.794,9 5,9 C5.633,9 6.239,8.854 6.803,8.567 C7.048,8.442 7.35,8.54 7.476,8.786 C7.601,9.032 7.503,9.333 7.257,9.459 C6.551,9.818 5.792,10 5,10 C2.243,10 0,7.757 0,5 C0,2.243 2.243,0 5,0 Z" id="fill" fill="#FFFFFF"></path>
    </g>
</svg>