
<svg width="5px" height="12px" viewBox="0 0 5 12" version="1.1" xmlns="http://www.w3.org/2000/svg" xmlns:xlink="http://www.w3.org/1999/xlink">
    <!-- Generator: Sketch 49.2 (51160) - http://www.bohemiancoding.com/sketch -->
    <desc>Created with Sketch.</desc>
    <defs></defs>
    <g id="In-Meeting-Navigation" stroke="none" stroke-width="1" fill="none" fill-rule="evenodd">
        <g id="Panel-Behavior-3.0" transform="translate(-354.000000, -410.000000)" fill="#FFFFFF">
            <g id="App" transform="translate(208.000000, 128.000000)">
                <g id="content" transform="translate(140.000000, 0.000000)">
                    <g id="sidebar-button" transform="translate(0.000000, 240.000000)">
                        <g id="format/panel-control-right_12_w" transform="translate(2.000000, 42.000000)">
                            <g id="panel-control-right_12_w" transform="translate(4.000000, 0.000000)">
                                <g id="icon">
                                    <path d="M1.19431605,11.9998234 C1.00108993,11.9998234 0.803879756,11.9527676 0.62260576,11.8526489 C0.0429273781,11.5342716 -0.170218968,10.8044065 0.146512519,10.222717 L2.4433138,5.99470563 L0.15846465,1.77670611 C-0.156274815,1.19401546 0.0568715317,0.464150359 0.636549914,0.146774178 C1.21523228,-0.171603189 1.94232029,0.0446531359 2.25805577,0.628344976 L4.85465635,5.42202684 C5.04887849,5.78045168 5.04788248,6.21396551 4.85366034,6.57239035 L2.24411161,11.3740817 C2.02698122,11.7735552 1.61762071,11.9998234 1.19431605,11.9998234" id="fill"></path>
                                </g>
                            </g>
                        </g>
                    </g>
                </g>
            </g>
        </g>
    </g>
</svg>