
<svg width="23px" height="23px" viewBox="0 0 23 23" version="1.1" xmlns="http://www.w3.org/2000/svg" xmlns:xlink="http://www.w3.org/1999/xlink">
    <!-- Generator: Sketch 51 (57462) - http://www.bohemiancoding.com/sketch -->
    <desc>Created with Sketch.</desc>
    <defs></defs>
    <g id="Page-1" stroke="none" stroke-width="1" fill="none" fill-rule="evenodd">
        <g id="handset_20_w" stroke="#FFFFFF" stroke-width="0.7">
            <g id="icon">
                <path d="M20.4941772,22.65 C20.9728246,22.65 21.4355006,22.4915134 21.8183446,22.1933211 C22.3477733,21.7826588 22.65,21.1650548 22.65,20.4942753 L22.65,17.9736013 C22.65,16.8540741 21.9867524,15.8468638 20.9585409,15.4053429 L18.7434635,14.4531039 C17.8100905,14.0511637 16.7555744,14.0815303 15.8482349,14.5367478 L14.5856501,15.1674379 C14.2149505,15.3510643 13.7733497,15.3102129 13.4616785,15.0556714 C11.3698355,13.3799448 9.30671476,11.3336544 7.93865997,9.57779345 C7.68222827,9.24545749 7.63619911,8.80558774 7.82210211,8.43721479 L8.46397919,7.15121089 C8.91810539,6.24403799 8.94818125,5.19058893 8.54623402,4.25727241 L7.59401402,2.04126262 C7.15253343,1.01322538 6.14527801,0.35 5.02569486,0.35 L2.50492218,0.35 C1.8345835,0.35 1.21565193,0.652987467 0.805816464,1.18159512 C0.391426231,1.7159195 0.251118594,2.39580469 0.419795481,3.05361882 C1.39769385,6.87009929 4.1410349,11.2502281 7.94574841,15.0547927 C11.7479345,18.8568299 16.128275,21.6002788 19.9464459,22.5805052 C20.1269127,22.6268527 20.3103557,22.65 20.4941772,22.65 Z" id="fill"></path>
            </g>
        </g>
    </g>
</svg>