
<svg width="24px" height="24px" viewBox="0 0 24 24" version="1.1" xmlns="http://www.w3.org/2000/svg" xmlns:xlink="http://www.w3.org/1999/xlink">
    <!-- Generator: Sketch 51 (57462) - http://www.bohemiancoding.com/sketch -->
    <desc>Created with Sketch.</desc>
    <defs>
        <rect id="path-1" x="12" y="0" width="12" height="12"></rect>
    </defs>
    <g id="Page-1" stroke="none" stroke-width="1" fill="none" fill-rule="evenodd">
        <g id="spinner_24_w">
            <path d="M12,23 C18.0750256,23 23,18.0750256 23,12 C23,5.92497441 18.0750256,1 12,1 C5.92497441,1 1,5.92497441 1,12 C1,18.0750256 5.92497441,23 12,23 Z M12,24 C5.37268966,24 0,18.6273103 0,12 C0,5.37268966 5.37268966,0 12,0 C18.6273103,0 24,5.37268966 24,12 C24,18.6273103 18.6273103,24 12,24 Z" id="4/4" fill-opacity="0.32" fill="#FFFFFF" fill-rule="nonzero"></path>
            <mask id="mask-2" fill="white">
                <use xlink:href="#path-1"></use>
            </mask>
            <g id="mask"></g>
            <path d="M12,23 C18.0750256,23 23,18.0750256 23,12 C23,5.92497441 18.0750256,1 12,1 C5.92497441,1 1,5.92497441 1,12 C1,18.0750256 5.92497441,23 12,23 Z M12,24 C5.37268966,24 0,18.6273103 0,12 C0,5.37268966 5.37268966,0 12,0 C18.6273103,0 24,5.37268966 24,12 C24,18.6273103 18.6273103,24 12,24 Z" id="1/4" fill="#FFFFFF" fill-rule="nonzero" mask="url(#mask-2)"></path>
        </g>
    </g>
</svg>