<svg width="167" height="40" viewBox="0 0 167 40" fill="none" xmlns="http://www.w3.org/2000/svg">
<path d="M51.5137 16.1406C50.6816 16.1406 50.0312 15.7832 49.5625 15.0684C49.0977 14.3535 48.8652 13.3203 48.8652 11.9688C48.8652 10.4844 49.1074 9.36133 49.5918 8.59961C50.0801 7.83789 50.7832 7.45703 51.7012 7.45703C53.459 7.45703 54.3379 8.89258 54.3379 11.7637C54.3379 13.1855 54.0898 14.2715 53.5938 15.0215C53.0977 15.7676 52.4043 16.1406 51.5137 16.1406ZM51.6484 8.27148C50.4492 8.27148 49.8496 9.48828 49.8496 11.9219C49.8496 14.1953 50.4375 15.332 51.6133 15.332C52.7734 15.332 53.3535 14.1758 53.3535 11.8633C53.3535 9.46875 52.7852 8.27148 51.6484 8.27148ZM60.4551 16H55.3926V15.1445L57.8418 12.6895C58.4668 12.0645 58.9121 11.5449 59.1777 11.1309C59.4473 10.7129 59.582 10.2676 59.582 9.79492C59.582 9.31055 59.4434 8.93555 59.166 8.66992C58.8887 8.4043 58.4941 8.27148 57.9824 8.27148C57.2324 8.27148 56.5137 8.5918 55.8262 9.23242V8.22461C56.4824 7.71289 57.2461 7.45703 58.1172 7.45703C58.8672 7.45703 59.457 7.66016 59.8867 8.06641C60.3164 8.47266 60.5312 9.01758 60.5312 9.70117C60.5312 10.2402 60.3828 10.7676 60.0859 11.2832C59.7891 11.7949 59.2559 12.4316 58.4863 13.1934L56.5469 15.1094V15.1328H60.4551V16ZM62.6055 11.1719C62.4258 11.1719 62.2715 11.1074 62.1426 10.9785C62.0176 10.8496 61.9551 10.6953 61.9551 10.5156C61.9551 10.3359 62.0176 10.1836 62.1426 10.0586C62.2715 9.93359 62.4258 9.87109 62.6055 9.87109C62.7891 9.87109 62.9453 9.93359 63.0742 10.0586C63.2031 10.1836 63.2676 10.3359 63.2676 10.5156C63.2676 10.6953 63.2031 10.8496 63.0742 10.9785C62.9453 11.1074 62.7891 11.1719 62.6055 11.1719ZM62.6055 16.1289C62.4258 16.1289 62.2715 16.0645 62.1426 15.9355C62.0176 15.8066 61.9551 15.6523 61.9551 15.4727C61.9551 15.293 62.0176 15.1387 62.1426 15.0098C62.2715 14.877 62.4258 14.8105 62.6055 14.8105C62.7891 14.8105 62.9453 14.877 63.0742 15.0098C63.2031 15.1387 63.2676 15.293 63.2676 15.4727C63.2676 15.6523 63.2031 15.8066 63.0742 15.9355C62.9453 16.0645 62.7891 16.1289 62.6055 16.1289ZM67.0527 16.1406C66.2207 16.1406 65.5703 15.7832 65.1016 15.0684C64.6367 14.3535 64.4043 13.3203 64.4043 11.9688C64.4043 10.4844 64.6465 9.36133 65.1309 8.59961C65.6191 7.83789 66.3223 7.45703 67.2402 7.45703C68.998 7.45703 69.877 8.89258 69.877 11.7637C69.877 13.1855 69.6289 14.2715 69.1328 15.0215C68.6367 15.7676 67.9434 16.1406 67.0527 16.1406ZM67.1875 8.27148C65.9883 8.27148 65.3887 9.48828 65.3887 11.9219C65.3887 14.1953 65.9766 15.332 67.1523 15.332C68.3125 15.332 68.8926 14.1758 68.8926 11.8633C68.8926 9.46875 68.3242 8.27148 67.1875 8.27148ZM73.5215 16.1406C72.6895 16.1406 72.0391 15.7832 71.5703 15.0684C71.1055 14.3535 70.873 13.3203 70.873 11.9688C70.873 10.4844 71.1152 9.36133 71.5996 8.59961C72.0879 7.83789 72.791 7.45703 73.709 7.45703C75.4668 7.45703 76.3457 8.89258 76.3457 11.7637C76.3457 13.1855 76.0977 14.2715 75.6016 15.0215C75.1055 15.7676 74.4121 16.1406 73.5215 16.1406ZM73.6562 8.27148C72.457 8.27148 71.8574 9.48828 71.8574 11.9219C71.8574 14.1953 72.4453 15.332 73.6211 15.332C74.7812 15.332 75.3613 14.1758 75.3613 11.8633C75.3613 9.46875 74.793 8.27148 73.6562 8.27148ZM82.2168 12.8242V16H81.2324V7.59766H83.541C84.4395 7.59766 85.1348 7.81641 85.627 8.25391C86.123 8.69141 86.3711 9.30859 86.3711 10.1055C86.3711 10.9023 86.0957 11.5547 85.5449 12.0625C84.998 12.5703 84.2578 12.8242 83.3242 12.8242H82.2168ZM82.2168 8.48828V11.9336H83.248C83.9277 11.9336 84.4453 11.7793 84.8008 11.4707C85.1602 11.1582 85.3398 10.7188 85.3398 10.1523C85.3398 9.04297 84.6836 8.48828 83.3711 8.48828H82.2168ZM96.5254 16H95.5469V10.3633C95.5469 9.91797 95.5742 9.37305 95.6289 8.72852H95.6055C95.5117 9.10742 95.4277 9.37891 95.3535 9.54297L92.4824 16H92.002L89.1367 9.58984C89.0547 9.40234 88.9707 9.11523 88.8848 8.72852H88.8613C88.8926 9.06445 88.9082 9.61328 88.9082 10.375V16H87.959V7.59766H89.2598L91.8379 13.457C92.0371 13.9062 92.166 14.2422 92.2246 14.4648H92.2598C92.4277 14.0039 92.5625 13.6602 92.6641 13.4336L95.2949 7.59766H96.5254V16ZM48.2324 32H43.4805V31.1562H45.3789V24.6289L43.4336 25.209V24.2949L46.3398 23.4102V31.1562H48.2324V32ZM49.9258 31.8594V30.9336C50.3945 31.1992 50.8906 31.332 51.4141 31.332C52.1758 31.332 52.7676 31.0254 53.1895 30.4121C53.6152 29.7988 53.8281 28.9277 53.8281 27.7988C53.8203 27.8027 53.8125 27.8027 53.8047 27.7988C53.4453 28.5215 52.8203 28.8828 51.9297 28.8828C51.2109 28.8828 50.6211 28.6387 50.1602 28.1504C49.6992 27.6621 49.4688 27.0332 49.4688 26.2637C49.4688 25.4434 49.7207 24.7715 50.2246 24.248C50.7324 23.7207 51.3809 23.457 52.1699 23.457C52.998 23.457 53.6426 23.7852 54.1035 24.4414C54.5684 25.0938 54.8008 26.0449 54.8008 27.2949C54.8008 28.8457 54.5 30.041 53.8984 30.8809C53.2969 31.7207 52.4609 32.1406 51.3906 32.1406C50.8281 32.1406 50.3398 32.0469 49.9258 31.8594ZM52.082 24.2715C51.6172 24.2715 51.2285 24.4473 50.916 24.7988C50.6074 25.1465 50.4531 25.5898 50.4531 26.1289C50.4531 26.7188 50.6055 27.1836 50.9102 27.5234C51.2148 27.8594 51.627 28.0273 52.1465 28.0273C52.5996 28.0273 52.9824 27.873 53.2949 27.5645C53.6113 27.2559 53.7695 26.8789 53.7695 26.4336C53.7695 25.7969 53.6133 25.2773 53.3008 24.875C52.9883 24.4727 52.582 24.2715 52.082 24.2715ZM60.1504 23.5977L56.1191 33.3945H55.2227L59.2422 23.5977H60.1504ZM63.2148 32.1406C62.3828 32.1406 61.7324 31.7832 61.2637 31.0684C60.7988 30.3535 60.5664 29.3203 60.5664 27.9688C60.5664 26.4844 60.8086 25.3613 61.293 24.5996C61.7812 23.8379 62.4844 23.457 63.4023 23.457C65.1602 23.457 66.0391 24.8926 66.0391 27.7637C66.0391 29.1855 65.791 30.2715 65.2949 31.0215C64.7988 31.7676 64.1055 32.1406 63.2148 32.1406ZM63.3496 24.2715C62.1504 24.2715 61.5508 25.4883 61.5508 27.9219C61.5508 30.1953 62.1387 31.332 63.3145 31.332C64.4746 31.332 65.0547 30.1758 65.0547 27.8633C65.0547 25.4688 64.4863 24.2715 63.3496 24.2715ZM68.9336 27.5938V27.5703C67.9258 27.1016 67.4219 26.4219 67.4219 25.5312C67.4219 24.9258 67.6523 24.4297 68.1133 24.043C68.5742 23.6523 69.168 23.457 69.8945 23.457C70.5508 23.457 71.0898 23.6387 71.5117 24.002C71.9336 24.3652 72.1445 24.832 72.1445 25.4023C72.1445 26.332 71.625 27.0547 70.5859 27.5703V27.5938C71.8125 28.0312 72.4258 28.7891 72.4258 29.8672C72.4258 30.5625 72.1758 31.1152 71.6758 31.5254C71.1758 31.9355 70.4805 32.1406 69.5898 32.1406C68.8711 32.1406 68.2793 31.9375 67.8145 31.5312C67.3496 31.125 67.1172 30.5977 67.1172 29.9492C67.1172 28.8711 67.7227 28.0859 68.9336 27.5938ZM71.1602 25.5195C71.1602 25.1328 71.0391 24.8281 70.7969 24.6055C70.5547 24.3828 70.2246 24.2715 69.8066 24.2715C69.416 24.2715 69.084 24.3887 68.8105 24.623C68.541 24.8535 68.4062 25.1484 68.4062 25.5078C68.4062 26.2383 68.8613 26.7891 69.7715 27.1602C70.6973 26.7773 71.1602 26.2305 71.1602 25.5195ZM69.707 28.0508C68.6367 28.4766 68.1016 29.0938 68.1016 29.9023C68.1016 30.3203 68.2559 30.6641 68.5645 30.9336C68.877 31.1992 69.2871 31.332 69.7949 31.332C70.2793 31.332 70.6738 31.2012 70.9785 30.9395C71.2871 30.6738 71.4414 30.3398 71.4414 29.9375C71.4414 29.0938 70.8633 28.4648 69.707 28.0508ZM77.7637 23.5977L73.7324 33.3945H72.8359L76.8555 23.5977H77.7637ZM83.3008 32H78.2383V31.1445L80.6875 28.6895C81.3125 28.0645 81.7578 27.5449 82.0234 27.1309C82.293 26.7129 82.4277 26.2676 82.4277 25.7949C82.4277 25.3105 82.2891 24.9355 82.0117 24.6699C81.7344 24.4043 81.3398 24.2715 80.8281 24.2715C80.0781 24.2715 79.3594 24.5918 78.6719 25.2324V24.2246C79.3281 23.7129 80.0918 23.457 80.9629 23.457C81.7129 23.457 82.3027 23.6602 82.7324 24.0664C83.1621 24.4727 83.377 25.0176 83.377 25.7012C83.377 26.2402 83.2285 26.7676 82.9316 27.2832C82.6348 27.7949 82.1016 28.4316 81.332 29.1934L79.3926 31.1094V31.1328H83.3008V32ZM87.2969 32.1406C86.4648 32.1406 85.8145 31.7832 85.3457 31.0684C84.8809 30.3535 84.6484 29.3203 84.6484 27.9688C84.6484 26.4844 84.8906 25.3613 85.375 24.5996C85.8633 23.8379 86.5664 23.457 87.4844 23.457C89.2422 23.457 90.1211 24.8926 90.1211 27.7637C90.1211 29.1855 89.873 30.2715 89.377 31.0215C88.8809 31.7676 88.1875 32.1406 87.2969 32.1406ZM87.4316 24.2715C86.2324 24.2715 85.6328 25.4883 85.6328 27.9219C85.6328 30.1953 86.2207 31.332 87.3965 31.332C88.5566 31.332 89.1367 30.1758 89.1367 27.8633C89.1367 25.4688 88.5684 24.2715 87.4316 24.2715ZM96.2383 32H91.1758V31.1445L93.625 28.6895C94.25 28.0645 94.6953 27.5449 94.9609 27.1309C95.2305 26.7129 95.3652 26.2676 95.3652 25.7949C95.3652 25.3105 95.2266 24.9355 94.9492 24.6699C94.6719 24.4043 94.2773 24.2715 93.7656 24.2715C93.0156 24.2715 92.2969 24.5918 91.6094 25.2324V24.2246C92.2656 23.7129 93.0293 23.457 93.9004 23.457C94.6504 23.457 95.2402 23.6602 95.6699 24.0664C96.0996 24.4727 96.3145 25.0176 96.3145 25.7012C96.3145 26.2402 96.166 26.7676 95.8691 27.2832C95.5723 27.7949 95.0391 28.4316 94.2695 29.1934L92.3301 31.1094V31.1328H96.2383V32ZM100.234 32.1406C99.4023 32.1406 98.752 31.7832 98.2832 31.0684C97.8184 30.3535 97.5859 29.3203 97.5859 27.9688C97.5859 26.4844 97.8281 25.3613 98.3125 24.5996C98.8008 23.8379 99.5039 23.457 100.422 23.457C102.18 23.457 103.059 24.8926 103.059 27.7637C103.059 29.1855 102.811 30.2715 102.314 31.0215C101.818 31.7676 101.125 32.1406 100.234 32.1406ZM100.369 24.2715C99.1699 24.2715 98.5703 25.4883 98.5703 27.9219C98.5703 30.1953 99.1582 31.332 100.334 31.332C101.494 31.332 102.074 30.1758 102.074 27.8633C102.074 25.4688 101.506 24.2715 100.369 24.2715Z" fill="white"/>
<path fill-rule="evenodd" clip-rule="evenodd" d="M22.5 16L16 22.5L16.708 23.207L22.5 17.414L28.293 23.207L29 22.5L22.5 16Z" fill="white"/>
<path fill-rule="evenodd" clip-rule="evenodd" d="M123 12V25.001H128L131 28L134 25.001H139V12H123ZM124 13H138V24.001H134H133.586L133.293 24.293L131 26.586L128.707 24.293L128.414 24.001H128H124V13Z" fill="white"/>
</svg>
