<svg width="19px" height="49px" viewBox="0 0 19 49" version="1.1" xmlns="http://www.w3.org/2000/svg" xmlns:xlink="http://www.w3.org/1999/xlink">
    <!-- Generator: Sketch 48.2 (47327) - http://www.bohemiancoding.com/sketch -->
    <desc>Created with Sketch.</desc>
    <defs>
        <rect id="path-1" x="0" y="0" width="24" height="50"></rect>
        <path d="M0.533172248,12 C6.02482335,12 11.7674462,0 14.5057182,0 C17.2439902,0 23.2697482,12 28.4782642,12 C33.9080252,12 -4.95847886,12 0.533172248,12 Z" id="path-3"></path>
        <filter x="-72.4%" y="-141.7%" width="244.8%" height="450.0%" filterUnits="objectBoundingBox" id="filter-4">
            <feMorphology radius="1" operator="dilate" in="SourceAlpha" result="shadowSpreadOuter1"></feMorphology>
            <feOffset dx="0" dy="4" in="shadowSpreadOuter1" result="shadowOffsetOuter1"></feOffset>
            <feGaussianBlur stdDeviation="6" in="shadowOffsetOuter1" result="shadowBlurOuter1"></feGaussianBlur>
            <feComposite in="shadowBlurOuter1" in2="SourceAlpha" operator="out" result="shadowBlurOuter1"></feComposite>
            <feColorMatrix values="0 0 0 0 0   0 0 0 0 0   0 0 0 0 0  0 0 0 0.16 0" type="matrix" in="shadowBlurOuter1"></feColorMatrix>
        </filter>
    </defs>
    <g id="Video-Centric" stroke="none" stroke-width="1" fill="none" fill-rule="evenodd">
        <g id="1.0" transform="translate(-200.000000, -521.000000)">
            <g id="bg" transform="translate(195.000000, 521.000000)">
                <mask id="mask-2" fill="white">
                    <use xlink:href="#path-1"></use>
                </mask>
                <g id="Mask"></g>
                <g mask="url(#mask-2)">
                    <g transform="translate(19.000000, 24.500000) rotate(-90.000000) translate(-19.000000, -24.500000) translate(4.500000, 18.500000)">
                        <g>
                            <use fill="black" fill-opacity="1" filter="url(#filter-4)" xlink:href="#path-3"></use>
                            <use fill="#FFFFFF" fill-rule="evenodd" xlink:href="#path-3"></use>
                            <path stroke-opacity="0.12" stroke="#000000" stroke-width="1" d="M0.533172248,11.5 C0.896282714,11.5 1.27081672,11.4394963 1.6583163,11.3194249 C3.53532952,10.73781 5.47941541,8.95262067 8.16560623,5.6826218 C8.4376506,5.35145219 8.71329875,5.01104417 9.06936082,4.5677482 C9.07504539,4.56067093 9.75136236,3.7172419 9.94007685,3.48310509 C10.6314713,2.62529663 11.1132088,2.04737487 11.5673812,1.54111256 C12.7941166,0.173680496 13.6765727,-0.5 14.5057182,-0.5 C15.3328583,-0.5 16.2307619,0.174196821 17.4802474,1.53711679 C17.9470622,2.04631137 18.447273,2.63355049 19.142879,3.47925435 C19.0843534,3.40810015 20.5285877,5.17445775 20.9497737,5.67992382 C22.832878,7.93984062 24.2303883,9.38459359 25.5925994,10.355166 C26.6560182,11.1128496 27.6152952,11.5 28.4782642,11.5 C28.9005535,11.5 28.9005535,11.5 28.9988601,11.5 C28.999496,11.5 28.999496,11.5 28.9998373,11.5 C28.9999528,11.5 28.9999528,11.5 28.9999949,12.5 L28.9999325,12.5 C28.9992954,12.5 28.9992954,12.5 28.9974929,12.5 C28.9921478,12.5 28.9921478,12.5 28.9822045,12.5 C28.9554839,12.5 28.9554839,12.5 28.9108767,12.5 C28.7953388,12.5 28.7953388,12.5 28.6123045,12.5 C27.5561846,12.5 27.5561846,12.5 25.6361108,12.5 C20.7592185,12.5 20.7592185,12.5 14.5,12.5 C8.23203618,12.5 8.23203618,12.5 3.3522008,12.5 C1.43283128,12.5 1.43283128,12.5 0.381042032,12.5 C0.19943037,12.5 0.19943037,12.5 0.0855984176,12.5 C0.0418994846,12.5 0.0418994846,12.5 0.0161621745,12.5 C0.00672486715,12.5 0.00672486715,12.5 0.00190505252,12.5 C0.000368868011,12.5 0.000368868011,12.5 2.94254183e-06,11.5 L7.72150553e-05,11.5 C0.000187947566,11.5 0.000187947566,11.5 0.000372400439,11.5 C0.000852010836,11.5 0.000852010836,11.5 0.00162749555,11.5 C0.10472857,11.5 0.10472857,11.5 0.533172248,11.5 Z"></path>
                        </g>
                    </g>
                </g>
            </g>
        </g>
    </g>
</svg>