<svg width="200" height="200" viewBox="0 0 200 200" fill="none" xmlns="http://www.w3.org/2000/svg">
<path d="M153.527 56.6875C153.527 56.6875 152.152 60.9375 151.652 62.3125C151.027 64.1875 152.277 64.8125 153.527 64.8125H154.777M173.527 56.0625C169.777 56.0625 167.277 53.5625 164.777 51.0625C162.277 48.5625 159.777 46.0625 155.402 46.0625C150.902 46.0625 147.277 49.6875 147.277 54.1875V66.6875C147.277 71.875 151.465 76.0625 156.652 76.0625C166.652 76.0625 174.777 66.6875 174.777 61.6875C174.777 60.3125 173.652 59.1875 172.277 59.1875C170.902 59.1875 169.777 60.3125 169.777 61.6875V75.4375C169.777 78.1875 172.027 80.4375 174.777 80.4375M144.777 49.1875C144.777 43.6875 149.277 39.1875 154.777 39.1875C157.902 39.1875 161.027 39.1875 161.027 39.1875C170.715 39.1875 178.527 47 178.527 56.6875V59.8125C178.527 63.5625 181.027 64.8125 182.277 66.0625C183.527 67.3125 186.027 69.1875 186.027 72.9375C186.027 76.6875 183.527 79.1875 183.527 79.1875M181.715 108.813C186.527 106.313 189.84 101.313 189.84 95.5C189.84 87.1875 183.152 80.5 174.84 80.5M51.0273 34.8125C51.0273 34.8125 49.6523 39.0625 49.1523 40.4375C48.5273 42.3125 49.7773 42.9375 51.0273 42.9375H52.2773M52.9023 25.4375C57.2773 25.4375 59.7773 27.9375 62.2773 30.4375C64.7773 32.9375 67.2773 35.4375 71.6523 35.4375M55.4023 21.6875C59.7773 21.6875 62.2773 24.1875 64.7773 26.6875C67.2773 29.1875 69.7773 31.6875 74.1523 31.6875M57.9023 17.9375C62.2773 17.9375 64.7773 20.4375 67.2773 22.9375C69.7773 25.4375 72.2773 27.9375 76.6523 27.9375M41.6523 117.938C39.5273 117.938 37.8398 116.188 37.9023 114.063C37.9648 112 39.7773 110.438 41.7773 110.438M53.5273 100.438H47.4023C46.4648 100.438 45.8398 101.438 46.2773 102.25L48.0898 105.875C48.3398 106.375 48.2148 106.937 47.8398 107.312L46.1523 109C45.6523 109.5 45.3398 110.25 45.4023 111C46.0273 117 51.0898 121.688 57.2148 121.688H64.7148M129.152 105.438H159.277C175.715 105.438 189.465 118.5 189.777 134.937C190.027 151.75 176.527 165.438 159.777 165.438H156.027C155.34 165.438 154.777 164.875 154.777 164.188V152.938C154.777 152.25 154.215 151.688 153.527 151.688H146.027C145.34 151.688 144.777 152.25 144.777 152.938V164.188C144.777 164.875 144.215 165.438 143.527 165.438H119.777C119.09 165.438 118.527 164.875 118.527 164.188V157.938C118.527 157.25 119.09 156.688 119.777 156.688H132.277C136.402 156.688 139.777 153.312 139.777 149.188V122.938C139.777 118.813 136.402 115.438 132.277 115.438H92.2773C88.1523 115.438 84.7773 118.813 84.7773 122.938V149.188C84.7773 153.312 88.1523 156.688 92.2773 156.688H104.777C105.465 156.688 106.027 157.25 106.027 157.938V164.188C106.027 164.875 105.465 165.438 104.777 165.438H79.7773M79.7773 165.438L68.9023 143.75C66.3398 138.688 61.1523 135.438 55.4648 135.438H50.6523C48.7773 135.438 47.2148 133.875 47.2148 132C47.2148 130.125 48.7773 128.562 50.6523 128.562H54.1523C57.2773 128.562 59.7148 125.938 59.7148 122.813V117.938C59.7148 117.25 60.2773 116.688 60.9648 116.688H62.2148C63.4648 116.688 65.3398 116.062 64.0898 112.312L62.2148 106.688C59.6523 99.0625 54.7148 95.4375 47.2148 95.4375C38.9023 95.4375 32.2148 102.125 32.2148 110.438C32.2148 116.688 34.7148 117.938 34.7148 125.438C34.7148 130.938 30.2148 135.438 24.7148 135.438C19.2148 135.438 14.7148 130.938 14.7148 125.438V90.4375C14.7148 73.875 28.1523 60.4375 44.7148 60.4375H55.9648C57.3398 60.4375 58.4648 59.3125 58.4648 57.9375C58.4648 56.5625 57.3398 55.4375 55.9648 55.4375H54.0898C48.9023 55.4375 44.7148 51.25 44.7148 46.0625V33.5625C44.7148 29.0625 48.3398 25.4375 52.8398 25.4375M79.7773 165.438C82.0898 170.063 79.1523 173.562 76.0273 173.562C74.2773 173.562 72.9023 172.187 72.9023 170.438C72.9023 167.938 75.4023 165.438 79.7773 165.438ZM113.527 105.438H119.777M113.527 105.438C115.59 105.438 117.277 103.75 117.277 101.688V96.6875C117.277 94.625 115.59 92.9375 113.527 92.9375H109.777C108.402 92.9375 107.277 94.0625 107.277 95.4375V102.938C107.277 104.313 108.402 105.438 109.777 105.438H113.527ZM157.277 80.4375C142.277 80.4375 139.777 97.9375 124.777 97.9375M124.777 97.9375V82.9375C124.777 81.5625 123.652 80.4375 122.277 80.4375H113.527C112.152 80.4375 111.027 81.5625 111.027 82.9375V92.9375M124.777 97.9375V102.938C124.777 104.313 123.652 105.438 122.277 105.438H119.152M88.5273 80.4375L78.5273 50.4375C76.6523 45.4375 71.0273 45.4375 71.0273 45.4375H67.2773C65.2148 45.4375 63.5273 47.125 63.5273 49.1875V51.6875C63.5273 55.125 66.3398 57.9375 69.7773 57.9375C70.9023 57.9375 71.8398 58.6875 72.0898 59.75L73.5273 65.4375L79.4023 89.0625C80.3398 92.8125 83.7148 95.4375 87.5898 95.4375C92.2148 95.4375 96.0273 91.6875 96.0273 87V69.1875C96.0273 64.375 92.0898 60.4375 87.2773 60.4375M74.7773 46.0625V41.0625C74.7773 39.6875 73.6523 38.5625 72.2773 38.5625H68.5273C67.1523 38.5625 66.0273 39.6875 66.0273 41.0625V45.4375M146.652 151.688V147.938M149.777 151.688V144.812M152.902 151.688L154.777 147.938M69.7773 121.688C69.7773 123.068 68.6581 124.188 67.2773 124.188C65.8966 124.188 64.7773 123.068 64.7773 121.688C64.7773 120.307 65.8966 119.188 67.2773 119.188C68.6581 119.188 69.7773 120.307 69.7773 121.688ZM103.277 54.0625C96.5898 47.4375 96.5273 37.375 101.215 30.875C108.527 20.75 123.152 20.375 131.027 29.6875C138.152 38.125 136.402 50.75 127.34 57.125C123.152 60.0625 119.777 59.75 117.902 61.625C116.84 62.6875 116.402 64.1875 116.715 65.5625C116.902 66.5625 115.902 67.375 115.027 67C114.152 66.625 113.402 66.0625 112.652 65.125C109.965 62.0625 109.59 57.5 112.09 54.25C113.527 52.4375 114.902 52.375 115.715 53.1875C116.465 53.9375 116.527 55.0625 115.277 56.25C113.027 58.5 107.715 58.5 103.277 54.0625Z" stroke="url(#paint0_linear_932_309569)" stroke-width="2.5" stroke-miterlimit="10" stroke-linecap="round" stroke-linejoin="round"/>
<path d="M159.777 59.1875C160.468 59.1875 161.027 58.6279 161.027 57.9375C161.027 57.2471 160.468 56.6875 159.777 56.6875C159.087 56.6875 158.527 57.2471 158.527 57.9375C158.527 58.6279 159.087 59.1875 159.777 59.1875Z" fill="url(#paint1_linear_932_309569)"/>
<path d="M57.2773 37.3125C57.9677 37.3125 58.5273 36.7529 58.5273 36.0625C58.5273 35.3721 57.9677 34.8125 57.2773 34.8125C56.587 34.8125 56.0273 35.3721 56.0273 36.0625C56.0273 36.7529 56.587 37.3125 57.2773 37.3125Z" fill="url(#paint2_linear_932_309569)"/>
<path d="M56.6523 109.812C57.3427 109.812 57.9023 109.253 57.9023 108.562C57.9023 107.872 57.3427 107.312 56.6523 107.312C55.962 107.312 55.4023 107.872 55.4023 108.562C55.4023 109.253 55.962 109.812 56.6523 109.812Z" fill="url(#paint3_linear_932_309569)"/>
<path d="M111.027 42.8749C111.718 42.8749 112.277 42.3153 112.277 41.6249C112.277 40.9346 111.718 40.3749 111.027 40.3749C110.337 40.3749 109.777 40.9346 109.777 41.6249C109.777 42.3153 110.337 42.8749 111.027 42.8749Z" fill="url(#paint4_linear_932_309569)"/>
<path d="M116.027 42.8749C116.718 42.8749 117.277 42.3153 117.277 41.6249C117.277 40.9346 116.718 40.3749 116.027 40.3749C115.337 40.3749 114.777 40.9346 114.777 41.6249C114.777 42.3153 115.337 42.8749 116.027 42.8749Z" fill="url(#paint5_linear_932_309569)"/>
<path d="M121.027 42.8749C121.718 42.8749 122.277 42.3153 122.277 41.6249C122.277 40.9346 121.718 40.3749 121.027 40.3749C120.337 40.3749 119.777 40.9346 119.777 41.6249C119.777 42.3153 120.337 42.8749 121.027 42.8749Z" fill="url(#paint6_linear_932_309569)"/>
<defs>
<linearGradient id="paint0_linear_932_309569" x1="102.277" y1="17.9375" x2="102.277" y2="173.562" gradientUnits="userSpaceOnUse">
<stop stop-color="#279BE8"/>
<stop offset="1" stop-color="#875AE0"/>
</linearGradient>
<linearGradient id="paint1_linear_932_309569" x1="108.215" y1="34.8125" x2="108.215" y2="109.812" gradientUnits="userSpaceOnUse">
<stop stop-color="#279BE8"/>
<stop offset="1" stop-color="#875AE0"/>
</linearGradient>
<linearGradient id="paint2_linear_932_309569" x1="108.215" y1="34.8125" x2="108.215" y2="109.812" gradientUnits="userSpaceOnUse">
<stop stop-color="#279BE8"/>
<stop offset="1" stop-color="#875AE0"/>
</linearGradient>
<linearGradient id="paint3_linear_932_309569" x1="108.215" y1="34.8125" x2="108.215" y2="109.812" gradientUnits="userSpaceOnUse">
<stop stop-color="#279BE8"/>
<stop offset="1" stop-color="#875AE0"/>
</linearGradient>
<linearGradient id="paint4_linear_932_309569" x1="108.215" y1="34.8125" x2="108.215" y2="109.812" gradientUnits="userSpaceOnUse">
<stop stop-color="#279BE8"/>
<stop offset="1" stop-color="#875AE0"/>
</linearGradient>
<linearGradient id="paint5_linear_932_309569" x1="108.215" y1="34.8125" x2="108.215" y2="109.812" gradientUnits="userSpaceOnUse">
<stop stop-color="#279BE8"/>
<stop offset="1" stop-color="#875AE0"/>
</linearGradient>
<linearGradient id="paint6_linear_932_309569" x1="108.215" y1="34.8125" x2="108.215" y2="109.812" gradientUnits="userSpaceOnUse">
<stop stop-color="#279BE8"/>
<stop offset="1" stop-color="#875AE0"/>
</linearGradient>
</defs>
</svg>
