<svg width="36" height="36" viewBox="0 0 36 36" fill="none" xmlns="http://www.w3.org/2000/svg">
<path d="M32.625 19.125C32.4772 19.1251 32.3309 19.096 32.1944 19.0395C32.0579 18.983 31.9338 18.9002 31.8293 18.7957C31.7248 18.6912 31.642 18.5672 31.5855 18.4306C31.529 18.2941 31.4999 18.1478 31.5 18C31.5 20.67 30.7082 23.2801 29.2248 25.5002C27.7414 27.7203 25.633 29.4506 23.1662 30.4724C20.6994 31.4942 17.985 31.7615 15.3663 31.2406C12.7475 30.7197 10.3421 29.434 8.45407 27.5459C6.56606 25.6579 5.28031 23.2525 4.75941 20.6337C4.23851 18.015 4.50585 15.3006 5.52763 12.8338C6.54942 10.367 8.27975 8.25856 10.4998 6.77516C12.7199 5.29176 15.33 4.5 18 4.5C17.7016 4.5 17.4155 4.38147 17.2045 4.1705C16.9935 3.95952 16.875 3.67337 16.875 3.375C16.875 3.07663 16.9935 2.79048 17.2045 2.5795C17.4155 2.36853 17.7016 2.25 18 2.25C14.885 2.25 11.8398 3.17372 9.24978 4.90435C6.6597 6.63499 4.64098 9.0948 3.4489 11.9727C2.25682 14.8507 1.94492 18.0175 2.55264 21.0727C3.16036 24.1279 4.6604 26.9343 6.86307 29.1369C9.06575 31.3396 11.8721 32.8397 14.9273 33.4474C17.9825 34.0551 21.1493 33.7432 24.0273 32.5511C26.9052 31.359 29.365 29.3403 31.0957 26.7502C32.8263 24.1602 33.75 21.1151 33.75 18C33.7501 18.1478 33.7211 18.2941 33.6645 18.4306C33.608 18.5672 33.5252 18.6912 33.4207 18.7957C33.3162 18.9002 33.1922 18.983 33.0556 19.0395C32.9191 19.096 32.7728 19.1251 32.625 19.125V19.125Z" fill="#ADADAD"/>
<path d="M16.875 3.375C16.8749 3.52276 16.904 3.66909 16.9605 3.80562C17.017 3.94215 17.0998 4.0662 17.2043 4.17069C17.3088 4.27517 17.4329 4.35803 17.5694 4.41454C17.7059 4.47105 17.8522 4.50009 18 4.5C21.5792 4.50391 25.0107 5.92748 27.5416 8.45837C30.0725 10.9893 31.4961 14.4208 31.5 18C31.5 18.2984 31.6185 18.5845 31.8295 18.7955C32.0405 19.0065 32.3266 19.125 32.625 19.125C32.9234 19.125 33.2095 19.0065 33.4205 18.7955C33.6315 18.5845 33.75 18.2984 33.75 18C33.7453 13.8243 32.0844 9.82093 29.1318 6.86824C26.1791 3.91556 22.1757 2.25469 18 2.25C17.8522 2.24991 17.7059 2.27895 17.5694 2.33546C17.4329 2.39197 17.3088 2.47483 17.2043 2.57931C17.0998 2.6838 17.017 2.80785 16.9605 2.94438C16.904 3.08091 16.8749 3.22724 16.875 3.375V3.375Z" fill="#64B4FA"/>
</svg>
