
<svg width="80px" height="80px" viewBox="0 0 80 80" version="1.1" xmlns="http://www.w3.org/2000/svg" xmlns:xlink="http://www.w3.org/1999/xlink">
    <defs>
        <polygon id="path-1" points="0 80 79.6966038 80 79.6966038 0.336603774 0 0.336603774"></polygon>
    </defs>
    <g id="Cover" stroke="none" stroke-width="1" fill="none" fill-rule="evenodd">
        <g id="(DSK)-Webex-Meetings" transform="translate(-1300.000000, -670.000000)">
            <g id="TDG" transform="translate(1300.000000, 670.000000)">
                <g id="Group-33">
                    <path d="M5.74626415,52.4170566 C5.40664151,52.5091321 5.13192453,52.5468679 4.81796226,52.5468679 C3.6149434,52.5468679 3.00060377,51.7891321 3.00060377,50.6646038 L3.00060377,46.6253585 L1.99381132,46.6253585 L1.99381132,45.5521509 L3.00060377,45.5521509 L3.07909434,43.9189434 L4.2549434,43.9189434 L4.2549434,45.5521509 L5.71909434,45.5521509 L5.71909434,46.6253585 L4.2549434,46.6253585 L4.2549434,50.6902642 C4.2549434,51.2019623 4.504,51.4495094 4.9749434,51.4495094 C5.19683019,51.4495094 5.36739623,51.437434 5.74626415,51.3453585 L5.74626415,52.4170566 Z" id="Fill-12" fill="#FFFFFF"></path>
                    <path d="M6.92181132,52.3521509 L6.92181132,42.9378113 L8.17766038,42.9378113 L8.17766038,46.3234717 C8.67426415,45.6834717 9.39275472,45.3559245 10.1640755,45.3559245 C11.6418113,45.3559245 12.5701132,46.258566 12.5701132,47.9189434 L12.5701132,52.3521509 L11.3157736,52.3521509 L11.3157736,47.9325283 C11.3157736,46.9121509 10.792,46.4291321 9.86369811,46.4291321 C8.93539623,46.4291321 8.17766038,47.082717 8.17766038,48.2072453 L8.17766038,52.3521509 L6.92181132,52.3521509 Z" id="Fill-14" fill="#FFFFFF"></path>
                    <path d="M15.274566,48.2329057 L19.1190943,48.2329057 C19.0270189,46.9649811 18.2813585,46.3642264 17.2353208,46.3642264 C16.2285283,46.3642264 15.4707925,46.9770566 15.274566,48.2329057 L15.274566,48.2329057 Z M20.3221132,50.3898868 C19.9824906,51.6321509 18.909283,52.5468679 17.274566,52.5468679 C15.3394717,52.5468679 13.9402264,51.3453585 13.9402264,48.9529057 C13.9402264,46.5861132 15.3273962,45.3559245 17.2096604,45.3559245 C19.0919245,45.3559245 20.4006038,46.4819623 20.4006038,49.2276226 L15.2217358,49.2276226 C15.3273962,50.7959245 16.1772075,51.4902642 17.3138113,51.4902642 C18.1379623,51.4902642 18.7658868,51.0193208 18.9606038,50.3898868 L20.3221132,50.3898868 Z" id="Fill-16" fill="#FFFFFF"></path>
                    <path d="M5.60181132,63.1923019 C6.89690566,63.1923019 7.65464151,62.1719245 7.65464151,60.7470189 C7.65464151,59.0866415 6.85766038,58.1462642 5.60181132,58.1462642 C4.41237736,58.1462642 3.6274717,58.9553208 3.6274717,60.733434 C3.6274717,62.3696604 4.46520755,63.1923019 5.60181132,63.1923019 L5.60181132,63.1923019 Z M7.81162264,64.0677736 L7.58973585,63.1138113 C7.13237736,63.7809811 6.38822642,64.264 5.32709434,64.264 C3.61539623,64.264 2.32030189,63.0096604 2.32030189,60.7077736 C2.32030189,58.2760755 3.58973585,57.0730566 5.40709434,57.0730566 C6.43954717,57.0730566 7.14445283,57.5168302 7.58973585,58.1326792 L7.58973585,54.6549434 L8.84407547,54.6549434 L8.84407547,64.0677736 L7.81162264,64.0677736 Z" id="Fill-18" fill="#FFFFFF"></path>
                    <path d="M11.6144906,59.949434 L15.4590189,59.949434 C15.3669434,58.6815094 14.621283,58.0807547 13.5752453,58.0807547 C12.5684528,58.0807547 11.810717,58.6935849 11.6144906,59.949434 L11.6144906,59.949434 Z M16.6620377,62.1079245 C16.3224151,63.3501887 15.2492075,64.2633962 13.6144906,64.2633962 C11.6793962,64.2633962 10.2816604,63.0618868 10.2816604,60.669434 C10.2816604,58.3026415 11.6673208,57.0739623 13.5495849,57.0739623 C15.4318491,57.0739623 16.7405283,58.1984906 16.7405283,60.9441509 L11.5616604,60.9441509 C11.6673208,62.5124528 12.5171321,63.205283 13.6537358,63.205283 C14.4778868,63.205283 15.1058113,62.7358491 15.3020377,62.1079245 L16.6620377,62.1079245 Z" id="Fill-20" fill="#FFFFFF"></path>
                    <path d="M20.2421132,60.9695094 C18.6466415,60.6163019 18.0066415,60.0140377 18.0066415,59.0087547 C18.0066415,57.8449811 18.9349434,57.0736604 20.6466415,57.0736604 C22.1636226,57.0736604 23.2096604,57.8178113 23.4315472,59.0600755 L22.1515472,59.0600755 C22.0066415,58.4336604 21.4979623,58.0683774 20.634566,58.0683774 C19.6926792,58.0683774 19.2730566,58.4200755 19.2730566,58.8910189 C19.2730566,59.4147925 19.549283,59.6487547 20.8564528,59.9370566 C22.4383396,60.2902642 23.4843774,60.7340377 23.4843774,62.133283 C23.4843774,63.3755472 22.4519245,64.2646038 20.6466415,64.2646038 C18.9470189,64.2646038 17.8360755,63.4268679 17.7183396,62.1196981 L18.9998491,62.1196981 C19.1432453,62.9317736 19.7062642,63.2713962 20.6602264,63.2713962 C21.6806038,63.2713962 22.2179623,62.8140377 22.2179623,62.2253585 C22.2179623,61.4283774 21.458717,61.2457358 20.2421132,60.9695094" id="Fill-22" fill="#FFFFFF"></path>
                    <mask id="mask-2" fill="white">
                        <use xlink:href="#path-1"></use>
                    </mask>
                    <g id="Clip-25"></g>
                    <path d="M24.9207547,64.0679245 L26.1750943,64.0679245 L26.1750943,57.269434 L24.9207547,57.269434 L24.9207547,64.0679245 Z M24.8422642,56.1313208 L26.2535849,56.1313208 L26.2535849,54.6550943 L24.8422642,54.6550943 L24.8422642,56.1313208 Z" id="Fill-24" fill="#FFFFFF" mask="url(#mask-2)"></path>
                    <path d="M30.8935849,62.8003019 C32.1886792,62.8003019 32.9479245,61.952 32.9479245,60.5769057 C32.9479245,58.9829434 32.1116981,58.146717 30.8935849,58.146717 C29.7433962,58.146717 28.9192453,58.9165283 28.9192453,60.5391698 C28.9192453,61.9761509 29.8083019,62.8003019 30.8935849,62.8003019 L30.8935849,62.8003019 Z M29.2739623,64.5270943 C29.3916981,65.2063396 29.9667925,65.6244528 30.9615094,65.6244528 C32.229434,65.6244528 32.8815094,64.9829434 32.8815094,63.8599245 L32.8815094,62.9829434 C32.4256604,63.5203019 31.6664151,63.8735094 30.6203774,63.8735094 C29.0249057,63.8735094 27.6135849,62.682566 27.6135849,60.512 C27.6135849,58.3806792 28.8543396,57.0735094 30.6988679,57.0735094 C31.7569811,57.0735094 32.4769811,57.5308679 32.9086792,58.1708679 L33.1049057,57.2682264 L34.1373585,57.2682264 L34.1373585,63.9248302 C34.1373585,65.4674717 33.0128302,66.6176604 30.9992453,66.6176604 C29.1818868,66.6176604 28.149434,65.7935094 27.9275472,64.5270943 L29.2739623,64.5270943 Z" id="Fill-26" fill="#FFFFFF" mask="url(#mask-2)"></path>
                    <path d="M35.9658868,64.0679245 L35.9658868,57.269434 L36.9998491,57.269434 L37.1417358,58.1328302 C37.6398491,57.4384906 38.3960755,57.0732075 39.2081509,57.0732075 C40.6858868,57.0732075 41.6141887,57.9758491 41.6141887,59.6362264 L41.6141887,64.0679245 L40.3583396,64.0679245 L40.3583396,59.6483019 C40.3583396,58.629434 39.834566,58.1464151 38.9077736,58.1464151 C38.0066415,58.1464151 37.2217358,58.8 37.2217358,59.8716981 L37.2217358,64.0679245 L35.9658868,64.0679245 Z" id="Fill-27" fill="#FFFFFF" mask="url(#mask-2)"></path>
                    <path d="M5.60181132,74.3981887 C6.89690566,74.3981887 7.65464151,73.5498868 7.65464151,72.1747925 C7.65464151,70.5808302 6.81841509,69.7430943 5.60181132,69.7430943 C4.45162264,69.7430943 3.6274717,70.5159245 3.6274717,72.1355472 C3.6274717,73.5740377 4.5165283,74.3981887 5.60181132,74.3981887 L5.60181132,74.3981887 Z M3.98067925,76.1249811 C4.09841509,76.8042264 4.67350943,77.2223396 5.66671698,77.2223396 C6.93615094,77.2223396 7.58973585,76.5808302 7.58973585,75.4578113 L7.58973585,74.5808302 C7.13237736,75.1181887 6.37313208,75.4713962 5.32709434,75.4713962 C3.73313208,75.4713962 2.32030189,74.2804528 2.32030189,72.1098868 C2.32030189,69.978566 3.56256604,68.6713962 5.40709434,68.6713962 C6.46520755,68.6713962 7.18369811,69.1302642 7.61539623,69.7702642 L7.81162264,68.8676226 L8.84407547,68.8676226 L8.84407547,75.522717 C8.84407547,77.0653585 7.71954717,78.2155472 5.7074717,78.2155472 C3.89011321,78.2155472 2.85615094,77.3913962 2.63426415,76.1249811 L3.98067925,76.1249811 Z" id="Fill-28" fill="#FFFFFF" mask="url(#mask-2)"></path>
                    <path d="M10.6732075,75.6658113 L10.6732075,68.8673208 L11.7056604,68.8673208 L11.8762264,69.8741132 C12.2550943,69.090717 12.8422642,68.6710943 13.6015094,68.6710943 C13.9290566,68.6710943 14.1901887,68.7224151 14.3471698,68.7631698 L14.3471698,70.0175094 C14.0981132,69.9526038 13.850566,69.901283 13.5501887,69.901283 C12.6867925,69.901283 11.9290566,70.5397736 11.9290566,72.2529811 L11.9290566,75.6658113 L10.6732075,75.6658113 Z" id="Fill-29" fill="#FFFFFF" mask="url(#mask-2)"></path>
                    <path d="M18.1761509,74.8418113 C19.3791698,74.8418113 20.2033208,73.9527547 20.2033208,72.266717 C20.2033208,70.5399245 19.3278491,69.6916226 18.1640755,69.6916226 C17.0003019,69.6916226 16.1097358,70.5670943 16.1097358,72.266717 C16.1097358,73.9527547 17.0003019,74.8418113 18.1761509,74.8418113 M18.1640755,68.6712453 C20.0206792,68.6712453 21.5104906,69.821434 21.5104906,72.266717 C21.5104906,74.6455849 20.072,75.8621887 18.1489811,75.8621887 C16.2546415,75.8621887 14.802566,74.621434 14.802566,72.266717 C14.802566,69.821434 16.3195472,68.6712453 18.1640755,68.6712453" id="Fill-30" fill="#FFFFFF" mask="url(#mask-2)"></path>
                    <path d="M24.1366038,68.8674717 L24.1366038,73.3263396 C24.1366038,74.3331321 24.6709434,74.7904906 25.549434,74.7904906 C26.6860377,74.7904906 27.2218868,73.9391698 27.2218868,73.0123774 L27.2218868,68.8674717 L28.4777358,68.8674717 L28.4777358,75.6659623 L27.4437736,75.6659623 L27.3003774,74.8810566 C26.8158491,75.5361509 26.085283,75.8621887 25.2611321,75.8621887 C23.8618868,75.8621887 22.8807547,75.0380377 22.8807547,73.2991698 L22.8807547,68.8674717 L24.1366038,68.8674717 Z" id="Fill-31" fill="#FFFFFF" mask="url(#mask-2)"></path>
                    <path d="M33.5483774,69.7430943 C32.4253585,69.7430943 31.4955472,70.5672453 31.4955472,72.1883774 C31.4955472,73.8351698 32.3196981,74.7906415 33.5483774,74.7906415 C34.7242264,74.7906415 35.522717,73.9800755 35.522717,72.1883774 C35.522717,70.5159245 34.6729057,69.7430943 33.5483774,69.7430943 L33.5483774,69.7430943 Z M31.338566,68.8676226 L31.5347925,69.7566792 C32.0178113,69.1302642 32.7906415,68.6713962 33.8351698,68.6713962 C35.6268679,68.6713962 36.8298868,69.9529057 36.8298868,72.2140377 C36.8298868,74.5687547 35.5363019,75.8623396 33.7446038,75.8623396 C32.7106415,75.8623396 31.9921509,75.418566 31.5619623,74.7906415 L31.5619623,78.0193208 L30.3061132,78.0193208 L30.3061132,68.8676226 L31.338566,68.8676226 Z" id="Fill-32" fill="#FFFFFF" mask="url(#mask-2)"></path>
                </g>
                <path d="M27.1005133,0 L-7.46069873e-14,27.1148417 L28.4944791,27.1148417 L28.4944791,27.1133259 L52.8949412,27.1133259 L52.8949412,80 L80,52.8897057 L80,49.8565663 L79.9772723,1.33239858 L79.9772723,0.666957197 L79.9772723,0 L27.1005133,0 Z M29.3793443,1.33239858 L52.8752438,1.32936696 L52.8752438,24.8380924 L29.3793443,1.33239858 Z M54.2086024,1.33391439 L77.704502,1.33239858 L54.2086024,24.8380924 L54.2086024,1.33391439 Z M27.0944525,1.89476476 L27.0944525,25.8036645 L3.19551507,25.8036645 L27.0944525,1.89476476 Z M78.6454289,2.27523353 L78.6393682,25.7809273 L55.1495293,25.7809273 L78.6454289,2.27523353 Z M28.4384174,25.7794115 L28.4384174,2.27826515 L51.9343169,25.7809273 L28.4384174,25.7794115 Z M55.1495293,27.1133259 L78.6393682,27.1133259 L78.6454289,50.6205355 L55.1495293,27.1133259 Z M54.2086024,28.0561608 L77.704502,51.5618546 L54.2086024,51.5618546 L54.2086024,28.0561608 Z M54.2086024,52.8942532 L78.1075399,52.8942532 L54.2086024,76.8031529 L54.2086024,52.8942532 Z" id="Fill-34" fill="#FFFFFF"></path>
            </g>
        </g>
    </g>
</svg>