
<svg width="12px" height="12px" viewBox="0 0 12 12" version="1.1" xmlns="http://www.w3.org/2000/svg" xmlns:xlink="http://www.w3.org/1999/xlink">
    <g id="Page-1" stroke="none" stroke-width="1" fill="none" fill-rule="evenodd" fill-opacity="0.8">
        <g id="1.0-copy-9" transform="translate(-325.000000, -149.000000)" fill="#292929">
            <g id="App">
                <g id="video-strip" transform="translate(285.000000, 73.000000)">
                    <g id="attendee" transform="translate(34.000000, 1.000000)">
                        <g id="name-label" transform="translate(0.000000, 72.000000)">
                            <g id="indicator" transform="translate(6.000000, 2.000000)">
                                <g id="headset_12" transform="translate(0.000000, 1.000000)">
                                    <g id="icon">
                                        <path d="M9.8711,7.9429 C9.9481,7.6369 10.0001,7.3229 10.0001,6.9999 L10.0001,5.0969 C10.5731,5.3089 10.9841,5.8549 10.9841,6.4999 C10.9841,7.1929 10.5101,7.7709 9.8711,7.9429 Z M6.0001,10.9999 C5.7291,10.9999 5.5001,10.7709 5.5001,10.4999 C5.5001,10.2289 5.7291,9.9999 6.0001,9.9999 C6.2711,9.9999 6.5001,10.2289 6.5001,10.4999 C6.5001,10.7709 6.2711,10.9999 6.0001,10.9999 Z M2.0001,7.9149 C1.4181,7.7079 1.0001,7.1519 1.0001,6.4999 C1.0001,5.8479 1.4181,5.2919 2.0001,5.0859 L2.0001,7.9149 Z M10.0001,4.0549 L10.0001,3.9999 C10.0001,1.7949 8.2051,-0.0001 6.0001,-0.0001 C3.7941,-0.0001 2.0001,1.7949 2.0001,3.9999 L2.0001,4.0499 C0.8601,4.2829 0.0001,5.2929 0.0001,6.4999 C0.0001,7.8789 1.1211,8.9999 2.5001,8.9999 C2.7761,8.9999 3.0001,8.7759 3.0001,8.4999 L3.0001,3.9999 C3.0001,2.3459 4.3461,0.9999 6.0001,0.9999 C7.6541,0.9999 9.0001,2.3459 9.0001,3.9999 L9.0001,6.9999 C9.0001,8.1599 8.3041,9.2199 7.2691,9.7109 C7.0031,9.2859 6.5351,8.9999 6.0001,8.9999 C5.1751,8.9999 4.5001,9.6749 4.5001,10.4999 C4.5001,11.3249 5.1751,11.9999 6.0001,11.9999 C6.7561,11.9999 7.3801,11.4309 7.4791,10.6999 C8.3141,10.3629 8.9981,9.7569 9.4421,8.9999 L9.4841,8.9999 C10.8631,8.9999 11.9841,7.8789 11.9841,6.4999 C11.9841,5.2979 11.1321,4.2929 10.0001,4.0549 Z" id="fill"></path>
                                    </g>
                                </g>
                            </g>
                        </g>
                    </g>
                </g>
            </g>
        </g>
    </g>
</svg>