
<svg width="12px" height="12px" viewBox="0 0 12 12" version="1.1" xmlns="http://www.w3.org/2000/svg" xmlns:xlink="http://www.w3.org/1999/xlink">
    <!-- Generator: Sketch 48.2 (47327) - http://www.bohemiancoding.com/sketch -->
    <desc>Created with Sketch.</desc>
    <defs></defs>
    <g id="Video-Centric" stroke="none" stroke-width="1" fill="none" fill-rule="evenodd">
        <g id="2.0" transform="translate(-928.000000, -267.000000)">
            <g id="call-muted" transform="translate(928.000000, 267.000000)">
                <rect id="Rectangle-9" x="0" y="0" width="12" height="12"></rect>
                <g transform="translate(1.000000, 1.000000)" stroke="#4F5051">
                    <path d="M0,10 L10,0" id="Stroke-1" stroke-linecap="round"></path>
                    <path d="M8.275,6.4446875 L9.2884375,6.880625 C9.7203125,7.0659375 10,7.4909375 10,7.9609375 L10,9.1146875 C10,9.6878125 9.461875,10.11375 8.9065625,9.9728125 C7.19375,9.5375 5.2215625,8.32625 3.4478125,6.5521875 C1.67375,4.7784375 0.4621875,2.80625 0.0271875,1.0934375 C-0.11375,0.538125 0.3121875,0 0.8853125,0 L2.039375,0 C2.5090625,0 2.9340625,0.2796875 3.1196875,0.71125 L3.555625,1.725 C3.7265625,2.123125 3.71375,2.5759375 3.52,2.9634375 L3.2259375,3.55125 C3.123125,3.7565625 3.15,4.00125 3.29125,4.1825 C3.9684375,5.0534375 4.929375,5.9803125 5.8246875,6.69875 C6.0053125,6.84375 6.2525,6.8725 6.4596875,6.76875 L7.036875,6.48 C7.4240625,6.2865625 7.8771875,6.2734375 8.275,6.4446875 Z" id="Stroke-3"></path>
                </g>
            </g>
        </g>
    </g>
</svg>