
<svg width="13px" height="10px" viewBox="0 0 13 10" version="1.1" xmlns="http://www.w3.org/2000/svg" xmlns:xlink="http://www.w3.org/1999/xlink">
    <!-- Generator: Sketch 49 (51002) - http://www.bohemiancoding.com/sketch -->
    <desc>Created with Sketch.</desc>
    <defs></defs>
    <g id="Sharing" stroke="none" stroke-width="1" fill="none" fill-rule="evenodd">
        <g id="Sharing-1.0" transform="translate(-26.000000, -356.000000)">
            <g id="App">
                <g id="sharing" transform="translate(0.000000, 154.000000)">
                    <g id="sharing-control" transform="translate(16.000000, 191.000000)">
                        <g id="button" transform="translate(10.000000, 10.000000)">
                            <g id="annotation_12">
                                <rect id="bound" x="0" y="0" width="12" height="12"></rect>
                                <g id="icon" transform="translate(0.000000, 1.000000)" fill="#343537">
                                    <path d="M9.08223067,9.9819518 C9.05423067,9.9819518 9.02723067,9.9809518 8.99923067,9.9789518 C8.64623067,9.9499518 8.35223067,9.7509518 8.16823067,9.4169518 C7.79623067,8.7379518 8.34323067,7.7569518 9.03523067,6.5149518 C9.40323067,5.8529518 10.2672307,4.3019518 9.95423067,4.1059518 C9.44823067,3.7879518 8.03323067,5.4499518 7.18423067,6.4389518 C6.06123067,7.7489518 5.09023067,8.8799518 4.18423067,8.9239518 C3.87223067,8.9339518 3.60223067,8.8339518 3.37923067,8.6209518 C2.49123067,7.7709518 3.44623067,6.2009518 4.55323067,4.3839518 C5.26123067,3.2229518 6.14223067,1.7759518 5.99223067,1.1919518 C5.97723067,1.1339518 5.95323067,1.0889518 5.87623067,1.0449518 C5.12623067,0.618951803 2.58423067,2.6899518 0.886230666,4.7529518 C0.710230666,4.9659518 0.395230666,4.9969518 0.182230666,4.8209518 C-0.0307693336,4.6459518 -0.0617693336,4.3309518 0.114230666,4.1169518 C0.286230666,3.9089518 4.35023067,-0.983048197 6.37323067,0.177951803 C6.67323067,0.349951803 6.87623067,0.613951803 6.96023067,0.942951803 C7.21623067,1.9359518 6.33723067,3.3779518 5.40723067,4.9049518 C4.87423067,5.7809518 3.76323067,7.6039518 4.07023067,7.8979518 L4.07323067,7.8979518 C4.61523067,7.8979518 5.66123067,6.6789518 6.42523067,5.7879518 C7.88123067,4.0919518 9.25423067,2.4899518 10.4842307,3.2579518 C11.6032307,3.9589518 10.7032307,5.5749518 9.90823067,7.0019518 C9.56123067,7.6269518 8.97823067,8.6719518 9.05123067,8.9499518 C9.34023067,9.0509518 10.3262307,8.2629518 11.1652307,7.1869518 C11.3342307,6.9679518 11.6482307,6.9279518 11.8672307,7.0989518 C12.0842307,7.2689518 12.1242307,7.5829518 11.9542307,7.8009518 C11.5492307,8.3209518 10.1692307,9.9819518 9.08223067,9.9819518" id="fill"></path>
                                </g>
                            </g>
                        </g>
                    </g>
                </g>
            </g>
        </g>
    </g>
</svg>