
<svg width="16px" height="16px" viewBox="0 0 16 16" version="1.1" xmlns="http://www.w3.org/2000/svg" xmlns:xlink="http://www.w3.org/1999/xlink">
    <!-- Generator: Sketch 48.2 (47327) - http://www.bohemiancoding.com/sketch -->
    <desc>Created with Sketch.</desc>
    <defs></defs>
    <g id="Video-Centric" stroke="none" stroke-width="1" fill="none" fill-rule="evenodd">
        <g id="common-actions/cancel_20_w" transform="translate(-2.000000, -2.000000)" fill="#FFFFFF">
            <g id="cancel_20_w" transform="translate(2.000000, 2.000000)">
                <g id="icon">
                    <path d="M8.70725,8.00025 L15.85325,0.85425 C16.04925,0.65825 16.04925,0.34225 15.85325,0.14625 C15.65825,-0.04875 15.34225,-0.04875 15.14625,0.14625 L8.00025,7.29325 L0.85325,0.14625 C0.65825,-0.04875 0.34225,-0.04875 0.14625,0.14625 C-0.04875,0.34225 -0.04875,0.65825 0.14625,0.85425 L7.29325,8.00025 L0.14625,15.14625 C-0.04875,15.34225 -0.04875,15.65825 0.14625,15.85425 C0.24425,15.95125 0.37225,16.00025 0.50025,16.00025 C0.62825,16.00025 0.75625,15.95125 0.85325,15.85425 L8.00025,8.70725 L15.14625,15.85425 C15.24425,15.95125 15.37225,16.00025 15.50025,16.00025 C15.62825,16.00025 15.75625,15.95125 15.85325,15.85425 C16.04925,15.65825 16.04925,15.34225 15.85325,15.14625 L8.70725,8.00025 Z" id="fill"></path>
                </g>
            </g>
        </g>
    </g>
</svg>