<svg width="6px" height="6px" viewBox="0 0 6 6" version="1.1" xmlns="http://www.w3.org/2000/svg" xmlns:xlink="http://www.w3.org/1999/xlink">
<!-- Generator: Sketch 49.1 (51147) - http://www.bohemiancoding.com/sketch -->
<desc>Created with Sketch.</desc>
<defs></defs>
<g id="Page-1" stroke="none" stroke-width="1" fill="none" fill-rule="evenodd">
    <g id="Right-Panel-1.0" transform="translate(-711.000000, -528.000000)" fill="#FFFFFF">
        <g id="App">
            <g id="tool-tip" transform="translate(503.000000, 522.000000)">
                <g id="common-actions/cancel_6_w" transform="translate(208.000000, 6.000000)">
                    <g id="cancel_6_w">
                        <g id="icon">
                            <path d="M3.70709554,3 L5.85300612,0.854178818 C5.95100204,0.756186984 6,0.62819765 6,0.500208316 C6,0.372218982 5.95100204,0.244229648 5.85300612,0.146237814 C5.65801425,-0.0487459378 5.34202742,-0.0487459378 5.14603558,0.146237814 L3.00012499,2.29305891 L0.853214449,0.146237814 C0.658222574,-0.0487459378 0.34223574,-0.0487459378 0.146243907,0.146237814 C-0.0487479688,0.342221482 -0.0487479688,0.65819515 0.146243907,0.854178818 L2.29315445,3 L0.146243907,5.14582118 C-0.0487479688,5.34180485 -0.0487479688,5.65777852 0.146243907,5.85376219 C0.34223574,6.04874594 0.658222574,6.04874594 0.853214449,5.85376219 L3.00012499,3.70694109 L5.14603558,5.85376219 C5.2440315,5.9507541 5.37202617,5.99975002 5.50002083,5.99975002 C5.6280155,5.99975002 5.75601017,5.9507541 5.85300612,5.85376219 C6.04899796,5.65777852 6.04899796,5.34180485 5.85300612,5.14582118 L3.70709554,3 Z" id="fill"></path>
                        </g>
                    </g>
                </g>
            </g>
        </g>
    </g>
</g>
</svg>