
<svg width="20px" height="14px" viewBox="0 0 20 14" version="1.1" xmlns="http://www.w3.org/2000/svg" xmlns:xlink="http://www.w3.org/1999/xlink">
    <!-- Generator: Sketch 48.2 (47327) - http://www.bohemiancoding.com/sketch -->
    <desc>Created with Sketch.</desc>
    <defs></defs>
    <g id="Floating-Action-Bar" stroke="none" stroke-width="1" fill="none" fill-rule="evenodd">
        <g id="1.2" transform="translate(-393.000000, -560.000000)" fill="#FFFFFF">
            <g id="App" transform="translate(171.000000, 44.000000)">
                <g id="video-area" transform="translate(1.000000, 61.000000)">
                    <g id="call-control" transform="translate(145.000000, 436.000000)">
                        <g id="button" transform="translate(60.000000, 0.000000)">
                            <g id="activities/camera_20_w" transform="translate(16.000000, 16.000000)">
                                <g id="camera_20_w" transform="translate(0.000000, 3.000000)">
                                    <g id="icon">
                                        <path d="M19.004,10.855 C19.004,10.936 18.957,10.972 18.917,10.989 C18.868,11.011 18.817,11.001 18.776,10.959 L15,7.127 L15,6.872 L18.776,3.041 C18.817,2.999 18.867,2.987 18.917,3.01 C18.957,3.027 19.004,3.063 19.004,3.144 L19.004,10.855 Z M14,11.497 C14,12.323 13.323,13 12.506,13 L2.493,13 C1.67,13 1,12.327 1,11.497 L1,2.503 C1,1.677 1.676,1 2.493,1 L12.506,1 C13.33,1 14,1.673 14,2.503 L14,11.497 Z M19.296,2.085 C18.871,1.91 18.39,2.008 18.068,2.337 L15,5.451 L15,2.503 C15,1.122 13.883,0 12.506,0 L2.493,0 C1.127,0 0,1.121 0,2.503 L0,11.497 C0,12.878 1.116,14 2.493,14 L12.506,14 C13.872,14 15,12.879 15,11.497 L15,8.548 L18.068,11.662 C18.284,11.882 18.573,11.999 18.867,11.999 C19.012,11.999 19.156,11.971 19.296,11.914 C19.724,11.738 20,11.322 20,10.855 L20,3.144 C20,2.677 19.724,2.261 19.296,2.085 Z" id="fill"></path>
                                    </g>
                                </g>
                            </g>
                        </g>
                    </g>
                </g>
            </g>
        </g>
    </g>
</svg>