<svg width="14px" height="2px" viewBox="0 0 14 2" version="1.1" xmlns="http://www.w3.org/2000/svg" xmlns:xlink="http://www.w3.org/1999/xlink">
    <!-- Generator: Sketch 49 (51002) - http://www.bohemiancoding.com/sketch -->
    <desc>Created with Sketch.</desc>
    <defs></defs>
    <g id="Symbols" stroke="none" stroke-width="1" fill="none" fill-rule="evenodd">
        <g id="common-actions/more_20_w" transform="translate(-3.000000, -9.000000)" fill="#FFFFFF">
            <path d="M4,11 C3.448,11 3,10.553 3,10 C3,9.447 3.448,9 4,9 C4.552,9 5,9.447 5,10 C5,10.553 4.552,11 4,11 Z M11.0007,10 C11.0007,10.553 10.5527,11 10.0007,11 C9.4487,11 9.0007,10.553 9.0007,10 C9.0007,9.447 9.4487,9 10.0007,9 C10.5527,9 11.0007,9.447 11.0007,10 Z M17.0044,10 C17.0044,10.553 16.5564,11 16.0044,11 C15.4524,11 15.0044,10.553 15.0044,10 C15.0044,9.447 15.4524,9 16.0044,9 C16.5564,9 17.0044,9.447 17.0044,10 Z" id="fill"></path>
        </g>
    </g>
</svg>