
<svg width="24px" height="24px" viewBox="0 0 24 24" version="1.1" xmlns="http://www.w3.org/2000/svg" xmlns:xlink="http://www.w3.org/1999/xlink">
    <!-- Generator: Sketch 48.2 (47327) - http://www.bohemiancoding.com/sketch -->
    <desc>Created with Sketch.</desc>
    <defs></defs>
    <g id="Floating-Action-Bar" stroke="none" stroke-width="1" fill="none" fill-rule="evenodd">
        <g id="Floating-Action-Bar-1.2" transform="translate(-233.000000, -397.000000)">
            <g id="Dialog" transform="translate(213.000000, 197.000000)">
                <g id="item" transform="translate(0.000000, 176.000000)">
                    <g id="headset_24" transform="translate(20.000000, 24.000000)">
                        <rect id="bound" x="0" y="0" width="24" height="24"></rect>
                        <g id="icon" fill="#000000">
                            <path d="M19.979,15.861 C19.989,15.728 20,15.595 20,15.46 L20,8.145 C21.721,8.59 23,10.14 23,12 C23,13.866 21.711,15.425 19.979,15.861 Z M12,23 C10.896,23 10,22.102 10,21 C10,19.897 10.896,19 12,19 C13.103,19 14,19.897 14,21 C14,22.102 13.103,23 12,23 Z M4,15.85 C2.255,15.403 1,13.836 1,12 C1,10.135 2.255,8.554 4,8.116 L4,15.85 Z M24,12 C24,9.57 22.25,7.568 19.949,7.123 C19.51,3.123 16.114,0 12,0 C7.912,0 4.49,3.08 4.036,7.084 C1.708,7.527 0,9.572 0,12 C0,14.535 1.91,16.662 4.444,16.946 C4.584,16.96 4.727,16.916 4.833,16.822 C4.939,16.727 5,16.591 5,16.449 L5,7.536 C5.235,3.87 8.307,1 12,1 C15.859,1 19,4.14 19,8 L19,15.46 C19,17.843 17.145,19.784 14.805,19.965 C14.382,18.82 13.291,18 12,18 C10.343,18 9,19.343 9,21 C9,22.656 10.343,24 12,24 C13.656,24 15,22.656 15,21 C15,20.99 14.997,20.982 14.997,20.972 C17.314,20.748 19.213,19.089 19.804,16.896 C22.175,16.508 24,14.479 24,12 Z" id="fill"></path>
                        </g>
                    </g>
                </g>
            </g>
        </g>
    </g>
</svg>