
<svg width="10px" height="28px" viewBox="0 0 10 28" version="1.1" xmlns="http://www.w3.org/2000/svg" xmlns:xlink="http://www.w3.org/1999/xlink">
    <!-- Generator: Sketch 49 (51002) - http://www.bohemiancoding.com/sketch -->
    <desc>Created with Sketch.</desc>
    <defs></defs>
    <g id="Symbols" stroke="none" stroke-width="1" fill="none" fill-rule="evenodd">
        <g id="01" transform="translate(-11.000000, -2.000000)">
            <path d="M13.6733398,20.1660156 C12.0864258,20.1660156 11.1733398,18.8183594 11.1733398,16.4746094 C11.1733398,14.1503906 12.0961914,12.7880859 13.6733398,12.7880859 C15.2407227,12.7880859 16.1635742,14.1552734 16.1635742,16.4892578 C16.1635742,18.828125 15.2553711,20.1660156 13.6733398,20.1660156 Z M13.6733398,19.3994141 C14.7133789,19.3994141 15.2797852,18.3642578 15.2797852,16.4746094 C15.2797852,14.6044922 14.7036133,13.5595703 13.6733398,13.5595703 C12.6430664,13.5595703 12.0571289,14.6142578 12.0571289,16.4746094 C12.0571289,18.359375 12.6333008,19.3994141 13.6733398,19.3994141 Z M19.2885742,20 L19.2885742,13.9306641 L19.2104492,13.9306641 L17.418457,15.2294922 L17.418457,14.3017578 L19.293457,12.9541016 L20.1674805,12.9541016 L20.1674805,20 L19.2885742,20 Z" fill="#343537"></path>
            <g id="arrow-down_8" transform="translate(12.000000, 24.000000)">
                <rect id="bound" x="0" y="0" width="8" height="8"></rect>
                <g id="icon" transform="translate(0.000000, 2.000000)" fill="#292929">
                    <path d="M4.0001,4.00003 C3.8841,4.00003 3.7681,3.96003 3.6751,3.87903 L0.1751,0.87903 C-0.0349,0.70003 -0.0599,0.38403 0.1211,0.17503 C0.3011,-0.03597 0.6161,-0.05897 0.8251,0.12103 L4.0001,2.84103 L7.1751,0.12103 C7.3841,-0.05897 7.7011,-0.03597 7.8791,0.17503 C8.0601,0.38403 8.0351,0.70003 7.8251,0.87903 L4.3251,3.87903 C4.2321,3.96003 4.1161,4.00003 4.0001,4.00003" id="fill" transform="translate(4.000100, 2.000008) scale(1, -1) rotate(180.000000) translate(-4.000100, -2.000008) "></path>
                </g>
            </g>
            <g id="navigation/arrow-down_8" opacity="0.2" transform="translate(16.000000, 4.000000) scale(1, -1) translate(-16.000000, -4.000000) translate(12.000000, 0.000000)">
                <rect id="Rectangle-9" x="0" y="0" width="8" height="8"></rect>
                <g id="arrow-down_8" transform="translate(0.000000, 2.000000)" fill="#292929">
                    <g id="icon">
                        <path d="M4.0001,4.00003 C3.8841,4.00003 3.7681,3.96003 3.6751,3.87903 L0.1751,0.87903 C-0.0349,0.70003 -0.0599,0.38403 0.1211,0.17503 C0.3011,-0.03597 0.6161,-0.05897 0.8251,0.12103 L4.0001,2.84103 L7.1751,0.12103 C7.3841,-0.05897 7.7011,-0.03597 7.8791,0.17503 C8.0601,0.38403 8.0351,0.70003 7.8251,0.87903 L4.3251,3.87903 C4.2321,3.96003 4.1161,4.00003 4.0001,4.00003" id="fill" transform="translate(4.000100, 2.000008) scale(1, -1) rotate(180.000000) translate(-4.000100, -2.000008) "></path>
                    </g>
                </g>
            </g>
        </g>
    </g>
</svg>