
<svg width="14px" height="14px" viewBox="0 0 14 14" version="1.1" xmlns="http://www.w3.org/2000/svg" xmlns:xlink="http://www.w3.org/1999/xlink">
    <defs>
        <polygon id="path-1" points="7 0 14 0 14 7 7 7"></polygon>
    </defs>
    <g id="V2-flow" stroke="none" stroke-width="1" fill="none" fill-rule="evenodd">
        <g id="AV-main-flows" transform="translate(-2659.000000, -971.000000)">
            <g id="App" transform="translate(1985.000000, 260.000000)">
                <g id="connecting" transform="translate(665.000000, 702.000000)">
                    <g id="animated/spinner_14_w" transform="translate(9.000000, 9.000000)">
                        <g id="spinner_14_w">
                            <path d="M7,13 C10.3136463,13 13,10.3136463 13,7 C13,3.68635372 10.3136463,1 7,1 C3.68635372,1 1,3.68635372 1,7 C1,10.3136463 3.68635372,13 7,13 Z M7,14 C3.13406897,14 0,10.865931 0,7 C0,3.13406897 3.13406897,0 7,0 C10.865931,0 14,3.13406897 14,7 C14,10.865931 10.865931,14 7,14 Z" id="4/4" fill-opacity="0.32" fill="#FFFFFF" fill-rule="nonzero"></path>
                            <mask id="mask-2" fill="white">
                                <use xlink:href="#path-1"></use>
                            </mask>
                            <g id="mask"></g>
                            <path d="M7,13 C10.3136463,13 13,10.3136463 13,7 C13,3.68635372 10.3136463,1 7,1 C3.68635372,1 1,3.68635372 1,7 C1,10.3136463 3.68635372,13 7,13 Z M7,14 C3.13406897,14 0,10.865931 0,7 C0,3.13406897 3.13406897,0 7,0 C10.865931,0 14,3.13406897 14,7 C14,10.865931 10.865931,14 7,14 Z" id="1/4" fill="#FFFFFF" fill-rule="nonzero" mask="url(#mask-2)"></path>
                        </g>
                    </g>
                </g>
            </g>
        </g>
    </g>
</svg>