
<svg width="50px" height="50px" viewBox="0 0 50 50" version="1.1" xmlns="http://www.w3.org/2000/svg" xmlns:xlink="http://www.w3.org/1999/xlink">
    <defs>
        <polygon id="path-1" points="25 0 50 0 50 25 25 25"></polygon>
    </defs>
    <g id="V2-flow" stroke="none" stroke-width="1" fill="none" fill-rule="evenodd">
        <g id="AV-main-flows" transform="translate(-3730.000000, -4058.000000)">
            <g id="Group-5" transform="translate(3714.000000, 4051.000000)">
                <g id="icon-copy-2" transform="translate(16.000000, 7.000000)">
                    <path d="M25,49.1071429 C38.3137852,49.1071429 49.1071429,38.3137852 49.1071429,25 C49.1071429,11.6862148 38.3137852,0.892857143 25,0.892857143 C11.6862148,0.892857143 0.892857143,11.6862148 0.892857143,25 C0.892857143,38.3137852 11.6862148,49.1071429 25,49.1071429 Z M25,50 C11.1931034,50 0,38.8068966 0,25 C0,11.1931034 11.1931034,0 25,0 C38.8068966,0 50,11.1931034 50,25 C50,38.8068966 38.8068966,50 25,50 Z" id="fill" fill-opacity="0.32" fill="#2BC852" fill-rule="nonzero"></path>
                    <mask id="mask-2" fill="white">
                        <use xlink:href="#path-1"></use>
                    </mask>
                    <g id="fill"></g>
                    <path d="M25,49.1071429 C38.3137852,49.1071429 49.1071429,38.3137852 49.1071429,25 C49.1071429,11.6862148 38.3137852,0.892857143 25,0.892857143 C11.6862148,0.892857143 0.892857143,11.6862148 0.892857143,25 C0.892857143,38.3137852 11.6862148,49.1071429 25,49.1071429 Z M25,50 C11.1931034,50 0,38.8068966 0,25 C0,11.1931034 11.1931034,0 25,0 C38.8068966,0 50,11.1931034 50,25 C50,38.8068966 38.8068966,50 25,50 Z" id="fill" fill="#2BC852" fill-rule="nonzero" mask="url(#mask-2)"></path>
                </g>
            </g>
        </g>
    </g>
</svg>