
<svg width="20px" height="20px" viewBox="0 0 20 20" version="1.1" xmlns="http://www.w3.org/2000/svg" xmlns:xlink="http://www.w3.org/1999/xlink">
    <defs>
        <polygon id="path-1" points="10 0 20 0 20 10 10 10"></polygon>
    </defs>
    <g id="V2-flow" stroke="none" stroke-width="1" fill="none" fill-rule="evenodd">
        <g id="AV-main-flows" transform="translate(-3690.000000, -4349.000000)">
            <g id="App-Copy-6" transform="translate(3160.000000, 3656.000000)">
                <g id="call-control" transform="translate(514.000000, 677.000000)">
                    <g id="button">
                        <g id="animated/spinner_20_w" transform="translate(16.000000, 16.000000)">
                            <g id="spinner_20_w">
                                <path d="M10,19 C14.9704739,19 19,14.9704739 19,10 C19,5.02952613 14.9704739,1 10,1 C5.02952613,1 1,5.02952613 1,10 C1,14.9704739 5.02952613,19 10,19 Z M10,20 C4.47724138,20 0,15.5227586 0,10 C0,4.47724138 4.47724138,0 10,0 C15.5227586,0 20,4.47724138 20,10 C20,15.5227586 15.5227586,20 10,20 Z" id="4/4" fill-opacity="0.32" fill="#FFFFFF" fill-rule="nonzero"></path>
                                <mask id="mask-2" fill="white">
                                    <use xlink:href="#path-1"></use>
                                </mask>
                                <g id="mask"></g>
                                <path d="M10,19 C14.9704739,19 19,14.9704739 19,10 C19,5.02952613 14.9704739,1 10,1 C5.02952613,1 1,5.02952613 1,10 C1,14.9704739 5.02952613,19 10,19 Z M10,20 C4.47724138,20 0,15.5227586 0,10 C0,4.47724138 4.47724138,0 10,0 C15.5227586,0 20,4.47724138 20,10 C20,15.5227586 15.5227586,20 10,20 Z" id="1/4" fill="#FFFFFF" fill-rule="nonzero" mask="url(#mask-2)"></path>
                            </g>
                        </g>
                    </g>
                </g>
            </g>
        </g>
    </g>
</svg>