<svg width="168" height="168" viewBox="0 0 168 168" fill="none" xmlns="http://www.w3.org/2000/svg">
<path fill-rule="evenodd" clip-rule="evenodd" d="M141.458 84.8841C141.458 117.115 115.335 143.242 83.1068 143.242C50.879 143.242 24.7552 117.115 24.7552 84.8841C24.7552 52.6529 50.879 26.5262 83.1068 26.5262C115.335 26.5262 141.458 52.6529 141.458 84.8841Z" fill="white"/>
<path fill-rule="evenodd" clip-rule="evenodd" d="M132.605 35.0748C126.906 29.3186 120.438 24.7861 113.533 21.4562C125.969 47.1195 121.536 78.8786 100.199 100.174C78.8634 121.466 47.0476 125.89 21.3358 113.488C24.5558 120.132 28.8879 126.377 34.373 131.919L34.9689 132.517C61.9291 159.423 105.643 159.423 132.605 132.517C159.565 105.608 159.565 61.9831 132.605 35.0748Z" fill="#6EBE4A"/>
<path fill-rule="evenodd" clip-rule="evenodd" d="M35.3163 50.7273C31.3909 50.7273 27.4672 49.233 24.4735 46.2443C18.4845 40.2688 18.4845 30.5797 24.4735 24.6042C40.3717 8.73789 61.5073 0.00012207 83.9904 0.00012207C92.4602 0.00012207 99.3227 6.85099 99.3227 15.304C99.3227 23.7553 92.4602 30.608 83.9904 30.608C69.6995 30.608 56.2645 36.1608 46.1591 46.2443C43.1655 49.233 39.2418 50.7273 35.3163 50.7273Z" fill="#D541D8"/>
<path fill-rule="evenodd" clip-rule="evenodd" d="M86.651 0.245239C93.8495 1.50436 99.3239 7.75926 99.3239 15.3033C99.3239 23.1109 93.4622 29.5409 85.8925 30.4764C114.612 31.4826 137.67 55.0964 137.67 83.9994C137.67 75.6454 144.456 68.8741 152.825 68.8741C161.196 68.8741 167.983 75.6454 167.983 83.9994C167.983 38.6713 131.736 1.65644 86.651 0.245239Z" fill="#FBAB18"/>
<path fill-rule="evenodd" clip-rule="evenodd" d="M152.826 68.8743C144.457 68.8743 137.67 75.6456 137.67 83.9996C137.67 112.903 114.613 136.516 85.8912 137.523C93.461 138.46 99.3227 144.89 99.3227 152.697C99.3227 160.242 93.8482 166.496 86.6515 167.756C131.734 166.344 167.981 129.33 167.981 83.9996C167.981 75.6456 161.195 68.8743 152.826 68.8743Z" fill="#005073"/>
<path fill-rule="evenodd" clip-rule="evenodd" d="M44.8274 47.4184C42.0478 49.6184 38.6846 50.7272 35.3161 50.7272C31.3907 50.7272 27.467 49.2328 24.4734 46.2442C19.1952 40.9779 18.5763 32.829 22.6026 26.8765C8.59466 41.8585 -0.000701904 61.9407 -0.000701904 84C-0.000701904 106.059 8.59643 126.143 22.6061 141.127C18.5763 135.175 19.1934 127.022 24.4734 121.754C30.0397 116.201 38.8102 115.817 44.8257 120.58C35.8342 110.997 30.3121 98.1332 30.3121 84C30.3121 69.865 35.8342 57.0015 44.8274 47.4184Z" fill="#FF3D67"/>
<path fill-rule="evenodd" clip-rule="evenodd" d="M83.99 168C61.507 168 40.3696 159.262 24.4732 143.396C18.486 137.419 18.486 127.729 24.4732 121.754C30.4639 115.777 40.1751 115.78 46.1587 121.754C56.2642 131.839 69.6992 137.392 83.99 137.392C92.4598 137.392 99.3223 144.245 99.3223 152.698C99.3223 161.147 92.4598 168 83.99 168Z" fill="#00BCEB"/>
</svg>
