<svg width="226" height="29" fill="none" xmlns="http://www.w3.org/2000/svg">
<path fill-rule="evenodd" clip-rule="evenodd" d="M145.767 0.565918H144.234L137.084 26.3335L129.709 0.565918H127.428L120.011 26.4042L112.937 0.565918H111.251L118.78 27.8047H121.103L128.512 1.96641L135.964 27.8047H138.203L145.767 0.565918ZM163.805 22.5493H162.16C161.852 23.7948 161.134 24.8972 160.124 25.6757C158.915 26.5883 157.434 27.0551 155.926 26.9984C154.099 27.059 152.318 26.4083 150.951 25.1805C149.305 23.6433 148.433 21.361 148.335 18.3337H164.19C164.185 15.0612 163.439 12.4677 161.951 10.5532C160.386 8.56941 157.979 7.46027 155.471 7.56836C153.277 7.49698 151.15 8.34403 149.594 9.90958C147.7 11.8052 146.753 14.493 146.753 17.973C146.758 21.0239 147.518 23.4688 149.034 25.3079C152.011 28.6425 156.922 29.3454 160.698 26.9771C162.258 25.9598 163.371 24.3741 163.805 22.5493ZM148.335 17.0252H162.517C162.391 14.2242 161.568 12.1023 160.047 10.6593C158.81 9.46758 157.151 8.82794 155.443 8.88397C153.472 8.82955 151.59 9.71176 150.357 11.2676C149.064 12.9038 148.352 14.9313 148.335 17.0252ZM168.71 27.8047H169.976L170.242 23.9003C171.245 26.257 173.361 27.9389 175.863 28.3676C178.365 28.7963 180.911 27.9133 182.626 26.0223C184.399 24.1078 185.285 21.3327 185.285 17.6971C185.281 14.5991 184.618 12.1659 183.298 10.3976C181.847 8.50321 179.571 7.44648 177.204 7.56836C175.776 7.54697 174.373 7.93972 173.16 8.70006C171.89 9.50837 170.886 10.6804 170.277 12.0669V0.565918H168.71V27.8047ZM176.938 8.89104C175.026 8.82772 173.201 9.70246 172.04 11.2393C170.767 12.8237 170.13 15.0801 170.13 18.0084C170.13 21.1347 170.853 23.5066 172.299 25.124C173.607 26.4652 175.43 27.1594 177.288 27.0233C179.146 26.8871 180.852 25.9344 181.955 24.4166C183.102 22.7568 183.676 20.5123 183.676 17.683C183.676 14.5755 182.965 12.2673 181.542 10.7584C180.345 9.49408 178.667 8.81343 176.938 8.89104ZM205.604 22.5493H203.96C203.648 23.7968 202.925 24.8995 201.91 25.6757C200.7 26.5873 199.219 27.054 197.712 26.9984C195.882 27.0601 194.099 26.4094 192.73 25.1806C191.083 23.6433 190.211 21.361 190.113 18.3337H205.982C205.982 15.0612 205.233 12.4677 203.736 10.5532C202.173 8.56755 199.765 7.45795 197.257 7.56836C195.065 7.49726 192.94 8.34441 191.387 9.90958C189.488 11.8052 188.539 14.493 188.539 17.973C188.539 21.0239 189.301 23.4688 190.827 25.3079C193.803 28.649 198.721 29.3524 202.498 26.9771C204.058 25.9598 205.17 24.3741 205.604 22.5493ZM190.148 17.0252H204.31C204.193 14.2242 203.37 12.1023 201.84 10.6593C200.604 9.4662 198.944 8.82633 197.236 8.88397C195.265 8.82955 193.382 9.71176 192.149 11.2676C190.864 12.9066 190.159 14.9338 190.148 17.0252ZM217.828 17.4425L224.601 8.13421H222.845L216.967 16.3037L210.607 8.13421H208.599L215.932 17.4779L208.298 27.8401H210.131L216.869 18.6096L223.901 27.8047H225.762L217.828 17.4425Z" fill="black"/>
<path fill-rule="evenodd" clip-rule="evenodd" d="M12.6504 23.9073C16.2888 23.9073 18.2479 21.8655 18.5278 17.7819H24.923C24.4565 21.4883 23.0571 24.2374 20.7248 26.0293C18.6537 27.5901 15.9226 28.3728 12.5315 28.3776C8.51523 28.3776 5.38295 27.0266 3.13461 24.3246C1.04487 21.8066 0 18.4138 0 14.1463C0 9.28 1.31075 5.61138 3.93226 3.14049C6.15261 1.04683 9.12163 0 12.8393 0C16.2538 0 19.0339 0.919512 21.1796 2.75854C23.1317 4.47929 24.3956 6.86103 24.7341 9.45683H18.4368C17.7372 6.10415 15.8713 4.4278 12.8393 4.4278C10.891 4.3503 9.06002 5.36831 8.08142 7.07317C7.05988 8.69057 6.5491 11.0483 6.5491 14.1463C6.5491 17.7537 7.22314 20.3896 8.57121 22.0541C9.57433 23.2763 11.0804 23.9604 12.6504 23.9073ZM33.907 5.60195H27.6098V0.565854H33.907V5.60195ZM27.8407 27.8046H33.6831V8.13415H27.8407V27.8046ZM45.4799 24.3671C47.6489 24.3671 48.7334 23.747 48.7334 22.5068C48.7761 21.9767 48.5004 21.4723 48.0337 21.2266C46.7639 20.7279 45.4557 20.3353 44.1225 20.0524C41.7015 19.4724 39.9686 18.7533 38.9238 17.8951C37.6902 16.8656 37.0084 15.3089 37.0836 13.6937C37.017 11.8057 37.9606 10.0275 39.5535 9.03951C41.0228 8.05634 43.0519 7.56829 45.6898 7.56829C48.3276 7.56829 50.4967 8.16951 52.0919 9.37902C53.4232 10.4049 54.3126 11.9094 54.5759 13.5805H48.6984C48.4186 12.2413 47.3457 11.5741 45.4799 11.5788C43.7306 11.5788 42.856 12.1163 42.856 13.2056C42.8507 13.7292 43.1451 14.2088 43.6117 14.4363C44.6659 14.9146 45.7686 15.2751 46.9002 15.5115L47.5999 15.7024C49.2768 16.0573 50.8906 16.6678 52.3858 17.5132C53.8299 18.401 54.6884 20.0069 54.6318 21.7146C54.712 23.7262 53.7495 25.6347 52.0919 26.7507C50.4897 27.8329 48.2996 28.3776 45.5009 28.3776C42.7021 28.3776 40.4631 27.7339 38.7628 26.4466C37.3921 25.441 36.4653 23.9329 36.181 22.2451H42.0584C42.1983 22.8966 42.6087 23.4558 43.1849 23.78C43.8798 24.1905 44.6754 24.3941 45.4799 24.3671ZM76.4972 21.262H70.3539C69.7591 23.3415 68.5697 24.3671 66.7994 24.3741C65.7826 24.3883 64.8165 23.9261 64.1826 23.1222C63.3336 22.0424 62.9092 20.4273 62.9092 18.2771C62.9092 13.8163 64.2806 11.5859 67.0233 11.5859C67.7712 11.5759 68.4998 11.8256 69.0874 12.2932C69.6863 12.7772 70.1175 13.441 70.3189 14.1888H76.4342C76.0753 12.3721 75.0633 10.7543 73.5934 9.64781C71.6291 8.20887 69.2446 7.47674 66.8204 7.56829C64.284 7.44793 61.8005 8.32791 59.8935 10.0227C57.8504 11.9136 56.8289 14.625 56.8289 18.1568C56.8289 21.2124 57.5635 23.6102 59.0329 25.3502C60.7401 27.3685 63.3057 28.3776 66.7295 28.3776C68.9823 28.4749 71.208 27.8511 73.0897 26.5951C74.8578 25.3227 76.077 23.4145 76.4972 21.262ZM78.4773 17.8951C78.4773 14.3161 79.5012 11.6307 81.5489 9.83878C83.2935 8.32512 85.7004 7.56829 88.7697 7.56829C92.2915 7.56829 94.9363 8.56325 96.7042 10.5532C98.2808 12.3215 99.0668 14.7688 99.0622 17.8951C99.0622 21.5024 98.0383 24.2138 95.9905 26.0293C94.246 27.5901 91.839 28.3728 88.7697 28.3776C85.3272 28.3776 82.7081 27.3685 80.9122 25.3502C79.2889 23.5395 78.4773 21.0545 78.4773 17.8951ZM85.775 23.1151C84.9261 22.0824 84.5016 20.3424 84.5016 17.8951C84.5016 15.726 84.8025 14.1487 85.4042 13.1632C86.1479 12.0402 87.4381 11.4165 88.7697 11.5363C89.915 11.4493 91.0396 11.8792 91.8414 12.7105C92.66 13.6937 93.0728 15.4266 93.0728 17.8951C93.0728 20.0878 92.765 21.7005 92.1352 22.7402C91.4869 23.8484 90.3767 24.4024 88.8047 24.4024C87.6516 24.4738 86.5314 23.9979 85.775 23.1151Z" fill="black"/>
</svg>
