
<svg xmlns="http://www.w3.org/2000/svg" version="1.1" xmlns:xlink="http://www.w3.org/1999/xlink" preserveAspectRatio="none" x="0px" y="0px" width="26px" height="26px" viewBox="0 0 26 26">
<defs>
<g id="Layer1_0_FILL">
<path fill="#292929" stroke="none" d="
M 2.4 4.95
Q 0.05 2.45 0 0.2
L 0 26
Q 0.05 23.85 2.4 21.2 3.9 19.6 6.95 17.2 9.1 15.5 10 14.6 10.7 13.8 10.8 13.6 11 13.3 11 13.1 11 12.85 10.8 12.55 10.6 12.15 9.95 11.55 9.15 10.7 6.95 8.95 3.6 6.25 2.4 4.95 Z"/>

<path fill="#3B3B3B" stroke="none" d="
M 10.7 10.85
Q 10.65 10.85 10.65 10.8 9.8 9.95 7.6 8.15 4.3 5.55 3.15 4.25 1.05 2 1 0.05
L 1 0 0 0 0 0.2
Q 0.05 2.45 2.4 4.95 3.6 6.25 6.95 8.95 9.15 10.7 9.95 11.55 10.6 12.15 10.8 12.55 11 12.85 11 13.1 11 13.3 10.8 13.6 10.7 13.8 10 14.6 9.1 15.5 6.95 17.2 3.9 19.6 2.4 21.2 0.05 23.85 0 26
L 1 26
Q 1.1 24.15 3.15 21.85 4.6 20.3 7.6 17.95 9.8 16.25 10.7 15.3 10.7 15.25 10.75 15.25 11.45 14.45 11.65 14.15 12.05 13.55 12 13.1 12.05 12.6 11.65 12 11.4 11.55 10.7 10.85 Z"/>

<path fill="#262626" stroke="none" d="
M 12.5 11.5
Q 12.2 11.05 11.4 10.15 10.8 9.55 8.2 7.4 5.3 5.05 3.9 3.6 2 1.55 2 0.05
L 2 0 1 0 1 0.05
Q 1.05 2 3.15 4.25 4.3 5.55 7.6 8.15 9.8 9.95 10.65 10.8 10.65 10.85 10.7 10.85 11.4 11.55 11.65 12 12.05 12.6 12 13.1 12.05 13.55 11.65 14.15 11.45 14.45 10.75 15.25 10.7 15.25 10.7 15.3 9.8 16.25 7.6 17.95 4.6 20.3 3.15 21.85 1.1 24.15 1 26
L 2 26
Q 2.05 24.55 3.9 22.55 5.1 21.25 8.2 18.75 10.95 16.5 11.4 16 12 15.45 12.5 14.65 13 13.9 13 13.1 13 12.25 12.5 11.5 Z"/>
</g>
</defs>

<g transform="matrix( 1, 0, 0, 1, 0,0) ">
<use xlink:href="#Layer1_0_FILL"/>
</g>
</svg>
