<svg width="10" height="10" viewBox="0 0 10 10" fill="none" xmlns="http://www.w3.org/2000/svg">
<mask id="path-2-outside-1" maskUnits="userSpaceOnUse" x="2.33325" y="1.08566" width="3" height="7" fill="black">
<rect fill="white" x="2.33325" y="1.08566" width="3" height="7"/>
<path fill-rule="evenodd" clip-rule="evenodd" d="M3.74999 7.91708C3.66166 7.91708 3.57249 7.88875 3.49666 7.83125C3.31416 7.69125 3.27999 7.43042 3.41916 7.24708C3.90499 6.61292 4.16249 5.83458 4.16666 4.99792C4.17083 4.16208 3.91249 3.38792 3.42083 2.75875C3.27999 2.57792 3.31249 2.31542 3.49333 2.17375C3.67249 2.03292 3.93666 2.06375 4.07916 2.24625C4.68583 3.02375 5.00499 3.97708 4.99999 5.00208C4.99499 6.02208 4.67749 6.97292 4.08083 7.75375C3.99916 7.86125 3.87499 7.91708 3.74999 7.91708"/>
</mask>
<path fill-rule="evenodd" clip-rule="evenodd" d="M3.74999 7.91708C3.66166 7.91708 3.57249 7.88875 3.49666 7.83125C3.31416 7.69125 3.27999 7.43042 3.41916 7.24708C3.90499 6.61292 4.16249 5.83458 4.16666 4.99792C4.17083 4.16208 3.91249 3.38792 3.42083 2.75875C3.27999 2.57792 3.31249 2.31542 3.49333 2.17375C3.67249 2.03292 3.93666 2.06375 4.07916 2.24625C4.68583 3.02375 5.00499 3.97708 4.99999 5.00208C4.99499 6.02208 4.67749 6.97292 4.08083 7.75375C3.99916 7.86125 3.87499 7.91708 3.74999 7.91708" fill="#00A0D1"/>
<path d="M3.49666 7.83125L3.43579 7.91059L3.43624 7.91093L3.49666 7.83125ZM3.41916 7.24708L3.33978 7.18627L3.33951 7.18662L3.41916 7.24708ZM4.16666 4.99792L4.06666 4.99742L4.06666 4.99742L4.16666 4.99792ZM3.42083 2.75875L3.34193 2.82019L3.34203 2.82032L3.42083 2.75875ZM3.49333 2.17375L3.555 2.25247L3.55513 2.25237L3.49333 2.17375ZM4.07916 2.24625L4.158 2.18473L4.15798 2.18471L4.07916 2.24625ZM4.99999 5.00208L5.09999 5.00257L5.09999 5.00257L4.99999 5.00208ZM4.08083 7.75375L4.00137 7.69303L4.0012 7.69326L4.08083 7.75375ZM3.74999 7.81708C3.68311 7.81708 3.61524 7.79566 3.55708 7.75157L3.43624 7.91093C3.52975 7.98184 3.64021 8.01708 3.74999 8.01708V7.81708ZM3.55753 7.75191C3.41901 7.64565 3.39267 7.44737 3.49881 7.30755L3.33951 7.18662C3.16732 7.41346 3.20931 7.73685 3.43579 7.91059L3.55753 7.75191ZM3.49854 7.3079C3.99839 6.65544 4.26239 5.85564 4.26666 4.99841L4.06666 4.99742C4.0626 5.81353 3.8116 6.57039 3.33978 7.18627L3.49854 7.3079ZM4.26666 4.99841C4.27093 4.14116 4.00578 3.34489 3.49962 2.69717L3.34203 2.82032C3.81921 3.43095 4.07072 4.183 4.06666 4.99742L4.26666 4.99841ZM3.49972 2.6973C3.39287 2.5601 3.41741 2.36026 3.555 2.25247L3.43166 2.09503C3.20758 2.27057 3.16712 2.59573 3.34193 2.82019L3.49972 2.6973ZM3.55513 2.25237C3.69075 2.14576 3.89189 2.1689 4.00034 2.30779L4.15798 2.18471C3.98143 1.95859 3.65423 1.92007 3.43153 2.09513L3.55513 2.25237ZM4.00032 2.30777C4.59264 3.06687 4.90489 3.99816 4.89999 5.00159L5.09999 5.00257C5.1051 3.956 4.77902 2.98063 4.158 2.18473L4.00032 2.30777ZM4.89999 5.00159C4.8951 6.00072 4.58428 6.9302 4.00137 7.69303L4.16028 7.81447C4.77071 7.01563 5.09489 6.04345 5.09999 5.00257L4.89999 5.00159ZM4.0012 7.69326C3.93948 7.7745 3.84549 7.81708 3.74999 7.81708V8.01708C3.90449 8.01708 4.05884 7.948 4.16045 7.81424L4.0012 7.69326Z" fill="#00A0D1" mask="url(#path-2-outside-1)"/>
</svg>
