
<svg width="20px" height="20px" viewBox="0 0 20 20" version="1.1" xmlns="http://www.w3.org/2000/svg" xmlns:xlink="http://www.w3.org/1999/xlink">
    <g id="Page-1" stroke="none" stroke-width="1" fill="none" fill-rule="evenodd">
        <g id="dialog" transform="translate(-285.000000, -10.000000)" fill="#292929">
            <g id="header">
                <g id="button" transform="translate(285.000000, 10.000000)">
                    <g id="icon">
                        <path d="M10,0 C4.477,0 0,4.477 0,10 C0,15.523 4.477,20 10,20 C15.523,20 20,15.523 20,10 C20,4.477 15.523,0 10,0" id="fill" fill-opacity="0.12"></path>
                        <path d="M10,5 C11.654,5 13,6.346 13,8 L13,8.14 C13,9.539 12.237,10.208 11.679,10.697 C11.58,10.784 11.482,10.869 11.392,10.957 L10.965,11.367 C10.683,11.64 10.507,12.074 10.507,12.5 C10.507,12.776 10.284,13 10.007,13 C9.731,13 9.507,12.776 9.507,12.5 C9.507,11.802 9.793,11.108 10.271,10.647 L10.697,10.237 C10.798,10.14 10.908,10.043 11.02,9.945 C11.546,9.484 12,9.086 12,8.14 L12,8 C12,6.897 11.103,6 10,6 C8.897,6 8,6.897 8,8 C8,8.276 7.776,8.5 7.5,8.5 C7.224,8.5 7,8.276 7,8 C7,6.346 8.346,5 10,5 Z M10,14 C10.276,14 10.5,14.224 10.5,14.5 C10.5,14.776 10.276,15 10,15 C9.724,15 9.5,14.776 9.5,14.5 C9.5,14.224 9.724,14 10,14 Z" id="Combined-Shape"></path>
                    </g>
                </g>
            </g>
        </g>
    </g>
</svg>