
<svg width="12px" height="12px" viewBox="0 0 12 12" version="1.1" xmlns="http://www.w3.org/2000/svg" xmlns:xlink="http://www.w3.org/1999/xlink">
    <g id="Mockup" stroke="none" stroke-width="1" fill="none" fill-rule="evenodd">
        <g id="Connect-device-2.0" transform="translate(-800.000000, -275.000000)" fill="#000000">
            <g id="Dialog" transform="translate(540.000000, 253.000000)">
                <g id="header">
                    <g id="alerts-and-notifications/help-circle_12" transform="translate(260.000000, 22.000000)">
                        <g id="help-circle_12">
                            <path d="M6,0 C9.314,0 12,2.687 12,6 C12,9.313 9.314,12 6,12 C2.686,12 0,9.313 0,6 C0,2.687 2.686,0 6,0 Z M6,11 C8.757,11 11,8.757 11,6 C11,3.243 8.757,1 6,1 C3.243,1 1,3.243 1,6 C1,8.757 3.243,11 6,11 Z M6,8 C6.276,8 6.5,8.224 6.5,8.5 C6.5,8.776 6.276,9 6,9 C5.724,9 5.5,8.776 5.5,8.5 C5.5,8.224 5.724,8 6,8 Z M6.0522,2.5117 C7.1262,2.5427 8.0002,3.4447 8.0002,4.5227 C8.0002,5.4277 7.4762,5.8657 7.1302,6.1547 C7.0732,6.2027 7.0172,6.2497 6.9652,6.2977 L6.7092,6.5327 C6.5792,6.6517 6.5042,6.8227 6.5042,7.0007 C6.5042,7.2767 6.2812,7.5007 6.0042,7.5007 C5.7282,7.5007 5.5042,7.2767 5.5042,7.0007 C5.5042,6.5437 5.6972,6.1047 6.0322,5.7967 L6.2882,5.5617 C6.3502,5.5037 6.4192,5.4467 6.4892,5.3877 C6.8152,5.1147 7.0002,4.9397 7.0002,4.5227 C7.0002,3.9897 6.5522,3.5267 6.0242,3.5117 C5.7612,3.4997 5.5092,3.6007 5.3182,3.7867 C5.1132,3.9867 5.0002,4.2607 5.0002,4.5577 C5.0002,4.8337 4.7762,5.0577 4.5002,5.0577 C4.2232,5.0577 4.0002,4.8337 4.0002,4.5577 C4.0002,3.9877 4.2202,3.4597 4.6212,3.0697 C5.0082,2.6947 5.5302,2.4897 6.0522,2.5117 Z" id="fill"></path>
                        </g>
                    </g>
                </g>
            </g>
        </g>
    </g>
</svg>