
<svg width="16px" height="12px" viewBox="0 0 16 12" version="1.1" xmlns="http://www.w3.org/2000/svg" xmlns:xlink="http://www.w3.org/1999/xlink">
    <g id="In-Meeting-Layout" stroke="none" stroke-width="1" fill="none" fill-rule="evenodd">
        <g id="AV-dialog-2.0" transform="translate(-746.000000, -128.000000)">
            <g id="One-Click-Dialog" transform="translate(377.000000, 69.000000)">
                <g id="video-section" transform="translate(322.000000, 56.000000)">
                    <g id="label" transform="translate(47.000000, 0.000000)">
                        <g id="camera_16" transform="translate(0.000000, 1.000000)">
                            <g id="icon">
                                <rect id="bound" x="0" y="0" width="16" height="16"></rect>
                                <path d="M15.388,4.088 C15.76,4.241 16,4.602 16,5.003 L16,10.997 C16,11.399 15.76,11.758 15.389,11.911 C15.266,11.963 15.136,11.987 15.008,11.987 C14.752,11.987 14.499,11.888 14.309,11.697 L12.004,9.392 L12,9.379 L12,11.991 C12,13.101 11.098,14 9.992,14 L2.009,14 C0.899,14 8.8817842e-16,13.098 8.8817842e-16,11.991 L8.8817842e-16,4.009 C8.8817842e-16,2.9 0.902,2 2.009,2 L9.992,2 C11.101,2 12,2.902 12,4.009 L12,6.611 L14.309,4.303 C14.593,4.02 15.016,3.936 15.388,4.088 Z M12.026,8 L15.016,10.99 L15,5.003 L12.026,8 Z M1,11.9914698 C1,12.5469054 1.45267418,13 2.0085302,13 L9.9914698,13 C10.5469054,13 11,12.5473258 11,11.9914698 L11,4.0085302 C11,3.45309463 10.5473258,3 9.9914698,3 L2.0085302,3 C1.45309463,3 1,3.45267418 1,4.0085302 L1,11.9914698 Z" id="fill" fill="#292929"></path>
                            </g>
                        </g>
                    </g>
                </g>
            </g>
        </g>
    </g>
</svg>