
<svg width="12px" height="9px" viewBox="0 0 12 9" version="1.1" xmlns="http://www.w3.org/2000/svg" xmlns:xlink="http://www.w3.org/1999/xlink">
    <!-- Generator: Sketch 48.2 (47327) - http://www.bohemiancoding.com/sketch -->
    <desc>Created with Sketch.</desc>
    <defs></defs>
    <g id="Video-Centric" stroke="none" stroke-width="1" fill="none" fill-rule="evenodd">
        <g id="2.0" transform="translate(-1122.000000, -189.000000)">
            <g id="button" transform="translate(1121.000000, 187.000000)">
                <g id="camera_12">
                    <rect id="Rectangle-13" x="0" y="0" width="13" height="12"></rect>
                    <g id="icon" transform="translate(1.000000, 2.000000)" fill="#171B1F">
                        <path d="M1.4998,8.00003 C1.2238,8.00003 0.9998,7.77503 0.9998,7.50003 L0.9998,1.50003 C0.9998,1.22403 1.2238,1.00003 1.4998,1.00003 L7.5018,1.00003 C7.7778,1.00003 8.0018,1.22403 8.0018,1.50003 L8.0018,7.50003 C8.0018,7.77503 7.7778,8.00003 7.5018,8.00003 L1.4998,8.00003 Z M7.5018,3e-05 L1.4998,3e-05 C0.6728,3e-05 -0.0002,0.67303 -0.0002,1.50003 L-0.0002,7.50003 C-0.0002,8.32703 0.6728,9.00003 1.4998,9.00003 L7.5018,9.00003 C8.3288,9.00003 9.0018,8.32703 9.0018,7.50003 L9.0018,6.17903 L10.5788,7.75503 C10.7378,7.91503 10.9498,7.99903 11.1668,7.99903 C11.2738,7.99903 11.3828,7.97903 11.4858,7.93603 C11.7988,7.80603 12.0008,7.50303 12.0008,7.16503 L12.0008,1.83203 C12.0008,1.49403 11.7998,1.19203 11.4868,1.06303 C11.3828,1.02003 11.2748,0.99903 11.1668,0.99903 C10.9508,0.99903 10.7378,1.08303 10.5788,1.24303 L9.0018,2.81903 L9.0018,1.50003 C9.0018,0.67303 8.3288,3e-05 7.5018,3e-05 Z M11.0008,2.23403 L11.0008,6.76403 L9.7088,5.47203 L9.0018,4.76403 L9.0018,4.23403 L9.7088,3.52703 L11.0008,2.23403 Z" id="fill"></path>
                    </g>
                </g>
            </g>
        </g>
    </g>
</svg>