
<svg width="21px" height="21px" viewBox="0 0 21 21" version="1.1" xmlns="http://www.w3.org/2000/svg" xmlns:xlink="http://www.w3.org/1999/xlink">
    <!-- Generator: Sketch 48.2 (47327) - http://www.bohemiancoding.com/sketch -->
    <desc>Created with Sketch.</desc>
    <defs></defs>
    <g id="Floating-Action-Bar" stroke="none" stroke-width="1" fill="none" fill-rule="evenodd">
        <g id="3.0" transform="translate(-603.000000, -427.000000)">
            <g id="Share-dialog" transform="translate(185.000000, 88.000000)">
                <g id="Group-3" transform="translate(64.000000, 312.000000)">
                    <g id="item" transform="translate(296.000000, 0.000000)">
                        <g id="plus_24" transform="translate(56.000000, 25.000000)">
                            <rect id="bound" x="0" y="0" width="24" height="24"></rect>
                            <g id="icon" transform="translate(2.000000, 2.000000)" fill="#4F5051">
                                <path d="M20.5,10 L11,10 L11,0.5 C11,0.224 10.776,0 10.5,0 C10.224,0 10,0.224 10,0.5 L10,10 L0.5,10 C0.224,10 0,10.224 0,10.5 C0,10.776 0.224,11 0.5,11 L10,11 L10,20.5 C10,20.776 10.224,21 10.5,21 C10.776,21 11,20.776 11,20.5 L11,11 L20.5,11 C20.776,11 21,10.776 21,10.5 C21,10.224 20.776,10 20.5,10" id="fill"></path>
                            </g>
                        </g>
                    </g>
                </g>
            </g>
        </g>
    </g>
</svg>