<svg width="10" height="10" viewBox="0 0 10 10" fill="none" xmlns="http://www.w3.org/2000/svg">
<mask id="path-2-outside-1" maskUnits="userSpaceOnUse" x="2.33325" y="-0.166321" width="5" height="10" fill="black">
<rect fill="white" x="2.33325" y="-0.166321" width="5" height="10"/>
<path fill-rule="evenodd" clip-rule="evenodd" d="M5.00324 9.16668C4.91158 9.16668 4.81908 9.13668 4.74241 9.07501C4.56324 8.93001 4.53491 8.66751 4.67824 8.48918C5.42324 7.56418 5.83324 6.32501 5.83324 5.00001C5.83324 3.67418 5.42408 2.43501 4.68158 1.51085C4.53741 1.33168 4.56658 1.06918 4.74491 0.925013C4.92574 0.78168 5.18741 0.810013 5.33158 0.98918C6.19241 2.06085 6.66658 3.48501 6.66658 5.00001C6.66658 6.51418 6.19158 7.93918 5.32824 9.01085C5.24574 9.11335 5.12491 9.16668 5.00324 9.16668M3.74999 7.9171C3.66166 7.9171 3.57249 7.88876 3.49666 7.83126C3.31416 7.69126 3.27999 7.43043 3.41916 7.2471C3.90499 6.61293 4.16249 5.8346 4.16666 4.99793C4.17083 4.1621 3.91249 3.38793 3.42083 2.75876C3.27999 2.57793 3.31249 2.31543 3.49333 2.17376C3.67249 2.03293 3.93666 2.06376 4.07916 2.24626C4.68583 3.02376 5.00499 3.9771 4.99999 5.0021C4.99499 6.0221 4.67749 6.97293 4.08083 7.75376C3.99916 7.86126 3.87499 7.9171 3.74999 7.9171"/>
</mask>
<path fill-rule="evenodd" clip-rule="evenodd" d="M5.00324 9.16668C4.91158 9.16668 4.81908 9.13668 4.74241 9.07501C4.56324 8.93001 4.53491 8.66751 4.67824 8.48918C5.42324 7.56418 5.83324 6.32501 5.83324 5.00001C5.83324 3.67418 5.42408 2.43501 4.68158 1.51085C4.53741 1.33168 4.56658 1.06918 4.74491 0.925013C4.92574 0.78168 5.18741 0.810013 5.33158 0.98918C6.19241 2.06085 6.66658 3.48501 6.66658 5.00001C6.66658 6.51418 6.19158 7.93918 5.32824 9.01085C5.24574 9.11335 5.12491 9.16668 5.00324 9.16668M3.74999 7.9171C3.66166 7.9171 3.57249 7.88876 3.49666 7.83126C3.31416 7.69126 3.27999 7.43043 3.41916 7.2471C3.90499 6.61293 4.16249 5.8346 4.16666 4.99793C4.17083 4.1621 3.91249 3.38793 3.42083 2.75876C3.27999 2.57793 3.31249 2.31543 3.49333 2.17376C3.67249 2.03293 3.93666 2.06376 4.07916 2.24626C4.68583 3.02376 5.00499 3.9771 4.99999 5.0021C4.99499 6.0221 4.67749 6.97293 4.08083 7.75376C3.99916 7.86126 3.87499 7.9171 3.74999 7.9171" fill="#00A0D1"/>
<path d="M4.74241 9.07501L4.6795 9.15275L4.67973 9.15293L4.74241 9.07501ZM4.67824 8.48918L4.60036 8.42645L4.6003 8.42653L4.67824 8.48918ZM4.68158 1.51085L4.75953 1.44821L4.75949 1.44816L4.68158 1.51085ZM4.74491 0.925013L4.68279 0.846641L4.68204 0.847246L4.74491 0.925013ZM5.33158 0.98918L5.40954 0.926555L5.40949 0.926489L5.33158 0.98918ZM5.32824 9.01085L5.25037 8.94811L5.25034 8.94814L5.32824 9.01085ZM3.49666 7.83126L3.43579 7.91061L3.43624 7.91095L3.49666 7.83126ZM3.41916 7.2471L3.33978 7.18628L3.33951 7.18663L3.41916 7.2471ZM4.16666 4.99793L4.06666 4.99743L4.06666 4.99743L4.16666 4.99793ZM3.42083 2.75876L3.34193 2.82021L3.34203 2.82034L3.42083 2.75876ZM3.49333 2.17376L3.555 2.25248L3.55513 2.25238L3.49333 2.17376ZM4.07916 2.24626L4.158 2.18475L4.15798 2.18472L4.07916 2.24626ZM4.99999 5.0021L5.09999 5.00259L5.09999 5.00258L4.99999 5.0021ZM4.08083 7.75376L4.00137 7.69305L4.0012 7.69327L4.08083 7.75376ZM5.00324 9.06668C4.93337 9.06668 4.86322 9.04385 4.80509 8.99709L4.67973 9.15293C4.77494 9.22951 4.88979 9.26668 5.00324 9.26668V9.06668ZM4.80532 8.99728C4.6687 8.88671 4.6476 8.68693 4.75619 8.55183L4.6003 8.42653C4.42222 8.64809 4.45779 8.97331 4.6795 9.15275L4.80532 8.99728ZM4.75612 8.55191C5.51711 7.60706 5.93324 6.34502 5.93324 5.00001H5.73324C5.73324 6.30501 5.32938 7.5213 4.60036 8.42645L4.75612 8.55191ZM5.93324 5.00001C5.93324 3.65424 5.51798 2.39223 4.75953 1.44821L4.60362 1.57348C5.33017 2.47779 5.73324 3.69411 5.73324 5.00001H5.93324ZM4.75949 1.44816C4.65011 1.31223 4.67204 1.11251 4.80778 1.00278L4.68204 0.847246C4.46111 1.02585 4.42471 1.35113 4.60367 1.57354L4.75949 1.44816ZM4.80703 1.00338C4.94523 0.893838 5.14428 0.915931 5.25367 1.05187L5.40949 0.926489C5.23054 0.704095 4.90626 0.669521 4.68279 0.846645L4.80703 1.00338ZM5.25361 1.0518C6.09871 2.10388 6.56658 3.50532 6.56658 5.00001H6.76658C6.76658 3.4647 6.28611 2.01781 5.40954 0.926555L5.25361 1.0518ZM6.56658 5.00001C6.56658 6.49383 6.09791 7.89605 5.25037 8.94811L5.40612 9.07358C6.28525 7.9823 6.76658 6.53453 6.76658 5.00001H6.56658ZM5.25034 8.94814C5.18755 9.02616 5.09581 9.06668 5.00324 9.06668V9.26668C5.15401 9.26668 5.30394 9.20053 5.40614 9.07355L5.25034 8.94814ZM3.74999 7.8171C3.68311 7.8171 3.61524 7.79568 3.55708 7.75158L3.43624 7.91095C3.52975 7.98185 3.64021 8.0171 3.74999 8.0171V7.8171ZM3.55753 7.75192C3.41901 7.64566 3.39267 7.44739 3.49881 7.30756L3.33951 7.18663C3.16732 7.41347 3.20931 7.73686 3.43579 7.91061L3.55753 7.75192ZM3.49854 7.30791C3.99839 6.65545 4.26239 5.85565 4.26666 4.99843L4.06666 4.99743C4.0626 5.81354 3.8116 6.57041 3.33978 7.18628L3.49854 7.30791ZM4.26666 4.99843C4.27093 4.14118 4.00578 3.3449 3.49962 2.69719L3.34203 2.82034C3.81921 3.43096 4.07072 4.18301 4.06666 4.99743L4.26666 4.99843ZM3.49972 2.69732C3.39287 2.56012 3.41741 2.36027 3.555 2.25248L3.43166 2.09504C3.20758 2.27059 3.16712 2.59574 3.34193 2.82021L3.49972 2.69732ZM3.55513 2.25238C3.69075 2.14577 3.89189 2.16892 4.00034 2.30781L4.15798 2.18472C3.98143 1.95861 3.65423 1.92009 3.43153 2.09514L3.55513 2.25238ZM4.00032 2.30778C4.59264 3.06689 4.90489 3.99818 4.89999 5.00161L5.09999 5.00258C5.1051 3.95601 4.77902 2.98064 4.158 2.18475L4.00032 2.30778ZM4.89999 5.00161C4.8951 6.00073 4.58428 6.93022 4.00137 7.69305L4.16028 7.81448C4.77071 7.01564 5.09489 6.04346 5.09999 5.00259L4.89999 5.00161ZM4.0012 7.69327C3.93948 7.77451 3.84549 7.8171 3.74999 7.8171V8.0171C3.90449 8.0171 4.05884 7.94801 4.16045 7.81426L4.0012 7.69327Z" fill="#00A0D1" mask="url(#path-2-outside-1)"/>
</svg>
