<svg width="58" height="40" viewBox="0 0 58 40" fill="none" xmlns="http://www.w3.org/2000/svg">
<rect width="58" height="40" fill="#525252"/>
<rect y="39" width="58" height="1" fill="#00A0D1"/>
<path fill-rule="evenodd" clip-rule="evenodd" d="M37.8925 20.1368C37.8925 25.125 33.8495 29.1684 28.8619 29.1684C23.8743 29.1684 19.8313 25.125 19.8313 20.1368C19.8313 15.1486 23.8743 11.1052 28.8619 11.1052C33.8495 11.1052 37.8925 15.1486 37.8925 20.1368" fill="white"/>
<path fill-rule="evenodd" clip-rule="evenodd" d="M36.5223 12.4282C35.6403 11.5374 34.6392 10.8359 33.5706 10.3206C35.4952 14.2923 34.8092 19.2074 31.507 22.5031C28.2051 25.7982 23.2812 26.483 19.302 24.5636C19.8003 25.5919 20.4708 26.5582 21.3197 27.416L21.4119 27.5085C25.5843 31.6726 32.3496 31.6726 36.5223 27.5085C40.6947 23.3441 40.6947 16.5926 36.5223 12.4282" fill="#6EBE4A"/>
<path fill-rule="evenodd" clip-rule="evenodd" d="M21.4657 14.8506C20.8582 14.8506 20.251 14.6194 19.7877 14.1568C18.8608 13.2321 18.8608 11.7325 19.7877 10.8078C22.2481 8.35227 25.5191 7 28.9986 7C30.3094 7 31.3715 8.06025 31.3715 9.36846C31.3715 10.6764 30.3094 11.7369 28.9986 11.7369C26.7869 11.7369 24.7077 12.5963 23.1438 14.1568C22.6805 14.6194 22.0732 14.8506 21.4657 14.8506" fill="#D541D8"/>
<path fill-rule="evenodd" clip-rule="evenodd" d="M29.4104 7.03796C30.5244 7.23283 31.3716 8.20085 31.3716 9.36839C31.3716 10.5767 30.4645 11.5718 29.293 11.7166C33.7377 11.8723 37.3061 15.5268 37.3061 19.9999C37.3061 18.707 38.3564 17.6591 39.6516 17.6591C40.9471 17.6591 41.9974 18.707 41.9974 19.9999C41.9974 12.9848 36.3877 7.25636 29.4104 7.03796" fill="#FBAB18"/>
<path fill-rule="evenodd" clip-rule="evenodd" d="M39.6516 17.6591C38.3564 17.6591 37.3062 18.707 37.3062 19.9999C37.3062 24.473 33.7377 28.1275 29.2927 28.2832C30.4642 28.4283 31.3714 29.4234 31.3714 30.6317C31.3714 31.7992 30.5242 32.7672 29.4104 32.9621C36.3875 32.7437 41.9971 27.0152 41.9971 19.9999C41.9971 18.707 40.9469 17.6591 39.6516 17.6591" fill="#005073"/>
<path fill-rule="evenodd" clip-rule="evenodd" d="M22.9377 14.3385C22.5075 14.679 21.987 14.8506 21.4657 14.8506C20.8582 14.8506 20.2509 14.6193 19.7877 14.1568C18.9708 13.3418 18.875 12.0806 19.4981 11.1594C17.3302 13.4781 16 16.586 16 20C16 23.4139 17.3305 26.5221 19.4987 28.8411C18.875 27.9198 18.9705 26.6582 19.7877 25.8429C20.6491 24.9835 22.0064 24.9241 22.9374 25.6611C21.5459 24.178 20.6913 22.1873 20.6913 20C20.6913 17.8124 21.5459 15.8216 22.9377 14.3385" fill="#FF3D67"/>
<path fill-rule="evenodd" clip-rule="evenodd" d="M28.9987 33C25.5191 33 22.2479 31.6477 19.7877 29.1922C18.8611 28.2672 18.8611 26.7677 19.7877 25.8429C20.7149 24.9178 22.2178 24.9184 23.1438 25.8429C24.7078 27.4037 26.787 28.2631 28.9987 28.2631C30.3095 28.2631 31.3715 29.3236 31.3715 30.6318C31.3715 31.9395 30.3095 33 28.9987 33" fill="#00BCEB"/>
</svg>
