
<svg xmlns="http://www.w3.org/2000/svg" version="1.1" xmlns:xlink="http://www.w3.org/1999/xlink" preserveAspectRatio="none" x="0px" y="0px" width="26px" height="26px" viewBox="0 0 26 26">
<defs>
<g id="Layer1_0_FILL">
<path fill="#292929" stroke="none" d="
M 8.95 19.05
Q 6.25 22.4 4.95 23.6 2.45 25.95 0.2 26
L 26 26
Q 23.85 25.95 21.2 23.6 19.6 22.1 17.2 19.05 15.5 16.9 14.6 16 13.8 15.3 13.6 15.2 13.3 15 13.1 15 12.85 15 12.55 15.2 12.15 15.4 11.55 16.05 10.7 16.85 8.95 19.05 Z"/>

<path fill="#3B3B3B" stroke="none" d="
M 4.95 23.6
Q 6.25 22.4 8.95 19.05 10.7 16.85 11.55 16.05 12.15 15.4 12.55 15.2 12.85 15 13.1 15 13.3 15 13.6 15.2 13.8 15.3 14.6 16 15.5 16.9 17.2 19.05 19.6 22.1 21.2 23.6 23.85 25.95 26 26
L 26 25
Q 24.15 24.9 21.85 22.85 20.3 21.4 17.95 18.4 16.25 16.2 15.3 15.3 15.25 15.3 15.25 15.25 14.45 14.55 14.15 14.35 13.55 13.95 13.1 14 12.6 13.95 12 14.35 11.55 14.6 10.85 15.3 10.85 15.35 10.8 15.35 9.95 16.2 8.15 18.4 5.55 21.7 4.25 22.85 2 24.95 0.05 25
L 0 25 0 26 0.2 26
Q 2.45 25.95 4.95 23.6 Z"/>

<path fill="#262626" stroke="none" d="
M 26 24
Q 24.55 23.95 22.55 22.1 21.25 20.9 18.75 17.8 16.5 15.05 16 14.6 15.45 14 14.65 13.5 13.9 13 13.1 13 12.25 13 11.5 13.5 11.05 13.8 10.15 14.6 9.55 15.2 7.4 17.8 5.05 20.7 3.6 22.1 1.55 24 0.05 24
L 0 24 0 25 0.05 25
Q 2 24.95 4.25 22.85 5.55 21.7 8.15 18.4 9.95 16.2 10.8 15.35 10.85 15.35 10.85 15.3 11.55 14.6 12 14.35 12.6 13.95 13.1 14 13.55 13.95 14.15 14.35 14.45 14.55 15.25 15.25 15.25 15.3 15.3 15.3 16.25 16.2 17.95 18.4 20.3 21.4 21.85 22.85 24.15 24.9 26 25
L 26 24 Z"/>
</g>
</defs>

<g transform="matrix( 1, 0, 0, 1, 0,0) ">
<use xlink:href="#Layer1_0_FILL"/>
</g>
</svg>
