
<svg width="116px" height="18px" viewBox="0 0 116 18" version="1.1" xmlns="http://www.w3.org/2000/svg" xmlns:xlink="http://www.w3.org/1999/xlink">
    <!-- Generator: Sketch 48.2 (47327) - http://www.bohemiancoding.com/sketch -->
    <desc>Created with Sketch.</desc>
    <defs></defs>
    <g id="Video-Centric" stroke="none" stroke-width="1" fill="none" fill-rule="evenodd">
        <g id="sound-wave" fill="#FFFFFF">
            <rect id="Rectangle-211" x="15" y="3" width="2" height="12" rx="1"></rect>
            <rect id="Rectangle-211" x="10" y="6" width="2" height="6" rx="1"></rect>
            <rect id="Rectangle-211" x="20" y="0" width="2" height="18" rx="1"></rect>
            <rect id="Rectangle-211" x="25" y="1" width="2" height="16" rx="1"></rect>
            <rect id="Rectangle-211" x="30" y="3" width="2" height="12" rx="1"></rect>
            <rect id="Rectangle-211" x="35" y="5" width="2" height="8" rx="1"></rect>
            <rect id="Rectangle-211" x="40" y="7" width="2" height="4" rx="1"></rect>
            <rect id="Rectangle-211" x="45" y="4" width="2" height="10" rx="1"></rect>
            <rect id="Rectangle-211" x="50" y="6" width="2" height="6" rx="1"></rect>
            <rect id="Rectangle-211" x="55" y="8" width="2" height="3" rx="1"></rect>
            <rect id="Rectangle-211" x="60" y="6" width="2" height="6" rx="1"></rect>
            <rect id="Rectangle-211" x="65" y="4" width="2" height="10" rx="1"></rect>
            <rect id="Rectangle-211" x="70" y="0" width="2" height="18" rx="1"></rect>
            <rect id="Rectangle-211" x="75" y="2" width="2" height="14" rx="1"></rect>
            <rect id="Rectangle-211" x="80" y="6" width="2" height="6" rx="1"></rect>
            <rect id="Rectangle-211" x="85" y="3" width="2" height="12" rx="1"></rect>
            <rect id="Rectangle-211" x="90" y="4" width="2" height="10" rx="1"></rect>
            <rect id="Rectangle-211" x="95" y="2" width="2" height="14" rx="1"></rect>
            <rect id="Rectangle-211" x="100" y="3" width="2" height="12" rx="1"></rect>
            <rect id="Rectangle-211" x="5" y="8" width="2" height="2" rx="1"></rect>
            <rect id="Rectangle-211" x="0" y="8" width="2" height="2" rx="1"></rect>
            <rect id="Rectangle-211" x="114" y="8" width="2" height="2" rx="1"></rect>
            <rect id="Rectangle-211" x="109" y="8" width="2" height="2" rx="1"></rect>
            <rect id="Rectangle-211" x="104" y="6" width="2" height="6" rx="1"></rect>
        </g>
    </g>
</svg>