
<svg width="32px" height="32px" viewBox="0 0 32 32" version="1.1" xmlns="http://www.w3.org/2000/svg" xmlns:xlink="http://www.w3.org/1999/xlink">
    <defs>
        <polygon id="path-1" points="16 0 32 0 32 16 16 16"></polygon>
    </defs>
    <g id="Page-1" stroke="none" stroke-width="1" fill="none" fill-rule="evenodd">
        <g id="Join-from-browser-Copy" transform="translate(-667.000000, -367.000000)">
            <g id="browser/chrome_win" transform="translate(38.000000, 0.000000)">
                <g id="content" transform="translate(6.000000, 61.000000)">
                    <g id="animated/spinner_32" transform="translate(623.000000, 306.000000)">
                        <g id="spinner_32">
                            <path d="M16,31 C24.284129,31 31,24.284129 31,16 C31,7.71587096 24.284129,1 16,1 C7.71587096,1 1,7.71587096 1,16 C1,24.284129 7.71587096,31 16,31 Z M16,32 C7.16358621,32 0,24.8364138 0,16 C0,7.16358621 7.16358621,0 16,0 C24.8364138,0 32,7.16358621 32,16 C32,24.8364138 24.8364138,32 16,32 Z" id="4/4" fill-opacity="0.12" fill="#000000" fill-rule="nonzero"></path>
                            <mask id="mask-2" fill="white">
                                <use xlink:href="#path-1"></use>
                            </mask>
                            <g id="mask"></g>
                            <path d="M16,31 C24.284129,31 31,24.284129 31,16 C31,7.71587096 24.284129,1 16,1 C7.71587096,1 1,7.71587096 1,16 C1,24.284129 7.71587096,31 16,31 Z M16,32 C7.16358621,32 0,24.8364138 0,16 C0,7.16358621 7.16358621,0 16,0 C24.8364138,0 32,7.16358621 32,16 C32,24.8364138 24.8364138,32 16,32 Z" id="1/4" fill-opacity="0.82" fill="#000000" fill-rule="nonzero" mask="url(#mask-2)"></path>
                        </g>
                    </g>
                </g>
            </g>
        </g>
    </g>
</svg>