<svg width="10px" height="6px" viewBox="0 0 10 6" version="1.1" xmlns="http://www.w3.org/2000/svg" xmlns:xlink="http://www.w3.org/1999/xlink">
    <!-- Generator: Sketch 48.2 (47327) - http://www.bohemiancoding.com/sketch -->
    <desc>Created with Sketch.</desc>
    <defs></defs>
    <g id="Video-Centric" stroke="none" stroke-width="1" fill="none" fill-rule="evenodd">
        <g id="2.1" transform="translate(-883.000000, -116.000000)" fill="#000000">
            <g id="App" transform="translate(171.000000, 44.000000)">
                <g id="right-panel" transform="translate(703.000000, 61.000000)">
                    <g id="plist">
                        <g id="header">
                            <g id="arrow-down_12" transform="translate(8.000000, 7.000000)">
                                <g id="icon" transform="translate(6.000000, 7.000000) scale(1, -1) rotate(90.000000) translate(-6.000000, -7.000000) translate(3.000000, 2.000000)">
                                    <path d="M0.500412819,10 C0.363423102,10 0.22743331,9.94399834 0.128440741,9.83499512 C-0.0565453736,9.62898902 -0.0395466495,9.31297966 0.165437964,9.12797419 L4.75209367,4.99985199 L0.165437964,0.871729791 C-0.0395466495,0.686724314 -0.0565453736,0.37071496 0.128440741,0.164708862 C0.313426855,-0.0392971771 0.629403137,-0.0562976803 0.83438775,0.127707766 L5.83401246,4.62784098 C5.9400045,4.72384382 6,4.85784779 6,4.99985199 C6,5.14185619 5.9400045,5.27586016 5.83401246,5.371863 L0.83438775,9.87199621 C0.73939488,9.95799876 0.619403887,10 0.500412819,10" id="fill" transform="translate(3.000000, 5.000000) scale(-1, 1) translate(-3.000000, -5.000000) "></path>
                                </g>
                            </g>
                        </g>
                    </g>
                </g>
            </g>
        </g>
    </g>
</svg>