
<svg width="15px" height="16px" viewBox="0 0 15 16" version="1.1" xmlns="http://www.w3.org/2000/svg" xmlns:xlink="http://www.w3.org/1999/xlink">
    <g stroke="none" fill="#FFFFFF" fill-rule="evenodd">
        <path d="M2.8535,5.853 C2.6585,6.048 2.3415,6.048 2.1465,5.853 C1.9515,5.658 1.9515,5.341 2.1465,5.146 L7.1455,0.147 C7.1925,0.1 7.2475,0.063 7.3095,0.038 C7.4315,-0.013 7.5685,-0.013 7.6905,0.038 C7.7525,0.063 7.8075,0.1 7.8545,0.147 L12.8535,5.146 C13.0485,5.341 13.0485,5.658 12.8535,5.853 C12.7555,5.951 12.6275,5.999 12.4995,5.999 C12.3725,5.999 12.2445,5.951 12.1465,5.853 L7.9995,1.707 L7.9995,12.444 C7.9995,12.72 7.7765,12.944 7.4995,12.944 C7.2235,12.944 6.9995,12.72 6.9995,12.444 L6.9995,1.707 L2.8535,5.853 Z M14.5,14.9995 C14.776,14.9995 15,15.2235 15,15.4995 C15,15.7755 14.776,15.9995 14.5,15.9995 L0.5,15.9995 C0.224,15.9995 0,15.7755 0,15.4995 C0,15.2235 0.224,14.9995 0.5,14.9995 L14.5,14.9995 Z" ></path>
    </g>
</svg>