
<svg width="12px" height="12px" viewBox="0 0 12 12" version="1.1" xmlns="http://www.w3.org/2000/svg" xmlns:xlink="http://www.w3.org/1999/xlink">
    <g id="In-Meeting-Layout" stroke="none" stroke-width="1" fill="none" fill-rule="evenodd">
        <g id="Webex-Meetings-Copy-21" transform="translate(-451.000000, -696.000000)" fill="#292929">
            <g id="App">
                <g id="video-strip" transform="translate(248.000000, 620.000000)">
                    <g id="attendee" transform="translate(195.000000, 1.000000)">
                        <g id="name-label" transform="translate(0.000000, 72.000000)">
                            <g id="handset_12" transform="translate(6.000000, 2.000000)">
                                <g id="icon" transform="translate(2.000000, 1.000000)">
                                    <path d="M1.4738,1 C1.3268,1 1.1888,1.067 1.0988,1.184 C1.0468,1.25 0.9668,1.391 1.0148,1.58 C1.4778,3.405 2.8018,5.51 4.6458,7.354 C6.4908,9.198 8.5948,10.522 10.4198,10.986 C10.6098,11.033 10.7488,10.954 10.8168,10.902 C10.9328,10.811 10.9998,10.674 10.9998,10.526 L10.9998,9.257 C10.9998,8.939 10.8118,8.653 10.5208,8.528 L9.4058,8.048 C9.1018,7.917 8.7578,7.928 8.4638,8.076 L7.8288,8.393 C7.4278,8.594 6.9428,8.539 6.5938,8.258 C5.4928,7.374 4.4468,6.335 3.7258,5.408 C3.4528,5.057 3.4048,4.577 3.6008,4.183 L3.9248,3.536 C4.0728,3.241 4.0818,2.898 3.9518,2.595 L3.4728,1.48 C3.3478,1.188 3.0608,1 2.7438,1 L1.4738,1 Z M10.5358,12 C10.4148,12 10.2938,11.985 10.1738,11.955 C8.1798,11.448 5.9068,10.029 3.9388,8.061 C1.9708,6.093 0.5518,3.82 0.0458,1.826 C-0.0662,1.387 0.0298,0.929 0.3088,0.57 C0.5908,0.208 1.0158,0 1.4738,0 L2.7438,0 C3.4608,0 4.1078,0.426 4.3908,1.085 L4.8708,2.201 C5.1178,2.774 5.0988,3.424 4.8198,3.983 L4.4958,4.63 C4.4698,4.682 4.4768,4.745 4.5158,4.794 C5.1808,5.649 6.1918,6.653 7.2198,7.479 C7.2688,7.517 7.3298,7.524 7.3818,7.499 L8.0168,7.181 C8.5768,6.903 9.2258,6.882 9.7998,7.129 L10.9148,7.609 C11.5748,7.893 11.9998,8.539 11.9998,9.257 L11.9998,10.526 C11.9998,10.985 11.7918,11.41 11.4308,11.691 C11.1688,11.894 10.8558,12 10.5358,12 L10.5358,12 Z" id="fill"></path>
                                </g>
                            </g>
                        </g>
                    </g>
                </g>
            </g>
        </g>
    </g>
</svg>