
<svg width="40px" height="40px" viewBox="0 0 40 40" version="1.1" xmlns="http://www.w3.org/2000/svg" xmlns:xlink="http://www.w3.org/1999/xlink">
    <g id="V2-flow" stroke="none" stroke-width="1" fill="none" fill-rule="evenodd">
        <g id="AV-main-flows" transform="translate(-3735.000000, -4063.000000)">
            <circle id="button-copy" fill="#2BC852" cx="3755" cy="4083" r="20"></circle>
            <g id="activities/handset_16_w" transform="translate(3746.000000, 4075.000000)" fill="#FFFFFF">
                <g id="handset_16_w" transform="translate(1.050000, 1.050000)">
                    <path d="M1.73446275,1.05 C1.52131275,1.05 1.32286275,1.1466 1.19161275,1.3146 C1.06456275,1.47945 1.02046275,1.6884 1.07086275,1.8879 C1.65046275,4.16955 3.30211275,6.7977 5.60371275,9.09825 C7.90321275,11.39775 10.5303128,13.0494 12.8119628,13.629 C13.0125128,13.67835 13.2214628,13.6353 13.3863128,13.5072 C13.5543128,13.377 13.6509128,13.1796 13.6509128,12.96645 L13.6509128,11.39145 C13.6509128,10.95885 13.3936628,10.5693 12.9978128,10.3992 L11.6139128,9.80385 C11.2128128,9.63165 10.7560628,9.64425 10.3654628,9.8406 L9.57796275,10.23435 C9.11386275,10.4643 8.55106275,10.40445 8.14681275,10.0779 C6.78706275,8.98695 5.49556275,7.7028 4.60306275,6.5562 C4.28911275,6.15195 4.23136275,5.59545 4.45921275,5.1387 L4.86136275,4.3344 C5.05666275,3.9438 5.07031275,3.48915 4.89706275,3.087 L4.30171275,1.7031 C4.13056275,1.3062 3.74101275,1.05 3.30946275,1.05 L1.73446275,1.05 Z M12.9778628,14.7 C12.8361128,14.7 12.6943628,14.68215 12.5536628,14.6475 C10.0935128,14.0217 7.29001275,12.2703 4.86136275,9.8406 C2.42956275,7.40985 0.67816275,4.60635 0.0534127501,2.1462 C-0.0778372499,1.63065 0.0355627501,1.09305 0.36316275,0.67095 C0.69496275,0.24465 1.19476275,0 1.73446275,0 L3.30946275,0 C4.16206275,0 4.92961275,0.5061 5.26561275,1.2894 L5.86096275,2.67225 C6.15706275,3.35895 6.13396275,4.13595 5.80006275,4.8048 L5.39791275,5.60805 C5.34961275,5.7057 5.36221275,5.8212 5.43151275,5.91045 C6.26311275,6.9804 7.52521275,8.232 8.80411275,9.2589 C8.89336275,9.33135 9.01096275,9.34395 9.10756275,9.2946 L9.89506275,8.90085 C10.5639128,8.568 11.3398628,8.5449 12.0286628,8.8389 L13.4115128,9.43425 C14.1948128,9.77025 14.7009128,10.53885 14.7009128,11.39145 L14.7009128,12.96645 C14.7009128,13.50615 14.4562628,14.0049 14.0310128,14.3367 C13.7233628,14.57505 13.3548128,14.7 12.9778628,14.7 L12.9778628,14.7 Z" id="fill"></path>
                </g>
            </g>
        </g>
    </g>
</svg>